<?xml version="1.0" encoding="UTF-8" standalone="no"?>
<svg width="194.028mm" height="125.236mm"
 viewBox="0 0 550 355"
 xmlns="http://www.w3.org/2000/svg" xmlns:xlink="http://www.w3.org/1999/xlink"  version="1.2" baseProfile="tiny">
<title>Qt SVG Document</title>
<desc>MATLAB, The MathWorks, Inc. Version 25.2.0.3042426 R2025b Update 1</desc>
<defs>
</defs>
<g fill="none" stroke="black" stroke-width="1" fill-rule="evenodd" stroke-linecap="square" stroke-linejoin="bevel" >

<g fill="#ffffff" fill-opacity="1" stroke="none" transform="matrix(0.72,0,0,0.72,0,0)"
font-family="Sans Serif" font-size="9" font-weight="400" font-style="normal" 
>
<path vector-effect="none" fill-rule="evenodd" d="M0,0 L764,0 L764,494 L0,494 L0,0"/>
</g>

<g fill="#ffffff" fill-opacity="1" stroke="none" transform="matrix(7.2e-05,0,0,7.2e-05,0,0)"
font-family="Sans Serif" font-size="9" font-weight="400" font-style="normal" 
>
<path vector-effect="none" fill-rule="evenodd" d="M3.4475e+06,370000 L3.4475e+06,4.39e+06 L4.4525e+06,4.39e+06 L4.4525e+06,370000 L3.4475e+06,370000"/>
</g>

<g fill="#212121" fill-opacity="1" stroke="none" transform="matrix(0.72,0,0,0.72,257.487,328.168)"
font-family="Sans Serif" font-size="9" font-weight="400" font-style="normal" 
>
<path vector-effect="none" fill-rule="evenodd" d="M0.578125,0 L0.578125,-0.640625 C1.65104,-0.640625 2.3125,-0.994792 2.5625,-1.70313 L6.34375,-12.6875 C6.375,-12.8229 6.46875,-12.8906 6.625,-12.8906 L6.85938,-12.8906 C7.01563,-12.8906 7.10938,-12.8229 7.14063,-12.6875 L11.0938,-1.20313 C11.2083,-0.953125 11.4219,-0.796875 11.7344,-0.734375 C12.0469,-0.671875 12.4375,-0.640625 12.9063,-0.640625 L12.9063,0 L7.89063,0 L7.89063,-0.640625 C8.88021,-0.640625 9.375,-0.796875 9.375,-1.10938 L9.375,-1.20313 L8.40625,-4.01563 L4.03125,-4.01563 L3.21875,-1.6875 C3.20833,-1.64583 3.20313,-1.58854 3.20313,-1.51563 C3.20313,-1.21354 3.34635,-0.992188 3.63281,-0.851563 C3.91927,-0.710938 4.22396,-0.640625 4.54688,-0.640625 L4.54688,0 L0.578125,0 M4.25,-4.64063 L8.1875,-4.64063 L6.21875,-10.3906 L4.25,-4.64063"/>
</g>

<g fill="#212121" fill-opacity="1" stroke="none" transform="matrix(0.72,0,0,0.72,267.387,328.168)"
font-family="Sans Serif" font-size="9" font-weight="400" font-style="normal" 
>
<path vector-effect="none" fill-rule="evenodd" d="M0.546875,0 L0.546875,-0.640625 C0.963542,-0.640625 1.30208,-0.671875 1.5625,-0.734375 C1.82292,-0.796875 1.95313,-0.953125 1.95313,-1.20313 L1.95313,-10.6563 C1.95313,-10.9792 1.90625,-11.2109 1.8125,-11.3516 C1.71875,-11.4922 1.58073,-11.5781 1.39844,-11.6094 C1.21615,-11.6406 0.932292,-11.6563 0.546875,-11.6563 L0.546875,-12.2969 L3.21875,-12.4844 L3.21875,-1.20313 C3.21875,-0.953125 3.35156,-0.796875 3.61719,-0.734375 C3.88281,-0.671875 4.21875,-0.640625 4.625,-0.640625 L4.625,0 L0.546875,0"/>
</g>

<g fill="#212121" fill-opacity="1" stroke="none" transform="matrix(0.72,0,0,0.72,271.053,328.168)"
font-family="Sans Serif" font-size="9" font-weight="400" font-style="normal" 
>
<path vector-effect="none" fill-rule="evenodd" d="M0.546875,0 L0.546875,-0.640625 C0.963542,-0.640625 1.30208,-0.671875 1.5625,-0.734375 C1.82292,-0.796875 1.95313,-0.953125 1.95313,-1.20313 L1.95313,-10.6563 C1.95313,-10.9792 1.90625,-11.2109 1.8125,-11.3516 C1.71875,-11.4922 1.58073,-11.5781 1.39844,-11.6094 C1.21615,-11.6406 0.932292,-11.6563 0.546875,-11.6563 L0.546875,-12.2969 L3.21875,-12.4844 L3.21875,-1.20313 C3.21875,-0.953125 3.35156,-0.796875 3.61719,-0.734375 C3.88281,-0.671875 4.21875,-0.640625 4.625,-0.640625 L4.625,0 L0.546875,0"/>
</g>

<g fill="#212121" fill-opacity="1" stroke="none" transform="matrix(0.72,0,0,0.72,279.12,328.168)"
font-family="Sans Serif" font-size="9" font-weight="400" font-style="normal" 
>
<path vector-effect="none" fill-rule="evenodd" d="M0.546875,0 L0.546875,-0.640625 C1.78646,-0.640625 2.40625,-0.828125 2.40625,-1.20313 L2.40625,-11.0938 C2.40625,-11.4688 1.78646,-11.6563 0.546875,-11.6563 L0.546875,-12.2969 L10.4844,-12.2969 L10.9844,-8.17188 L10.4531,-8.17188 C10.3802,-8.93229 10.2734,-9.53125 10.1328,-9.96875 C9.99219,-10.4063 9.78906,-10.7474 9.52344,-10.9922 C9.25781,-11.237 8.90625,-11.4089 8.46875,-11.5078 C8.03125,-11.6068 7.42188,-11.6563 6.64063,-11.6563 L5,-11.6563 C4.78125,-11.6563 4.61198,-11.6484 4.49219,-11.6328 C4.3724,-11.6172 4.27604,-11.5677 4.20313,-11.4844 C4.13021,-11.401 4.09375,-11.2708 4.09375,-11.0938 L4.09375,-6.45313 L5.35938,-6.45313 C5.97396,-6.45313 6.42448,-6.50781 6.71094,-6.61719 C6.9974,-6.72656 7.19531,-6.92448 7.30469,-7.21094 C7.41406,-7.4974 7.46875,-7.94792 7.46875,-8.5625 L7.98438,-8.5625 L7.98438,-3.73438 L7.46875,-3.73438 C7.46875,-4.33854 7.41406,-4.78385 7.30469,-5.07031 C7.19531,-5.35677 6.9974,-5.55469 6.71094,-5.66406 C6.42448,-5.77344 5.97396,-5.82813 5.35938,-5.82813 L4.09375,-5.82813 L4.09375,-1.20313 C4.09375,-0.817708 4.85938,-0.625 6.39063,-0.625 L6.39063,0 L0.546875,0"/>
</g>

<g fill="#212121" fill-opacity="1" stroke="none" transform="matrix(0.72,0,0,0.72,287.737,328.168)"
font-family="Sans Serif" font-size="9" font-weight="400" font-style="normal" 
>
<path vector-effect="none" fill-rule="evenodd" d="M0.546875,0 L0.546875,-0.640625 C0.963542,-0.640625 1.30208,-0.671875 1.5625,-0.734375 C1.82292,-0.796875 1.95313,-0.953125 1.95313,-1.20313 L1.95313,-10.6563 C1.95313,-10.9792 1.90625,-11.2109 1.8125,-11.3516 C1.71875,-11.4922 1.58073,-11.5781 1.39844,-11.6094 C1.21615,-11.6406 0.932292,-11.6563 0.546875,-11.6563 L0.546875,-12.2969 L3.21875,-12.4844 L3.21875,-1.20313 C3.21875,-0.953125 3.35156,-0.796875 3.61719,-0.734375 C3.88281,-0.671875 4.21875,-0.640625 4.625,-0.640625 L4.625,0 L0.546875,0"/>
</g>

<g fill="#212121" fill-opacity="1" stroke="none" transform="matrix(0.72,0,0,0.72,291.403,328.168)"
font-family="Sans Serif" font-size="9" font-weight="400" font-style="normal" 
>
<path vector-effect="none" fill-rule="evenodd" d="M0.546875,0 L0.546875,-0.640625 C0.963542,-0.640625 1.30208,-0.671875 1.5625,-0.734375 C1.82292,-0.796875 1.95313,-0.953125 1.95313,-1.20313 L1.95313,-6.125 C1.95313,-6.58333 1.86458,-6.86458 1.6875,-6.96875 C1.51042,-7.07292 1.16146,-7.125 0.640625,-7.125 L0.640625,-7.76563 L3.21875,-7.95313 L3.21875,-1.20313 C3.21875,-0.953125 3.33333,-0.796875 3.5625,-0.734375 C3.79167,-0.671875 4.09896,-0.640625 4.48438,-0.640625 L4.48438,0 L0.546875,0 M1.3125,-11.0469 C1.3125,-11.3073 1.41406,-11.5391 1.61719,-11.7422 C1.82031,-11.9453 2.04688,-12.0469 2.29688,-12.0469 C2.47396,-12.0469 2.64063,-12.0026 2.79688,-11.9141 C2.95313,-11.8255 3.07552,-11.7005 3.16406,-11.5391 C3.2526,-11.3776 3.29688,-11.2135 3.29688,-11.0469 C3.29688,-10.7865 3.19792,-10.5573 3,-10.3594 C2.80208,-10.1615 2.56771,-10.0625 2.29688,-10.0625 C2.04688,-10.0625 1.82031,-10.1615 1.61719,-10.3594 C1.41406,-10.5573 1.3125,-10.7865 1.3125,-11.0469 "/>
</g>

<g fill="#212121" fill-opacity="1" stroke="none" transform="matrix(0.72,0,0,0.72,295.07,328.168)"
font-family="Sans Serif" font-size="9" font-weight="400" font-style="normal" 
>
<path vector-effect="none" fill-rule="evenodd" d="M4.48438,0.203125 C3.75521,0.203125 3.08333,0.0104167 2.46875,-0.375 C1.85417,-0.760417 1.3724,-1.27344 1.02344,-1.91406 C0.674479,-2.55469 0.5,-3.23438 0.5,-3.95313 C0.5,-4.65104 0.658854,-5.31771 0.976563,-5.95313 C1.29427,-6.58854 1.73958,-7.09896 2.3125,-7.48438 C2.88542,-7.86979 3.52604,-8.0625 4.23438,-8.0625 C4.77604,-8.0625 5.2526,-7.97135 5.66406,-7.78906 C6.07552,-7.60677 6.41146,-7.35156 6.67188,-7.02344 C6.93229,-6.69531 7.13021,-6.30729 7.26563,-5.85938 C7.40104,-5.41146 7.46875,-4.92188 7.46875,-4.39063 C7.46875,-4.23438 7.40625,-4.15625 7.28125,-4.15625 L2.07813,-4.15625 L2.07813,-3.96875 C2.07813,-2.96875 2.27865,-2.11198 2.67969,-1.39844 C3.08073,-0.684896 3.73438,-0.328125 4.64063,-0.328125 C5.00521,-0.328125 5.34635,-0.411458 5.66406,-0.578125 C5.98177,-0.744792 6.25521,-0.973958 6.48438,-1.26563 C6.71354,-1.55729 6.86979,-1.86979 6.95313,-2.20313 C6.96354,-2.24479 6.98438,-2.28125 7.01563,-2.3125 C7.04688,-2.34375 7.08333,-2.35938 7.125,-2.35938 L7.28125,-2.35938 C7.40625,-2.35938 7.46875,-2.28125 7.46875,-2.125 C7.30208,-1.44792 6.9375,-0.890625 6.375,-0.453125 C5.8125,-0.015625 5.18229,0.203125 4.48438,0.203125 M2.09375,-4.60938 L6.20313,-4.60938 C6.20313,-5.05729 6.13802,-5.51302 6.00781,-5.97656 C5.8776,-6.4401 5.66667,-6.82292 5.375,-7.125 C5.08333,-7.42708 4.70313,-7.57813 4.23438,-7.57813 C3.54688,-7.57813 3.01823,-7.26302 2.64844,-6.63281 C2.27865,-6.0026 2.09375,-5.32813 2.09375,-4.60938 "/>
</g>

<g fill="#212121" fill-opacity="1" stroke="none" transform="matrix(0.72,0,0,0.72,300.937,328.168)"
font-family="Sans Serif" font-size="9" font-weight="400" font-style="normal" 
>
<path vector-effect="none" fill-rule="evenodd" d="M0.46875,0 L0.46875,-0.640625 C0.875,-0.640625 1.21094,-0.671875 1.47656,-0.734375 C1.74219,-0.796875 1.875,-0.953125 1.875,-1.20313 L1.875,-6.125 C1.875,-6.4375 1.82552,-6.66667 1.72656,-6.8125 C1.6276,-6.95833 1.48698,-7.04688 1.30469,-7.07813 C1.1224,-7.10938 0.84375,-7.125 0.46875,-7.125 L0.46875,-7.76563 L3.04688,-7.95313 L3.04688,-6.20313 C3.23438,-6.72396 3.50781,-7.14583 3.86719,-7.46875 C4.22656,-7.79167 4.66146,-7.95313 5.17188,-7.95313 C5.52604,-7.95313 5.84375,-7.84896 6.125,-7.64063 C6.40625,-7.43229 6.54688,-7.15104 6.54688,-6.79688 C6.54688,-6.58854 6.46875,-6.40365 6.3125,-6.24219 C6.15625,-6.08073 5.96354,-6 5.73438,-6 C5.51563,-6 5.32813,-6.07813 5.17188,-6.23438 C5.01563,-6.39063 4.9375,-6.57813 4.9375,-6.79688 C4.9375,-7.11979 5.05208,-7.34896 5.28125,-7.48438 L5.17188,-7.48438 C4.68229,-7.48438 4.28385,-7.3099 3.97656,-6.96094 C3.66927,-6.61198 3.45052,-6.17708 3.32031,-5.65625 C3.1901,-5.13542 3.125,-4.63542 3.125,-4.15625 L3.125,-1.20313 C3.125,-0.828125 3.70833,-0.640625 4.875,-0.640625 L4.875,0 L0.46875,0"/>
</g>

<g fill="#212121" fill-opacity="1" stroke="none" transform="matrix(0.72,0,0,0.72,306.107,328.168)"
font-family="Sans Serif" font-size="9" font-weight="400" font-style="normal" 
>
<path vector-effect="none" fill-rule="evenodd" d="M0.59375,0.046875 L0.59375,-2.89063 C0.59375,-2.98438 0.645833,-3.03125 0.75,-3.03125 L0.96875,-3.03125 C1.04167,-3.03125 1.08854,-2.98438 1.10938,-2.89063 C1.45313,-1.15104 2.26563,-0.28125 3.54688,-0.28125 C4.10938,-0.28125 4.58333,-0.411458 4.96875,-0.671875 C5.35417,-0.932292 5.54688,-1.32813 5.54688,-1.85938 C5.54688,-2.24479 5.39844,-2.57552 5.10156,-2.85156 C4.80469,-3.1276 4.44792,-3.3125 4.03125,-3.40625 L2.82813,-3.64063 C2.42188,-3.73438 2.05469,-3.8724 1.72656,-4.05469 C1.39844,-4.23698 1.1276,-4.47656 0.914063,-4.77344 C0.700521,-5.07031 0.59375,-5.42188 0.59375,-5.82813 C0.59375,-6.34896 0.734375,-6.77865 1.01563,-7.11719 C1.29688,-7.45573 1.65885,-7.69792 2.10156,-7.84375 C2.54427,-7.98958 3.02604,-8.0625 3.54688,-8.0625 C4.16146,-8.0625 4.69792,-7.90104 5.15625,-7.57813 L5.67188,-8.03125 C5.67188,-8.05208 5.69792,-8.0625 5.75,-8.0625 L5.89063,-8.0625 C5.92188,-8.0625 5.95313,-8.04688 5.98438,-8.01563 C6.01563,-7.98438 6.03125,-7.95313 6.03125,-7.92188 L6.03125,-5.57813 C6.03125,-5.46354 5.98438,-5.40625 5.89063,-5.40625 L5.67188,-5.40625 C5.56771,-5.40625 5.51563,-5.46354 5.51563,-5.57813 C5.51563,-6.20313 5.34115,-6.70573 4.99219,-7.08594 C4.64323,-7.46615 4.15625,-7.65625 3.53125,-7.65625 C2.98958,-7.65625 2.52083,-7.55729 2.125,-7.35938 C1.72917,-7.16146 1.53125,-6.81771 1.53125,-6.32813 C1.53125,-5.99479 1.67188,-5.72135 1.95313,-5.50781 C2.23438,-5.29427 2.56771,-5.14063 2.95313,-5.04688 L4.17188,-4.8125 C4.58854,-4.71875 4.97396,-4.5599 5.32813,-4.33594 C5.68229,-4.11198 5.96354,-3.83073 6.17188,-3.49219 C6.38021,-3.15365 6.48438,-2.77083 6.48438,-2.34375 C6.48438,-1.90625 6.40885,-1.52865 6.25781,-1.21094 C6.10677,-0.893229 5.89844,-0.627604 5.63281,-0.414063 C5.36719,-0.200521 5.05208,-0.0442708 4.6875,0.0546875 C4.32292,0.153646 3.94271,0.203125 3.54688,0.203125 C2.79688,0.203125 2.15625,-0.0520833 1.625,-0.5625 L0.953125,0.15625 C0.953125,0.1875 0.921875,0.203125 0.859375,0.203125 L0.75,0.203125 C0.645833,0.203125 0.59375,0.151042 0.59375,0.046875 "/>
</g>

<g fill="#212121" fill-opacity="1" stroke="#212121" stroke-opacity="1" stroke-width="0.694444" stroke-linecap="square" stroke-linejoin="round" transform="matrix(0.72,0,0,0.72,0,0)"
font-family="Sans Serif" font-size="9" font-weight="400" font-style="normal" 
>
<polyline fill="none" vector-effect="none" points="344.75,439 445.25,439 " />
<polyline fill="none" vector-effect="none" points="344.75,439 344.75,434.98 " />
<polyline fill="none" vector-effect="none" points="395,439 395,434.98 " />
<polyline fill="none" vector-effect="none" points="445.25,439 445.25,434.98 " />
</g>

<g fill="#212121" fill-opacity="1" stroke="none" transform="matrix(0,-0.72,0.72,0,215.278,200.583)"
font-family="Sans Serif" font-size="9" font-weight="400" font-style="normal" 
>
<path vector-effect="none" fill-rule="evenodd" d="M0.640625,0 L0.640625,-0.640625 C1.86979,-0.640625 2.48438,-0.994792 2.48438,-1.70313 L2.48438,-11.0938 C2.48438,-11.4688 1.86979,-11.6563 0.640625,-11.6563 L0.640625,-12.2969 L4.03125,-12.2969 C4.17708,-12.2969 4.27604,-12.2292 4.32813,-12.0938 L8.25,-1.90625 L12.1719,-12.0938 C12.2135,-12.2292 12.3073,-12.2969 12.4531,-12.2969 L15.8594,-12.2969 L15.8594,-11.6563 C14.6198,-11.6563 14,-11.4688 14,-11.0938 L14,-1.20313 C14,-0.828125 14.6198,-0.640625 15.8594,-0.640625 L15.8594,0 L10.625,0 L10.625,-0.640625 C11.8542,-0.640625 12.4688,-0.828125 12.4688,-1.20313 L12.4688,-11.6875 L8.04688,-0.203125 C7.99479,-0.0677083 7.89583,0 7.75,0 C7.59375,0 7.48958,-0.0677083 7.4375,-0.203125 L3.0625,-11.5469 L3.0625,-1.70313 C3.0625,-0.994792 3.67708,-0.640625 4.90625,-0.640625 L4.90625,0 L0.640625,0"/>
</g>

<g fill="#212121" fill-opacity="1" stroke="none" transform="matrix(0,-0.72,0.72,0,215.278,188.483)"
font-family="Sans Serif" font-size="9" font-weight="400" font-style="normal" 
>
<path vector-effect="none" fill-rule="evenodd" d="M0.71875,-1.76563 C0.71875,-2.48438 1,-3.06771 1.5625,-3.51563 C2.125,-3.96354 2.79948,-4.27865 3.58594,-4.46094 C4.3724,-4.64323 5.125,-4.73438 5.84375,-4.73438 L5.84375,-5.46875 C5.84375,-5.8125 5.76563,-6.14844 5.60938,-6.47656 C5.45313,-6.80469 5.23177,-7.07031 4.94531,-7.27344 C4.65885,-7.47656 4.34375,-7.57813 4,-7.57813 C3.19792,-7.57813 2.59375,-7.40104 2.1875,-7.04688 C2.40625,-7.04688 2.59115,-6.96094 2.74219,-6.78906 C2.89323,-6.61719 2.96875,-6.41667 2.96875,-6.1875 C2.96875,-5.94792 2.88542,-5.74479 2.71875,-5.57813 C2.55208,-5.41146 2.34896,-5.32813 2.10938,-5.32813 C1.86979,-5.32813 1.66406,-5.41406 1.49219,-5.58594 C1.32031,-5.75781 1.23438,-5.96354 1.23438,-6.20313 C1.23438,-6.82813 1.52344,-7.29427 2.10156,-7.60156 C2.67969,-7.90885 3.3125,-8.0625 4,-8.0625 C4.48958,-8.0625 4.97917,-7.95833 5.46875,-7.75 C5.95833,-7.54167 6.35938,-7.24479 6.67188,-6.85938 C6.98438,-6.47396 7.14063,-6.02604 7.14063,-5.51563 L7.14063,-1.46875 C7.14063,-1.22917 7.1901,-1.01302 7.28906,-0.820313 C7.38802,-0.627604 7.54688,-0.53125 7.76563,-0.53125 C7.96354,-0.53125 8.10938,-0.630208 8.20313,-0.828125 C8.29688,-1.02604 8.34375,-1.23438 8.34375,-1.45313 L8.34375,-2.60938 L8.875,-2.60938 L8.875,-1.45313 C8.875,-1.18229 8.80469,-0.927083 8.66406,-0.6875 C8.52344,-0.447917 8.33594,-0.255208 8.10156,-0.109375 C7.86719,0.0364583 7.60938,0.109375 7.32813,0.109375 C6.97396,0.109375 6.66927,-0.0286458 6.41406,-0.304688 C6.15885,-0.580729 6.02083,-0.90625 6,-1.28125 C5.77083,-0.833333 5.4401,-0.473958 5.00781,-0.203125 C4.57552,0.0677083 4.11458,0.203125 3.625,0.203125 C3.16667,0.203125 2.71615,0.135417 2.27344,0 C1.83073,-0.135417 1.46094,-0.348958 1.16406,-0.640625 C0.867188,-0.932292 0.71875,-1.30729 0.71875,-1.76563 M2.1875,-1.76563 C2.1875,-1.34896 2.34115,-0.997396 2.64844,-0.710938 C2.95573,-0.424479 3.32292,-0.28125 3.75,-0.28125 C4.13542,-0.28125 4.48698,-0.377604 4.80469,-0.570313 C5.1224,-0.763021 5.375,-1.02604 5.5625,-1.35938 C5.75,-1.69271 5.84375,-2.04167 5.84375,-2.40625 L5.84375,-4.26563 C5.29167,-4.26563 4.73177,-4.17708 4.16406,-4 C3.59635,-3.82292 3.125,-3.54427 2.75,-3.16406 C2.375,-2.78385 2.1875,-2.31771 2.1875,-1.76563 "/>
</g>

<g fill="#212121" fill-opacity="1" stroke="none" transform="matrix(0,-0.72,0.72,0,215.278,181.883)"
font-family="Sans Serif" font-size="9" font-weight="400" font-style="normal" 
>
<path vector-effect="none" fill-rule="evenodd" d="M0.59375,0.046875 L0.59375,-2.89063 C0.59375,-2.98438 0.645833,-3.03125 0.75,-3.03125 L0.96875,-3.03125 C1.04167,-3.03125 1.08854,-2.98438 1.10938,-2.89063 C1.45313,-1.15104 2.26563,-0.28125 3.54688,-0.28125 C4.10938,-0.28125 4.58333,-0.411458 4.96875,-0.671875 C5.35417,-0.932292 5.54688,-1.32813 5.54688,-1.85938 C5.54688,-2.24479 5.39844,-2.57552 5.10156,-2.85156 C4.80469,-3.1276 4.44792,-3.3125 4.03125,-3.40625 L2.82813,-3.64063 C2.42188,-3.73438 2.05469,-3.8724 1.72656,-4.05469 C1.39844,-4.23698 1.1276,-4.47656 0.914063,-4.77344 C0.700521,-5.07031 0.59375,-5.42188 0.59375,-5.82813 C0.59375,-6.34896 0.734375,-6.77865 1.01563,-7.11719 C1.29688,-7.45573 1.65885,-7.69792 2.10156,-7.84375 C2.54427,-7.98958 3.02604,-8.0625 3.54688,-8.0625 C4.16146,-8.0625 4.69792,-7.90104 5.15625,-7.57813 L5.67188,-8.03125 C5.67188,-8.05208 5.69792,-8.0625 5.75,-8.0625 L5.89063,-8.0625 C5.92188,-8.0625 5.95313,-8.04688 5.98438,-8.01563 C6.01563,-7.98438 6.03125,-7.95313 6.03125,-7.92188 L6.03125,-5.57813 C6.03125,-5.46354 5.98438,-5.40625 5.89063,-5.40625 L5.67188,-5.40625 C5.56771,-5.40625 5.51563,-5.46354 5.51563,-5.57813 C5.51563,-6.20313 5.34115,-6.70573 4.99219,-7.08594 C4.64323,-7.46615 4.15625,-7.65625 3.53125,-7.65625 C2.98958,-7.65625 2.52083,-7.55729 2.125,-7.35938 C1.72917,-7.16146 1.53125,-6.81771 1.53125,-6.32813 C1.53125,-5.99479 1.67188,-5.72135 1.95313,-5.50781 C2.23438,-5.29427 2.56771,-5.14063 2.95313,-5.04688 L4.17188,-4.8125 C4.58854,-4.71875 4.97396,-4.5599 5.32813,-4.33594 C5.68229,-4.11198 5.96354,-3.83073 6.17188,-3.49219 C6.38021,-3.15365 6.48438,-2.77083 6.48438,-2.34375 C6.48438,-1.90625 6.40885,-1.52865 6.25781,-1.21094 C6.10677,-0.893229 5.89844,-0.627604 5.63281,-0.414063 C5.36719,-0.200521 5.05208,-0.0442708 4.6875,0.0546875 C4.32292,0.153646 3.94271,0.203125 3.54688,0.203125 C2.79688,0.203125 2.15625,-0.0520833 1.625,-0.5625 L0.953125,0.15625 C0.953125,0.1875 0.921875,0.203125 0.859375,0.203125 L0.75,0.203125 C0.645833,0.203125 0.59375,0.151042 0.59375,0.046875 "/>
</g>

<g fill="#212121" fill-opacity="1" stroke="none" transform="matrix(0,-0.72,0.72,0,215.278,176.677)"
font-family="Sans Serif" font-size="9" font-weight="400" font-style="normal" 
>
<path vector-effect="none" fill-rule="evenodd" d="M0.59375,0.046875 L0.59375,-2.89063 C0.59375,-2.98438 0.645833,-3.03125 0.75,-3.03125 L0.96875,-3.03125 C1.04167,-3.03125 1.08854,-2.98438 1.10938,-2.89063 C1.45313,-1.15104 2.26563,-0.28125 3.54688,-0.28125 C4.10938,-0.28125 4.58333,-0.411458 4.96875,-0.671875 C5.35417,-0.932292 5.54688,-1.32813 5.54688,-1.85938 C5.54688,-2.24479 5.39844,-2.57552 5.10156,-2.85156 C4.80469,-3.1276 4.44792,-3.3125 4.03125,-3.40625 L2.82813,-3.64063 C2.42188,-3.73438 2.05469,-3.8724 1.72656,-4.05469 C1.39844,-4.23698 1.1276,-4.47656 0.914063,-4.77344 C0.700521,-5.07031 0.59375,-5.42188 0.59375,-5.82813 C0.59375,-6.34896 0.734375,-6.77865 1.01563,-7.11719 C1.29688,-7.45573 1.65885,-7.69792 2.10156,-7.84375 C2.54427,-7.98958 3.02604,-8.0625 3.54688,-8.0625 C4.16146,-8.0625 4.69792,-7.90104 5.15625,-7.57813 L5.67188,-8.03125 C5.67188,-8.05208 5.69792,-8.0625 5.75,-8.0625 L5.89063,-8.0625 C5.92188,-8.0625 5.95313,-8.04688 5.98438,-8.01563 C6.01563,-7.98438 6.03125,-7.95313 6.03125,-7.92188 L6.03125,-5.57813 C6.03125,-5.46354 5.98438,-5.40625 5.89063,-5.40625 L5.67188,-5.40625 C5.56771,-5.40625 5.51563,-5.46354 5.51563,-5.57813 C5.51563,-6.20313 5.34115,-6.70573 4.99219,-7.08594 C4.64323,-7.46615 4.15625,-7.65625 3.53125,-7.65625 C2.98958,-7.65625 2.52083,-7.55729 2.125,-7.35938 C1.72917,-7.16146 1.53125,-6.81771 1.53125,-6.32813 C1.53125,-5.99479 1.67188,-5.72135 1.95313,-5.50781 C2.23438,-5.29427 2.56771,-5.14063 2.95313,-5.04688 L4.17188,-4.8125 C4.58854,-4.71875 4.97396,-4.5599 5.32813,-4.33594 C5.68229,-4.11198 5.96354,-3.83073 6.17188,-3.49219 C6.38021,-3.15365 6.48438,-2.77083 6.48438,-2.34375 C6.48438,-1.90625 6.40885,-1.52865 6.25781,-1.21094 C6.10677,-0.893229 5.89844,-0.627604 5.63281,-0.414063 C5.36719,-0.200521 5.05208,-0.0442708 4.6875,0.0546875 C4.32292,0.153646 3.94271,0.203125 3.54688,0.203125 C2.79688,0.203125 2.15625,-0.0520833 1.625,-0.5625 L0.953125,0.15625 C0.953125,0.1875 0.921875,0.203125 0.859375,0.203125 L0.75,0.203125 C0.645833,0.203125 0.59375,0.151042 0.59375,0.046875 "/>
</g>

<g fill="#212121" fill-opacity="1" stroke="none" transform="matrix(0,-0.72,0.72,0,215.278,167.07)"
font-family="Sans Serif" font-size="9" font-weight="400" font-style="normal" 
>
<path vector-effect="none" fill-rule="evenodd" d="M2.125,4.5 L2.125,-13.5 L4.59375,-13.5 L4.59375,-12.7813 L2.84375,-12.7813 L2.84375,3.78125 L4.59375,3.78125 L4.59375,4.5 L2.125,4.5"/>
</g>

<g fill="#212121" fill-opacity="1" stroke="none" transform="matrix(0,-0.72,0.72,0,215.278,163.403)"
font-family="Sans Serif" font-size="9" font-weight="400" font-style="normal" 
>
<path vector-effect="none" fill-rule="evenodd" d="M0.53125,0 L0.53125,-0.640625 C0.947917,-0.640625 1.28646,-0.671875 1.54688,-0.734375 C1.80729,-0.796875 1.9375,-0.953125 1.9375,-1.20313 L1.9375,-6.125 C1.9375,-6.4375 1.89063,-6.66667 1.79688,-6.8125 C1.70313,-6.95833 1.5651,-7.04688 1.38281,-7.07813 C1.20052,-7.10938 0.916667,-7.125 0.53125,-7.125 L0.53125,-7.76563 L3.14063,-7.95313 L3.14063,-6.20313 C3.38021,-6.71354 3.73698,-7.13281 4.21094,-7.46094 C4.6849,-7.78906 5.19792,-7.95313 5.75,-7.95313 C7.13542,-7.95313 7.94792,-7.39063 8.1875,-6.26563 C8.42708,-6.76563 8.77865,-7.17188 9.24219,-7.48438 C9.70573,-7.79688 10.2135,-7.95313 10.7656,-7.95313 C11.3073,-7.95313 11.7656,-7.86458 12.1406,-7.6875 C12.5156,-7.51042 12.7969,-7.24219 12.9844,-6.88281 C13.1719,-6.52344 13.2656,-6.07292 13.2656,-5.53125 L13.2656,-1.20313 C13.2656,-0.953125 13.3984,-0.796875 13.6641,-0.734375 C13.9297,-0.671875 14.2656,-0.640625 14.6719,-0.640625 L14.6719,0 L10.5469,0 L10.5469,-0.640625 C10.9531,-0.640625 11.2891,-0.671875 11.5547,-0.734375 C11.8203,-0.796875 11.9531,-0.953125 11.9531,-1.20313 L11.9531,-5.46875 C11.9531,-6.07292 11.8672,-6.5599 11.6953,-6.92969 C11.5234,-7.29948 11.1771,-7.48438 10.6563,-7.48438 C9.95833,-7.48438 9.38542,-7.20573 8.9375,-6.64844 C8.48958,-6.09115 8.26563,-5.45833 8.26563,-4.75 L8.26563,-1.20313 C8.26563,-0.953125 8.39583,-0.796875 8.65625,-0.734375 C8.91667,-0.671875 9.25521,-0.640625 9.67188,-0.640625 L9.67188,0 L5.54688,0 L5.54688,-0.640625 C5.95313,-0.640625 6.28906,-0.671875 6.55469,-0.734375 C6.82031,-0.796875 6.95313,-0.953125 6.95313,-1.20313 L6.95313,-5.46875 C6.95313,-6.0625 6.86719,-6.54688 6.69531,-6.92188 C6.52344,-7.29688 6.17708,-7.48438 5.65625,-7.48438 C4.95833,-7.48438 4.38542,-7.20573 3.9375,-6.64844 C3.48958,-6.09115 3.26563,-5.45833 3.26563,-4.75 L3.26563,-1.20313 C3.26563,-0.953125 3.39583,-0.796875 3.65625,-0.734375 C3.91667,-0.671875 4.25,-0.640625 4.65625,-0.640625 L4.65625,0 L0.53125,0"/>
</g>

<g fill="#212121" fill-opacity="1" stroke="none" transform="matrix(0,-0.72,0.72,0,215.278,152.403)"
font-family="Sans Serif" font-size="9" font-weight="400" font-style="normal" 
>
<path vector-effect="none" fill-rule="evenodd" d="M0.5,1.40625 C0.5,0.979167 0.65625,0.606771 0.96875,0.289063 C1.28125,-0.0286458 1.65104,-0.255208 2.07813,-0.390625 C1.83854,-0.578125 1.65625,-0.809896 1.53125,-1.08594 C1.40625,-1.36198 1.34375,-1.65104 1.34375,-1.95313 C1.34375,-2.51563 1.52083,-3.01563 1.875,-3.45313 C1.32292,-3.99479 1.04688,-4.61458 1.04688,-5.3125 C1.04688,-5.6875 1.1276,-6.03906 1.28906,-6.36719 C1.45052,-6.69531 1.67448,-6.97917 1.96094,-7.21875 C2.2474,-7.45833 2.56771,-7.64063 2.92188,-7.76563 C3.27604,-7.89063 3.63542,-7.95313 4,-7.95313 C4.71875,-7.95313 5.35938,-7.74479 5.92188,-7.32813 C6.17188,-7.58854 6.46354,-7.79167 6.79688,-7.9375 C7.13021,-8.08333 7.47917,-8.15625 7.84375,-8.15625 C8.10417,-8.15625 8.31771,-8.0651 8.48438,-7.88281 C8.65104,-7.70052 8.73438,-7.47917 8.73438,-7.21875 C8.73438,-7.07292 8.67708,-6.94271 8.5625,-6.82813 C8.44792,-6.71354 8.31771,-6.65625 8.17188,-6.65625 C8.02604,-6.65625 7.89583,-6.71354 7.78125,-6.82813 C7.66667,-6.94271 7.60938,-7.07292 7.60938,-7.21875 C7.60938,-7.4375 7.68229,-7.59375 7.82813,-7.6875 C7.21354,-7.6875 6.68229,-7.47396 6.23438,-7.04688 C6.45313,-6.82813 6.6276,-6.5625 6.75781,-6.25 C6.88802,-5.9375 6.95313,-5.625 6.95313,-5.3125 C6.95313,-4.80208 6.8125,-4.34375 6.53125,-3.9375 C6.25,-3.53125 5.88021,-3.21354 5.42188,-2.98438 C4.96354,-2.75521 4.48958,-2.64063 4,-2.64063 C3.34375,-2.64063 2.74479,-2.82292 2.20313,-3.1875 C2.02604,-2.94792 1.9375,-2.68229 1.9375,-2.39063 C1.9375,-2.07813 2.04167,-1.80208 2.25,-1.5625 C2.45833,-1.32292 2.72396,-1.20313 3.04688,-1.20313 L4.51563,-1.20313 C5.23438,-1.20313 5.88021,-1.13802 6.45313,-1.00781 C7.02604,-0.877604 7.50781,-0.619792 7.89844,-0.234375 C8.28906,0.151042 8.48438,0.697917 8.48438,1.40625 C8.48438,1.9375 8.26042,2.3776 7.8125,2.72656 C7.36458,3.07552 6.83333,3.32552 6.21875,3.47656 C5.60417,3.6276 5.03125,3.70313 4.5,3.70313 C3.96875,3.70313 3.39323,3.6276 2.77344,3.47656 C2.15365,3.32552 1.61979,3.07552 1.17188,2.72656 C0.723958,2.3776 0.5,1.9375 0.5,1.40625 M1.51563,1.40625 C1.51563,1.8125 1.67969,2.15104 2.00781,2.42188 C2.33594,2.69271 2.73177,2.89323 3.19531,3.02344 C3.65885,3.15365 4.09375,3.21875 4.5,3.21875 C4.90625,3.21875 5.34115,3.15365 5.80469,3.02344 C6.26823,2.89323 6.66146,2.69271 6.98438,2.42188 C7.30729,2.15104 7.46875,1.8125 7.46875,1.40625 C7.46875,0.78125 7.18229,0.375 6.60938,0.1875 C6.03646,0 5.33854,-0.09375 4.51563,-0.09375 L3.04688,-0.09375 C2.76563,-0.09375 2.51042,-0.0260417 2.28125,0.109375 C2.05208,0.244792 1.86719,0.429688 1.72656,0.664063 C1.58594,0.898438 1.51563,1.14583 1.51563,1.40625 M4,-3.125 C5.02083,-3.125 5.53125,-3.85417 5.53125,-5.3125 C5.53125,-5.9375 5.42188,-6.45313 5.20313,-6.85938 C4.98438,-7.26563 4.58333,-7.46875 4,-7.46875 C3.41667,-7.46875 3.01563,-7.26563 2.79688,-6.85938 C2.57813,-6.45313 2.46875,-5.9375 2.46875,-5.3125 C2.46875,-4.91667 2.51042,-4.55729 2.59375,-4.23438 C2.67708,-3.91146 2.83073,-3.64583 3.05469,-3.4375 C3.27865,-3.22917 3.59375,-3.125 4,-3.125 "/>
</g>

<g fill="#212121" fill-opacity="1" stroke="none" transform="matrix(0,-0.72,0.72,0,215.278,145.803)"
font-family="Sans Serif" font-size="9" font-weight="400" font-style="normal" 
>
<path vector-effect="none" fill-rule="evenodd" d="M0.390625,4.5 L0.390625,3.78125 L2.14063,3.78125 L2.14063,-12.7813 L0.390625,-12.7813 L0.390625,-13.5 L2.85938,-13.5 L2.85938,4.5 L0.390625,4.5"/>
</g>

<g fill="#212121" fill-opacity="1" stroke="#212121" stroke-opacity="1" stroke-width="0.694444" stroke-linecap="square" stroke-linejoin="round" transform="matrix(0.72,0,0,0.72,0,0)"
font-family="Sans Serif" font-size="9" font-weight="400" font-style="normal" 
>
<polyline fill="none" vector-effect="none" points="344.75,439 344.75,37 " />
<polyline fill="none" vector-effect="none" points="344.75,439 348.77,439 " />
<polyline fill="none" vector-effect="none" points="344.75,388.75 348.77,388.75 " />
<polyline fill="none" vector-effect="none" points="344.75,338.5 348.77,338.5 " />
<polyline fill="none" vector-effect="none" points="344.75,288.25 348.77,288.25 " />
<polyline fill="none" vector-effect="none" points="344.75,238 348.77,238 " />
<polyline fill="none" vector-effect="none" points="344.75,187.75 348.77,187.75 " />
<polyline fill="none" vector-effect="none" points="344.75,137.5 348.77,137.5 " />
<polyline fill="none" vector-effect="none" points="344.75,87.25 348.77,87.25 " />
<polyline fill="none" vector-effect="none" points="344.75,37 348.77,37 " />
</g>

<g fill="#212121" fill-opacity="1" stroke="none" transform="matrix(0.72,0,0,0.72,231.82,318.96)"
font-family="Sans Serif" font-size="9" font-weight="400" font-style="normal" 
>
<path vector-effect="none" fill-rule="evenodd" d="M0.671875,-2.4375 C0.671875,-3.07292 0.882813,-3.63802 1.30469,-4.13281 C1.72656,-4.6276 2.27083,-5.03646 2.9375,-5.35938 L2.34375,-5.75 C1.97917,-5.98958 1.68229,-6.30729 1.45313,-6.70313 C1.22396,-7.09896 1.10938,-7.51563 1.10938,-7.95313 C1.10938,-8.46354 1.24219,-8.92448 1.50781,-9.33594 C1.77344,-9.7474 2.13021,-10.0703 2.57813,-10.3047 C3.02604,-10.5391 3.5,-10.6563 4,-10.6563 C4.47917,-10.6563 4.9375,-10.5599 5.375,-10.3672 C5.8125,-10.1745 6.17448,-9.89844 6.46094,-9.53906 C6.7474,-9.17969 6.89063,-8.75521 6.89063,-8.26563 C6.89063,-7.90104 6.80469,-7.5651 6.63281,-7.25781 C6.46094,-6.95052 6.22917,-6.67448 5.9375,-6.42969 C5.64583,-6.1849 5.33333,-5.97917 5,-5.8125 L5.90625,-5.21875 C6.33333,-4.94792 6.67448,-4.58854 6.92969,-4.14063 C7.1849,-3.69271 7.3125,-3.21875 7.3125,-2.71875 C7.3125,-2.14583 7.15885,-1.6224 6.85156,-1.14844 C6.54427,-0.674479 6.13542,-0.304688 5.625,-0.0390625 C5.11458,0.226563 4.57292,0.359375 4,0.359375 C3.44792,0.359375 2.91667,0.244792 2.40625,0.015625 C1.89583,-0.213542 1.47917,-0.539063 1.15625,-0.960938 C0.833333,-1.38281 0.671875,-1.875 0.671875,-2.4375 M1.54688,-2.4375 C1.54688,-2.01042 1.66146,-1.6224 1.89063,-1.27344 C2.11979,-0.924479 2.42448,-0.653646 2.80469,-0.460938 C3.1849,-0.268229 3.58333,-0.171875 4,-0.171875 C4.625,-0.171875 5.1901,-0.351563 5.69531,-0.710938 C6.20052,-1.07031 6.45313,-1.54688 6.45313,-2.14063 C6.45313,-2.34896 6.41146,-2.55208 6.32813,-2.75 C6.24479,-2.94792 6.13281,-3.13021 5.99219,-3.29688 C5.85156,-3.46354 5.69271,-3.59896 5.51563,-3.70313 L3.35938,-5.09375 C3.02604,-4.91667 2.72135,-4.69271 2.44531,-4.42188 C2.16927,-4.15104 1.95052,-3.84635 1.78906,-3.50781 C1.6276,-3.16927 1.54688,-2.8125 1.54688,-2.4375 M2.64063,-7.3125 L4.57813,-6.0625 C5.02604,-6.32292 5.39323,-6.63802 5.67969,-7.00781 C5.96615,-7.3776 6.10938,-7.79688 6.10938,-8.26563 C6.10938,-8.61979 6.01042,-8.94792 5.8125,-9.25 C5.61458,-9.55208 5.35417,-9.78646 5.03125,-9.95313 C4.70833,-10.1198 4.35938,-10.2031 3.98438,-10.2031 C3.66146,-10.2031 3.33594,-10.1406 3.00781,-10.0156 C2.67969,-9.89063 2.40885,-9.70313 2.19531,-9.45313 C1.98177,-9.20313 1.875,-8.91146 1.875,-8.57813 C1.875,-8.07813 2.13021,-7.65625 2.64063,-7.3125 "/>
</g>

<g fill="#212121" fill-opacity="1" stroke="none" transform="matrix(0.72,0,0,0.72,237.82,318.96)"
font-family="Sans Serif" font-size="9" font-weight="400" font-style="normal" 
>
<path vector-effect="none" fill-rule="evenodd" d="M1.39063,-1.82813 C1.50521,-1.51563 1.67448,-1.23177 1.89844,-0.976563 C2.1224,-0.721354 2.39063,-0.523438 2.70313,-0.382813 C3.01563,-0.242188 3.33854,-0.171875 3.67188,-0.171875 C4.44271,-0.171875 4.97396,-0.46875 5.26563,-1.0625 C5.55729,-1.65625 5.70313,-2.38021 5.70313,-3.23438 C5.70313,-3.60938 5.69531,-3.92188 5.67969,-4.17188 C5.66406,-4.42188 5.63021,-4.66667 5.57813,-4.90625 C5.47396,-5.28125 5.29948,-5.60938 5.05469,-5.89063 C4.8099,-6.17188 4.50521,-6.3125 4.14063,-6.3125 C3.78646,-6.3125 3.47917,-6.25781 3.21875,-6.14844 C2.95833,-6.03906 2.7474,-5.91146 2.58594,-5.76563 C2.42448,-5.61979 2.28125,-5.46615 2.15625,-5.30469 C2.03125,-5.14323 1.95313,-5.05729 1.92188,-5.04688 L1.75,-5.04688 C1.71875,-5.04688 1.6849,-5.0625 1.64844,-5.09375 C1.61198,-5.125 1.59375,-5.15625 1.59375,-5.1875 L1.59375,-10.5313 C1.59375,-10.5625 1.60938,-10.5911 1.64063,-10.6172 C1.67188,-10.6432 1.70833,-10.6563 1.75,-10.6563 L1.79688,-10.6563 C2.51563,-10.3125 3.27604,-10.1406 4.07813,-10.1406 C4.86979,-10.1406 5.63542,-10.3125 6.375,-10.6563 L6.42188,-10.6563 C6.45313,-10.6563 6.48438,-10.6432 6.51563,-10.6172 C6.54688,-10.5911 6.5625,-10.5625 6.5625,-10.5313 L6.5625,-10.3906 C6.5625,-10.3385 6.55208,-10.3125 6.53125,-10.3125 C6.16667,-9.82292 5.71094,-9.44271 5.16406,-9.17188 C4.61719,-8.90104 4.04688,-8.76563 3.45313,-8.76563 C3.02604,-8.76563 2.58854,-8.82813 2.14063,-8.95313 L2.14063,-5.92188 C2.49479,-6.21354 2.8125,-6.41927 3.09375,-6.53906 C3.375,-6.65885 3.72917,-6.71875 4.15625,-6.71875 C4.75,-6.71875 5.27865,-6.54948 5.74219,-6.21094 C6.20573,-5.8724 6.5625,-5.43229 6.8125,-4.89063 C7.0625,-4.34896 7.1875,-3.79167 7.1875,-3.21875 C7.1875,-2.58333 7.03125,-1.99219 6.71875,-1.44531 C6.40625,-0.898438 5.97917,-0.460938 5.4375,-0.132813 C4.89583,0.195313 4.30729,0.359375 3.67188,0.359375 C3.14063,0.359375 2.65625,0.221354 2.21875,-0.0546875 C1.78125,-0.330729 1.4349,-0.697917 1.17969,-1.15625 C0.924479,-1.61458 0.796875,-2.09896 0.796875,-2.60938 C0.796875,-2.84896 0.875,-3.04427 1.03125,-3.19531 C1.1875,-3.34635 1.38542,-3.42188 1.625,-3.42188 C1.85417,-3.42188 2.04948,-3.34635 2.21094,-3.19531 C2.3724,-3.04427 2.45313,-2.84896 2.45313,-2.60938 C2.45313,-2.38021 2.3724,-2.1875 2.21094,-2.03125 C2.04948,-1.875 1.85417,-1.79688 1.625,-1.79688 C1.58333,-1.79688 1.53906,-1.79948 1.49219,-1.80469 C1.44531,-1.8099 1.41146,-1.81771 1.39063,-1.82813 "/>
</g>

<g fill="#212121" fill-opacity="1" stroke="none" transform="matrix(0.72,0,0,0.72,231.82,282.78)"
font-family="Sans Serif" font-size="9" font-weight="400" font-style="normal" 
>
<path vector-effect="none" fill-rule="evenodd" d="M1.8125,-0.671875 C2.10417,-0.338542 2.60938,-0.171875 3.32813,-0.171875 C3.73438,-0.171875 4.11458,-0.307292 4.46875,-0.578125 C4.82292,-0.848958 5.09375,-1.1875 5.28125,-1.59375 C5.51042,-2.04167 5.65625,-2.52344 5.71875,-3.03906 C5.78125,-3.55469 5.8125,-4.19271 5.8125,-4.95313 C5.625,-4.51563 5.36198,-4.15885 5.02344,-3.88281 C4.6849,-3.60677 4.29167,-3.46875 3.84375,-3.46875 C3.22917,-3.46875 2.67708,-3.63542 2.1875,-3.96875 C1.69792,-4.30208 1.32292,-4.74479 1.0625,-5.29688 C0.802083,-5.84896 0.671875,-6.43229 0.671875,-7.04688 C0.671875,-7.69271 0.817708,-8.29167 1.10938,-8.84375 C1.40104,-9.39583 1.80469,-9.83594 2.32031,-10.1641 C2.83594,-10.4922 3.42188,-10.6563 4.07813,-10.6563 C4.72396,-10.6563 5.26563,-10.4818 5.70313,-10.1328 C6.14063,-9.78385 6.47396,-9.33073 6.70313,-8.77344 C6.93229,-8.21615 7.09115,-7.6276 7.17969,-7.00781 C7.26823,-6.38802 7.3125,-5.77604 7.3125,-5.17188 C7.3125,-4.34896 7.16146,-3.51042 6.85938,-2.65625 C6.55729,-1.80208 6.10677,-1.08594 5.50781,-0.507813 C4.90885,0.0703125 4.18229,0.359375 3.32813,0.359375 C2.70313,0.359375 2.17188,0.210938 1.73438,-0.0859375 C1.29688,-0.382813 1.07813,-0.833333 1.07813,-1.4375 C1.07813,-1.65625 1.15104,-1.83854 1.29688,-1.98438 C1.44271,-2.13021 1.625,-2.20313 1.84375,-2.20313 C2.0625,-2.20313 2.24479,-2.13021 2.39063,-1.98438 C2.53646,-1.83854 2.60938,-1.65625 2.60938,-1.4375 C2.60938,-1.22917 2.53385,-1.04948 2.38281,-0.898438 C2.23177,-0.747396 2.05208,-0.671875 1.84375,-0.671875 L1.8125,-0.671875 M3.90625,-3.89063 C4.34375,-3.89063 4.70313,-4.03906 4.98438,-4.33594 C5.26563,-4.63281 5.46875,-5 5.59375,-5.4375 C5.71875,-5.875 5.78125,-6.30729 5.78125,-6.73438 L5.78125,-7.04688 L5.78125,-7.10938 C5.78125,-7.91146 5.66406,-8.6276 5.42969,-9.25781 C5.19531,-9.88802 4.74479,-10.2031 4.07813,-10.2031 C3.66146,-10.2031 3.32031,-10.1094 3.05469,-9.92188 C2.78906,-9.73438 2.59375,-9.48698 2.46875,-9.17969 C2.34375,-8.8724 2.26563,-8.54427 2.23438,-8.19531 C2.20313,-7.84635 2.1875,-7.46875 2.1875,-7.0625 C2.1875,-6.45833 2.21615,-5.94271 2.27344,-5.51563 C2.33073,-5.08854 2.48698,-4.71094 2.74219,-4.38281 C2.9974,-4.05469 3.38542,-3.89063 3.90625,-3.89063 "/>
</g>

<g fill="#212121" fill-opacity="1" stroke="none" transform="matrix(0.72,0,0,0.72,237.82,282.78)"
font-family="Sans Serif" font-size="9" font-weight="400" font-style="normal" 
>
<path vector-effect="none" fill-rule="evenodd" d="M4,0.359375 C2.69792,0.359375 1.8099,-0.179688 1.33594,-1.25781 C0.861979,-2.33594 0.625,-3.61979 0.625,-5.10938 C0.625,-6.03646 0.710938,-6.90885 0.882813,-7.72656 C1.05469,-8.54427 1.39063,-9.23698 1.89063,-9.80469 C2.39063,-10.3724 3.09375,-10.6563 4,-10.6563 C4.70833,-10.6563 5.28646,-10.4844 5.73438,-10.1406 C6.18229,-9.79688 6.52344,-9.35417 6.75781,-8.8125 C6.99219,-8.27083 7.15104,-7.6875 7.23438,-7.0625 C7.31771,-6.4375 7.35938,-5.78646 7.35938,-5.10938 C7.35938,-4.19271 7.27604,-3.33333 7.10938,-2.53125 C6.94271,-1.72917 6.61198,-1.04688 6.11719,-0.484375 C5.6224,0.078125 4.91667,0.359375 4,0.359375 M4,-0.0625 C4.59375,-0.0625 5.03646,-0.367188 5.32813,-0.976563 C5.61979,-1.58594 5.79948,-2.26042 5.86719,-3 C5.9349,-3.73958 5.96875,-4.52604 5.96875,-5.35938 C5.96875,-6.16146 5.9349,-6.90104 5.86719,-7.57813 C5.79948,-8.25521 5.6224,-8.86979 5.33594,-9.42188 C5.04948,-9.97396 4.60417,-10.25 4,-10.25 C3.39583,-10.25 2.94792,-9.97396 2.65625,-9.42188 C2.36458,-8.86979 2.1849,-8.25521 2.11719,-7.57813 C2.04948,-6.90104 2.01563,-6.16146 2.01563,-5.35938 C2.01563,-4.76563 2.03125,-4.20573 2.0625,-3.67969 C2.09375,-3.15365 2.17188,-2.61198 2.29688,-2.05469 C2.42188,-1.4974 2.6224,-1.02604 2.89844,-0.640625 C3.17448,-0.255208 3.54167,-0.0625 4,-0.0625 "/>
</g>

<g fill="#212121" fill-opacity="1" stroke="none" transform="matrix(0.72,0,0,0.72,231.82,246.6)"
font-family="Sans Serif" font-size="9" font-weight="400" font-style="normal" 
>
<path vector-effect="none" fill-rule="evenodd" d="M1.8125,-0.671875 C2.10417,-0.338542 2.60938,-0.171875 3.32813,-0.171875 C3.73438,-0.171875 4.11458,-0.307292 4.46875,-0.578125 C4.82292,-0.848958 5.09375,-1.1875 5.28125,-1.59375 C5.51042,-2.04167 5.65625,-2.52344 5.71875,-3.03906 C5.78125,-3.55469 5.8125,-4.19271 5.8125,-4.95313 C5.625,-4.51563 5.36198,-4.15885 5.02344,-3.88281 C4.6849,-3.60677 4.29167,-3.46875 3.84375,-3.46875 C3.22917,-3.46875 2.67708,-3.63542 2.1875,-3.96875 C1.69792,-4.30208 1.32292,-4.74479 1.0625,-5.29688 C0.802083,-5.84896 0.671875,-6.43229 0.671875,-7.04688 C0.671875,-7.69271 0.817708,-8.29167 1.10938,-8.84375 C1.40104,-9.39583 1.80469,-9.83594 2.32031,-10.1641 C2.83594,-10.4922 3.42188,-10.6563 4.07813,-10.6563 C4.72396,-10.6563 5.26563,-10.4818 5.70313,-10.1328 C6.14063,-9.78385 6.47396,-9.33073 6.70313,-8.77344 C6.93229,-8.21615 7.09115,-7.6276 7.17969,-7.00781 C7.26823,-6.38802 7.3125,-5.77604 7.3125,-5.17188 C7.3125,-4.34896 7.16146,-3.51042 6.85938,-2.65625 C6.55729,-1.80208 6.10677,-1.08594 5.50781,-0.507813 C4.90885,0.0703125 4.18229,0.359375 3.32813,0.359375 C2.70313,0.359375 2.17188,0.210938 1.73438,-0.0859375 C1.29688,-0.382813 1.07813,-0.833333 1.07813,-1.4375 C1.07813,-1.65625 1.15104,-1.83854 1.29688,-1.98438 C1.44271,-2.13021 1.625,-2.20313 1.84375,-2.20313 C2.0625,-2.20313 2.24479,-2.13021 2.39063,-1.98438 C2.53646,-1.83854 2.60938,-1.65625 2.60938,-1.4375 C2.60938,-1.22917 2.53385,-1.04948 2.38281,-0.898438 C2.23177,-0.747396 2.05208,-0.671875 1.84375,-0.671875 L1.8125,-0.671875 M3.90625,-3.89063 C4.34375,-3.89063 4.70313,-4.03906 4.98438,-4.33594 C5.26563,-4.63281 5.46875,-5 5.59375,-5.4375 C5.71875,-5.875 5.78125,-6.30729 5.78125,-6.73438 L5.78125,-7.04688 L5.78125,-7.10938 C5.78125,-7.91146 5.66406,-8.6276 5.42969,-9.25781 C5.19531,-9.88802 4.74479,-10.2031 4.07813,-10.2031 C3.66146,-10.2031 3.32031,-10.1094 3.05469,-9.92188 C2.78906,-9.73438 2.59375,-9.48698 2.46875,-9.17969 C2.34375,-8.8724 2.26563,-8.54427 2.23438,-8.19531 C2.20313,-7.84635 2.1875,-7.46875 2.1875,-7.0625 C2.1875,-6.45833 2.21615,-5.94271 2.27344,-5.51563 C2.33073,-5.08854 2.48698,-4.71094 2.74219,-4.38281 C2.9974,-4.05469 3.38542,-3.89063 3.90625,-3.89063 "/>
</g>

<g fill="#212121" fill-opacity="1" stroke="none" transform="matrix(0.72,0,0,0.72,237.82,246.6)"
font-family="Sans Serif" font-size="9" font-weight="400" font-style="normal" 
>
<path vector-effect="none" fill-rule="evenodd" d="M1.39063,-1.82813 C1.50521,-1.51563 1.67448,-1.23177 1.89844,-0.976563 C2.1224,-0.721354 2.39063,-0.523438 2.70313,-0.382813 C3.01563,-0.242188 3.33854,-0.171875 3.67188,-0.171875 C4.44271,-0.171875 4.97396,-0.46875 5.26563,-1.0625 C5.55729,-1.65625 5.70313,-2.38021 5.70313,-3.23438 C5.70313,-3.60938 5.69531,-3.92188 5.67969,-4.17188 C5.66406,-4.42188 5.63021,-4.66667 5.57813,-4.90625 C5.47396,-5.28125 5.29948,-5.60938 5.05469,-5.89063 C4.8099,-6.17188 4.50521,-6.3125 4.14063,-6.3125 C3.78646,-6.3125 3.47917,-6.25781 3.21875,-6.14844 C2.95833,-6.03906 2.7474,-5.91146 2.58594,-5.76563 C2.42448,-5.61979 2.28125,-5.46615 2.15625,-5.30469 C2.03125,-5.14323 1.95313,-5.05729 1.92188,-5.04688 L1.75,-5.04688 C1.71875,-5.04688 1.6849,-5.0625 1.64844,-5.09375 C1.61198,-5.125 1.59375,-5.15625 1.59375,-5.1875 L1.59375,-10.5313 C1.59375,-10.5625 1.60938,-10.5911 1.64063,-10.6172 C1.67188,-10.6432 1.70833,-10.6563 1.75,-10.6563 L1.79688,-10.6563 C2.51563,-10.3125 3.27604,-10.1406 4.07813,-10.1406 C4.86979,-10.1406 5.63542,-10.3125 6.375,-10.6563 L6.42188,-10.6563 C6.45313,-10.6563 6.48438,-10.6432 6.51563,-10.6172 C6.54688,-10.5911 6.5625,-10.5625 6.5625,-10.5313 L6.5625,-10.3906 C6.5625,-10.3385 6.55208,-10.3125 6.53125,-10.3125 C6.16667,-9.82292 5.71094,-9.44271 5.16406,-9.17188 C4.61719,-8.90104 4.04688,-8.76563 3.45313,-8.76563 C3.02604,-8.76563 2.58854,-8.82813 2.14063,-8.95313 L2.14063,-5.92188 C2.49479,-6.21354 2.8125,-6.41927 3.09375,-6.53906 C3.375,-6.65885 3.72917,-6.71875 4.15625,-6.71875 C4.75,-6.71875 5.27865,-6.54948 5.74219,-6.21094 C6.20573,-5.8724 6.5625,-5.43229 6.8125,-4.89063 C7.0625,-4.34896 7.1875,-3.79167 7.1875,-3.21875 C7.1875,-2.58333 7.03125,-1.99219 6.71875,-1.44531 C6.40625,-0.898438 5.97917,-0.460938 5.4375,-0.132813 C4.89583,0.195313 4.30729,0.359375 3.67188,0.359375 C3.14063,0.359375 2.65625,0.221354 2.21875,-0.0546875 C1.78125,-0.330729 1.4349,-0.697917 1.17969,-1.15625 C0.924479,-1.61458 0.796875,-2.09896 0.796875,-2.60938 C0.796875,-2.84896 0.875,-3.04427 1.03125,-3.19531 C1.1875,-3.34635 1.38542,-3.42188 1.625,-3.42188 C1.85417,-3.42188 2.04948,-3.34635 2.21094,-3.19531 C2.3724,-3.04427 2.45313,-2.84896 2.45313,-2.60938 C2.45313,-2.38021 2.3724,-2.1875 2.21094,-2.03125 C2.04948,-1.875 1.85417,-1.79688 1.625,-1.79688 C1.58333,-1.79688 1.53906,-1.79948 1.49219,-1.80469 C1.44531,-1.8099 1.41146,-1.81771 1.39063,-1.82813 "/>
</g>

<g fill="#212121" fill-opacity="1" stroke="none" transform="matrix(0.72,0,0,0.72,225.82,210.42)"
font-family="Sans Serif" font-size="9" font-weight="400" font-style="normal" 
>
<path vector-effect="none" fill-rule="evenodd" d="M1.48438,0 L1.48438,-0.5625 C2.81771,-0.5625 3.48438,-0.734375 3.48438,-1.07813 L3.48438,-9.46875 C2.93229,-9.20833 2.23438,-9.07813 1.39063,-9.07813 L1.39063,-9.64063 C2.70313,-9.64063 3.69271,-9.97917 4.35938,-10.6563 L4.57813,-10.6563 C4.61979,-10.6563 4.65625,-10.6432 4.6875,-10.6172 C4.71875,-10.5911 4.73438,-10.5573 4.73438,-10.5156 L4.73438,-1.07813 C4.73438,-0.734375 5.40104,-0.5625 6.73438,-0.5625 L6.73438,0 L1.48438,0"/>
</g>

<g fill="#212121" fill-opacity="1" stroke="none" transform="matrix(0.72,0,0,0.72,231.82,210.42)"
font-family="Sans Serif" font-size="9" font-weight="400" font-style="normal" 
>
<path vector-effect="none" fill-rule="evenodd" d="M4,0.359375 C2.69792,0.359375 1.8099,-0.179688 1.33594,-1.25781 C0.861979,-2.33594 0.625,-3.61979 0.625,-5.10938 C0.625,-6.03646 0.710938,-6.90885 0.882813,-7.72656 C1.05469,-8.54427 1.39063,-9.23698 1.89063,-9.80469 C2.39063,-10.3724 3.09375,-10.6563 4,-10.6563 C4.70833,-10.6563 5.28646,-10.4844 5.73438,-10.1406 C6.18229,-9.79688 6.52344,-9.35417 6.75781,-8.8125 C6.99219,-8.27083 7.15104,-7.6875 7.23438,-7.0625 C7.31771,-6.4375 7.35938,-5.78646 7.35938,-5.10938 C7.35938,-4.19271 7.27604,-3.33333 7.10938,-2.53125 C6.94271,-1.72917 6.61198,-1.04688 6.11719,-0.484375 C5.6224,0.078125 4.91667,0.359375 4,0.359375 M4,-0.0625 C4.59375,-0.0625 5.03646,-0.367188 5.32813,-0.976563 C5.61979,-1.58594 5.79948,-2.26042 5.86719,-3 C5.9349,-3.73958 5.96875,-4.52604 5.96875,-5.35938 C5.96875,-6.16146 5.9349,-6.90104 5.86719,-7.57813 C5.79948,-8.25521 5.6224,-8.86979 5.33594,-9.42188 C5.04948,-9.97396 4.60417,-10.25 4,-10.25 C3.39583,-10.25 2.94792,-9.97396 2.65625,-9.42188 C2.36458,-8.86979 2.1849,-8.25521 2.11719,-7.57813 C2.04948,-6.90104 2.01563,-6.16146 2.01563,-5.35938 C2.01563,-4.76563 2.03125,-4.20573 2.0625,-3.67969 C2.09375,-3.15365 2.17188,-2.61198 2.29688,-2.05469 C2.42188,-1.4974 2.6224,-1.02604 2.89844,-0.640625 C3.17448,-0.255208 3.54167,-0.0625 4,-0.0625 "/>
</g>

<g fill="#212121" fill-opacity="1" stroke="none" transform="matrix(0.72,0,0,0.72,237.82,210.42)"
font-family="Sans Serif" font-size="9" font-weight="400" font-style="normal" 
>
<path vector-effect="none" fill-rule="evenodd" d="M4,0.359375 C2.69792,0.359375 1.8099,-0.179688 1.33594,-1.25781 C0.861979,-2.33594 0.625,-3.61979 0.625,-5.10938 C0.625,-6.03646 0.710938,-6.90885 0.882813,-7.72656 C1.05469,-8.54427 1.39063,-9.23698 1.89063,-9.80469 C2.39063,-10.3724 3.09375,-10.6563 4,-10.6563 C4.70833,-10.6563 5.28646,-10.4844 5.73438,-10.1406 C6.18229,-9.79688 6.52344,-9.35417 6.75781,-8.8125 C6.99219,-8.27083 7.15104,-7.6875 7.23438,-7.0625 C7.31771,-6.4375 7.35938,-5.78646 7.35938,-5.10938 C7.35938,-4.19271 7.27604,-3.33333 7.10938,-2.53125 C6.94271,-1.72917 6.61198,-1.04688 6.11719,-0.484375 C5.6224,0.078125 4.91667,0.359375 4,0.359375 M4,-0.0625 C4.59375,-0.0625 5.03646,-0.367188 5.32813,-0.976563 C5.61979,-1.58594 5.79948,-2.26042 5.86719,-3 C5.9349,-3.73958 5.96875,-4.52604 5.96875,-5.35938 C5.96875,-6.16146 5.9349,-6.90104 5.86719,-7.57813 C5.79948,-8.25521 5.6224,-8.86979 5.33594,-9.42188 C5.04948,-9.97396 4.60417,-10.25 4,-10.25 C3.39583,-10.25 2.94792,-9.97396 2.65625,-9.42188 C2.36458,-8.86979 2.1849,-8.25521 2.11719,-7.57813 C2.04948,-6.90104 2.01563,-6.16146 2.01563,-5.35938 C2.01563,-4.76563 2.03125,-4.20573 2.0625,-3.67969 C2.09375,-3.15365 2.17188,-2.61198 2.29688,-2.05469 C2.42188,-1.4974 2.6224,-1.02604 2.89844,-0.640625 C3.17448,-0.255208 3.54167,-0.0625 4,-0.0625 "/>
</g>

<g fill="#212121" fill-opacity="1" stroke="none" transform="matrix(0.72,0,0,0.72,225.82,174.24)"
font-family="Sans Serif" font-size="9" font-weight="400" font-style="normal" 
>
<path vector-effect="none" fill-rule="evenodd" d="M1.48438,0 L1.48438,-0.5625 C2.81771,-0.5625 3.48438,-0.734375 3.48438,-1.07813 L3.48438,-9.46875 C2.93229,-9.20833 2.23438,-9.07813 1.39063,-9.07813 L1.39063,-9.64063 C2.70313,-9.64063 3.69271,-9.97917 4.35938,-10.6563 L4.57813,-10.6563 C4.61979,-10.6563 4.65625,-10.6432 4.6875,-10.6172 C4.71875,-10.5911 4.73438,-10.5573 4.73438,-10.5156 L4.73438,-1.07813 C4.73438,-0.734375 5.40104,-0.5625 6.73438,-0.5625 L6.73438,0 L1.48438,0"/>
</g>

<g fill="#212121" fill-opacity="1" stroke="none" transform="matrix(0.72,0,0,0.72,231.82,174.24)"
font-family="Sans Serif" font-size="9" font-weight="400" font-style="normal" 
>
<path vector-effect="none" fill-rule="evenodd" d="M4,0.359375 C2.69792,0.359375 1.8099,-0.179688 1.33594,-1.25781 C0.861979,-2.33594 0.625,-3.61979 0.625,-5.10938 C0.625,-6.03646 0.710938,-6.90885 0.882813,-7.72656 C1.05469,-8.54427 1.39063,-9.23698 1.89063,-9.80469 C2.39063,-10.3724 3.09375,-10.6563 4,-10.6563 C4.70833,-10.6563 5.28646,-10.4844 5.73438,-10.1406 C6.18229,-9.79688 6.52344,-9.35417 6.75781,-8.8125 C6.99219,-8.27083 7.15104,-7.6875 7.23438,-7.0625 C7.31771,-6.4375 7.35938,-5.78646 7.35938,-5.10938 C7.35938,-4.19271 7.27604,-3.33333 7.10938,-2.53125 C6.94271,-1.72917 6.61198,-1.04688 6.11719,-0.484375 C5.6224,0.078125 4.91667,0.359375 4,0.359375 M4,-0.0625 C4.59375,-0.0625 5.03646,-0.367188 5.32813,-0.976563 C5.61979,-1.58594 5.79948,-2.26042 5.86719,-3 C5.9349,-3.73958 5.96875,-4.52604 5.96875,-5.35938 C5.96875,-6.16146 5.9349,-6.90104 5.86719,-7.57813 C5.79948,-8.25521 5.6224,-8.86979 5.33594,-9.42188 C5.04948,-9.97396 4.60417,-10.25 4,-10.25 C3.39583,-10.25 2.94792,-9.97396 2.65625,-9.42188 C2.36458,-8.86979 2.1849,-8.25521 2.11719,-7.57813 C2.04948,-6.90104 2.01563,-6.16146 2.01563,-5.35938 C2.01563,-4.76563 2.03125,-4.20573 2.0625,-3.67969 C2.09375,-3.15365 2.17188,-2.61198 2.29688,-2.05469 C2.42188,-1.4974 2.6224,-1.02604 2.89844,-0.640625 C3.17448,-0.255208 3.54167,-0.0625 4,-0.0625 "/>
</g>

<g fill="#212121" fill-opacity="1" stroke="none" transform="matrix(0.72,0,0,0.72,237.82,174.24)"
font-family="Sans Serif" font-size="9" font-weight="400" font-style="normal" 
>
<path vector-effect="none" fill-rule="evenodd" d="M1.39063,-1.82813 C1.50521,-1.51563 1.67448,-1.23177 1.89844,-0.976563 C2.1224,-0.721354 2.39063,-0.523438 2.70313,-0.382813 C3.01563,-0.242188 3.33854,-0.171875 3.67188,-0.171875 C4.44271,-0.171875 4.97396,-0.46875 5.26563,-1.0625 C5.55729,-1.65625 5.70313,-2.38021 5.70313,-3.23438 C5.70313,-3.60938 5.69531,-3.92188 5.67969,-4.17188 C5.66406,-4.42188 5.63021,-4.66667 5.57813,-4.90625 C5.47396,-5.28125 5.29948,-5.60938 5.05469,-5.89063 C4.8099,-6.17188 4.50521,-6.3125 4.14063,-6.3125 C3.78646,-6.3125 3.47917,-6.25781 3.21875,-6.14844 C2.95833,-6.03906 2.7474,-5.91146 2.58594,-5.76563 C2.42448,-5.61979 2.28125,-5.46615 2.15625,-5.30469 C2.03125,-5.14323 1.95313,-5.05729 1.92188,-5.04688 L1.75,-5.04688 C1.71875,-5.04688 1.6849,-5.0625 1.64844,-5.09375 C1.61198,-5.125 1.59375,-5.15625 1.59375,-5.1875 L1.59375,-10.5313 C1.59375,-10.5625 1.60938,-10.5911 1.64063,-10.6172 C1.67188,-10.6432 1.70833,-10.6563 1.75,-10.6563 L1.79688,-10.6563 C2.51563,-10.3125 3.27604,-10.1406 4.07813,-10.1406 C4.86979,-10.1406 5.63542,-10.3125 6.375,-10.6563 L6.42188,-10.6563 C6.45313,-10.6563 6.48438,-10.6432 6.51563,-10.6172 C6.54688,-10.5911 6.5625,-10.5625 6.5625,-10.5313 L6.5625,-10.3906 C6.5625,-10.3385 6.55208,-10.3125 6.53125,-10.3125 C6.16667,-9.82292 5.71094,-9.44271 5.16406,-9.17188 C4.61719,-8.90104 4.04688,-8.76563 3.45313,-8.76563 C3.02604,-8.76563 2.58854,-8.82813 2.14063,-8.95313 L2.14063,-5.92188 C2.49479,-6.21354 2.8125,-6.41927 3.09375,-6.53906 C3.375,-6.65885 3.72917,-6.71875 4.15625,-6.71875 C4.75,-6.71875 5.27865,-6.54948 5.74219,-6.21094 C6.20573,-5.8724 6.5625,-5.43229 6.8125,-4.89063 C7.0625,-4.34896 7.1875,-3.79167 7.1875,-3.21875 C7.1875,-2.58333 7.03125,-1.99219 6.71875,-1.44531 C6.40625,-0.898438 5.97917,-0.460938 5.4375,-0.132813 C4.89583,0.195313 4.30729,0.359375 3.67188,0.359375 C3.14063,0.359375 2.65625,0.221354 2.21875,-0.0546875 C1.78125,-0.330729 1.4349,-0.697917 1.17969,-1.15625 C0.924479,-1.61458 0.796875,-2.09896 0.796875,-2.60938 C0.796875,-2.84896 0.875,-3.04427 1.03125,-3.19531 C1.1875,-3.34635 1.38542,-3.42188 1.625,-3.42188 C1.85417,-3.42188 2.04948,-3.34635 2.21094,-3.19531 C2.3724,-3.04427 2.45313,-2.84896 2.45313,-2.60938 C2.45313,-2.38021 2.3724,-2.1875 2.21094,-2.03125 C2.04948,-1.875 1.85417,-1.79688 1.625,-1.79688 C1.58333,-1.79688 1.53906,-1.79948 1.49219,-1.80469 C1.44531,-1.8099 1.41146,-1.81771 1.39063,-1.82813 "/>
</g>

<g fill="#212121" fill-opacity="1" stroke="none" transform="matrix(0.72,0,0,0.72,225.82,138.06)"
font-family="Sans Serif" font-size="9" font-weight="400" font-style="normal" 
>
<path vector-effect="none" fill-rule="evenodd" d="M1.48438,0 L1.48438,-0.5625 C2.81771,-0.5625 3.48438,-0.734375 3.48438,-1.07813 L3.48438,-9.46875 C2.93229,-9.20833 2.23438,-9.07813 1.39063,-9.07813 L1.39063,-9.64063 C2.70313,-9.64063 3.69271,-9.97917 4.35938,-10.6563 L4.57813,-10.6563 C4.61979,-10.6563 4.65625,-10.6432 4.6875,-10.6172 C4.71875,-10.5911 4.73438,-10.5573 4.73438,-10.5156 L4.73438,-1.07813 C4.73438,-0.734375 5.40104,-0.5625 6.73438,-0.5625 L6.73438,0 L1.48438,0"/>
</g>

<g fill="#212121" fill-opacity="1" stroke="none" transform="matrix(0.72,0,0,0.72,231.82,138.06)"
font-family="Sans Serif" font-size="9" font-weight="400" font-style="normal" 
>
<path vector-effect="none" fill-rule="evenodd" d="M1.48438,0 L1.48438,-0.5625 C2.81771,-0.5625 3.48438,-0.734375 3.48438,-1.07813 L3.48438,-9.46875 C2.93229,-9.20833 2.23438,-9.07813 1.39063,-9.07813 L1.39063,-9.64063 C2.70313,-9.64063 3.69271,-9.97917 4.35938,-10.6563 L4.57813,-10.6563 C4.61979,-10.6563 4.65625,-10.6432 4.6875,-10.6172 C4.71875,-10.5911 4.73438,-10.5573 4.73438,-10.5156 L4.73438,-1.07813 C4.73438,-0.734375 5.40104,-0.5625 6.73438,-0.5625 L6.73438,0 L1.48438,0"/>
</g>

<g fill="#212121" fill-opacity="1" stroke="none" transform="matrix(0.72,0,0,0.72,237.82,138.06)"
font-family="Sans Serif" font-size="9" font-weight="400" font-style="normal" 
>
<path vector-effect="none" fill-rule="evenodd" d="M4,0.359375 C2.69792,0.359375 1.8099,-0.179688 1.33594,-1.25781 C0.861979,-2.33594 0.625,-3.61979 0.625,-5.10938 C0.625,-6.03646 0.710938,-6.90885 0.882813,-7.72656 C1.05469,-8.54427 1.39063,-9.23698 1.89063,-9.80469 C2.39063,-10.3724 3.09375,-10.6563 4,-10.6563 C4.70833,-10.6563 5.28646,-10.4844 5.73438,-10.1406 C6.18229,-9.79688 6.52344,-9.35417 6.75781,-8.8125 C6.99219,-8.27083 7.15104,-7.6875 7.23438,-7.0625 C7.31771,-6.4375 7.35938,-5.78646 7.35938,-5.10938 C7.35938,-4.19271 7.27604,-3.33333 7.10938,-2.53125 C6.94271,-1.72917 6.61198,-1.04688 6.11719,-0.484375 C5.6224,0.078125 4.91667,0.359375 4,0.359375 M4,-0.0625 C4.59375,-0.0625 5.03646,-0.367188 5.32813,-0.976563 C5.61979,-1.58594 5.79948,-2.26042 5.86719,-3 C5.9349,-3.73958 5.96875,-4.52604 5.96875,-5.35938 C5.96875,-6.16146 5.9349,-6.90104 5.86719,-7.57813 C5.79948,-8.25521 5.6224,-8.86979 5.33594,-9.42188 C5.04948,-9.97396 4.60417,-10.25 4,-10.25 C3.39583,-10.25 2.94792,-9.97396 2.65625,-9.42188 C2.36458,-8.86979 2.1849,-8.25521 2.11719,-7.57813 C2.04948,-6.90104 2.01563,-6.16146 2.01563,-5.35938 C2.01563,-4.76563 2.03125,-4.20573 2.0625,-3.67969 C2.09375,-3.15365 2.17188,-2.61198 2.29688,-2.05469 C2.42188,-1.4974 2.6224,-1.02604 2.89844,-0.640625 C3.17448,-0.255208 3.54167,-0.0625 4,-0.0625 "/>
</g>

<g fill="#212121" fill-opacity="1" stroke="none" transform="matrix(0.72,0,0,0.72,225.82,101.88)"
font-family="Sans Serif" font-size="9" font-weight="400" font-style="normal" 
>
<path vector-effect="none" fill-rule="evenodd" d="M1.48438,0 L1.48438,-0.5625 C2.81771,-0.5625 3.48438,-0.734375 3.48438,-1.07813 L3.48438,-9.46875 C2.93229,-9.20833 2.23438,-9.07813 1.39063,-9.07813 L1.39063,-9.64063 C2.70313,-9.64063 3.69271,-9.97917 4.35938,-10.6563 L4.57813,-10.6563 C4.61979,-10.6563 4.65625,-10.6432 4.6875,-10.6172 C4.71875,-10.5911 4.73438,-10.5573 4.73438,-10.5156 L4.73438,-1.07813 C4.73438,-0.734375 5.40104,-0.5625 6.73438,-0.5625 L6.73438,0 L1.48438,0"/>
</g>

<g fill="#212121" fill-opacity="1" stroke="none" transform="matrix(0.72,0,0,0.72,231.82,101.88)"
font-family="Sans Serif" font-size="9" font-weight="400" font-style="normal" 
>
<path vector-effect="none" fill-rule="evenodd" d="M1.48438,0 L1.48438,-0.5625 C2.81771,-0.5625 3.48438,-0.734375 3.48438,-1.07813 L3.48438,-9.46875 C2.93229,-9.20833 2.23438,-9.07813 1.39063,-9.07813 L1.39063,-9.64063 C2.70313,-9.64063 3.69271,-9.97917 4.35938,-10.6563 L4.57813,-10.6563 C4.61979,-10.6563 4.65625,-10.6432 4.6875,-10.6172 C4.71875,-10.5911 4.73438,-10.5573 4.73438,-10.5156 L4.73438,-1.07813 C4.73438,-0.734375 5.40104,-0.5625 6.73438,-0.5625 L6.73438,0 L1.48438,0"/>
</g>

<g fill="#212121" fill-opacity="1" stroke="none" transform="matrix(0.72,0,0,0.72,237.82,101.88)"
font-family="Sans Serif" font-size="9" font-weight="400" font-style="normal" 
>
<path vector-effect="none" fill-rule="evenodd" d="M1.39063,-1.82813 C1.50521,-1.51563 1.67448,-1.23177 1.89844,-0.976563 C2.1224,-0.721354 2.39063,-0.523438 2.70313,-0.382813 C3.01563,-0.242188 3.33854,-0.171875 3.67188,-0.171875 C4.44271,-0.171875 4.97396,-0.46875 5.26563,-1.0625 C5.55729,-1.65625 5.70313,-2.38021 5.70313,-3.23438 C5.70313,-3.60938 5.69531,-3.92188 5.67969,-4.17188 C5.66406,-4.42188 5.63021,-4.66667 5.57813,-4.90625 C5.47396,-5.28125 5.29948,-5.60938 5.05469,-5.89063 C4.8099,-6.17188 4.50521,-6.3125 4.14063,-6.3125 C3.78646,-6.3125 3.47917,-6.25781 3.21875,-6.14844 C2.95833,-6.03906 2.7474,-5.91146 2.58594,-5.76563 C2.42448,-5.61979 2.28125,-5.46615 2.15625,-5.30469 C2.03125,-5.14323 1.95313,-5.05729 1.92188,-5.04688 L1.75,-5.04688 C1.71875,-5.04688 1.6849,-5.0625 1.64844,-5.09375 C1.61198,-5.125 1.59375,-5.15625 1.59375,-5.1875 L1.59375,-10.5313 C1.59375,-10.5625 1.60938,-10.5911 1.64063,-10.6172 C1.67188,-10.6432 1.70833,-10.6563 1.75,-10.6563 L1.79688,-10.6563 C2.51563,-10.3125 3.27604,-10.1406 4.07813,-10.1406 C4.86979,-10.1406 5.63542,-10.3125 6.375,-10.6563 L6.42188,-10.6563 C6.45313,-10.6563 6.48438,-10.6432 6.51563,-10.6172 C6.54688,-10.5911 6.5625,-10.5625 6.5625,-10.5313 L6.5625,-10.3906 C6.5625,-10.3385 6.55208,-10.3125 6.53125,-10.3125 C6.16667,-9.82292 5.71094,-9.44271 5.16406,-9.17188 C4.61719,-8.90104 4.04688,-8.76563 3.45313,-8.76563 C3.02604,-8.76563 2.58854,-8.82813 2.14063,-8.95313 L2.14063,-5.92188 C2.49479,-6.21354 2.8125,-6.41927 3.09375,-6.53906 C3.375,-6.65885 3.72917,-6.71875 4.15625,-6.71875 C4.75,-6.71875 5.27865,-6.54948 5.74219,-6.21094 C6.20573,-5.8724 6.5625,-5.43229 6.8125,-4.89063 C7.0625,-4.34896 7.1875,-3.79167 7.1875,-3.21875 C7.1875,-2.58333 7.03125,-1.99219 6.71875,-1.44531 C6.40625,-0.898438 5.97917,-0.460938 5.4375,-0.132813 C4.89583,0.195313 4.30729,0.359375 3.67188,0.359375 C3.14063,0.359375 2.65625,0.221354 2.21875,-0.0546875 C1.78125,-0.330729 1.4349,-0.697917 1.17969,-1.15625 C0.924479,-1.61458 0.796875,-2.09896 0.796875,-2.60938 C0.796875,-2.84896 0.875,-3.04427 1.03125,-3.19531 C1.1875,-3.34635 1.38542,-3.42188 1.625,-3.42188 C1.85417,-3.42188 2.04948,-3.34635 2.21094,-3.19531 C2.3724,-3.04427 2.45313,-2.84896 2.45313,-2.60938 C2.45313,-2.38021 2.3724,-2.1875 2.21094,-2.03125 C2.04948,-1.875 1.85417,-1.79688 1.625,-1.79688 C1.58333,-1.79688 1.53906,-1.79948 1.49219,-1.80469 C1.44531,-1.8099 1.41146,-1.81771 1.39063,-1.82813 "/>
</g>

<g fill="#212121" fill-opacity="1" stroke="none" transform="matrix(0.72,0,0,0.72,225.82,65.7)"
font-family="Sans Serif" font-size="9" font-weight="400" font-style="normal" 
>
<path vector-effect="none" fill-rule="evenodd" d="M1.48438,0 L1.48438,-0.5625 C2.81771,-0.5625 3.48438,-0.734375 3.48438,-1.07813 L3.48438,-9.46875 C2.93229,-9.20833 2.23438,-9.07813 1.39063,-9.07813 L1.39063,-9.64063 C2.70313,-9.64063 3.69271,-9.97917 4.35938,-10.6563 L4.57813,-10.6563 C4.61979,-10.6563 4.65625,-10.6432 4.6875,-10.6172 C4.71875,-10.5911 4.73438,-10.5573 4.73438,-10.5156 L4.73438,-1.07813 C4.73438,-0.734375 5.40104,-0.5625 6.73438,-0.5625 L6.73438,0 L1.48438,0"/>
</g>

<g fill="#212121" fill-opacity="1" stroke="none" transform="matrix(0.72,0,0,0.72,231.82,65.7)"
font-family="Sans Serif" font-size="9" font-weight="400" font-style="normal" 
>
<path vector-effect="none" fill-rule="evenodd" d="M0.796875,0 L0.796875,-0.4375 C0.796875,-0.458333 0.807292,-0.484375 0.828125,-0.515625 L3.3125,-3.26563 C3.6875,-3.67188 3.99219,-4.01302 4.22656,-4.28906 C4.46094,-4.5651 4.69271,-4.88281 4.92188,-5.24219 C5.15104,-5.60156 5.33333,-5.96875 5.46875,-6.34375 C5.60417,-6.71875 5.67188,-7.11458 5.67188,-7.53125 C5.67188,-7.96875 5.59115,-8.38542 5.42969,-8.78125 C5.26823,-9.17708 5.02604,-9.49479 4.70313,-9.73438 C4.38021,-9.97396 3.99479,-10.0938 3.54688,-10.0938 C3.07813,-10.0938 2.65885,-9.95573 2.28906,-9.67969 C1.91927,-9.40365 1.66146,-9.04167 1.51563,-8.59375 C1.55729,-8.60417 1.61458,-8.60938 1.6875,-8.60938 C1.92708,-8.60938 2.13021,-8.52865 2.29688,-8.36719 C2.46354,-8.20573 2.54688,-8 2.54688,-7.75 C2.54688,-7.5 2.46354,-7.29167 2.29688,-7.125 C2.13021,-6.95833 1.92708,-6.875 1.6875,-6.875 C1.4375,-6.875 1.22656,-6.96094 1.05469,-7.13281 C0.882813,-7.30469 0.796875,-7.51042 0.796875,-7.75 C0.796875,-8.14583 0.872396,-8.52083 1.02344,-8.875 C1.17448,-9.22917 1.39323,-9.54167 1.67969,-9.8125 C1.96615,-10.0833 2.28646,-10.2917 2.64063,-10.4375 C2.99479,-10.5833 3.375,-10.6563 3.78125,-10.6563 C4.38542,-10.6563 4.95052,-10.5286 5.47656,-10.2734 C6.0026,-10.0182 6.41927,-9.65365 6.72656,-9.17969 C7.03385,-8.70573 7.1875,-8.15625 7.1875,-7.53125 C7.1875,-7.0625 7.08594,-6.61979 6.88281,-6.20313 C6.67969,-5.78646 6.41927,-5.40885 6.10156,-5.07031 C5.78385,-4.73177 5.3776,-4.34635 4.88281,-3.91406 C4.38802,-3.48177 4.0625,-3.19271 3.90625,-3.04688 L2.09375,-1.29688 L3.64063,-1.29688 C4.39063,-1.29688 5.02083,-1.30469 5.53125,-1.32031 C6.04167,-1.33594 6.3125,-1.35417 6.34375,-1.375 C6.46875,-1.51042 6.59375,-2.00521 6.71875,-2.85938 L7.1875,-2.85938 L6.73438,0 L0.796875,0"/>
</g>

<g fill="#212121" fill-opacity="1" stroke="none" transform="matrix(0.72,0,0,0.72,237.82,65.7)"
font-family="Sans Serif" font-size="9" font-weight="400" font-style="normal" 
>
<path vector-effect="none" fill-rule="evenodd" d="M4,0.359375 C2.69792,0.359375 1.8099,-0.179688 1.33594,-1.25781 C0.861979,-2.33594 0.625,-3.61979 0.625,-5.10938 C0.625,-6.03646 0.710938,-6.90885 0.882813,-7.72656 C1.05469,-8.54427 1.39063,-9.23698 1.89063,-9.80469 C2.39063,-10.3724 3.09375,-10.6563 4,-10.6563 C4.70833,-10.6563 5.28646,-10.4844 5.73438,-10.1406 C6.18229,-9.79688 6.52344,-9.35417 6.75781,-8.8125 C6.99219,-8.27083 7.15104,-7.6875 7.23438,-7.0625 C7.31771,-6.4375 7.35938,-5.78646 7.35938,-5.10938 C7.35938,-4.19271 7.27604,-3.33333 7.10938,-2.53125 C6.94271,-1.72917 6.61198,-1.04688 6.11719,-0.484375 C5.6224,0.078125 4.91667,0.359375 4,0.359375 M4,-0.0625 C4.59375,-0.0625 5.03646,-0.367188 5.32813,-0.976563 C5.61979,-1.58594 5.79948,-2.26042 5.86719,-3 C5.9349,-3.73958 5.96875,-4.52604 5.96875,-5.35938 C5.96875,-6.16146 5.9349,-6.90104 5.86719,-7.57813 C5.79948,-8.25521 5.6224,-8.86979 5.33594,-9.42188 C5.04948,-9.97396 4.60417,-10.25 4,-10.25 C3.39583,-10.25 2.94792,-9.97396 2.65625,-9.42188 C2.36458,-8.86979 2.1849,-8.25521 2.11719,-7.57813 C2.04948,-6.90104 2.01563,-6.16146 2.01563,-5.35938 C2.01563,-4.76563 2.03125,-4.20573 2.0625,-3.67969 C2.09375,-3.15365 2.17188,-2.61198 2.29688,-2.05469 C2.42188,-1.4974 2.6224,-1.02604 2.89844,-0.640625 C3.17448,-0.255208 3.54167,-0.0625 4,-0.0625 "/>
</g>

<g fill="#212121" fill-opacity="1" stroke="none" transform="matrix(0.72,0,0,0.72,225.82,29.52)"
font-family="Sans Serif" font-size="9" font-weight="400" font-style="normal" 
>
<path vector-effect="none" fill-rule="evenodd" d="M1.48438,0 L1.48438,-0.5625 C2.81771,-0.5625 3.48438,-0.734375 3.48438,-1.07813 L3.48438,-9.46875 C2.93229,-9.20833 2.23438,-9.07813 1.39063,-9.07813 L1.39063,-9.64063 C2.70313,-9.64063 3.69271,-9.97917 4.35938,-10.6563 L4.57813,-10.6563 C4.61979,-10.6563 4.65625,-10.6432 4.6875,-10.6172 C4.71875,-10.5911 4.73438,-10.5573 4.73438,-10.5156 L4.73438,-1.07813 C4.73438,-0.734375 5.40104,-0.5625 6.73438,-0.5625 L6.73438,0 L1.48438,0"/>
</g>

<g fill="#212121" fill-opacity="1" stroke="none" transform="matrix(0.72,0,0,0.72,231.82,29.52)"
font-family="Sans Serif" font-size="9" font-weight="400" font-style="normal" 
>
<path vector-effect="none" fill-rule="evenodd" d="M0.796875,0 L0.796875,-0.4375 C0.796875,-0.458333 0.807292,-0.484375 0.828125,-0.515625 L3.3125,-3.26563 C3.6875,-3.67188 3.99219,-4.01302 4.22656,-4.28906 C4.46094,-4.5651 4.69271,-4.88281 4.92188,-5.24219 C5.15104,-5.60156 5.33333,-5.96875 5.46875,-6.34375 C5.60417,-6.71875 5.67188,-7.11458 5.67188,-7.53125 C5.67188,-7.96875 5.59115,-8.38542 5.42969,-8.78125 C5.26823,-9.17708 5.02604,-9.49479 4.70313,-9.73438 C4.38021,-9.97396 3.99479,-10.0938 3.54688,-10.0938 C3.07813,-10.0938 2.65885,-9.95573 2.28906,-9.67969 C1.91927,-9.40365 1.66146,-9.04167 1.51563,-8.59375 C1.55729,-8.60417 1.61458,-8.60938 1.6875,-8.60938 C1.92708,-8.60938 2.13021,-8.52865 2.29688,-8.36719 C2.46354,-8.20573 2.54688,-8 2.54688,-7.75 C2.54688,-7.5 2.46354,-7.29167 2.29688,-7.125 C2.13021,-6.95833 1.92708,-6.875 1.6875,-6.875 C1.4375,-6.875 1.22656,-6.96094 1.05469,-7.13281 C0.882813,-7.30469 0.796875,-7.51042 0.796875,-7.75 C0.796875,-8.14583 0.872396,-8.52083 1.02344,-8.875 C1.17448,-9.22917 1.39323,-9.54167 1.67969,-9.8125 C1.96615,-10.0833 2.28646,-10.2917 2.64063,-10.4375 C2.99479,-10.5833 3.375,-10.6563 3.78125,-10.6563 C4.38542,-10.6563 4.95052,-10.5286 5.47656,-10.2734 C6.0026,-10.0182 6.41927,-9.65365 6.72656,-9.17969 C7.03385,-8.70573 7.1875,-8.15625 7.1875,-7.53125 C7.1875,-7.0625 7.08594,-6.61979 6.88281,-6.20313 C6.67969,-5.78646 6.41927,-5.40885 6.10156,-5.07031 C5.78385,-4.73177 5.3776,-4.34635 4.88281,-3.91406 C4.38802,-3.48177 4.0625,-3.19271 3.90625,-3.04688 L2.09375,-1.29688 L3.64063,-1.29688 C4.39063,-1.29688 5.02083,-1.30469 5.53125,-1.32031 C6.04167,-1.33594 6.3125,-1.35417 6.34375,-1.375 C6.46875,-1.51042 6.59375,-2.00521 6.71875,-2.85938 L7.1875,-2.85938 L6.73438,0 L0.796875,0"/>
</g>

<g fill="#212121" fill-opacity="1" stroke="none" transform="matrix(0.72,0,0,0.72,237.82,29.52)"
font-family="Sans Serif" font-size="9" font-weight="400" font-style="normal" 
>
<path vector-effect="none" fill-rule="evenodd" d="M1.39063,-1.82813 C1.50521,-1.51563 1.67448,-1.23177 1.89844,-0.976563 C2.1224,-0.721354 2.39063,-0.523438 2.70313,-0.382813 C3.01563,-0.242188 3.33854,-0.171875 3.67188,-0.171875 C4.44271,-0.171875 4.97396,-0.46875 5.26563,-1.0625 C5.55729,-1.65625 5.70313,-2.38021 5.70313,-3.23438 C5.70313,-3.60938 5.69531,-3.92188 5.67969,-4.17188 C5.66406,-4.42188 5.63021,-4.66667 5.57813,-4.90625 C5.47396,-5.28125 5.29948,-5.60938 5.05469,-5.89063 C4.8099,-6.17188 4.50521,-6.3125 4.14063,-6.3125 C3.78646,-6.3125 3.47917,-6.25781 3.21875,-6.14844 C2.95833,-6.03906 2.7474,-5.91146 2.58594,-5.76563 C2.42448,-5.61979 2.28125,-5.46615 2.15625,-5.30469 C2.03125,-5.14323 1.95313,-5.05729 1.92188,-5.04688 L1.75,-5.04688 C1.71875,-5.04688 1.6849,-5.0625 1.64844,-5.09375 C1.61198,-5.125 1.59375,-5.15625 1.59375,-5.1875 L1.59375,-10.5313 C1.59375,-10.5625 1.60938,-10.5911 1.64063,-10.6172 C1.67188,-10.6432 1.70833,-10.6563 1.75,-10.6563 L1.79688,-10.6563 C2.51563,-10.3125 3.27604,-10.1406 4.07813,-10.1406 C4.86979,-10.1406 5.63542,-10.3125 6.375,-10.6563 L6.42188,-10.6563 C6.45313,-10.6563 6.48438,-10.6432 6.51563,-10.6172 C6.54688,-10.5911 6.5625,-10.5625 6.5625,-10.5313 L6.5625,-10.3906 C6.5625,-10.3385 6.55208,-10.3125 6.53125,-10.3125 C6.16667,-9.82292 5.71094,-9.44271 5.16406,-9.17188 C4.61719,-8.90104 4.04688,-8.76563 3.45313,-8.76563 C3.02604,-8.76563 2.58854,-8.82813 2.14063,-8.95313 L2.14063,-5.92188 C2.49479,-6.21354 2.8125,-6.41927 3.09375,-6.53906 C3.375,-6.65885 3.72917,-6.71875 4.15625,-6.71875 C4.75,-6.71875 5.27865,-6.54948 5.74219,-6.21094 C6.20573,-5.8724 6.5625,-5.43229 6.8125,-4.89063 C7.0625,-4.34896 7.1875,-3.79167 7.1875,-3.21875 C7.1875,-2.58333 7.03125,-1.99219 6.71875,-1.44531 C6.40625,-0.898438 5.97917,-0.460938 5.4375,-0.132813 C4.89583,0.195313 4.30729,0.359375 3.67188,0.359375 C3.14063,0.359375 2.65625,0.221354 2.21875,-0.0546875 C1.78125,-0.330729 1.4349,-0.697917 1.17969,-1.15625 C0.924479,-1.61458 0.796875,-2.09896 0.796875,-2.60938 C0.796875,-2.84896 0.875,-3.04427 1.03125,-3.19531 C1.1875,-3.34635 1.38542,-3.42188 1.625,-3.42188 C1.85417,-3.42188 2.04948,-3.34635 2.21094,-3.19531 C2.3724,-3.04427 2.45313,-2.84896 2.45313,-2.60938 C2.45313,-2.38021 2.3724,-2.1875 2.21094,-2.03125 C2.04948,-1.875 1.85417,-1.79688 1.625,-1.79688 C1.58333,-1.79688 1.53906,-1.79948 1.49219,-1.80469 C1.44531,-1.8099 1.41146,-1.81771 1.39063,-1.82813 "/>
</g>

<g fill="#f54242" fill-opacity="1" stroke="none" transform="matrix(0.72,0,0,0.72,0,0)"
font-family="Sans Serif" font-size="9" font-weight="400" font-style="normal" 
>
<circle cx="395" cy="388.348" r="4.16667"/>
<circle cx="395" cy="369.554" r="4.16667"/>
<circle cx="395" cy="344.228" r="4.16667"/>
<circle cx="395" cy="274.783" r="4.16667"/>
<circle cx="395" cy="261.015" r="4.16667"/>
</g>

<g fill="none" stroke="#000000" stroke-opacity="1" stroke-width="0.694444" stroke-linecap="butt" stroke-linejoin="miter" stroke-miterlimit="2" transform="matrix(0.72,0,0,0.72,0,0)"
font-family="Sans Serif" font-size="9" font-weight="400" font-style="normal" 
>
<path vector-effect="none" fill-rule="evenodd" d="M399.167,63.4315 C399.167,61.1303 397.301,59.2648 395,59.2648 C392.699,59.2648 390.833,61.1303 390.833,63.4315 C390.833,65.7327 392.699,67.5981 395,67.5981 C397.301,67.5981 399.167,65.7327 399.167,63.4315 "/>
</g>
</g>
</svg>
