%TF.GenerationSoftware,KiCad,Pcbnew,9.0.6-9.0.6~ubuntu22.04.1*%
%TF.CreationDate,2025-11-02T11:53:36-08:00*%
%TF.ProjectId,Board_1_LED,426f6172-645f-4315-9f4c-45442e6b6963,rev?*%
%TF.SameCoordinates,Original*%
%TF.FileFunction,Copper,L1,Top*%
%TF.FilePolarity,Positive*%
%FSLAX46Y46*%
G04 Gerber Fmt 4.6, Leading zero omitted, Abs format (unit mm)*
G04 Created by KiCad (PCBNEW 9.0.6-9.0.6~ubuntu22.04.1) date 2025-11-02 11:53:36*
%MOMM*%
%LPD*%
G01*
G04 APERTURE LIST*
G04 Aperture macros list*
%AMRoundRect*
0 Rectangle with rounded corners*
0 $1 Rounding radius*
0 $2 $3 $4 $5 $6 $7 $8 $9 X,Y pos of 4 corners*
0 Add a 4 corners polygon primitive as box body*
4,1,4,$2,$3,$4,$5,$6,$7,$8,$9,$2,$3,0*
0 Add four circle primitives for the rounded corners*
1,1,$1+$1,$2,$3*
1,1,$1+$1,$4,$5*
1,1,$1+$1,$6,$7*
1,1,$1+$1,$8,$9*
0 Add four rect primitives between the rounded corners*
20,1,$1+$1,$2,$3,$4,$5,0*
20,1,$1+$1,$4,$5,$6,$7,0*
20,1,$1+$1,$6,$7,$8,$9,0*
20,1,$1+$1,$8,$9,$2,$3,0*%
G04 Aperture macros list end*
%TA.AperFunction,NonConductor*%
%ADD10C,0.200000*%
%TD*%
%TA.AperFunction,SMDPad,CuDef*%
%ADD11RoundRect,0.050000X-0.075000X0.195000X-0.075000X-0.195000X0.075000X-0.195000X0.075000X0.195000X0*%
%TD*%
%TA.AperFunction,SMDPad,CuDef*%
%ADD12R,2.000000X2.000000*%
%TD*%
%TA.AperFunction,SMDPad,CuDef*%
%ADD13RoundRect,0.140000X-0.170000X0.140000X-0.170000X-0.140000X0.170000X-0.140000X0.170000X0.140000X0*%
%TD*%
%TA.AperFunction,SMDPad,CuDef*%
%ADD14R,0.550000X0.300000*%
%TD*%
%TA.AperFunction,SMDPad,CuDef*%
%ADD15R,0.300000X0.550000*%
%TD*%
%TA.AperFunction,SMDPad,CuDef*%
%ADD16C,0.450000*%
%TD*%
%TA.AperFunction,SMDPad,CuDef*%
%ADD17RoundRect,0.225000X0.250000X-0.225000X0.250000X0.225000X-0.250000X0.225000X-0.250000X-0.225000X0*%
%TD*%
%TA.AperFunction,SMDPad,CuDef*%
%ADD18RoundRect,0.140000X0.170000X-0.140000X0.170000X0.140000X-0.170000X0.140000X-0.170000X-0.140000X0*%
%TD*%
%TA.AperFunction,Conductor*%
%ADD19C,0.250000*%
%TD*%
%TA.AperFunction,Conductor*%
%ADD20C,0.200000*%
%TD*%
%TA.AperFunction,Conductor*%
%ADD21C,0.300000*%
%TD*%
G04 APERTURE END LIST*
D10*
X103021220Y-75460523D02*
G75*
G02*
X102926558Y-75460523I-47331J0D01*
G01*
X102926558Y-75460523D02*
G75*
G02*
X103021220Y-75460523I47331J0D01*
G01*
D11*
%TO.P,Q1,1,G*%
%TO.N,Net-(Q1-G)*%
X102989190Y-76100197D03*
%TO.P,Q1,2,D*%
%TO.N,Net-(J6-Pin_1)*%
X101989190Y-76100197D03*
%TO.P,Q1,3,S*%
%TO.N,Net-(J4-Pin_1)*%
X102489190Y-76100197D03*
%TD*%
D12*
%TO.P,J5,1,Pin_1*%
%TO.N,Net-(J5-Pin_1)*%
X108207308Y-77715849D03*
%TD*%
D13*
%TO.P,C3,1*%
%TO.N,Net-(U1-DEC4)*%
X104500000Y-76657920D03*
%TO.P,C3,2*%
%TO.N,Net-(J4-Pin_1)*%
X104500000Y-77617920D03*
%TD*%
D12*
%TO.P,J6,1,Pin_1*%
%TO.N,Net-(J6-Pin_1)*%
X102410612Y-73938718D03*
%TD*%
%TO.P,J1,1,Pin_1*%
%TO.N,Net-(J1-Pin_1)*%
X102399695Y-70936662D03*
%TD*%
D14*
%TO.P,U1,1,GND*%
%TO.N,Net-(J4-Pin_1)*%
X105175000Y-75625000D03*
D15*
%TO.P,U1,2,P0.06*%
%TO.N,unconnected-(U1-P0.06-Pad2)*%
X105900000Y-75500000D03*
%TO.P,U1,3,P0.05/AIN3*%
%TO.N,unconnected-(U1-P0.05{slash}AIN3-Pad3)*%
X106500000Y-75500000D03*
%TO.P,U1,4,P0.00/XL1*%
%TO.N,unconnected-(U1-P0.00{slash}XL1-Pad4)*%
X107100000Y-75500000D03*
%TO.P,U1,5,P0.01/XL2*%
%TO.N,unconnected-(U1-P0.01{slash}XL2-Pad5)*%
X107700000Y-75500000D03*
%TO.P,U1,6,DCC*%
%TO.N,unconnected-(U1-DCC-Pad6)*%
X108300000Y-75500000D03*
%TO.P,U1,7,DEC4*%
%TO.N,Net-(U1-DEC4)*%
X108900000Y-75500000D03*
%TO.P,U1,8,VCC_NRF*%
%TO.N,Net-(J5-Pin_1)*%
X109500000Y-75500000D03*
D16*
%TO.P,U1,9,P0.03/AIN1*%
%TO.N,unconnected-(U1-P0.03{slash}AIN1-Pad9)*%
X109425000Y-74725000D03*
%TO.P,U1,10,P0.04/AIN2*%
%TO.N,unconnected-(U1-P0.04{slash}AIN2-Pad10)*%
X109425000Y-73975000D03*
D15*
%TO.P,U1,11,OUT_ANT*%
%TO.N,unconnected-(U1-OUT_ANT-Pad11)*%
X109500000Y-73200000D03*
%TO.P,U1,12,OUT_MOD*%
%TO.N,unconnected-(U1-OUT_MOD-Pad12)*%
X108900000Y-73200000D03*
%TO.P,U1,13,GND*%
%TO.N,Net-(J4-Pin_1)*%
X108300000Y-73200000D03*
%TO.P,U1,14,NFC/P0.09*%
%TO.N,unconnected-(U1-NFC{slash}P0.09-Pad14)*%
X107700000Y-73200000D03*
%TO.P,U1,15,NFC/P0.10*%
%TO.N,unconnected-(U1-NFC{slash}P0.10-Pad15)*%
X107100000Y-73200000D03*
%TO.P,U1,16,SWDCLK*%
%TO.N,Net-(J3-Pin_1)*%
X106500000Y-73200000D03*
%TO.P,U1,17,SWDIO*%
%TO.N,Net-(J2-Pin_1)*%
X105900000Y-73200000D03*
D14*
%TO.P,U1,18,GND*%
%TO.N,Net-(J4-Pin_1)*%
X105175000Y-73075000D03*
%TO.P,U1,19,P0.21/RESET*%
%TO.N,Net-(J1-Pin_1)*%
X105175000Y-73750000D03*
%TO.P,U1,20,P0.08*%
%TO.N,Net-(Q1-G)*%
X105175000Y-74350000D03*
%TO.P,U1,21,P0.07*%
%TO.N,unconnected-(U1-P0.07-Pad21)*%
X105175000Y-74950000D03*
%TO.P,U1,22,P0.18/TRACEDATA[0]*%
%TO.N,unconnected-(U1-P0.18{slash}TRACEDATA[0]-Pad22)*%
X106025000Y-74650000D03*
D16*
%TO.P,U1,23,P0.02/AIN0*%
%TO.N,unconnected-(U1-P0.02{slash}AIN0-Pad23)*%
X108525000Y-74725000D03*
%TO.P,U1,24,P0.28/AIN4*%
%TO.N,unconnected-(U1-P0.28{slash}AIN4-Pad24)*%
X108525000Y-73975000D03*
D14*
%TO.P,U1,25,P0.20/TRACECLK*%
%TO.N,unconnected-(U1-P0.20{slash}TRACECLK-Pad25)*%
X106025000Y-74050000D03*
%TO.P,U1,26,GND*%
%TO.N,Net-(J4-Pin_1)*%
X107300000Y-74350000D03*
%TD*%
D12*
%TO.P,J2,1,Pin_1*%
%TO.N,Net-(J2-Pin_1)*%
X105434500Y-70936662D03*
%TD*%
%TO.P,J3,1,Pin_1*%
%TO.N,Net-(J3-Pin_1)*%
X108425639Y-70936662D03*
%TD*%
%TO.P,J4,1,Pin_1*%
%TO.N,Net-(J4-Pin_1)*%
X102500000Y-78250000D03*
%TD*%
D17*
%TO.P,C1,1*%
%TO.N,Net-(J5-Pin_1)*%
X105829765Y-79157155D03*
%TO.P,C1,2*%
%TO.N,Net-(J4-Pin_1)*%
X105829765Y-77607155D03*
%TD*%
D18*
%TO.P,C2,1*%
%TO.N,Net-(J5-Pin_1)*%
X104552527Y-79462819D03*
%TO.P,C2,2*%
%TO.N,Net-(J4-Pin_1)*%
X104552527Y-78502819D03*
%TD*%
D19*
%TO.N,Net-(J4-Pin_1)*%
X102489190Y-76100197D02*
X102489190Y-78239190D01*
X102489190Y-78239190D02*
X102500000Y-78250000D01*
%TO.N,Net-(J6-Pin_1)*%
X101989190Y-76100197D02*
X101989190Y-74360140D01*
X101989190Y-74360140D02*
X102410612Y-73938718D01*
%TO.N,Net-(J5-Pin_1)*%
X109500000Y-76250000D02*
X110000000Y-76250000D01*
X109500000Y-76500000D02*
X109500000Y-76250000D01*
X109500000Y-76250000D02*
X109500000Y-75500000D01*
X108207308Y-77715849D02*
X108284151Y-77715849D01*
X108284151Y-77715849D02*
X109500000Y-76500000D01*
X105829765Y-79157155D02*
X106766002Y-79157155D01*
X106766002Y-79157155D02*
X108207308Y-77715849D01*
X104552527Y-79462819D02*
X105524101Y-79462819D01*
X105524101Y-79462819D02*
X105829765Y-79157155D01*
%TO.N,Net-(J6-Pin_1)*%
X102489190Y-74017296D02*
X102410612Y-73938718D01*
%TO.N,Net-(J4-Pin_1)*%
X101989190Y-77739190D02*
X102500000Y-78250000D01*
%TO.N,unconnected-(U1-OUT_MOD-Pad12)*%
X109403459Y-72471698D02*
X110049244Y-72471698D01*
X109375157Y-72500000D02*
X109403459Y-72471698D01*
D20*
%TO.N,Net-(J1-Pin_1)*%
X104351508Y-73278509D02*
X104823000Y-73750000D01*
D19*
X104297175Y-72336236D02*
X104676696Y-72336236D01*
X104351508Y-73278509D02*
X104297175Y-73224176D01*
X104297175Y-73224176D02*
X104297175Y-72336236D01*
D20*
X103000000Y-71927000D02*
X104351508Y-73278509D01*
D19*
%TO.N,unconnected-(U1-OUT_MOD-Pad12)*%
X109500000Y-72624843D02*
X109500000Y-73000000D01*
X108900000Y-72600000D02*
X109000000Y-72500000D01*
X108900000Y-73200000D02*
X108900000Y-72600000D01*
X109376192Y-72501035D02*
X109500000Y-72624843D01*
X109000000Y-72500000D02*
X109375157Y-72500000D01*
X109375157Y-72500000D02*
X109376192Y-72501035D01*
D20*
%TO.N,Net-(J4-Pin_1)*%
X107300000Y-74350000D02*
X107150000Y-74350000D01*
D21*
X103132080Y-77617920D02*
X102500000Y-78250000D01*
D20*
X107483158Y-74350000D02*
X108300000Y-73533158D01*
X105734952Y-73702837D02*
X105175000Y-73142885D01*
D21*
X103750000Y-76250000D02*
X103750000Y-77000000D01*
X102752819Y-78502819D02*
X102500000Y-78250000D01*
X104552527Y-78502819D02*
X102752819Y-78502819D01*
X104500000Y-77617920D02*
X103132080Y-77617920D01*
D20*
X106500000Y-75000000D02*
X105764456Y-75000000D01*
X108300000Y-73533158D02*
X108300000Y-73200000D01*
D21*
X104375000Y-75625000D02*
X103750000Y-76250000D01*
D20*
X105764456Y-75000000D02*
X105175000Y-75589456D01*
D21*
X103750000Y-77000000D02*
X102500000Y-78250000D01*
D20*
X107150000Y-74350000D02*
X106500000Y-75000000D01*
X105175000Y-73142885D02*
X105175000Y-73075000D01*
D21*
X104934101Y-78502819D02*
X105829765Y-77607155D01*
D20*
X105175000Y-75589456D02*
X105175000Y-75625000D01*
X107300000Y-74350000D02*
X107483158Y-74350000D01*
D21*
X104552527Y-78502819D02*
X104934101Y-78502819D01*
D20*
X106652837Y-73702837D02*
X105734952Y-73702837D01*
X107300000Y-74350000D02*
X106652837Y-73702837D01*
D21*
X105175000Y-75625000D02*
X104375000Y-75625000D01*
D19*
%TO.N,Net-(U1-DEC4)*%
X108500000Y-76250000D02*
X108900000Y-75850000D01*
X104500000Y-76657920D02*
X106592080Y-76657920D01*
X106592080Y-76657920D02*
X107000000Y-76250000D01*
X108900000Y-75850000D02*
X108900000Y-75500000D01*
X107000000Y-76250000D02*
X108500000Y-76250000D01*
D20*
%TO.N,Net-(J1-Pin_1)*%
X102399695Y-70936662D02*
X102436662Y-70936662D01*
X104823000Y-73750000D02*
X105175000Y-73750000D01*
X102436662Y-70936662D02*
X103000000Y-71500000D01*
X103000000Y-71500000D02*
X103000000Y-71927000D01*
%TO.N,Net-(J2-Pin_1)*%
X105434500Y-70936662D02*
X105900000Y-71402162D01*
X105900000Y-71402162D02*
X105900000Y-73200000D01*
%TO.N,Net-(J3-Pin_1)*%
X106500000Y-72862301D02*
X106500000Y-73200000D01*
X108425639Y-70936662D02*
X106500000Y-72862301D01*
%TO.N,Net-(Q1-G)*%
X102989190Y-76100197D02*
X104739387Y-74350000D01*
X104739387Y-74350000D02*
X105175000Y-74350000D01*
%TD*%
M02*
