  0
SECTION
  2
HEADER
  9
$ANGBASE
  50
0.0
  9
$ANGDIR
  70
1
  9
$MEASUREMENT
  70
0
  0
ENDSEC
  0
SECTION
  2
TABLES
  0
TABLE
  2
LTYPE
  70
4
  0
LTYPE
  5
40F
  2
CONTINUOUS
  70
0
  3
Solid line
  72
65
  73
0
  40
0.0
  0
LTYPE
  5
410
  2
DASHDOT
 70
0
  3
Dash Dot ____ _ ____ _
 72
65
 73
4
 40
2.0
 49
1.25
 49
-0.25
 49
0.25
 49
-0.25
  0
LTYPE
  5
411
  2
DASHED
 70
0
  3
Dashed __ __ __ __ __
 72
65
 73
2
 40
0.75
 49
0.5
 49
-0.25
  0
LTYPE
  5
43B
  2
DOTTED
 70
0
  3
Dotted .  .  .  .
 72
65
 73
2
 40
0.2
 49
0.0
 49
-0.2
  0
ENDTAB
  0
TABLE
  2
STYLE
  70
4
  0
STYLE
  2
KICAD
  70
0
  40
0
  41
1
  42
1
  50
0
  71
0
  3
isocp.shx
  0
STYLE
  2
KICADB
  70
0
  40
0
  41
1
  42
1
  50
0
  71
0
  3
isocp.shx
  0
STYLE
  2
KICADI
  70
0
  40
0
  41
1
  42
1
  50
15
  71
0
  3
isocp.shx
  0
STYLE
  2
KICADBI
  70
0
  40
0
  41
1
  42
1
  50
15
  71
0
  3
isocp.shx
  0
ENDTAB
  0
TABLE
  2
LAYER
  70
1
  0
LAYER
  2
BLACK
  70
0
  62
7
  6
CONTINUOUS
  0
ENDTAB
  0
ENDSEC
  0
SECTION
  2
ENTITIES
0
LINE
8
BLACK
6
CONTINUOUS
10
4.12504342519685
20
-3.1178533858267716
11
4.1268315748031492
21
-3.1190481889763779
0
LINE
8
BLACK
6
CONTINUOUS
10
4.1268315748031492
20
-3.1190481889763779
11
4.1280263779527555
21
-3.1208363385826772
0
LINE
8
BLACK
6
CONTINUOUS
10
4.1280263779527555
20
-3.1208363385826772
11
4.1284459448818893
21
-3.1229456299212597
0
LINE
8
BLACK
6
CONTINUOUS
10
4.1284459448818893
20
-3.1229456299212597
11
4.1284459448818893
21
-3.1339692519685038
0
LINE
8
BLACK
6
CONTINUOUS
10
4.1284459448818893
20
-3.1339692519685038
11
4.1280263779527555
21
-3.1360785433070864
0
LINE
8
BLACK
6
CONTINUOUS
10
4.1280263779527555
20
-3.1360785433070864
11
4.1268315748031492
21
-3.1378666929133856
0
LINE
8
BLACK
6
CONTINUOUS
10
4.1268315748031492
20
-3.1378666929133856
11
4.12504342519685
21
-3.1390614960629919
0
LINE
8
BLACK
6
CONTINUOUS
10
4.12504342519685
20
-3.1390614960629919
11
4.1229341338582675
21
-3.1394810629921257
0
LINE
8
BLACK
6
CONTINUOUS
10
4.1229341338582675
20
-3.1394810629921257
11
4.1095483070866141
21
-3.1394810629921257
0
LINE
8
BLACK
6
CONTINUOUS
10
4.1095483070866141
20
-3.1394810629921257
11
4.1074390157480316
21
-3.1390614960629919
0
LINE
8
BLACK
6
CONTINUOUS
10
4.1074390157480316
20
-3.1390614960629919
11
4.1056508661417324
21
-3.1378666929133856
0
LINE
8
BLACK
6
CONTINUOUS
10
4.1056508661417324
20
-3.1378666929133856
11
4.1044560629921261
21
-3.1360785433070864
0
LINE
8
BLACK
6
CONTINUOUS
10
4.1044560629921261
20
-3.1360785433070864
11
4.1040364960629923
21
-3.1339692519685038
0
LINE
8
BLACK
6
CONTINUOUS
10
4.1040364960629923
20
-3.1339692519685038
11
4.1040364960629923
21
-3.1229456299212597
0
LINE
8
BLACK
6
CONTINUOUS
10
4.1040364960629923
20
-3.1229456299212597
11
4.1044560629921261
21
-3.1208363385826772
0
LINE
8
BLACK
6
CONTINUOUS
10
4.1044560629921261
20
-3.1208363385826772
11
4.1056508661417324
21
-3.1190481889763779
0
LINE
8
BLACK
6
CONTINUOUS
10
4.1056508661417324
20
-3.1190481889763779
11
4.1074390157480316
21
-3.1178533858267716
0
LINE
8
BLACK
6
CONTINUOUS
10
4.1074390157480316
20
-3.1178533858267716
11
4.1095483070866141
21
-3.1174338188976378
0
LINE
8
BLACK
6
CONTINUOUS
10
4.1095483070866141
20
-3.1174338188976378
11
4.1229341338582675
21
-3.1174338188976378
0
LINE
8
BLACK
6
CONTINUOUS
10
4.1229341338582675
20
-3.1174338188976378
11
4.12504342519685
21
-3.1178533858267716
0
LINE
8
BLACK
6
CONTINUOUS
10
4.1797586220472436
20
-3.0993811811023622
11
4.1826324409448814
21
-3.1013014173228344
0
LINE
8
BLACK
6
CONTINUOUS
10
4.1826324409448814
20
-3.1013014173228344
11
4.1845526771653541
21
-3.1041752362204722
0
LINE
8
BLACK
6
CONTINUOUS
10
4.1845526771653541
20
-3.1041752362204722
11
4.1852269685039367
21
-3.1075651574803147
0
LINE
8
BLACK
6
CONTINUOUS
10
4.1852269685039367
20
-3.1075651574803147
11
4.1852269685039367
21
-3.1252816929133855
0
LINE
8
BLACK
6
CONTINUOUS
10
4.1852269685039367
20
-3.1252816929133855
11
4.1845526771653541
21
-3.1286716141732285
0
LINE
8
BLACK
6
CONTINUOUS
10
4.1845526771653541
20
-3.1286716141732285
11
4.1826324409448814
21
-3.1315454330708659
0
LINE
8
BLACK
6
CONTINUOUS
10
4.1826324409448814
20
-3.1315454330708659
11
4.1797586220472436
21
-3.1334656692913385
0
LINE
8
BLACK
6
CONTINUOUS
10
4.1797586220472436
20
-3.1334656692913385
11
4.1763687007874015
21
-3.1341399606299212
0
LINE
8
BLACK
6
CONTINUOUS
10
4.1763687007874015
20
-3.1341399606299212
11
4.1566836614173228
21
-3.1341399606299212
0
LINE
8
BLACK
6
CONTINUOUS
10
4.1566836614173228
20
-3.1341399606299212
11
4.1532937401574799
21
-3.1334656692913385
0
LINE
8
BLACK
6
CONTINUOUS
10
4.1532937401574799
20
-3.1334656692913385
11
4.150419921259842
21
-3.1315454330708659
0
LINE
8
BLACK
6
CONTINUOUS
10
4.150419921259842
20
-3.1315454330708659
11
4.1484996850393703
21
-3.1286716141732285
0
LINE
8
BLACK
6
CONTINUOUS
10
4.1484996850393703
20
-3.1286716141732285
11
4.1478253937007876
21
-3.1252816929133855
0
LINE
8
BLACK
6
CONTINUOUS
10
4.1478253937007876
20
-3.1252816929133855
11
4.1478253937007876
21
-3.1075651574803147
0
LINE
8
BLACK
6
CONTINUOUS
10
4.1478253937007876
20
-3.1075651574803147
11
4.1484996850393703
21
-3.1041752362204722
0
LINE
8
BLACK
6
CONTINUOUS
10
4.1484996850393703
20
-3.1041752362204722
11
4.150419921259842
21
-3.1013014173228344
0
LINE
8
BLACK
6
CONTINUOUS
10
4.150419921259842
20
-3.1013014173228344
11
4.1532937401574799
21
-3.0993811811023622
0
LINE
8
BLACK
6
CONTINUOUS
10
4.1532937401574799
20
-3.0993811811023622
11
4.1566836614173228
21
-3.0987068897637795
0
LINE
8
BLACK
6
CONTINUOUS
10
4.1566836614173228
20
-3.0987068897637795
11
4.1763687007874015
21
-3.0987068897637795
0
LINE
8
BLACK
6
CONTINUOUS
10
4.1763687007874015
20
-3.0987068897637795
11
4.1797586220472436
21
-3.0993811811023622
0
LINE
8
BLACK
6
CONTINUOUS
10
4.12504342519685
20
-3.0800581102362203
11
4.1268315748031492
21
-3.0812529133858266
0
LINE
8
BLACK
6
CONTINUOUS
10
4.1268315748031492
20
-3.0812529133858266
11
4.1280263779527555
21
-3.0830410629921259
0
LINE
8
BLACK
6
CONTINUOUS
10
4.1280263779527555
20
-3.0830410629921259
11
4.1284459448818893
21
-3.0851503543307084
0
LINE
8
BLACK
6
CONTINUOUS
10
4.1284459448818893
20
-3.0851503543307084
11
4.1284459448818893
21
-3.0961739763779526
0
LINE
8
BLACK
6
CONTINUOUS
10
4.1284459448818893
20
-3.0961739763779526
11
4.1280263779527555
21
-3.0982832677165355
0
LINE
8
BLACK
6
CONTINUOUS
10
4.1280263779527555
20
-3.0982832677165355
11
4.1268315748031492
21
-3.1000714173228348
0
LINE
8
BLACK
6
CONTINUOUS
10
4.1268315748031492
20
-3.1000714173228348
11
4.12504342519685
21
-3.101266220472441
0
LINE
8
BLACK
6
CONTINUOUS
10
4.12504342519685
20
-3.101266220472441
11
4.1229341338582675
21
-3.1016857874015749
0
LINE
8
BLACK
6
CONTINUOUS
10
4.1229341338582675
20
-3.1016857874015749
11
4.1095483070866141
21
-3.1016857874015749
0
LINE
8
BLACK
6
CONTINUOUS
10
4.1095483070866141
20
-3.1016857874015749
11
4.1074390157480316
21
-3.101266220472441
0
LINE
8
BLACK
6
CONTINUOUS
10
4.1074390157480316
20
-3.101266220472441
11
4.1056508661417324
21
-3.1000714173228348
0
LINE
8
BLACK
6
CONTINUOUS
10
4.1056508661417324
20
-3.1000714173228348
11
4.1044560629921261
21
-3.0982832677165355
0
LINE
8
BLACK
6
CONTINUOUS
10
4.1044560629921261
20
-3.0982832677165355
11
4.1040364960629923
21
-3.0961739763779526
0
LINE
8
BLACK
6
CONTINUOUS
10
4.1040364960629923
20
-3.0961739763779526
11
4.1040364960629923
21
-3.0851503543307084
0
LINE
8
BLACK
6
CONTINUOUS
10
4.1040364960629923
20
-3.0851503543307084
11
4.1044560629921261
21
-3.0830410629921259
0
LINE
8
BLACK
6
CONTINUOUS
10
4.1044560629921261
20
-3.0830410629921259
11
4.1056508661417324
21
-3.0812529133858266
0
LINE
8
BLACK
6
CONTINUOUS
10
4.1056508661417324
20
-3.0812529133858266
11
4.1074390157480316
21
-3.0800581102362203
0
LINE
8
BLACK
6
CONTINUOUS
10
4.1074390157480316
20
-3.0800581102362203
11
4.1095483070866141
21
-3.0796385433070865
0
LINE
8
BLACK
6
CONTINUOUS
10
4.1095483070866141
20
-3.0796385433070865
11
4.1229341338582675
21
-3.0796385433070865
0
LINE
8
BLACK
6
CONTINUOUS
10
4.1229341338582675
20
-3.0796385433070865
11
4.12504342519685
21
-3.0800581102362203
0
LINE
8
BLACK
6
CONTINUOUS
10
4.1797586220472436
20
-3.0383575590551182
11
4.1826324409448814
21
-3.0402777952755904
0
LINE
8
BLACK
6
CONTINUOUS
10
4.1826324409448814
20
-3.0402777952755904
11
4.1845526771653541
21
-3.0431516141732282
0
LINE
8
BLACK
6
CONTINUOUS
10
4.1845526771653541
20
-3.0431516141732282
11
4.1852269685039367
21
-3.0465415354330707
0
LINE
8
BLACK
6
CONTINUOUS
10
4.1852269685039367
20
-3.0465415354330707
11
4.1852269685039367
21
-3.0642580708661415
0
LINE
8
BLACK
6
CONTINUOUS
10
4.1852269685039367
20
-3.0642580708661415
11
4.1845526771653541
21
-3.067647992125984
0
LINE
8
BLACK
6
CONTINUOUS
10
4.1845526771653541
20
-3.067647992125984
11
4.1826324409448814
21
-3.0705218110236219
0
LINE
8
BLACK
6
CONTINUOUS
10
4.1826324409448814
20
-3.0705218110236219
11
4.1797586220472436
21
-3.0724420472440945
0
LINE
8
BLACK
6
CONTINUOUS
10
4.1797586220472436
20
-3.0724420472440945
11
4.1763687007874015
21
-3.0731163385826772
0
LINE
8
BLACK
6
CONTINUOUS
10
4.1763687007874015
20
-3.0731163385826772
11
4.1566836614173228
21
-3.0731163385826772
0
LINE
8
BLACK
6
CONTINUOUS
10
4.1566836614173228
20
-3.0731163385826772
11
4.1532937401574799
21
-3.0724420472440945
0
LINE
8
BLACK
6
CONTINUOUS
10
4.1532937401574799
20
-3.0724420472440945
11
4.150419921259842
21
-3.0705218110236219
0
LINE
8
BLACK
6
CONTINUOUS
10
4.150419921259842
20
-3.0705218110236219
11
4.1484996850393703
21
-3.067647992125984
0
LINE
8
BLACK
6
CONTINUOUS
10
4.1484996850393703
20
-3.067647992125984
11
4.1478253937007876
21
-3.0642580708661415
0
LINE
8
BLACK
6
CONTINUOUS
10
4.1478253937007876
20
-3.0642580708661415
11
4.1478253937007876
21
-3.0465415354330707
0
LINE
8
BLACK
6
CONTINUOUS
10
4.1478253937007876
20
-3.0465415354330707
11
4.1484996850393703
21
-3.0431516141732282
0
LINE
8
BLACK
6
CONTINUOUS
10
4.1484996850393703
20
-3.0431516141732282
11
4.150419921259842
21
-3.0402777952755904
0
LINE
8
BLACK
6
CONTINUOUS
10
4.150419921259842
20
-3.0402777952755904
11
4.1532937401574799
21
-3.0383575590551182
0
LINE
8
BLACK
6
CONTINUOUS
10
4.1532937401574799
20
-3.0383575590551182
11
4.1566836614173228
21
-3.0376832677165355
0
LINE
8
BLACK
6
CONTINUOUS
10
4.1566836614173228
20
-3.0376832677165355
11
4.1763687007874015
21
-3.0376832677165355
0
LINE
8
BLACK
6
CONTINUOUS
10
4.1763687007874015
20
-3.0376832677165355
11
4.1797586220472436
21
-3.0383575590551182
0
LINE
8
BLACK
6
CONTINUOUS
10
4.1229754330708657
20
-3.0452195669291338
11
4.1247635826771649
21
-3.0464143700787401
0
LINE
8
BLACK
6
CONTINUOUS
10
4.1247635826771649
20
-3.0464143700787401
11
4.1259583858267712
21
-3.0482025196850393
0
LINE
8
BLACK
6
CONTINUOUS
10
4.1259583858267712
20
-3.0482025196850393
11
4.126377952755905
21
-3.0503118110236218
0
LINE
8
BLACK
6
CONTINUOUS
10
4.126377952755905
20
-3.0503118110236218
11
4.126377952755905
21
-3.061335433070866
0
LINE
8
BLACK
6
CONTINUOUS
10
4.126377952755905
20
-3.061335433070866
11
4.1259583858267712
21
-3.0634447244094489
0
LINE
8
BLACK
6
CONTINUOUS
10
4.1259583858267712
20
-3.0634447244094489
11
4.1247635826771649
21
-3.0652328740157482
0
LINE
8
BLACK
6
CONTINUOUS
10
4.1247635826771649
20
-3.0652328740157482
11
4.1229754330708657
21
-3.0664276771653545
0
LINE
8
BLACK
6
CONTINUOUS
10
4.1229754330708657
20
-3.0664276771653545
11
4.1208661417322832
21
-3.0668472440944883
0
LINE
8
BLACK
6
CONTINUOUS
10
4.1208661417322832
20
-3.0668472440944883
11
4.1074803149606298
21
-3.0668472440944883
0
LINE
8
BLACK
6
CONTINUOUS
10
4.1074803149606298
20
-3.0668472440944883
11
4.1053710236220473
21
-3.0664276771653545
0
LINE
8
BLACK
6
CONTINUOUS
10
4.1053710236220473
20
-3.0664276771653545
11
4.1035828740157481
21
-3.0652328740157482
0
LINE
8
BLACK
6
CONTINUOUS
10
4.1035828740157481
20
-3.0652328740157482
11
4.1023880708661418
21
-3.0634447244094489
0
LINE
8
BLACK
6
CONTINUOUS
10
4.1023880708661418
20
-3.0634447244094489
11
4.101968503937008
21
-3.061335433070866
0
LINE
8
BLACK
6
CONTINUOUS
10
4.101968503937008
20
-3.061335433070866
11
4.101968503937008
21
-3.0503118110236218
0
LINE
8
BLACK
6
CONTINUOUS
10
4.101968503937008
20
-3.0503118110236218
11
4.1023880708661418
21
-3.0482025196850393
0
LINE
8
BLACK
6
CONTINUOUS
10
4.1023880708661418
20
-3.0482025196850393
11
4.1035828740157481
21
-3.0464143700787401
0
LINE
8
BLACK
6
CONTINUOUS
10
4.1035828740157481
20
-3.0464143700787401
11
4.1053710236220473
21
-3.0452195669291338
0
LINE
8
BLACK
6
CONTINUOUS
10
4.1053710236220473
20
-3.0452195669291338
11
4.1074803149606298
21
-3.0448
0
LINE
8
BLACK
6
CONTINUOUS
10
4.1074803149606298
20
-3.0448
11
4.1208661417322832
21
-3.0448
0
LINE
8
BLACK
6
CONTINUOUS
10
4.1208661417322832
20
-3.0448
11
4.1229754330708657
21
-3.0452195669291338
0
LINE
8
BLACK
6
CONTINUOUS
10
4.1229754330708657
20
-3.0074242913385825
11
4.1247635826771649
21
-3.0086190944881888
0
LINE
8
BLACK
6
CONTINUOUS
10
4.1247635826771649
20
-3.0086190944881888
11
4.1259583858267712
21
-3.010407244094488
0
LINE
8
BLACK
6
CONTINUOUS
10
4.1259583858267712
20
-3.010407244094488
11
4.126377952755905
21
-3.012516535433071
0
LINE
8
BLACK
6
CONTINUOUS
10
4.126377952755905
20
-3.012516535433071
11
4.126377952755905
21
-3.0235401574803147
0
LINE
8
BLACK
6
CONTINUOUS
10
4.126377952755905
20
-3.0235401574803147
11
4.1259583858267712
21
-3.0256494488188976
0
LINE
8
BLACK
6
CONTINUOUS
10
4.1259583858267712
20
-3.0256494488188976
11
4.1247635826771649
21
-3.0274375984251969
0
LINE
8
BLACK
6
CONTINUOUS
10
4.1247635826771649
20
-3.0274375984251969
11
4.1229754330708657
21
-3.0286324015748032
0
LINE
8
BLACK
6
CONTINUOUS
10
4.1229754330708657
20
-3.0286324015748032
11
4.1208661417322832
21
-3.029051968503937
0
LINE
8
BLACK
6
CONTINUOUS
10
4.1208661417322832
20
-3.029051968503937
11
4.1074803149606298
21
-3.029051968503937
0
LINE
8
BLACK
6
CONTINUOUS
10
4.1074803149606298
20
-3.029051968503937
11
4.1053710236220473
21
-3.0286324015748032
0
LINE
8
BLACK
6
CONTINUOUS
10
4.1053710236220473
20
-3.0286324015748032
11
4.1035828740157481
21
-3.0274375984251969
0
LINE
8
BLACK
6
CONTINUOUS
10
4.1035828740157481
20
-3.0274375984251969
11
4.1023880708661418
21
-3.0256494488188976
0
LINE
8
BLACK
6
CONTINUOUS
10
4.1023880708661418
20
-3.0256494488188976
11
4.101968503937008
21
-3.0235401574803147
0
LINE
8
BLACK
6
CONTINUOUS
10
4.101968503937008
20
-3.0235401574803147
11
4.101968503937008
21
-3.012516535433071
0
LINE
8
BLACK
6
CONTINUOUS
10
4.101968503937008
20
-3.012516535433071
11
4.1023880708661418
21
-3.010407244094488
0
LINE
8
BLACK
6
CONTINUOUS
10
4.1023880708661418
20
-3.010407244094488
11
4.1035828740157481
21
-3.0086190944881888
0
LINE
8
BLACK
6
CONTINUOUS
10
4.1035828740157481
20
-3.0086190944881888
11
4.1053710236220473
21
-3.0074242913385825
0
LINE
8
BLACK
6
CONTINUOUS
10
4.1053710236220473
20
-3.0074242913385825
11
4.1074803149606298
21
-3.0070047244094487
0
LINE
8
BLACK
6
CONTINUOUS
10
4.1074803149606298
20
-3.0070047244094487
11
4.1208661417322832
21
-3.0070047244094487
0
LINE
8
BLACK
6
CONTINUOUS
10
4.1208661417322832
20
-3.0070047244094487
11
4.1229754330708657
21
-3.0074242913385825
0
LINE
8
BLACK
6
CONTINUOUS
10
4.0165097637795277
20
-2.9883749212598425
11
4.0166248031496066
21
-2.9884132677165351
0
LINE
8
BLACK
6
CONTINUOUS
10
4.0166248031496066
20
-2.9884132677165351
11
4.0167003937007877
21
-2.9884132677165351
0
LINE
8
BLACK
6
CONTINUOUS
10
4.0167003937007877
20
-2.9884132677165351
11
4.0167066141732279
21
-2.9884142913385827
0
LINE
8
BLACK
6
CONTINUOUS
10
4.0167066141732279
20
-2.9884142913385827
11
4.0168216535433068
21
-2.9884526377952754
0
LINE
8
BLACK
6
CONTINUOUS
10
4.0168216535433068
20
-2.9884526377952754
11
4.0168972440944879
21
-2.9884526377952754
0
LINE
8
BLACK
6
CONTINUOUS
10
4.0168972440944879
20
-2.9884526377952754
11
4.016903464566929
21
-2.9884536614173229
0
LINE
8
BLACK
6
CONTINUOUS
10
4.016903464566929
20
-2.9884536614173229
11
4.0170215748031497
21
-2.9884930314960627
0
LINE
8
BLACK
6
CONTINUOUS
10
4.0170215748031497
20
-2.9884930314960627
11
4.0170241732283465
21
-2.988494094488189
0
LINE
8
BLACK
6
CONTINUOUS
10
4.0170241732283465
20
-2.988494094488189
11
4.0171017322834643
21
-2.988532874015748
0
LINE
8
BLACK
6
CONTINUOUS
10
4.0171017322834643
20
-2.988532874015748
11
4.0172184251968499
21
-2.9885717716535432
0
LINE
8
BLACK
6
CONTINUOUS
10
4.0172184251968499
20
-2.9885717716535432
11
4.0172261417322837
21
-2.9885764960629921
0
LINE
8
BLACK
6
CONTINUOUS
10
4.0172261417322837
20
-2.9885764960629921
11
4.0173026771653539
21
-2.9886530314960629
0
LINE
8
BLACK
6
CONTINUOUS
10
4.0173026771653539
20
-2.9886530314960629
11
4.0173785039370076
21
-2.9886909448818897
0
LINE
8
BLACK
6
CONTINUOUS
10
4.0173785039370076
20
-2.9886909448818897
11
4.0173836220472436
21
-2.9886946062992124
0
LINE
8
BLACK
6
CONTINUOUS
10
4.0173836220472436
20
-2.9886946062992124
11
4.0174601574803148
21
-2.9887711417322835
0
LINE
8
BLACK
6
CONTINUOUS
10
4.0174601574803148
20
-2.9887711417322835
11
4.0175359842519685
21
-2.9888090551181103
0
LINE
8
BLACK
6
CONTINUOUS
10
4.0175359842519685
20
-2.9888090551181103
11
4.0175411023622045
21
-2.988812716535433
0
LINE
8
BLACK
6
CONTINUOUS
10
4.0175411023622045
20
-2.988812716535433
11
4.0178560629921263
21
-2.9891276771653543
0
LINE
8
BLACK
6
CONTINUOUS
10
4.0178560629921263
20
-2.9891276771653543
11
4.0178597244094485
21
-2.9891327952755904
0
LINE
8
BLACK
6
CONTINUOUS
10
4.0178597244094485
20
-2.9891327952755904
11
4.0178976377952758
21
-2.989208622047244
0
LINE
8
BLACK
6
CONTINUOUS
10
4.0178976377952758
20
-2.989208622047244
11
4.017974173228346
21
-2.9892851574803148
0
LINE
8
BLACK
6
CONTINUOUS
10
4.017974173228346
20
-2.9892851574803148
11
4.0179778346456692
21
-2.9892902755905513
0
LINE
8
BLACK
6
CONTINUOUS
10
4.0179778346456692
20
-2.9892902755905513
11
4.0180157480314964
21
-2.9893661023622045
0
LINE
8
BLACK
6
CONTINUOUS
10
4.0180157480314964
20
-2.9893661023622045
11
4.0180922834645667
21
-2.9894426377952756
0
LINE
8
BLACK
6
CONTINUOUS
10
4.0180922834645667
20
-2.9894426377952756
11
4.0180970078740152
21
-2.9894503543307085
0
LINE
8
BLACK
6
CONTINUOUS
10
4.0180970078740152
20
-2.9894503543307085
11
4.0181359055118113
21
-2.9895670472440945
0
LINE
8
BLACK
6
CONTINUOUS
10
4.0181359055118113
20
-2.9895670472440945
11
4.0181746850393703
21
-2.9896446062992124
0
LINE
8
BLACK
6
CONTINUOUS
10
4.0181746850393703
20
-2.9896446062992124
11
4.0181757480314957
21
-2.9896472047244096
0
LINE
8
BLACK
6
CONTINUOUS
10
4.0181757480314957
20
-2.9896472047244096
11
4.0182151181102359
21
-2.9897653149606298
0
LINE
8
BLACK
6
CONTINUOUS
10
4.0182151181102359
20
-2.9897653149606298
11
4.0182161417322835
21
-2.9897715354330709
0
LINE
8
BLACK
6
CONTINUOUS
10
4.0182161417322835
20
-2.9897715354330709
11
4.0182161417322835
21
-2.9898471259842521
0
LINE
8
BLACK
6
CONTINUOUS
10
4.0182161417322835
20
-2.9898471259842521
11
4.0182544881889761
21
-2.9899621653543305
0
LINE
8
BLACK
6
CONTINUOUS
10
4.0182544881889761
20
-2.9899621653543305
11
4.0182555118110237
21
-2.9899683858267716
0
LINE
8
BLACK
6
CONTINUOUS
10
4.0182555118110237
20
-2.9899683858267716
11
4.0182555118110237
21
-2.9900439763779527
0
LINE
8
BLACK
6
CONTINUOUS
10
4.0182555118110237
20
-2.9900439763779527
11
4.0182938582677163
21
-2.9901590157480316
0
LINE
8
BLACK
6
CONTINUOUS
10
4.0182938582677163
20
-2.9901590157480316
11
4.0182948818897639
21
-2.9901652362204723
0
LINE
8
BLACK
6
CONTINUOUS
10
4.0182948818897639
20
-2.9901652362204723
11
4.0182948818897639
21
-3.0019762598425195
0
LINE
8
BLACK
6
CONTINUOUS
10
4.0182948818897639
20
-3.0019762598425195
11
4.0182938582677163
21
-3.0019824803149606
0
LINE
8
BLACK
6
CONTINUOUS
10
4.0182938582677163
20
-3.0019824803149606
11
4.0182555118110237
21
-3.0020975196850395
0
LINE
8
BLACK
6
CONTINUOUS
10
4.0182555118110237
20
-3.0020975196850395
11
4.0182555118110237
21
-3.0021731102362206
0
LINE
8
BLACK
6
CONTINUOUS
10
4.0182555118110237
20
-3.0021731102362206
11
4.0182544881889761
21
-3.0021793307086613
0
LINE
8
BLACK
6
CONTINUOUS
10
4.0182544881889761
20
-3.0021793307086613
11
4.0182161417322835
21
-3.0022943700787401
0
LINE
8
BLACK
6
CONTINUOUS
10
4.0182161417322835
20
-3.0022943700787401
11
4.0182161417322835
21
-3.0023699606299212
0
LINE
8
BLACK
6
CONTINUOUS
10
4.0182161417322835
20
-3.0023699606299212
11
4.0182151181102359
21
-3.0023761811023619
0
LINE
8
BLACK
6
CONTINUOUS
10
4.0182151181102359
20
-3.0023761811023619
11
4.0181757480314957
21
-3.0024942913385826
0
LINE
8
BLACK
6
CONTINUOUS
10
4.0181757480314957
20
-3.0024942913385826
11
4.0181746850393703
21
-3.0024968897637794
0
LINE
8
BLACK
6
CONTINUOUS
10
4.0181746850393703
20
-3.0024968897637794
11
4.0181359055118113
21
-3.0025744488188977
0
LINE
8
BLACK
6
CONTINUOUS
10
4.0181359055118113
20
-3.0025744488188977
11
4.0180970078740152
21
-3.0026911417322832
0
LINE
8
BLACK
6
CONTINUOUS
10
4.0180970078740152
20
-3.0026911417322832
11
4.0180922834645667
21
-3.0026988582677165
0
LINE
8
BLACK
6
CONTINUOUS
10
4.0180922834645667
20
-3.0026988582677165
11
4.0180157480314964
21
-3.0027753937007873
0
LINE
8
BLACK
6
CONTINUOUS
10
4.0180157480314964
20
-3.0027753937007873
11
4.0179778346456692
21
-3.0028512204724409
0
LINE
8
BLACK
6
CONTINUOUS
10
4.0179778346456692
20
-3.0028512204724409
11
4.017974173228346
21
-3.002856338582677
0
LINE
8
BLACK
6
CONTINUOUS
10
4.017974173228346
20
-3.002856338582677
11
4.0178976377952758
21
-3.0029328740157482
0
LINE
8
BLACK
6
CONTINUOUS
10
4.0178976377952758
20
-3.0029328740157482
11
4.0178597244094485
21
-3.0030087007874013
0
LINE
8
BLACK
6
CONTINUOUS
10
4.0178597244094485
20
-3.0030087007874013
11
4.0178560629921263
21
-3.0030138188976379
0
LINE
8
BLACK
6
CONTINUOUS
10
4.0178560629921263
20
-3.0030138188976379
11
4.0175411023622045
21
-3.0033287795275592
0
LINE
8
BLACK
6
CONTINUOUS
10
4.0175411023622045
20
-3.0033287795275592
11
4.0175359842519685
21
-3.0033324409448818
0
LINE
8
BLACK
6
CONTINUOUS
10
4.0175359842519685
20
-3.0033324409448818
11
4.0174601574803148
21
-3.0033703543307086
0
LINE
8
BLACK
6
CONTINUOUS
10
4.0174601574803148
20
-3.0033703543307086
11
4.0173836220472436
21
-3.0034468897637794
0
LINE
8
BLACK
6
CONTINUOUS
10
4.0173836220472436
20
-3.0034468897637794
11
4.0173785039370076
21
-3.0034505511811025
0
LINE
8
BLACK
6
CONTINUOUS
10
4.0173785039370076
20
-3.0034505511811025
11
4.0173026771653539
21
-3.0034884645669289
0
LINE
8
BLACK
6
CONTINUOUS
10
4.0173026771653539
20
-3.0034884645669289
11
4.0172261417322837
21
-3.003565
0
LINE
8
BLACK
6
CONTINUOUS
10
4.0172261417322837
20
-3.003565
11
4.0172184251968499
21
-3.0035697244094486
0
LINE
8
BLACK
6
CONTINUOUS
10
4.0172184251968499
20
-3.0035697244094486
11
4.0171017322834643
21
-3.0036086220472442
0
LINE
8
BLACK
6
CONTINUOUS
10
4.0171017322834643
20
-3.0036086220472442
11
4.0170241732283465
21
-3.0036474015748031
0
LINE
8
BLACK
6
CONTINUOUS
10
4.0170241732283465
20
-3.0036474015748031
11
4.0170215748031497
21
-3.003648464566929
0
LINE
8
BLACK
6
CONTINUOUS
10
4.0170215748031497
20
-3.003648464566929
11
4.016903464566929
21
-3.0036878346456692
0
LINE
8
BLACK
6
CONTINUOUS
10
4.016903464566929
20
-3.0036878346456692
11
4.0168972440944879
21
-3.0036888582677164
0
LINE
8
BLACK
6
CONTINUOUS
10
4.0168972440944879
20
-3.0036888582677164
11
4.0168216535433068
21
-3.0036888582677164
0
LINE
8
BLACK
6
CONTINUOUS
10
4.0168216535433068
20
-3.0036888582677164
11
4.0167066141732279
21
-3.0037272047244095
0
LINE
8
BLACK
6
CONTINUOUS
10
4.0167066141732279
20
-3.0037272047244095
11
4.0167003937007877
21
-3.0037282283464566
0
LINE
8
BLACK
6
CONTINUOUS
10
4.0167003937007877
20
-3.0037282283464566
11
4.0166248031496066
21
-3.0037282283464566
0
LINE
8
BLACK
6
CONTINUOUS
10
4.0166248031496066
20
-3.0037282283464566
11
4.0165097637795277
21
-3.0037665748031497
0
LINE
8
BLACK
6
CONTINUOUS
10
4.0165097637795277
20
-3.0037665748031497
11
4.0165035433070866
21
-3.0037675984251968
0
LINE
8
BLACK
6
CONTINUOUS
10
4.0165035433070866
20
-3.0037675984251968
11
4.0121728346456695
21
-3.0037675984251968
0
LINE
8
BLACK
6
CONTINUOUS
10
4.0121728346456695
20
-3.0037675984251968
11
4.0121666141732284
21
-3.0037665748031497
0
LINE
8
BLACK
6
CONTINUOUS
10
4.0121666141732284
20
-3.0037665748031497
11
4.0120515748031496
21
-3.0037282283464566
0
LINE
8
BLACK
6
CONTINUOUS
10
4.0120515748031496
20
-3.0037282283464566
11
4.0119759842519684
21
-3.0037282283464566
0
LINE
8
BLACK
6
CONTINUOUS
10
4.0119759842519684
20
-3.0037282283464566
11
4.0119697637795273
21
-3.0037272047244095
0
LINE
8
BLACK
6
CONTINUOUS
10
4.0119697637795273
20
-3.0037272047244095
11
4.0118547244094485
21
-3.0036888582677164
0
LINE
8
BLACK
6
CONTINUOUS
10
4.0118547244094485
20
-3.0036888582677164
11
4.0117791338582673
21
-3.0036888582677164
0
LINE
8
BLACK
6
CONTINUOUS
10
4.0117791338582673
20
-3.0036888582677164
11
4.0117729133858271
21
-3.0036878346456692
0
LINE
8
BLACK
6
CONTINUOUS
10
4.0117729133858271
20
-3.0036878346456692
11
4.0116548031496064
21
-3.003648464566929
0
LINE
8
BLACK
6
CONTINUOUS
10
4.0116548031496064
20
-3.003648464566929
11
4.0116522047244096
21
-3.0036474015748031
0
LINE
8
BLACK
6
CONTINUOUS
10
4.0116522047244096
20
-3.0036474015748031
11
4.0115746456692909
21
-3.0036086220472442
0
LINE
8
BLACK
6
CONTINUOUS
10
4.0115746456692909
20
-3.0036086220472442
11
4.0114579527559053
21
-3.0035697244094486
0
LINE
8
BLACK
6
CONTINUOUS
10
4.0114579527559053
20
-3.0035697244094486
11
4.0114502362204725
21
-3.003565
0
LINE
8
BLACK
6
CONTINUOUS
10
4.0114502362204725
20
-3.003565
11
4.0113737007874013
21
-3.0034884645669289
0
LINE
8
BLACK
6
CONTINUOUS
10
4.0113737007874013
20
-3.0034884645669289
11
4.0112978740157477
21
-3.0034505511811025
0
LINE
8
BLACK
6
CONTINUOUS
10
4.0112978740157477
20
-3.0034505511811025
11
4.0112927559055116
21
-3.0034468897637794
0
LINE
8
BLACK
6
CONTINUOUS
10
4.0112927559055116
20
-3.0034468897637794
11
4.0112162204724404
21
-3.0033703543307086
0
LINE
8
BLACK
6
CONTINUOUS
10
4.0112162204724404
20
-3.0033703543307086
11
4.0111403937007877
21
-3.0033324409448818
0
LINE
8
BLACK
6
CONTINUOUS
10
4.0111403937007877
20
-3.0033324409448818
11
4.0111352755905507
21
-3.0033287795275592
0
LINE
8
BLACK
6
CONTINUOUS
10
4.0111352755905507
20
-3.0033287795275592
11
4.0108203149606299
21
-3.0030138188976379
0
LINE
8
BLACK
6
CONTINUOUS
10
4.0108203149606299
20
-3.0030138188976379
11
4.0108166535433067
21
-3.0030087007874013
0
LINE
8
BLACK
6
CONTINUOUS
10
4.0108166535433067
20
-3.0030087007874013
11
4.0107787401574804
21
-3.0029328740157482
0
LINE
8
BLACK
6
CONTINUOUS
10
4.0107787401574804
20
-3.0029328740157482
11
4.0107022047244092
21
-3.002856338582677
0
LINE
8
BLACK
6
CONTINUOUS
10
4.0107022047244092
20
-3.002856338582677
11
4.0106985433070861
21
-3.0028512204724409
0
LINE
8
BLACK
6
CONTINUOUS
10
4.0106985433070861
20
-3.0028512204724409
11
4.0106606299212597
21
-3.0027753937007873
0
LINE
8
BLACK
6
CONTINUOUS
10
4.0106606299212597
20
-3.0027753937007873
11
4.0105840944881885
21
-3.0026988582677165
0
LINE
8
BLACK
6
CONTINUOUS
10
4.0105840944881885
20
-3.0026988582677165
11
4.01057937007874
21
-3.0026911417322832
0
LINE
8
BLACK
6
CONTINUOUS
10
4.01057937007874
20
-3.0026911417322832
11
4.0105404724409448
21
-3.0025744488188977
0
LINE
8
BLACK
6
CONTINUOUS
10
4.0105404724409448
20
-3.0025744488188977
11
4.0105016929133859
21
-3.0024968897637794
0
LINE
8
BLACK
6
CONTINUOUS
10
4.0105016929133859
20
-3.0024968897637794
11
4.0105006299212596
21
-3.0024942913385826
0
LINE
8
BLACK
6
CONTINUOUS
10
4.0105006299212596
20
-3.0024942913385826
11
4.0104612598425193
21
-3.0023761811023619
0
LINE
8
BLACK
6
CONTINUOUS
10
4.0104612598425193
20
-3.0023761811023619
11
4.0104602362204727
21
-3.0023699606299212
0
LINE
8
BLACK
6
CONTINUOUS
10
4.0104602362204727
20
-3.0023699606299212
11
4.0104602362204727
21
-3.0022943700787401
0
LINE
8
BLACK
6
CONTINUOUS
10
4.0104602362204727
20
-3.0022943700787401
11
4.0104218897637791
21
-3.0021793307086613
0
LINE
8
BLACK
6
CONTINUOUS
10
4.0104218897637791
20
-3.0021793307086613
11
4.0104208661417324
21
-3.0021731102362206
0
LINE
8
BLACK
6
CONTINUOUS
10
4.0104208661417324
20
-3.0021731102362206
11
4.0104208661417324
21
-3.0020975196850395
0
LINE
8
BLACK
6
CONTINUOUS
10
4.0104208661417324
20
-3.0020975196850395
11
4.0103825196850389
21
-3.0019824803149606
0
LINE
8
BLACK
6
CONTINUOUS
10
4.0103825196850389
20
-3.0019824803149606
11
4.0103814960629922
21
-3.0019762598425195
0
LINE
8
BLACK
6
CONTINUOUS
10
4.0103814960629922
20
-3.0019762598425195
11
4.0103814960629922
21
-2.9901652362204723
0
LINE
8
BLACK
6
CONTINUOUS
10
4.0103814960629922
20
-2.9901652362204723
11
4.0103825196850389
21
-2.9901590157480316
0
LINE
8
BLACK
6
CONTINUOUS
10
4.0103825196850389
20
-2.9901590157480316
11
4.0104208661417324
21
-2.9900439763779527
0
LINE
8
BLACK
6
CONTINUOUS
10
4.0104208661417324
20
-2.9900439763779527
11
4.0104208661417324
21
-2.9899683858267716
0
LINE
8
BLACK
6
CONTINUOUS
10
4.0104208661417324
20
-2.9899683858267716
11
4.0104218897637791
21
-2.9899621653543305
0
LINE
8
BLACK
6
CONTINUOUS
10
4.0104218897637791
20
-2.9899621653543305
11
4.0104602362204727
21
-2.9898471259842521
0
LINE
8
BLACK
6
CONTINUOUS
10
4.0104602362204727
20
-2.9898471259842521
11
4.0104602362204727
21
-2.9897715354330709
0
LINE
8
BLACK
6
CONTINUOUS
10
4.0104602362204727
20
-2.9897715354330709
11
4.0104612598425193
21
-2.9897653149606298
0
LINE
8
BLACK
6
CONTINUOUS
10
4.0104612598425193
20
-2.9897653149606298
11
4.0105006299212596
21
-2.9896472047244096
0
LINE
8
BLACK
6
CONTINUOUS
10
4.0105006299212596
20
-2.9896472047244096
11
4.0105016929133859
21
-2.9896446062992124
0
LINE
8
BLACK
6
CONTINUOUS
10
4.0105016929133859
20
-2.9896446062992124
11
4.0105404724409448
21
-2.9895670472440945
0
LINE
8
BLACK
6
CONTINUOUS
10
4.0105404724409448
20
-2.9895670472440945
11
4.01057937007874
21
-2.9894503543307085
0
LINE
8
BLACK
6
CONTINUOUS
10
4.01057937007874
20
-2.9894503543307085
11
4.0105840944881885
21
-2.9894426377952756
0
LINE
8
BLACK
6
CONTINUOUS
10
4.0105840944881885
20
-2.9894426377952756
11
4.0106606299212597
21
-2.9893661023622045
0
LINE
8
BLACK
6
CONTINUOUS
10
4.0106606299212597
20
-2.9893661023622045
11
4.0106985433070861
21
-2.9892902755905513
0
LINE
8
BLACK
6
CONTINUOUS
10
4.0106985433070861
20
-2.9892902755905513
11
4.0107022047244092
21
-2.9892851574803148
0
LINE
8
BLACK
6
CONTINUOUS
10
4.0107022047244092
20
-2.9892851574803148
11
4.0107787401574804
21
-2.989208622047244
0
LINE
8
BLACK
6
CONTINUOUS
10
4.0107787401574804
20
-2.989208622047244
11
4.0108166535433067
21
-2.9891327952755904
0
LINE
8
BLACK
6
CONTINUOUS
10
4.0108166535433067
20
-2.9891327952755904
11
4.0108203149606299
21
-2.9891276771653543
0
LINE
8
BLACK
6
CONTINUOUS
10
4.0108203149606299
20
-2.9891276771653543
11
4.0111352755905507
21
-2.988812716535433
0
LINE
8
BLACK
6
CONTINUOUS
10
4.0111352755905507
20
-2.988812716535433
11
4.0111403937007877
21
-2.9888090551181103
0
LINE
8
BLACK
6
CONTINUOUS
10
4.0111403937007877
20
-2.9888090551181103
11
4.0112162204724404
21
-2.9887711417322835
0
LINE
8
BLACK
6
CONTINUOUS
10
4.0112162204724404
20
-2.9887711417322835
11
4.0112927559055116
21
-2.9886946062992124
0
LINE
8
BLACK
6
CONTINUOUS
10
4.0112927559055116
20
-2.9886946062992124
11
4.0112978740157477
21
-2.9886909448818897
0
LINE
8
BLACK
6
CONTINUOUS
10
4.0112978740157477
20
-2.9886909448818897
11
4.0113737007874013
21
-2.9886530314960629
0
LINE
8
BLACK
6
CONTINUOUS
10
4.0113737007874013
20
-2.9886530314960629
11
4.0114502362204725
21
-2.9885764960629921
0
LINE
8
BLACK
6
CONTINUOUS
10
4.0114502362204725
20
-2.9885764960629921
11
4.0114579527559053
21
-2.9885717716535432
0
LINE
8
BLACK
6
CONTINUOUS
10
4.0114579527559053
20
-2.9885717716535432
11
4.0115746456692909
21
-2.988532874015748
0
LINE
8
BLACK
6
CONTINUOUS
10
4.0115746456692909
20
-2.988532874015748
11
4.0116522047244096
21
-2.988494094488189
0
LINE
8
BLACK
6
CONTINUOUS
10
4.0116522047244096
20
-2.988494094488189
11
4.0116548031496064
21
-2.9884930314960627
0
LINE
8
BLACK
6
CONTINUOUS
10
4.0116548031496064
20
-2.9884930314960627
11
4.0117729133858271
21
-2.9884536614173229
0
LINE
8
BLACK
6
CONTINUOUS
10
4.0117729133858271
20
-2.9884536614173229
11
4.0117791338582673
21
-2.9884526377952754
0
LINE
8
BLACK
6
CONTINUOUS
10
4.0117791338582673
20
-2.9884526377952754
11
4.0118547244094485
21
-2.9884526377952754
0
LINE
8
BLACK
6
CONTINUOUS
10
4.0118547244094485
20
-2.9884526377952754
11
4.0119697637795273
21
-2.9884142913385827
0
LINE
8
BLACK
6
CONTINUOUS
10
4.0119697637795273
20
-2.9884142913385827
11
4.0119759842519684
21
-2.9884132677165351
0
LINE
8
BLACK
6
CONTINUOUS
10
4.0119759842519684
20
-2.9884132677165351
11
4.0120515748031496
21
-2.9884132677165351
0
LINE
8
BLACK
6
CONTINUOUS
10
4.0120515748031496
20
-2.9884132677165351
11
4.0121666141732284
21
-2.9883749212598425
0
LINE
8
BLACK
6
CONTINUOUS
10
4.0121666141732284
20
-2.9883749212598425
11
4.0121728346456695
21
-2.9883738976377954
0
LINE
8
BLACK
6
CONTINUOUS
10
4.0121728346456695
20
-2.9883738976377954
11
4.0165035433070866
21
-2.9883738976377954
0
LINE
8
BLACK
6
CONTINUOUS
10
4.0165035433070866
20
-2.9883738976377954
11
4.0165097637795277
21
-2.9883749212598425
0
LINE
8
BLACK
6
CONTINUOUS
10
4.0371790551181101
20
-2.9883749212598425
11
4.037294094488189
21
-2.9884132677165351
0
LINE
8
BLACK
6
CONTINUOUS
10
4.037294094488189
20
-2.9884132677165351
11
4.0373696850393701
21
-2.9884132677165351
0
LINE
8
BLACK
6
CONTINUOUS
10
4.0373696850393701
20
-2.9884132677165351
11
4.0373759055118112
21
-2.9884142913385827
0
LINE
8
BLACK
6
CONTINUOUS
10
4.0373759055118112
20
-2.9884142913385827
11
4.0374909448818901
21
-2.9884526377952754
0
LINE
8
BLACK
6
CONTINUOUS
10
4.0374909448818901
20
-2.9884526377952754
11
4.0375665354330712
21
-2.9884526377952754
0
LINE
8
BLACK
6
CONTINUOUS
10
4.0375665354330712
20
-2.9884526377952754
11
4.0375727559055115
21
-2.9884536614173229
0
LINE
8
BLACK
6
CONTINUOUS
10
4.0375727559055115
20
-2.9884536614173229
11
4.0376908661417321
21
-2.9884930314960627
0
LINE
8
BLACK
6
CONTINUOUS
10
4.0376908661417321
20
-2.9884930314960627
11
4.0376934645669289
21
-2.988494094488189
0
LINE
8
BLACK
6
CONTINUOUS
10
4.0376934645669289
20
-2.988494094488189
11
4.0377710236220468
21
-2.988532874015748
0
LINE
8
BLACK
6
CONTINUOUS
10
4.0377710236220468
20
-2.988532874015748
11
4.0378877165354332
21
-2.9885717716535432
0
LINE
8
BLACK
6
CONTINUOUS
10
4.0378877165354332
20
-2.9885717716535432
11
4.0378954330708661
21
-2.9885764960629921
0
LINE
8
BLACK
6
CONTINUOUS
10
4.0378954330708661
20
-2.9885764960629921
11
4.0379719685039372
21
-2.9886530314960629
0
LINE
8
BLACK
6
CONTINUOUS
10
4.0379719685039372
20
-2.9886530314960629
11
4.0380477952755909
21
-2.9886909448818897
0
LINE
8
BLACK
6
CONTINUOUS
10
4.0380477952755909
20
-2.9886909448818897
11
4.0380529133858269
21
-2.9886946062992124
0
LINE
8
BLACK
6
CONTINUOUS
10
4.0380529133858269
20
-2.9886946062992124
11
4.0381294488188972
21
-2.9887711417322835
0
LINE
8
BLACK
6
CONTINUOUS
10
4.0381294488188972
20
-2.9887711417322835
11
4.0382052755905509
21
-2.9888090551181103
0
LINE
8
BLACK
6
CONTINUOUS
10
4.0382052755905509
20
-2.9888090551181103
11
4.0382103937007869
21
-2.988812716535433
0
LINE
8
BLACK
6
CONTINUOUS
10
4.0382103937007869
20
-2.988812716535433
11
4.0385253543307087
21
-2.9891276771653543
0
LINE
8
BLACK
6
CONTINUOUS
10
4.0385253543307087
20
-2.9891276771653543
11
4.0385290157480318
21
-2.9891327952755904
0
LINE
8
BLACK
6
CONTINUOUS
10
4.0385290157480318
20
-2.9891327952755904
11
4.0385669291338582
21
-2.989208622047244
0
LINE
8
BLACK
6
CONTINUOUS
10
4.0385669291338582
20
-2.989208622047244
11
4.0386434645669294
21
-2.9892851574803148
0
LINE
8
BLACK
6
CONTINUOUS
10
4.0386434645669294
20
-2.9892851574803148
11
4.0386471259842516
21
-2.9892902755905513
0
LINE
8
BLACK
6
CONTINUOUS
10
4.0386471259842516
20
-2.9892902755905513
11
4.0386850393700788
21
-2.9893661023622045
0
LINE
8
BLACK
6
CONTINUOUS
10
4.0386850393700788
20
-2.9893661023622045
11
4.0387615748031491
21
-2.9894426377952756
0
LINE
8
BLACK
6
CONTINUOUS
10
4.0387615748031491
20
-2.9894426377952756
11
4.0387662992125986
21
-2.9894503543307085
0
LINE
8
BLACK
6
CONTINUOUS
10
4.0387662992125986
20
-2.9894503543307085
11
4.0388051968503937
21
-2.9895670472440945
0
LINE
8
BLACK
6
CONTINUOUS
10
4.0388051968503937
20
-2.9895670472440945
11
4.0388439763779527
21
-2.9896446062992124
0
LINE
8
BLACK
6
CONTINUOUS
10
4.0388439763779527
20
-2.9896446062992124
11
4.038845039370079
21
-2.9896472047244096
0
LINE
8
BLACK
6
CONTINUOUS
10
4.038845039370079
20
-2.9896472047244096
11
4.0388844094488192
21
-2.9897653149606298
0
LINE
8
BLACK
6
CONTINUOUS
10
4.0388844094488192
20
-2.9897653149606298
11
4.0388854330708659
21
-2.9897715354330709
0
LINE
8
BLACK
6
CONTINUOUS
10
4.0388854330708659
20
-2.9897715354330709
11
4.0388854330708659
21
-2.9898471259842521
0
LINE
8
BLACK
6
CONTINUOUS
10
4.0388854330708659
20
-2.9898471259842521
11
4.0389237795275585
21
-2.9899621653543305
0
LINE
8
BLACK
6
CONTINUOUS
10
4.0389237795275585
20
-2.9899621653543305
11
4.0389248031496061
21
-2.9899683858267716
0
LINE
8
BLACK
6
CONTINUOUS
10
4.0389248031496061
20
-2.9899683858267716
11
4.0389248031496061
21
-2.9900439763779527
0
LINE
8
BLACK
6
CONTINUOUS
10
4.0389248031496061
20
-2.9900439763779527
11
4.0389631496062988
21
-2.9901590157480316
0
LINE
8
BLACK
6
CONTINUOUS
10
4.0389631496062988
20
-2.9901590157480316
11
4.0389641732283463
21
-2.9901652362204723
0
LINE
8
BLACK
6
CONTINUOUS
10
4.0389641732283463
20
-2.9901652362204723
11
4.0389641732283463
21
-3.0019762598425195
0
LINE
8
BLACK
6
CONTINUOUS
10
4.0389641732283463
20
-3.0019762598425195
11
4.0389631496062988
21
-3.0019824803149606
0
LINE
8
BLACK
6
CONTINUOUS
10
4.0389631496062988
20
-3.0019824803149606
11
4.0389248031496061
21
-3.0020975196850395
0
LINE
8
BLACK
6
CONTINUOUS
10
4.0389248031496061
20
-3.0020975196850395
11
4.0389248031496061
21
-3.0021731102362206
0
LINE
8
BLACK
6
CONTINUOUS
10
4.0389248031496061
20
-3.0021731102362206
11
4.0389237795275585
21
-3.0021793307086613
0
LINE
8
BLACK
6
CONTINUOUS
10
4.0389237795275585
20
-3.0021793307086613
11
4.0388854330708659
21
-3.0022943700787401
0
LINE
8
BLACK
6
CONTINUOUS
10
4.0388854330708659
20
-3.0022943700787401
11
4.0388854330708659
21
-3.0023699606299212
0
LINE
8
BLACK
6
CONTINUOUS
10
4.0388854330708659
20
-3.0023699606299212
11
4.0388844094488192
21
-3.0023761811023619
0
LINE
8
BLACK
6
CONTINUOUS
10
4.0388844094488192
20
-3.0023761811023619
11
4.038845039370079
21
-3.0024942913385826
0
LINE
8
BLACK
6
CONTINUOUS
10
4.038845039370079
20
-3.0024942913385826
11
4.0388439763779527
21
-3.0024968897637794
0
LINE
8
BLACK
6
CONTINUOUS
10
4.0388439763779527
20
-3.0024968897637794
11
4.0388051968503937
21
-3.0025744488188977
0
LINE
8
BLACK
6
CONTINUOUS
10
4.0388051968503937
20
-3.0025744488188977
11
4.0387662992125986
21
-3.0026911417322832
0
LINE
8
BLACK
6
CONTINUOUS
10
4.0387662992125986
20
-3.0026911417322832
11
4.0387615748031491
21
-3.0026988582677165
0
LINE
8
BLACK
6
CONTINUOUS
10
4.0387615748031491
20
-3.0026988582677165
11
4.0386850393700788
21
-3.0027753937007873
0
LINE
8
BLACK
6
CONTINUOUS
10
4.0386850393700788
20
-3.0027753937007873
11
4.0386471259842516
21
-3.0028512204724409
0
LINE
8
BLACK
6
CONTINUOUS
10
4.0386471259842516
20
-3.0028512204724409
11
4.0386434645669294
21
-3.002856338582677
0
LINE
8
BLACK
6
CONTINUOUS
10
4.0386434645669294
20
-3.002856338582677
11
4.0385669291338582
21
-3.0029328740157482
0
LINE
8
BLACK
6
CONTINUOUS
10
4.0385669291338582
20
-3.0029328740157482
11
4.0385290157480318
21
-3.0030087007874013
0
LINE
8
BLACK
6
CONTINUOUS
10
4.0385290157480318
20
-3.0030087007874013
11
4.0385253543307087
21
-3.0030138188976379
0
LINE
8
BLACK
6
CONTINUOUS
10
4.0385253543307087
20
-3.0030138188976379
11
4.0382103937007869
21
-3.0033287795275592
0
LINE
8
BLACK
6
CONTINUOUS
10
4.0382103937007869
20
-3.0033287795275592
11
4.0382052755905509
21
-3.0033324409448818
0
LINE
8
BLACK
6
CONTINUOUS
10
4.0382052755905509
20
-3.0033324409448818
11
4.0381294488188972
21
-3.0033703543307086
0
LINE
8
BLACK
6
CONTINUOUS
10
4.0381294488188972
20
-3.0033703543307086
11
4.0380529133858269
21
-3.0034468897637794
0
LINE
8
BLACK
6
CONTINUOUS
10
4.0380529133858269
20
-3.0034468897637794
11
4.0380477952755909
21
-3.0034505511811025
0
LINE
8
BLACK
6
CONTINUOUS
10
4.0380477952755909
20
-3.0034505511811025
11
4.0379719685039372
21
-3.0034884645669289
0
LINE
8
BLACK
6
CONTINUOUS
10
4.0379719685039372
20
-3.0034884645669289
11
4.0378954330708661
21
-3.003565
0
LINE
8
BLACK
6
CONTINUOUS
10
4.0378954330708661
20
-3.003565
11
4.0378877165354332
21
-3.0035697244094486
0
LINE
8
BLACK
6
CONTINUOUS
10
4.0378877165354332
20
-3.0035697244094486
11
4.0377710236220468
21
-3.0036086220472442
0
LINE
8
BLACK
6
CONTINUOUS
10
4.0377710236220468
20
-3.0036086220472442
11
4.0376934645669289
21
-3.0036474015748031
0
LINE
8
BLACK
6
CONTINUOUS
10
4.0376934645669289
20
-3.0036474015748031
11
4.0376908661417321
21
-3.003648464566929
0
LINE
8
BLACK
6
CONTINUOUS
10
4.0376908661417321
20
-3.003648464566929
11
4.0375727559055115
21
-3.0036878346456692
0
LINE
8
BLACK
6
CONTINUOUS
10
4.0375727559055115
20
-3.0036878346456692
11
4.0375665354330712
21
-3.0036888582677164
0
LINE
8
BLACK
6
CONTINUOUS
10
4.0375665354330712
20
-3.0036888582677164
11
4.0374909448818901
21
-3.0036888582677164
0
LINE
8
BLACK
6
CONTINUOUS
10
4.0374909448818901
20
-3.0036888582677164
11
4.0373759055118112
21
-3.0037272047244095
0
LINE
8
BLACK
6
CONTINUOUS
10
4.0373759055118112
20
-3.0037272047244095
11
4.0373696850393701
21
-3.0037282283464566
0
LINE
8
BLACK
6
CONTINUOUS
10
4.0373696850393701
20
-3.0037282283464566
11
4.037294094488189
21
-3.0037282283464566
0
LINE
8
BLACK
6
CONTINUOUS
10
4.037294094488189
20
-3.0037282283464566
11
4.0371790551181101
21
-3.0037665748031497
0
LINE
8
BLACK
6
CONTINUOUS
10
4.0371790551181101
20
-3.0037665748031497
11
4.037172834645669
21
-3.0037675984251968
0
LINE
8
BLACK
6
CONTINUOUS
10
4.037172834645669
20
-3.0037675984251968
11
4.032842125984252
21
-3.0037675984251968
0
LINE
8
BLACK
6
CONTINUOUS
10
4.032842125984252
20
-3.0037675984251968
11
4.0328359055118108
21
-3.0037665748031497
0
LINE
8
BLACK
6
CONTINUOUS
10
4.0328359055118108
20
-3.0037665748031497
11
4.032720866141732
21
-3.0037282283464566
0
LINE
8
BLACK
6
CONTINUOUS
10
4.032720866141732
20
-3.0037282283464566
11
4.0326452755905509
21
-3.0037282283464566
0
LINE
8
BLACK
6
CONTINUOUS
10
4.0326452755905509
20
-3.0037282283464566
11
4.0326390551181097
21
-3.0037272047244095
0
LINE
8
BLACK
6
CONTINUOUS
10
4.0326390551181097
20
-3.0037272047244095
11
4.0325240157480318
21
-3.0036888582677164
0
LINE
8
BLACK
6
CONTINUOUS
10
4.0325240157480318
20
-3.0036888582677164
11
4.0324484251968506
21
-3.0036888582677164
0
LINE
8
BLACK
6
CONTINUOUS
10
4.0324484251968506
20
-3.0036888582677164
11
4.0324422047244095
21
-3.0036878346456692
0
LINE
8
BLACK
6
CONTINUOUS
10
4.0324422047244095
20
-3.0036878346456692
11
4.0323240944881888
21
-3.003648464566929
0
LINE
8
BLACK
6
CONTINUOUS
10
4.0323240944881888
20
-3.003648464566929
11
4.0323214960629921
21
-3.0036474015748031
0
LINE
8
BLACK
6
CONTINUOUS
10
4.0323214960629921
20
-3.0036474015748031
11
4.0322439370078742
21
-3.0036086220472442
0
LINE
8
BLACK
6
CONTINUOUS
10
4.0322439370078742
20
-3.0036086220472442
11
4.0321272440944878
21
-3.0035697244094486
0
LINE
8
BLACK
6
CONTINUOUS
10
4.0321272440944878
20
-3.0035697244094486
11
4.0321195275590549
21
-3.003565
0
LINE
8
BLACK
6
CONTINUOUS
10
4.0321195275590549
20
-3.003565
11
4.0320429921259846
21
-3.0034884645669289
0
LINE
8
BLACK
6
CONTINUOUS
10
4.0320429921259846
20
-3.0034884645669289
11
4.031967165354331
21
-3.0034505511811025
0
LINE
8
BLACK
6
CONTINUOUS
10
4.031967165354331
20
-3.0034505511811025
11
4.031962047244094
21
-3.0034468897637794
0
LINE
8
BLACK
6
CONTINUOUS
10
4.031962047244094
20
-3.0034468897637794
11
4.0318855118110237
21
-3.0033703543307086
0
LINE
8
BLACK
6
CONTINUOUS
10
4.0318855118110237
20
-3.0033703543307086
11
4.0318096850393701
21
-3.0033324409448818
0
LINE
8
BLACK
6
CONTINUOUS
10
4.0318096850393701
20
-3.0033324409448818
11
4.031804566929134
21
-3.0033287795275592
0
LINE
8
BLACK
6
CONTINUOUS
10
4.031804566929134
20
-3.0033287795275592
11
4.0314896062992123
21
-3.0030138188976379
0
LINE
8
BLACK
6
CONTINUOUS
10
4.0314896062992123
20
-3.0030138188976379
11
4.03148594488189
21
-3.0030087007874013
0
LINE
8
BLACK
6
CONTINUOUS
10
4.03148594488189
20
-3.0030087007874013
11
4.0314480314960628
21
-3.0029328740157482
0
LINE
8
BLACK
6
CONTINUOUS
10
4.0314480314960628
20
-3.0029328740157482
11
4.0313714960629916
21
-3.002856338582677
0
LINE
8
BLACK
6
CONTINUOUS
10
4.0313714960629916
20
-3.002856338582677
11
4.0313678346456694
21
-3.0028512204724409
0
LINE
8
BLACK
6
CONTINUOUS
10
4.0313678346456694
20
-3.0028512204724409
11
4.0313299212598421
21
-3.0027753937007873
0
LINE
8
BLACK
6
CONTINUOUS
10
4.0313299212598421
20
-3.0027753937007873
11
4.0312533858267718
21
-3.0026988582677165
0
LINE
8
BLACK
6
CONTINUOUS
10
4.0312533858267718
20
-3.0026988582677165
11
4.0312486614173224
21
-3.0026911417322832
0
LINE
8
BLACK
6
CONTINUOUS
10
4.0312486614173224
20
-3.0026911417322832
11
4.0312097637795272
21
-3.0025744488188977
0
LINE
8
BLACK
6
CONTINUOUS
10
4.0312097637795272
20
-3.0025744488188977
11
4.0311709842519683
21
-3.0024968897637794
0
LINE
8
BLACK
6
CONTINUOUS
10
4.0311709842519683
20
-3.0024968897637794
11
4.0311699212598429
21
-3.0024942913385826
0
LINE
8
BLACK
6
CONTINUOUS
10
4.0311699212598429
20
-3.0024942913385826
11
4.0311305511811026
21
-3.0023761811023619
0
LINE
8
BLACK
6
CONTINUOUS
10
4.0311305511811026
20
-3.0023761811023619
11
4.0311295275590551
21
-3.0023699606299212
0
LINE
8
BLACK
6
CONTINUOUS
10
4.0311295275590551
20
-3.0023699606299212
11
4.0311295275590551
21
-3.0022943700787401
0
LINE
8
BLACK
6
CONTINUOUS
10
4.0311295275590551
20
-3.0022943700787401
11
4.0310911811023624
21
-3.0021793307086613
0
LINE
8
BLACK
6
CONTINUOUS
10
4.0310911811023624
20
-3.0021793307086613
11
4.0310901574803149
21
-3.0021731102362206
0
LINE
8
BLACK
6
CONTINUOUS
10
4.0310901574803149
20
-3.0021731102362206
11
4.0310901574803149
21
-3.0020975196850395
0
LINE
8
BLACK
6
CONTINUOUS
10
4.0310901574803149
20
-3.0020975196850395
11
4.0310518110236222
21
-3.0019824803149606
0
LINE
8
BLACK
6
CONTINUOUS
10
4.0310518110236222
20
-3.0019824803149606
11
4.0310507874015746
21
-3.0019762598425195
0
LINE
8
BLACK
6
CONTINUOUS
10
4.0310507874015746
20
-3.0019762598425195
11
4.0310507874015746
21
-2.9901652362204723
0
LINE
8
BLACK
6
CONTINUOUS
10
4.0310507874015746
20
-2.9901652362204723
11
4.0310518110236222
21
-2.9901590157480316
0
LINE
8
BLACK
6
CONTINUOUS
10
4.0310518110236222
20
-2.9901590157480316
11
4.0310901574803149
21
-2.9900439763779527
0
LINE
8
BLACK
6
CONTINUOUS
10
4.0310901574803149
20
-2.9900439763779527
11
4.0310901574803149
21
-2.9899683858267716
0
LINE
8
BLACK
6
CONTINUOUS
10
4.0310901574803149
20
-2.9899683858267716
11
4.0310911811023624
21
-2.9899621653543305
0
LINE
8
BLACK
6
CONTINUOUS
10
4.0310911811023624
20
-2.9899621653543305
11
4.0311295275590551
21
-2.9898471259842521
0
LINE
8
BLACK
6
CONTINUOUS
10
4.0311295275590551
20
-2.9898471259842521
11
4.0311295275590551
21
-2.9897715354330709
0
LINE
8
BLACK
6
CONTINUOUS
10
4.0311295275590551
20
-2.9897715354330709
11
4.0311305511811026
21
-2.9897653149606298
0
LINE
8
BLACK
6
CONTINUOUS
10
4.0311305511811026
20
-2.9897653149606298
11
4.0311699212598429
21
-2.9896472047244096
0
LINE
8
BLACK
6
CONTINUOUS
10
4.0311699212598429
20
-2.9896472047244096
11
4.0311709842519683
21
-2.9896446062992124
0
LINE
8
BLACK
6
CONTINUOUS
10
4.0311709842519683
20
-2.9896446062992124
11
4.0312097637795272
21
-2.9895670472440945
0
LINE
8
BLACK
6
CONTINUOUS
10
4.0312097637795272
20
-2.9895670472440945
11
4.0312486614173224
21
-2.9894503543307085
0
LINE
8
BLACK
6
CONTINUOUS
10
4.0312486614173224
20
-2.9894503543307085
11
4.0312533858267718
21
-2.9894426377952756
0
LINE
8
BLACK
6
CONTINUOUS
10
4.0312533858267718
20
-2.9894426377952756
11
4.0313299212598421
21
-2.9893661023622045
0
LINE
8
BLACK
6
CONTINUOUS
10
4.0313299212598421
20
-2.9893661023622045
11
4.0313678346456694
21
-2.9892902755905513
0
LINE
8
BLACK
6
CONTINUOUS
10
4.0313678346456694
20
-2.9892902755905513
11
4.0313714960629916
21
-2.9892851574803148
0
LINE
8
BLACK
6
CONTINUOUS
10
4.0313714960629916
20
-2.9892851574803148
11
4.0314480314960628
21
-2.989208622047244
0
LINE
8
BLACK
6
CONTINUOUS
10
4.0314480314960628
20
-2.989208622047244
11
4.03148594488189
21
-2.9891327952755904
0
LINE
8
BLACK
6
CONTINUOUS
10
4.03148594488189
20
-2.9891327952755904
11
4.0314896062992123
21
-2.9891276771653543
0
LINE
8
BLACK
6
CONTINUOUS
10
4.0314896062992123
20
-2.9891276771653543
11
4.031804566929134
21
-2.988812716535433
0
LINE
8
BLACK
6
CONTINUOUS
10
4.031804566929134
20
-2.988812716535433
11
4.0318096850393701
21
-2.9888090551181103
0
LINE
8
BLACK
6
CONTINUOUS
10
4.0318096850393701
20
-2.9888090551181103
11
4.0318855118110237
21
-2.9887711417322835
0
LINE
8
BLACK
6
CONTINUOUS
10
4.0318855118110237
20
-2.9887711417322835
11
4.031962047244094
21
-2.9886946062992124
0
LINE
8
BLACK
6
CONTINUOUS
10
4.031962047244094
20
-2.9886946062992124
11
4.031967165354331
21
-2.9886909448818897
0
LINE
8
BLACK
6
CONTINUOUS
10
4.031967165354331
20
-2.9886909448818897
11
4.0320429921259846
21
-2.9886530314960629
0
LINE
8
BLACK
6
CONTINUOUS
10
4.0320429921259846
20
-2.9886530314960629
11
4.0321195275590549
21
-2.9885764960629921
0
LINE
8
BLACK
6
CONTINUOUS
10
4.0321195275590549
20
-2.9885764960629921
11
4.0321272440944878
21
-2.9885717716535432
0
LINE
8
BLACK
6
CONTINUOUS
10
4.0321272440944878
20
-2.9885717716535432
11
4.0322439370078742
21
-2.988532874015748
0
LINE
8
BLACK
6
CONTINUOUS
10
4.0322439370078742
20
-2.988532874015748
11
4.0323214960629921
21
-2.988494094488189
0
LINE
8
BLACK
6
CONTINUOUS
10
4.0323214960629921
20
-2.988494094488189
11
4.0323240944881888
21
-2.9884930314960627
0
LINE
8
BLACK
6
CONTINUOUS
10
4.0323240944881888
20
-2.9884930314960627
11
4.0324422047244095
21
-2.9884536614173229
0
LINE
8
BLACK
6
CONTINUOUS
10
4.0324422047244095
20
-2.9884536614173229
11
4.0324484251968506
21
-2.9884526377952754
0
LINE
8
BLACK
6
CONTINUOUS
10
4.0324484251968506
20
-2.9884526377952754
11
4.0325240157480318
21
-2.9884526377952754
0
LINE
8
BLACK
6
CONTINUOUS
10
4.0325240157480318
20
-2.9884526377952754
11
4.0326390551181097
21
-2.9884142913385827
0
LINE
8
BLACK
6
CONTINUOUS
10
4.0326390551181097
20
-2.9884142913385827
11
4.0326452755905509
21
-2.9884132677165351
0
LINE
8
BLACK
6
CONTINUOUS
10
4.0326452755905509
20
-2.9884132677165351
11
4.032720866141732
21
-2.9884132677165351
0
LINE
8
BLACK
6
CONTINUOUS
10
4.032720866141732
20
-2.9884132677165351
11
4.0328359055118108
21
-2.9883749212598425
0
LINE
8
BLACK
6
CONTINUOUS
10
4.0328359055118108
20
-2.9883749212598425
11
4.032842125984252
21
-2.9883738976377954
0
LINE
8
BLACK
6
CONTINUOUS
10
4.032842125984252
20
-2.9883738976377954
11
4.037172834645669
21
-2.9883738976377954
0
LINE
8
BLACK
6
CONTINUOUS
10
4.037172834645669
20
-2.9883738976377954
11
4.0371790551181101
21
-2.9883749212598425
0
LINE
8
BLACK
6
CONTINUOUS
10
4.0578483464566926
20
-2.9883749212598425
11
4.0579633858267714
21
-2.9884132677165351
0
LINE
8
BLACK
6
CONTINUOUS
10
4.0579633858267714
20
-2.9884132677165351
11
4.0580389763779525
21
-2.9884132677165351
0
LINE
8
BLACK
6
CONTINUOUS
10
4.0580389763779525
20
-2.9884132677165351
11
4.0580451968503937
21
-2.9884142913385827
0
LINE
8
BLACK
6
CONTINUOUS
10
4.0580451968503937
20
-2.9884142913385827
11
4.0581602362204725
21
-2.9884526377952754
0
LINE
8
BLACK
6
CONTINUOUS
10
4.0581602362204725
20
-2.9884526377952754
11
4.0582358267716536
21
-2.9884526377952754
0
LINE
8
BLACK
6
CONTINUOUS
10
4.0582358267716536
20
-2.9884526377952754
11
4.0582420472440948
21
-2.9884536614173229
0
LINE
8
BLACK
6
CONTINUOUS
10
4.0582420472440948
20
-2.9884536614173229
11
4.0583601574803145
21
-2.9884930314960627
0
LINE
8
BLACK
6
CONTINUOUS
10
4.0583601574803145
20
-2.9884930314960627
11
4.0583627559055113
21
-2.988494094488189
0
LINE
8
BLACK
6
CONTINUOUS
10
4.0583627559055113
20
-2.988494094488189
11
4.0584403149606301
21
-2.988532874015748
0
LINE
8
BLACK
6
CONTINUOUS
10
4.0584403149606301
20
-2.988532874015748
11
4.0585570078740156
21
-2.9885717716535432
0
LINE
8
BLACK
6
CONTINUOUS
10
4.0585570078740156
20
-2.9885717716535432
11
4.0585647244094485
21
-2.9885764960629921
0
LINE
8
BLACK
6
CONTINUOUS
10
4.0585647244094485
20
-2.9885764960629921
11
4.0586412598425197
21
-2.9886530314960629
0
LINE
8
BLACK
6
CONTINUOUS
10
4.0586412598425197
20
-2.9886530314960629
11
4.0587170866141733
21
-2.9886909448818897
0
LINE
8
BLACK
6
CONTINUOUS
10
4.0587170866141733
20
-2.9886909448818897
11
4.0587222047244094
21
-2.9886946062992124
0
LINE
8
BLACK
6
CONTINUOUS
10
4.0587222047244094
20
-2.9886946062992124
11
4.0587987401574805
21
-2.9887711417322835
0
LINE
8
BLACK
6
CONTINUOUS
10
4.0587987401574805
20
-2.9887711417322835
11
4.0588745669291342
21
-2.9888090551181103
0
LINE
8
BLACK
6
CONTINUOUS
10
4.0588745669291342
20
-2.9888090551181103
11
4.0588796850393702
21
-2.988812716535433
0
LINE
8
BLACK
6
CONTINUOUS
10
4.0588796850393702
20
-2.988812716535433
11
4.0591946456692911
21
-2.9891276771653543
0
LINE
8
BLACK
6
CONTINUOUS
10
4.0591946456692911
20
-2.9891276771653543
11
4.0591983070866142
21
-2.9891327952755904
0
LINE
8
BLACK
6
CONTINUOUS
10
4.0591983070866142
20
-2.9891327952755904
11
4.0592362204724406
21
-2.989208622047244
0
LINE
8
BLACK
6
CONTINUOUS
10
4.0592362204724406
20
-2.989208622047244
11
4.0593127559055118
21
-2.9892851574803148
0
LINE
8
BLACK
6
CONTINUOUS
10
4.0593127559055118
20
-2.9892851574803148
11
4.0593164173228349
21
-2.9892902755905513
0
LINE
8
BLACK
6
CONTINUOUS
10
4.0593164173228349
20
-2.9892902755905513
11
4.0593543307086613
21
-2.9893661023622045
0
LINE
8
BLACK
6
CONTINUOUS
10
4.0593543307086613
20
-2.9893661023622045
11
4.0594308661417324
21
-2.9894426377952756
0
LINE
8
BLACK
6
CONTINUOUS
10
4.0594308661417324
20
-2.9894426377952756
11
4.059435590551181
21
-2.9894503543307085
0
LINE
8
BLACK
6
CONTINUOUS
10
4.059435590551181
20
-2.9894503543307085
11
4.0594744881889762
21
-2.9895670472440945
0
LINE
8
BLACK
6
CONTINUOUS
10
4.0594744881889762
20
-2.9895670472440945
11
4.0595132677165351
21
-2.9896446062992124
0
LINE
8
BLACK
6
CONTINUOUS
10
4.0595132677165351
20
-2.9896446062992124
11
4.0595143307086614
21
-2.9896472047244096
0
LINE
8
BLACK
6
CONTINUOUS
10
4.0595143307086614
20
-2.9896472047244096
11
4.0595537007874016
21
-2.9897653149606298
0
LINE
8
BLACK
6
CONTINUOUS
10
4.0595537007874016
20
-2.9897653149606298
11
4.0595547244094483
21
-2.9897715354330709
0
LINE
8
BLACK
6
CONTINUOUS
10
4.0595547244094483
20
-2.9897715354330709
11
4.0595547244094483
21
-2.9898471259842521
0
LINE
8
BLACK
6
CONTINUOUS
10
4.0595547244094483
20
-2.9898471259842521
11
4.0595930708661419
21
-2.9899621653543305
0
LINE
8
BLACK
6
CONTINUOUS
10
4.0595930708661419
20
-2.9899621653543305
11
4.0595940944881885
21
-2.9899683858267716
0
LINE
8
BLACK
6
CONTINUOUS
10
4.0595940944881885
20
-2.9899683858267716
11
4.0595940944881885
21
-2.9900439763779527
0
LINE
8
BLACK
6
CONTINUOUS
10
4.0595940944881885
20
-2.9900439763779527
11
4.0596324409448821
21
-2.9901590157480316
0
LINE
8
BLACK
6
CONTINUOUS
10
4.0596324409448821
20
-2.9901590157480316
11
4.0596334645669288
21
-2.9901652362204723
0
LINE
8
BLACK
6
CONTINUOUS
10
4.0596334645669288
20
-2.9901652362204723
11
4.0596334645669288
21
-3.0019762598425195
0
LINE
8
BLACK
6
CONTINUOUS
10
4.0596334645669288
20
-3.0019762598425195
11
4.0596324409448821
21
-3.0019824803149606
0
LINE
8
BLACK
6
CONTINUOUS
10
4.0596324409448821
20
-3.0019824803149606
11
4.0595940944881885
21
-3.0020975196850395
0
LINE
8
BLACK
6
CONTINUOUS
10
4.0595940944881885
20
-3.0020975196850395
11
4.0595940944881885
21
-3.0021731102362206
0
LINE
8
BLACK
6
CONTINUOUS
10
4.0595940944881885
20
-3.0021731102362206
11
4.0595930708661419
21
-3.0021793307086613
0
LINE
8
BLACK
6
CONTINUOUS
10
4.0595930708661419
20
-3.0021793307086613
11
4.0595547244094483
21
-3.0022943700787401
0
LINE
8
BLACK
6
CONTINUOUS
10
4.0595547244094483
20
-3.0022943700787401
11
4.0595547244094483
21
-3.0023699606299212
0
LINE
8
BLACK
6
CONTINUOUS
10
4.0595547244094483
20
-3.0023699606299212
11
4.0595537007874016
21
-3.0023761811023619
0
LINE
8
BLACK
6
CONTINUOUS
10
4.0595537007874016
20
-3.0023761811023619
11
4.0595143307086614
21
-3.0024942913385826
0
LINE
8
BLACK
6
CONTINUOUS
10
4.0595143307086614
20
-3.0024942913385826
11
4.0595132677165351
21
-3.0024968897637794
0
LINE
8
BLACK
6
CONTINUOUS
10
4.0595132677165351
20
-3.0024968897637794
11
4.0594744881889762
21
-3.0025744488188977
0
LINE
8
BLACK
6
CONTINUOUS
10
4.0594744881889762
20
-3.0025744488188977
11
4.059435590551181
21
-3.0026911417322832
0
LINE
8
BLACK
6
CONTINUOUS
10
4.059435590551181
20
-3.0026911417322832
11
4.0594308661417324
21
-3.0026988582677165
0
LINE
8
BLACK
6
CONTINUOUS
10
4.0594308661417324
20
-3.0026988582677165
11
4.0593543307086613
21
-3.0027753937007873
0
LINE
8
BLACK
6
CONTINUOUS
10
4.0593543307086613
20
-3.0027753937007873
11
4.0593164173228349
21
-3.0028512204724409
0
LINE
8
BLACK
6
CONTINUOUS
10
4.0593164173228349
20
-3.0028512204724409
11
4.0593127559055118
21
-3.002856338582677
0
LINE
8
BLACK
6
CONTINUOUS
10
4.0593127559055118
20
-3.002856338582677
11
4.0592362204724406
21
-3.0029328740157482
0
LINE
8
BLACK
6
CONTINUOUS
10
4.0592362204724406
20
-3.0029328740157482
11
4.0591983070866142
21
-3.0030087007874013
0
LINE
8
BLACK
6
CONTINUOUS
10
4.0591983070866142
20
-3.0030087007874013
11
4.0591946456692911
21
-3.0030138188976379
0
LINE
8
BLACK
6
CONTINUOUS
10
4.0591946456692911
20
-3.0030138188976379
11
4.0588796850393702
21
-3.0033287795275592
0
LINE
8
BLACK
6
CONTINUOUS
10
4.0588796850393702
20
-3.0033287795275592
11
4.0588745669291342
21
-3.0033324409448818
0
LINE
8
BLACK
6
CONTINUOUS
10
4.0588745669291342
20
-3.0033324409448818
11
4.0587987401574805
21
-3.0033703543307086
0
LINE
8
BLACK
6
CONTINUOUS
10
4.0587987401574805
20
-3.0033703543307086
11
4.0587222047244094
21
-3.0034468897637794
0
LINE
8
BLACK
6
CONTINUOUS
10
4.0587222047244094
20
-3.0034468897637794
11
4.0587170866141733
21
-3.0034505511811025
0
LINE
8
BLACK
6
CONTINUOUS
10
4.0587170866141733
20
-3.0034505511811025
11
4.0586412598425197
21
-3.0034884645669289
0
LINE
8
BLACK
6
CONTINUOUS
10
4.0586412598425197
20
-3.0034884645669289
11
4.0585647244094485
21
-3.003565
0
LINE
8
BLACK
6
CONTINUOUS
10
4.0585647244094485
20
-3.003565
11
4.0585570078740156
21
-3.0035697244094486
0
LINE
8
BLACK
6
CONTINUOUS
10
4.0585570078740156
20
-3.0035697244094486
11
4.0584403149606301
21
-3.0036086220472442
0
LINE
8
BLACK
6
CONTINUOUS
10
4.0584403149606301
20
-3.0036086220472442
11
4.0583627559055113
21
-3.0036474015748031
0
LINE
8
BLACK
6
CONTINUOUS
10
4.0583627559055113
20
-3.0036474015748031
11
4.0583601574803145
21
-3.003648464566929
0
LINE
8
BLACK
6
CONTINUOUS
10
4.0583601574803145
20
-3.003648464566929
11
4.0582420472440948
21
-3.0036878346456692
0
LINE
8
BLACK
6
CONTINUOUS
10
4.0582420472440948
20
-3.0036878346456692
11
4.0582358267716536
21
-3.0036888582677164
0
LINE
8
BLACK
6
CONTINUOUS
10
4.0582358267716536
20
-3.0036888582677164
11
4.0581602362204725
21
-3.0036888582677164
0
LINE
8
BLACK
6
CONTINUOUS
10
4.0581602362204725
20
-3.0036888582677164
11
4.0580451968503937
21
-3.0037272047244095
0
LINE
8
BLACK
6
CONTINUOUS
10
4.0580451968503937
20
-3.0037272047244095
11
4.0580389763779525
21
-3.0037282283464566
0
LINE
8
BLACK
6
CONTINUOUS
10
4.0580389763779525
20
-3.0037282283464566
11
4.0579633858267714
21
-3.0037282283464566
0
LINE
8
BLACK
6
CONTINUOUS
10
4.0579633858267714
20
-3.0037282283464566
11
4.0578483464566926
21
-3.0037665748031497
0
LINE
8
BLACK
6
CONTINUOUS
10
4.0578483464566926
20
-3.0037665748031497
11
4.0578421259842523
21
-3.0037675984251968
0
LINE
8
BLACK
6
CONTINUOUS
10
4.0578421259842523
20
-3.0037675984251968
11
4.0535114173228344
21
-3.0037675984251968
0
LINE
8
BLACK
6
CONTINUOUS
10
4.0535114173228344
20
-3.0037675984251968
11
4.0535051968503932
21
-3.0037665748031497
0
LINE
8
BLACK
6
CONTINUOUS
10
4.0535051968503932
20
-3.0037665748031497
11
4.0533901574803153
21
-3.0037282283464566
0
LINE
8
BLACK
6
CONTINUOUS
10
4.0533901574803153
20
-3.0037282283464566
11
4.0533145669291342
21
-3.0037282283464566
0
LINE
8
BLACK
6
CONTINUOUS
10
4.0533145669291342
20
-3.0037282283464566
11
4.053308346456693
21
-3.0037272047244095
0
LINE
8
BLACK
6
CONTINUOUS
10
4.053308346456693
20
-3.0037272047244095
11
4.0531933070866142
21
-3.0036888582677164
0
LINE
8
BLACK
6
CONTINUOUS
10
4.0531933070866142
20
-3.0036888582677164
11
4.0531177165354331
21
-3.0036888582677164
0
LINE
8
BLACK
6
CONTINUOUS
10
4.0531177165354331
20
-3.0036888582677164
11
4.0531114960629919
21
-3.0036878346456692
0
LINE
8
BLACK
6
CONTINUOUS
10
4.0531114960629919
20
-3.0036878346456692
11
4.0529933858267713
21
-3.003648464566929
0
LINE
8
BLACK
6
CONTINUOUS
10
4.0529933858267713
20
-3.003648464566929
11
4.0529907874015745
21
-3.0036474015748031
0
LINE
8
BLACK
6
CONTINUOUS
10
4.0529907874015745
20
-3.0036474015748031
11
4.0529132283464566
21
-3.0036086220472442
0
LINE
8
BLACK
6
CONTINUOUS
10
4.0529132283464566
20
-3.0036086220472442
11
4.0527965354330711
21
-3.0035697244094486
0
LINE
8
BLACK
6
CONTINUOUS
10
4.0527965354330711
20
-3.0035697244094486
11
4.0527888188976373
21
-3.003565
0
LINE
8
BLACK
6
CONTINUOUS
10
4.0527888188976373
20
-3.003565
11
4.052712283464567
21
-3.0034884645669289
0
LINE
8
BLACK
6
CONTINUOUS
10
4.052712283464567
20
-3.0034884645669289
11
4.0526364566929134
21
-3.0034505511811025
0
LINE
8
BLACK
6
CONTINUOUS
10
4.0526364566929134
20
-3.0034505511811025
11
4.0526313385826773
21
-3.0034468897637794
0
LINE
8
BLACK
6
CONTINUOUS
10
4.0526313385826773
20
-3.0034468897637794
11
4.0525548031496061
21
-3.0033703543307086
0
LINE
8
BLACK
6
CONTINUOUS
10
4.0525548031496061
20
-3.0033703543307086
11
4.0524789763779525
21
-3.0033324409448818
0
LINE
8
BLACK
6
CONTINUOUS
10
4.0524789763779525
20
-3.0033324409448818
11
4.0524738582677164
21
-3.0033287795275592
0
LINE
8
BLACK
6
CONTINUOUS
10
4.0524738582677164
20
-3.0033287795275592
11
4.0521588976377956
21
-3.0030138188976379
0
LINE
8
BLACK
6
CONTINUOUS
10
4.0521588976377956
20
-3.0030138188976379
11
4.0521552362204725
21
-3.0030087007874013
0
LINE
8
BLACK
6
CONTINUOUS
10
4.0521552362204725
20
-3.0030087007874013
11
4.0521173228346452
21
-3.0029328740157482
0
LINE
8
BLACK
6
CONTINUOUS
10
4.0521173228346452
20
-3.0029328740157482
11
4.0520407874015749
21
-3.002856338582677
0
LINE
8
BLACK
6
CONTINUOUS
10
4.0520407874015749
20
-3.002856338582677
11
4.0520371259842518
21
-3.0028512204724409
0
LINE
8
BLACK
6
CONTINUOUS
10
4.0520371259842518
20
-3.0028512204724409
11
4.0519992125984254
21
-3.0027753937007873
0
LINE
8
BLACK
6
CONTINUOUS
10
4.0519992125984254
20
-3.0027753937007873
11
4.0519226771653543
21
-3.0026988582677165
0
LINE
8
BLACK
6
CONTINUOUS
10
4.0519226771653543
20
-3.0026988582677165
11
4.0519179527559057
21
-3.0026911417322832
0
LINE
8
BLACK
6
CONTINUOUS
10
4.0519179527559057
20
-3.0026911417322832
11
4.0518790551181105
21
-3.0025744488188977
0
LINE
8
BLACK
6
CONTINUOUS
10
4.0518790551181105
20
-3.0025744488188977
11
4.0518402755905507
21
-3.0024968897637794
0
LINE
8
BLACK
6
CONTINUOUS
10
4.0518402755905507
20
-3.0024968897637794
11
4.0518392125984253
21
-3.0024942913385826
0
LINE
8
BLACK
6
CONTINUOUS
10
4.0518392125984253
20
-3.0024942913385826
11
4.0517998425196851
21
-3.0023761811023619
0
LINE
8
BLACK
6
CONTINUOUS
10
4.0517998425196851
20
-3.0023761811023619
11
4.0517988188976375
21
-3.0023699606299212
0
LINE
8
BLACK
6
CONTINUOUS
10
4.0517988188976375
20
-3.0023699606299212
11
4.0517988188976375
21
-3.0022943700787401
0
LINE
8
BLACK
6
CONTINUOUS
10
4.0517988188976375
20
-3.0022943700787401
11
4.0517604724409448
21
-3.0021793307086613
0
LINE
8
BLACK
6
CONTINUOUS
10
4.0517604724409448
20
-3.0021793307086613
11
4.0517594488188973
21
-3.0021731102362206
0
LINE
8
BLACK
6
CONTINUOUS
10
4.0517594488188973
20
-3.0021731102362206
11
4.0517594488188973
21
-3.0020975196850395
0
LINE
8
BLACK
6
CONTINUOUS
10
4.0517594488188973
20
-3.0020975196850395
11
4.0517211023622046
21
-3.0019824803149606
0
LINE
8
BLACK
6
CONTINUOUS
10
4.0517211023622046
20
-3.0019824803149606
11
4.051720078740157
21
-3.0019762598425195
0
LINE
8
BLACK
6
CONTINUOUS
10
4.051720078740157
20
-3.0019762598425195
11
4.051720078740157
21
-2.9901652362204723
0
LINE
8
BLACK
6
CONTINUOUS
10
4.051720078740157
20
-2.9901652362204723
11
4.0517211023622046
21
-2.9901590157480316
0
LINE
8
BLACK
6
CONTINUOUS
10
4.0517211023622046
20
-2.9901590157480316
11
4.0517594488188973
21
-2.9900439763779527
0
LINE
8
BLACK
6
CONTINUOUS
10
4.0517594488188973
20
-2.9900439763779527
11
4.0517594488188973
21
-2.9899683858267716
0
LINE
8
BLACK
6
CONTINUOUS
10
4.0517594488188973
20
-2.9899683858267716
11
4.0517604724409448
21
-2.9899621653543305
0
LINE
8
BLACK
6
CONTINUOUS
10
4.0517604724409448
20
-2.9899621653543305
11
4.0517988188976375
21
-2.9898471259842521
0
LINE
8
BLACK
6
CONTINUOUS
10
4.0517988188976375
20
-2.9898471259842521
11
4.0517988188976375
21
-2.9897715354330709
0
LINE
8
BLACK
6
CONTINUOUS
10
4.0517988188976375
20
-2.9897715354330709
11
4.0517998425196851
21
-2.9897653149606298
0
LINE
8
BLACK
6
CONTINUOUS
10
4.0517998425196851
20
-2.9897653149606298
11
4.0518392125984253
21
-2.9896472047244096
0
LINE
8
BLACK
6
CONTINUOUS
10
4.0518392125984253
20
-2.9896472047244096
11
4.0518402755905507
21
-2.9896446062992124
0
LINE
8
BLACK
6
CONTINUOUS
10
4.0518402755905507
20
-2.9896446062992124
11
4.0518790551181105
21
-2.9895670472440945
0
LINE
8
BLACK
6
CONTINUOUS
10
4.0518790551181105
20
-2.9895670472440945
11
4.0519179527559057
21
-2.9894503543307085
0
LINE
8
BLACK
6
CONTINUOUS
10
4.0519179527559057
20
-2.9894503543307085
11
4.0519226771653543
21
-2.9894426377952756
0
LINE
8
BLACK
6
CONTINUOUS
10
4.0519226771653543
20
-2.9894426377952756
11
4.0519992125984254
21
-2.9893661023622045
0
LINE
8
BLACK
6
CONTINUOUS
10
4.0519992125984254
20
-2.9893661023622045
11
4.0520371259842518
21
-2.9892902755905513
0
LINE
8
BLACK
6
CONTINUOUS
10
4.0520371259842518
20
-2.9892902755905513
11
4.0520407874015749
21
-2.9892851574803148
0
LINE
8
BLACK
6
CONTINUOUS
10
4.0520407874015749
20
-2.9892851574803148
11
4.0521173228346452
21
-2.989208622047244
0
LINE
8
BLACK
6
CONTINUOUS
10
4.0521173228346452
20
-2.989208622047244
11
4.0521552362204725
21
-2.9891327952755904
0
LINE
8
BLACK
6
CONTINUOUS
10
4.0521552362204725
20
-2.9891327952755904
11
4.0521588976377956
21
-2.9891276771653543
0
LINE
8
BLACK
6
CONTINUOUS
10
4.0521588976377956
20
-2.9891276771653543
11
4.0524738582677164
21
-2.988812716535433
0
LINE
8
BLACK
6
CONTINUOUS
10
4.0524738582677164
20
-2.988812716535433
11
4.0524789763779525
21
-2.9888090551181103
0
LINE
8
BLACK
6
CONTINUOUS
10
4.0524789763779525
20
-2.9888090551181103
11
4.0525548031496061
21
-2.9887711417322835
0
LINE
8
BLACK
6
CONTINUOUS
10
4.0525548031496061
20
-2.9887711417322835
11
4.0526313385826773
21
-2.9886946062992124
0
LINE
8
BLACK
6
CONTINUOUS
10
4.0526313385826773
20
-2.9886946062992124
11
4.0526364566929134
21
-2.9886909448818897
0
LINE
8
BLACK
6
CONTINUOUS
10
4.0526364566929134
20
-2.9886909448818897
11
4.052712283464567
21
-2.9886530314960629
0
LINE
8
BLACK
6
CONTINUOUS
10
4.052712283464567
20
-2.9886530314960629
11
4.0527888188976373
21
-2.9885764960629921
0
LINE
8
BLACK
6
CONTINUOUS
10
4.0527888188976373
20
-2.9885764960629921
11
4.0527965354330711
21
-2.9885717716535432
0
LINE
8
BLACK
6
CONTINUOUS
10
4.0527965354330711
20
-2.9885717716535432
11
4.0529132283464566
21
-2.988532874015748
0
LINE
8
BLACK
6
CONTINUOUS
10
4.0529132283464566
20
-2.988532874015748
11
4.0529907874015745
21
-2.988494094488189
0
LINE
8
BLACK
6
CONTINUOUS
10
4.0529907874015745
20
-2.988494094488189
11
4.0529933858267713
21
-2.9884930314960627
0
LINE
8
BLACK
6
CONTINUOUS
10
4.0529933858267713
20
-2.9884930314960627
11
4.0531114960629919
21
-2.9884536614173229
0
LINE
8
BLACK
6
CONTINUOUS
10
4.0531114960629919
20
-2.9884536614173229
11
4.0531177165354331
21
-2.9884526377952754
0
LINE
8
BLACK
6
CONTINUOUS
10
4.0531177165354331
20
-2.9884526377952754
11
4.0531933070866142
21
-2.9884526377952754
0
LINE
8
BLACK
6
CONTINUOUS
10
4.0531933070866142
20
-2.9884526377952754
11
4.053308346456693
21
-2.9884142913385827
0
LINE
8
BLACK
6
CONTINUOUS
10
4.053308346456693
20
-2.9884142913385827
11
4.0533145669291342
21
-2.9884132677165351
0
LINE
8
BLACK
6
CONTINUOUS
10
4.0533145669291342
20
-2.9884132677165351
11
4.0533901574803153
21
-2.9884132677165351
0
LINE
8
BLACK
6
CONTINUOUS
10
4.0533901574803153
20
-2.9884132677165351
11
4.0535051968503932
21
-2.9883749212598425
0
LINE
8
BLACK
6
CONTINUOUS
10
4.0535051968503932
20
-2.9883749212598425
11
4.0535114173228344
21
-2.9883738976377954
0
LINE
8
BLACK
6
CONTINUOUS
10
4.0535114173228344
20
-2.9883738976377954
11
4.0578421259842523
21
-2.9883738976377954
0
LINE
8
BLACK
6
CONTINUOUS
10
4.0578421259842523
20
-2.9883738976377954
11
4.0578483464566926
21
-2.9883749212598425
0
LINE
8
BLACK
6
CONTINUOUS
10
4.1495486614173229
20
-2.9713174803149607
11
4.1496062992125982
21
-2.9714566929133857
0
LINE
8
BLACK
6
CONTINUOUS
10
4.1496062992125982
20
-2.9714566929133857
11
4.1496062992125982
21
-2.983344094488189
0
LINE
8
BLACK
6
CONTINUOUS
10
4.1496062992125982
20
-2.983344094488189
11
4.1495486614173229
21
-2.983483307086614
0
LINE
8
BLACK
6
CONTINUOUS
10
4.1495486614173229
20
-2.983483307086614
11
4.1494094488188979
21
-2.9835409448818897
0
LINE
8
BLACK
6
CONTINUOUS
10
4.1494094488188979
20
-2.9835409448818897
11
4.1318708661417318
21
-2.9835409448818897
0
LINE
8
BLACK
6
CONTINUOUS
10
4.1318708661417318
20
-2.9835409448818897
11
4.1317316535433068
21
-2.983483307086614
0
LINE
8
BLACK
6
CONTINUOUS
10
4.1317316535433068
20
-2.983483307086614
11
4.1316740157480316
21
-2.983344094488189
0
LINE
8
BLACK
6
CONTINUOUS
10
4.1316740157480316
20
-2.983344094488189
11
4.1316740157480316
21
-2.9714566929133857
0
LINE
8
BLACK
6
CONTINUOUS
10
4.1316740157480316
20
-2.9714566929133857
11
4.1317316535433068
21
-2.9713174803149607
0
LINE
8
BLACK
6
CONTINUOUS
10
4.1317316535433068
20
-2.9713174803149607
11
4.1318708661417318
21
-2.971259842519685
0
LINE
8
BLACK
6
CONTINUOUS
10
4.1318708661417318
20
-2.971259842519685
11
4.1494094488188979
21
-2.971259842519685
0
LINE
8
BLACK
6
CONTINUOUS
10
4.1494094488188979
20
-2.971259842519685
11
4.1495486614173229
21
-2.9713174803149607
0
LINE
8
BLACK
6
CONTINUOUS
10
4.4487612598425192
20
-2.9713174803149607
11
4.4488188976377954
21
-2.9714566929133857
0
LINE
8
BLACK
6
CONTINUOUS
10
4.4488188976377954
20
-2.9714566929133857
11
4.4488188976377954
21
-2.9833354330708661
0
LINE
8
BLACK
6
CONTINUOUS
10
4.4488188976377954
20
-2.9833354330708661
11
4.4487612598425192
21
-2.9834746456692911
0
LINE
8
BLACK
6
CONTINUOUS
10
4.4487612598425192
20
-2.9834746456692911
11
4.4486220472440943
21
-2.9835322834645668
0
LINE
8
BLACK
6
CONTINUOUS
10
4.4486220472440943
20
-2.9835322834645668
11
4.4314692913385825
21
-2.9835322834645668
0
LINE
8
BLACK
6
CONTINUOUS
10
4.4314692913385825
20
-2.9835322834645668
11
4.4313300787401575
21
-2.9834746456692911
0
LINE
8
BLACK
6
CONTINUOUS
10
4.4313300787401575
20
-2.9834746456692911
11
4.4312724409448814
21
-2.9833354330708661
0
LINE
8
BLACK
6
CONTINUOUS
10
4.4312724409448814
20
-2.9833354330708661
11
4.4312724409448814
21
-2.9714566929133857
0
LINE
8
BLACK
6
CONTINUOUS
10
4.4312724409448814
20
-2.9714566929133857
11
4.4313300787401575
21
-2.9713174803149607
0
LINE
8
BLACK
6
CONTINUOUS
10
4.4313300787401575
20
-2.9713174803149607
11
4.4314692913385825
21
-2.971259842519685
0
LINE
8
BLACK
6
CONTINUOUS
10
4.4314692913385825
20
-2.971259842519685
11
4.4486220472440943
21
-2.971259842519685
0
LINE
8
BLACK
6
CONTINUOUS
10
4.4486220472440943
20
-2.971259842519685
11
4.4487612598425192
21
-2.9713174803149607
0
LINE
8
BLACK
6
CONTINUOUS
10
4.2698242519685037
20
-2.9636403149606299
11
4.2698818897637798
21
-2.9637795275590553
0
LINE
8
BLACK
6
CONTINUOUS
10
4.2698818897637798
20
-2.9637795275590553
11
4.2698818897637798
21
-2.9811996062992123
0
LINE
8
BLACK
6
CONTINUOUS
10
4.2698818897637798
20
-2.9811996062992123
11
4.2698242519685037
21
-2.9813388188976377
0
LINE
8
BLACK
6
CONTINUOUS
10
4.2698242519685037
20
-2.9813388188976377
11
4.2696850393700787
21
-2.9813964566929134
0
LINE
8
BLACK
6
CONTINUOUS
10
4.2696850393700787
20
-2.9813964566929134
11
4.2578155511811024
21
-2.9813964566929134
0
LINE
8
BLACK
6
CONTINUOUS
10
4.2578155511811024
20
-2.9813964566929134
11
4.2576763385826775
21
-2.9813388188976377
0
LINE
8
BLACK
6
CONTINUOUS
10
4.2576763385826775
20
-2.9813388188976377
11
4.2576187007874013
21
-2.9811996062992123
0
LINE
8
BLACK
6
CONTINUOUS
10
4.2576187007874013
20
-2.9811996062992123
11
4.2576187007874013
21
-2.9637795275590553
0
LINE
8
BLACK
6
CONTINUOUS
10
4.2576187007874013
20
-2.9637795275590553
11
4.2576763385826775
21
-2.9636403149606299
0
LINE
8
BLACK
6
CONTINUOUS
10
4.2576763385826775
20
-2.9636403149606299
11
4.2578155511811024
21
-2.9635826771653542
0
LINE
8
BLACK
6
CONTINUOUS
10
4.2578155511811024
20
-2.9635826771653542
11
4.2696850393700787
21
-2.9635826771653542
0
LINE
8
BLACK
6
CONTINUOUS
10
4.2696850393700787
20
-2.9635826771653542
11
4.2698242519685037
21
-2.9636403149606299
0
LINE
8
BLACK
6
CONTINUOUS
10
4.2462022047244092
20
-2.9636403149606299
11
4.2462598425196854
21
-2.9637795275590553
0
LINE
8
BLACK
6
CONTINUOUS
10
4.2462598425196854
20
-2.9637795275590553
11
4.2462598425196854
21
-2.9811708661417322
0
LINE
8
BLACK
6
CONTINUOUS
10
4.2462598425196854
20
-2.9811708661417322
11
4.2462022047244092
21
-2.9813100787401576
0
LINE
8
BLACK
6
CONTINUOUS
10
4.2462022047244092
20
-2.9813100787401576
11
4.2460629921259843
21
-2.9813677165354329
0
LINE
8
BLACK
6
CONTINUOUS
10
4.2460629921259843
20
-2.9813677165354329
11
4.2341807086614169
21
-2.9813677165354329
0
LINE
8
BLACK
6
CONTINUOUS
10
4.2341807086614169
20
-2.9813677165354329
11
4.234041496062992
21
-2.9813100787401576
0
LINE
8
BLACK
6
CONTINUOUS
10
4.234041496062992
20
-2.9813100787401576
11
4.2339838582677167
21
-2.9811708661417322
0
LINE
8
BLACK
6
CONTINUOUS
10
4.2339838582677167
20
-2.9811708661417322
11
4.2339838582677167
21
-2.9637795275590553
0
LINE
8
BLACK
6
CONTINUOUS
10
4.2339838582677167
20
-2.9637795275590553
11
4.234041496062992
21
-2.9636403149606299
0
LINE
8
BLACK
6
CONTINUOUS
10
4.234041496062992
20
-2.9636403149606299
11
4.2341807086614169
21
-2.9635826771653542
0
LINE
8
BLACK
6
CONTINUOUS
10
4.2341807086614169
20
-2.9635826771653542
11
4.2460629921259843
21
-2.9635826771653542
0
LINE
8
BLACK
6
CONTINUOUS
10
4.2460629921259843
20
-2.9635826771653542
11
4.2462022047244092
21
-2.9636403149606299
0
LINE
8
BLACK
6
CONTINUOUS
10
4.1989581102362203
20
-2.9636403149606299
11
4.1990157480314956
21
-2.9637795275590553
0
LINE
8
BLACK
6
CONTINUOUS
10
4.1990157480314956
20
-2.9637795275590553
11
4.1990157480314956
21
-2.981155118110236
0
LINE
8
BLACK
6
CONTINUOUS
10
4.1990157480314956
20
-2.981155118110236
11
4.1989581102362203
21
-2.9812943307086615
0
LINE
8
BLACK
6
CONTINUOUS
10
4.1989581102362203
20
-2.9812943307086615
11
4.1988188976377954
21
-2.9813519685039371
0
LINE
8
BLACK
6
CONTINUOUS
10
4.1988188976377954
20
-2.9813519685039371
11
4.1869066929133858
21
-2.9813519685039371
0
LINE
8
BLACK
6
CONTINUOUS
10
4.1869066929133858
20
-2.9813519685039371
11
4.1867674803149608
21
-2.9812943307086615
0
LINE
8
BLACK
6
CONTINUOUS
10
4.1867674803149608
20
-2.9812943307086615
11
4.1867098425196847
21
-2.981155118110236
0
LINE
8
BLACK
6
CONTINUOUS
10
4.1867098425196847
20
-2.981155118110236
11
4.1867098425196847
21
-2.9637795275590553
0
LINE
8
BLACK
6
CONTINUOUS
10
4.1867098425196847
20
-2.9637795275590553
11
4.1867674803149608
21
-2.9636403149606299
0
LINE
8
BLACK
6
CONTINUOUS
10
4.1867674803149608
20
-2.9636403149606299
11
4.1869066929133858
21
-2.9635826771653542
0
LINE
8
BLACK
6
CONTINUOUS
10
4.1869066929133858
20
-2.9635826771653542
11
4.1988188976377954
21
-2.9635826771653542
0
LINE
8
BLACK
6
CONTINUOUS
10
4.1988188976377954
20
-2.9635826771653542
11
4.1989581102362203
21
-2.9636403149606299
0
LINE
8
BLACK
6
CONTINUOUS
10
4.2225801574803148
20
-2.9636403149606299
11
4.22263779527559
21
-2.9637795275590553
0
LINE
8
BLACK
6
CONTINUOUS
10
4.22263779527559
20
-2.9637795275590553
11
4.22263779527559
21
-2.9811393700787403
0
LINE
8
BLACK
6
CONTINUOUS
10
4.22263779527559
20
-2.9811393700787403
11
4.2225801574803148
21
-2.9812785826771653
0
LINE
8
BLACK
6
CONTINUOUS
10
4.2225801574803148
20
-2.9812785826771653
11
4.2224409448818898
21
-2.981336220472441
0
LINE
8
BLACK
6
CONTINUOUS
10
4.2224409448818898
20
-2.981336220472441
11
4.2105751968503933
21
-2.981336220472441
0
LINE
8
BLACK
6
CONTINUOUS
10
4.2105751968503933
20
-2.981336220472441
11
4.2104359842519683
21
-2.9812785826771653
0
LINE
8
BLACK
6
CONTINUOUS
10
4.2104359842519683
20
-2.9812785826771653
11
4.2103783464566931
21
-2.9811393700787403
0
LINE
8
BLACK
6
CONTINUOUS
10
4.2103783464566931
20
-2.9811393700787403
11
4.2103783464566931
21
-2.9637795275590553
0
LINE
8
BLACK
6
CONTINUOUS
10
4.2103783464566931
20
-2.9637795275590553
11
4.2104359842519683
21
-2.9636403149606299
0
LINE
8
BLACK
6
CONTINUOUS
10
4.2104359842519683
20
-2.9636403149606299
11
4.2105751968503933
21
-2.9635826771653542
0
LINE
8
BLACK
6
CONTINUOUS
10
4.2105751968503933
20
-2.9635826771653542
11
4.2224409448818898
21
-2.9635826771653542
0
LINE
8
BLACK
6
CONTINUOUS
10
4.2224409448818898
20
-2.9635826771653542
11
4.2225801574803148
21
-2.9636403149606299
0
LINE
8
BLACK
6
CONTINUOUS
10
4.1753360629921259
20
-2.9636403149606299
11
4.1753937007874011
21
-2.9637795275590553
0
LINE
8
BLACK
6
CONTINUOUS
10
4.1753937007874011
20
-2.9637795275590553
11
4.1753937007874011
21
-2.9811381889763777
0
LINE
8
BLACK
6
CONTINUOUS
10
4.1753937007874011
20
-2.9811381889763777
11
4.1753360629921259
21
-2.9812774015748031
0
LINE
8
BLACK
6
CONTINUOUS
10
4.1753360629921259
20
-2.9812774015748031
11
4.1751968503937009
21
-2.9813350393700788
0
LINE
8
BLACK
6
CONTINUOUS
10
4.1751968503937009
20
-2.9813350393700788
11
4.1633019685039372
21
-2.9813350393700788
0
LINE
8
BLACK
6
CONTINUOUS
10
4.1633019685039372
20
-2.9813350393700788
11
4.1631627559055113
21
-2.9812774015748031
0
LINE
8
BLACK
6
CONTINUOUS
10
4.1631627559055113
20
-2.9812774015748031
11
4.1631051181102361
21
-2.9811381889763777
0
LINE
8
BLACK
6
CONTINUOUS
10
4.1631051181102361
20
-2.9811381889763777
11
4.1631051181102361
21
-2.9637795275590553
0
LINE
8
BLACK
6
CONTINUOUS
10
4.1631051181102361
20
-2.9637795275590553
11
4.1631627559055113
21
-2.9636403149606299
0
LINE
8
BLACK
6
CONTINUOUS
10
4.1631627559055113
20
-2.9636403149606299
11
4.1633019685039372
21
-2.9635826771653542
0
LINE
8
BLACK
6
CONTINUOUS
10
4.1633019685039372
20
-2.9635826771653542
11
4.1751968503937009
21
-2.9635826771653542
0
LINE
8
BLACK
6
CONTINUOUS
10
4.1751968503937009
20
-2.9635826771653542
11
4.1753360629921259
21
-2.9636403149606299
0
LINE
8
BLACK
6
CONTINUOUS
10
4.3170683464566926
20
-2.9636403149606299
11
4.3171259842519687
21
-2.9637795275590553
0
LINE
8
BLACK
6
CONTINUOUS
10
4.3171259842519687
20
-2.9637795275590553
11
4.3171259842519687
21
-2.9811090551181101
0
LINE
8
BLACK
6
CONTINUOUS
10
4.3171259842519687
20
-2.9811090551181101
11
4.3170683464566926
21
-2.9812482677165355
0
LINE
8
BLACK
6
CONTINUOUS
10
4.3170683464566926
20
-2.9812482677165355
11
4.3169291338582676
21
-2.9813059055118107
0
LINE
8
BLACK
6
CONTINUOUS
10
4.3169291338582676
20
-2.9813059055118107
11
4.3051199606299209
21
-2.9813059055118107
0
LINE
8
BLACK
6
CONTINUOUS
10
4.3051199606299209
20
-2.9813059055118107
11
4.3049807480314959
21
-2.9812482677165355
0
LINE
8
BLACK
6
CONTINUOUS
10
4.3049807480314959
20
-2.9812482677165355
11
4.3049231102362207
21
-2.9811090551181101
0
LINE
8
BLACK
6
CONTINUOUS
10
4.3049231102362207
20
-2.9811090551181101
11
4.3049231102362207
21
-2.9637795275590553
0
LINE
8
BLACK
6
CONTINUOUS
10
4.3049231102362207
20
-2.9637795275590553
11
4.3049807480314959
21
-2.9636403149606299
0
LINE
8
BLACK
6
CONTINUOUS
10
4.3049807480314959
20
-2.9636403149606299
11
4.3051199606299209
21
-2.9635826771653542
0
LINE
8
BLACK
6
CONTINUOUS
10
4.3051199606299209
20
-2.9635826771653542
11
4.3169291338582676
21
-2.9635826771653542
0
LINE
8
BLACK
6
CONTINUOUS
10
4.3169291338582676
20
-2.9635826771653542
11
4.3170683464566926
21
-2.9636403149606299
0
LINE
8
BLACK
6
CONTINUOUS
10
4.2934462992125981
20
-2.9636403149606299
11
4.2935039370078742
21
-2.9637795275590553
0
LINE
8
BLACK
6
CONTINUOUS
10
4.2935039370078742
20
-2.9637795275590553
11
4.2935039370078742
21
-2.9811059055118108
0
LINE
8
BLACK
6
CONTINUOUS
10
4.2935039370078742
20
-2.9811059055118108
11
4.2934462992125981
21
-2.9812451181102362
0
LINE
8
BLACK
6
CONTINUOUS
10
4.2934462992125981
20
-2.9812451181102362
11
4.2933070866141732
21
-2.9813027559055119
0
LINE
8
BLACK
6
CONTINUOUS
10
4.2933070866141732
20
-2.9813027559055119
11
4.2814954724409446
21
-2.9813027559055119
0
LINE
8
BLACK
6
CONTINUOUS
10
4.2814954724409446
20
-2.9813027559055119
11
4.2813562598425197
21
-2.9812451181102362
0
LINE
8
BLACK
6
CONTINUOUS
10
4.2813562598425197
20
-2.9812451181102362
11
4.2812986220472444
21
-2.9811059055118108
0
LINE
8
BLACK
6
CONTINUOUS
10
4.2812986220472444
20
-2.9811059055118108
11
4.2812986220472444
21
-2.9637795275590553
0
LINE
8
BLACK
6
CONTINUOUS
10
4.2812986220472444
20
-2.9637795275590553
11
4.2813562598425197
21
-2.9636403149606299
0
LINE
8
BLACK
6
CONTINUOUS
10
4.2813562598425197
20
-2.9636403149606299
11
4.2814954724409446
21
-2.9635826771653542
0
LINE
8
BLACK
6
CONTINUOUS
10
4.2814954724409446
20
-2.9635826771653542
11
4.2933070866141732
21
-2.9635826771653542
0
LINE
8
BLACK
6
CONTINUOUS
10
4.2933070866141732
20
-2.9635826771653542
11
4.2934462992125981
21
-2.9636403149606299
0
LINE
8
BLACK
6
CONTINUOUS
10
4.1495486614173229
20
-2.9447426771653542
11
4.1496062992125982
21
-2.9448818897637796
0
LINE
8
BLACK
6
CONTINUOUS
10
4.1496062992125982
20
-2.9448818897637796
11
4.1496062992125982
21
-2.9567311023622045
0
LINE
8
BLACK
6
CONTINUOUS
10
4.1496062992125982
20
-2.9567311023622045
11
4.1495486614173229
21
-2.9568703149606299
0
LINE
8
BLACK
6
CONTINUOUS
10
4.1495486614173229
20
-2.9568703149606299
11
4.1494094488188979
21
-2.9569279527559056
0
LINE
8
BLACK
6
CONTINUOUS
10
4.1494094488188979
20
-2.9569279527559056
11
4.131881889763779
21
-2.9569279527559056
0
LINE
8
BLACK
6
CONTINUOUS
10
4.131881889763779
20
-2.9569279527559056
11
4.131742677165354
21
-2.9568703149606299
0
LINE
8
BLACK
6
CONTINUOUS
10
4.131742677165354
20
-2.9568703149606299
11
4.1316850393700788
21
-2.9567311023622045
0
LINE
8
BLACK
6
CONTINUOUS
10
4.1316850393700788
20
-2.9567311023622045
11
4.1316850393700788
21
-2.9448818897637796
0
LINE
8
BLACK
6
CONTINUOUS
10
4.1316850393700788
20
-2.9448818897637796
11
4.131742677165354
21
-2.9447426771653542
0
LINE
8
BLACK
6
CONTINUOUS
10
4.131742677165354
20
-2.9447426771653542
11
4.131881889763779
21
-2.9446850393700785
0
LINE
8
BLACK
6
CONTINUOUS
10
4.131881889763779
20
-2.9446850393700785
11
4.1494094488188979
21
-2.9446850393700785
0
LINE
8
BLACK
6
CONTINUOUS
10
4.1494094488188979
20
-2.9446850393700785
11
4.1495486614173229
21
-2.9447426771653542
0
LINE
8
BLACK
6
CONTINUOUS
10
4.273033267716535
20
-2.9340355118110235
11
4.2734663385826774
21
-2.9340748818897637
0
LINE
8
BLACK
6
CONTINUOUS
10
4.2734663385826774
20
-2.9340748818897637
11
4.2734665354330712
21
-2.9340748818897637
0
LINE
8
BLACK
6
CONTINUOUS
10
4.2734665354330712
20
-2.9340748818897637
11
4.2738602362204725
21
-2.934114251968504
0
LINE
8
BLACK
6
CONTINUOUS
10
4.2738602362204725
20
-2.934114251968504
11
4.273861771653543
21
-2.9341144881889765
0
LINE
8
BLACK
6
CONTINUOUS
10
4.273861771653543
20
-2.9341144881889765
11
4.2742948425196845
21
-2.9341932283464565
0
LINE
8
BLACK
6
CONTINUOUS
10
4.2742948425196845
20
-2.9341932283464565
11
4.2742970078740159
21
-2.9341937401574802
0
LINE
8
BLACK
6
CONTINUOUS
10
4.2742970078740159
20
-2.9341937401574802
11
4.2754781102362207
21
-2.9345480708661418
0
LINE
8
BLACK
6
CONTINUOUS
10
4.2754781102362207
20
-2.9345480708661418
11
4.2754804330708662
21
-2.9345489370078739
0
LINE
8
BLACK
6
CONTINUOUS
10
4.2754804330708662
20
-2.9345489370078739
11
4.2758347637795273
21
-2.9347064173228348
0
LINE
8
BLACK
6
CONTINUOUS
10
4.2758347637795273
20
-2.9347064173228348
11
4.2758355905511811
21
-2.9347068110236219
0
LINE
8
BLACK
6
CONTINUOUS
10
4.2758355905511811
20
-2.9347068110236219
11
4.2762292913385824
21
-2.934903661417323
0
LINE
8
BLACK
6
CONTINUOUS
10
4.2762292913385824
20
-2.934903661417323
11
4.2762300393700787
21
-2.93490405511811
0
LINE
8
BLACK
6
CONTINUOUS
10
4.2762300393700787
20
-2.93490405511811
11
4.2769387007874018
21
-2.9352977559055118
0
LINE
8
BLACK
6
CONTINUOUS
10
4.2769387007874018
20
-2.9352977559055118
11
4.2769400393700785
21
-2.9352985826771651
0
LINE
8
BLACK
6
CONTINUOUS
10
4.2769400393700785
20
-2.9352985826771651
11
4.2772943700787405
21
-2.935534803149606
0
LINE
8
BLACK
6
CONTINUOUS
10
4.2772943700787405
20
-2.935534803149606
11
4.2772964173228347
21
-2.9355363779527557
0
LINE
8
BLACK
6
CONTINUOUS
10
4.2772964173228347
20
-2.9355363779527557
11
4.277610669291338
21
-2.9358113385826772
0
LINE
8
BLACK
6
CONTINUOUS
10
4.277610669291338
20
-2.9358113385826772
11
4.2779251968503935
21
-2.936047244094488
0
LINE
8
BLACK
6
CONTINUOUS
10
4.2779251968503935
20
-2.936047244094488
11
4.2779281889763778
21
-2.9360500393700786
0
LINE
8
BLACK
6
CONTINUOUS
10
4.2779281889763778
20
-2.9360500393700786
11
4.2782029133858268
21
-2.9363639763779528
0
LINE
8
BLACK
6
CONTINUOUS
10
4.2782029133858268
20
-2.9363639763779528
11
4.2785168897637798
21
-2.9366387401574801
0
LINE
8
BLACK
6
CONTINUOUS
10
4.2785168897637798
20
-2.9366387401574801
11
4.2785196850393703
21
-2.9366417322834644
0
LINE
8
BLACK
6
CONTINUOUS
10
4.2785196850393703
20
-2.9366417322834644
11
4.278755551181102
21
-2.9369562598425194
0
LINE
8
BLACK
6
CONTINUOUS
10
4.278755551181102
20
-2.9369562598425194
11
4.2790305511811022
21
-2.9372705118110236
0
LINE
8
BLACK
6
CONTINUOUS
10
4.2790305511811022
20
-2.9372705118110236
11
4.2790321259842523
21
-2.9372725590551179
0
LINE
8
BLACK
6
CONTINUOUS
10
4.2790321259842523
20
-2.9372725590551179
11
4.2792683464566927
21
-2.9376268897637794
0
LINE
8
BLACK
6
CONTINUOUS
10
4.2792683464566927
20
-2.9376268897637794
11
4.2792691732283465
21
-2.9376282283464565
0
LINE
8
BLACK
6
CONTINUOUS
10
4.2792691732283465
20
-2.9376282283464565
11
4.2796628740157479
21
-2.9383368897637796
0
LINE
8
BLACK
6
CONTINUOUS
10
4.2796628740157479
20
-2.9383368897637796
11
4.2796632677165354
21
-2.9383376377952755
0
LINE
8
BLACK
6
CONTINUOUS
10
4.2796632677165354
20
-2.9383376377952755
11
4.2798601181102365
21
-2.9387313385826772
0
LINE
8
BLACK
6
CONTINUOUS
10
4.2798601181102365
20
-2.9387313385826772
11
4.2798605118110231
21
-2.9387321653543306
0
LINE
8
BLACK
6
CONTINUOUS
10
4.2798605118110231
20
-2.9387321653543306
11
4.280017992125984
21
-2.9390864960629921
0
LINE
8
BLACK
6
CONTINUOUS
10
4.280017992125984
20
-2.9390864960629921
11
4.2800188582677166
21
-2.9390888188976376
0
LINE
8
BLACK
6
CONTINUOUS
10
4.2800188582677166
20
-2.9390888188976376
11
4.2803731889763776
21
-2.9402699212598424
0
LINE
8
BLACK
6
CONTINUOUS
10
4.2803731889763776
20
-2.9402699212598424
11
4.2803737007874014
21
-2.9402720866141729
0
LINE
8
BLACK
6
CONTINUOUS
10
4.2803737007874014
20
-2.9402720866141729
11
4.2804524409448819
21
-2.9407051574803149
0
LINE
8
BLACK
6
CONTINUOUS
10
4.2804524409448819
20
-2.9407051574803149
11
4.2804526771653544
21
-2.9407066929133858
0
LINE
8
BLACK
6
CONTINUOUS
10
4.2804526771653544
20
-2.9407066929133858
11
4.2804920472440946
21
-2.9411003937007871
0
LINE
8
BLACK
6
CONTINUOUS
10
4.2804920472440946
20
-2.9411003937007871
11
4.2804920472440946
21
-2.9411005905511809
0
LINE
8
BLACK
6
CONTINUOUS
10
4.2804920472440946
20
-2.9411005905511809
11
4.2805314173228348
21
-2.9415336614173229
0
LINE
8
BLACK
6
CONTINUOUS
10
4.2805314173228348
20
-2.9415336614173229
11
4.2805314960629923
21
-2.9415354330708663
0
LINE
8
BLACK
6
CONTINUOUS
10
4.2805314960629923
20
-2.9415354330708663
11
4.2805314960629923
21
-2.9423228346456693
0
LINE
8
BLACK
6
CONTINUOUS
10
4.2805314960629923
20
-2.9423228346456693
11
4.2805314173228348
21
-2.9423246062992123
0
LINE
8
BLACK
6
CONTINUOUS
10
4.2805314173228348
20
-2.9423246062992123
11
4.2804920472440946
21
-2.9427576771653543
0
LINE
8
BLACK
6
CONTINUOUS
10
4.2804920472440946
20
-2.9427576771653543
11
4.2804920472440946
21
-2.9427578740157481
0
LINE
8
BLACK
6
CONTINUOUS
10
4.2804920472440946
20
-2.9427578740157481
11
4.2804526771653544
21
-2.9431515748031494
0
LINE
8
BLACK
6
CONTINUOUS
10
4.2804526771653544
20
-2.9431515748031494
11
4.2804524409448819
21
-2.9431531102362203
0
LINE
8
BLACK
6
CONTINUOUS
10
4.2804524409448819
20
-2.9431531102362203
11
4.2803737007874014
21
-2.9435861811023623
0
LINE
8
BLACK
6
CONTINUOUS
10
4.2803737007874014
20
-2.9435861811023623
11
4.2803731889763776
21
-2.9435883464566928
0
LINE
8
BLACK
6
CONTINUOUS
10
4.2803731889763776
20
-2.9435883464566928
11
4.2800188582677166
21
-2.9447694488188976
0
LINE
8
BLACK
6
CONTINUOUS
10
4.2800188582677166
20
-2.9447694488188976
11
4.280017992125984
21
-2.9447717716535431
0
LINE
8
BLACK
6
CONTINUOUS
10
4.280017992125984
20
-2.9447717716535431
11
4.2798605118110231
21
-2.9451261023622046
0
LINE
8
BLACK
6
CONTINUOUS
10
4.2798605118110231
20
-2.9451261023622046
11
4.2798601181102365
21
-2.945126929133858
0
LINE
8
BLACK
6
CONTINUOUS
10
4.2798601181102365
20
-2.945126929133858
11
4.2796632677165354
21
-2.9455206299212597
0
LINE
8
BLACK
6
CONTINUOUS
10
4.2796632677165354
20
-2.9455206299212597
11
4.2796628740157479
21
-2.945521377952756
0
LINE
8
BLACK
6
CONTINUOUS
10
4.2796628740157479
20
-2.945521377952756
11
4.2792691732283465
21
-2.9462300393700787
0
LINE
8
BLACK
6
CONTINUOUS
10
4.2792691732283465
20
-2.9462300393700787
11
4.2792683464566927
21
-2.9462313779527558
0
LINE
8
BLACK
6
CONTINUOUS
10
4.2792683464566927
20
-2.9462313779527558
11
4.2790321259842523
21
-2.9465857086614173
0
LINE
8
BLACK
6
CONTINUOUS
10
4.2790321259842523
20
-2.9465857086614173
11
4.2790305511811022
21
-2.9465877559055116
0
LINE
8
BLACK
6
CONTINUOUS
10
4.2790305511811022
20
-2.9465877559055116
11
4.278755551181102
21
-2.9469020078740158
0
LINE
8
BLACK
6
CONTINUOUS
10
4.278755551181102
20
-2.9469020078740158
11
4.2785196850393703
21
-2.9472165354330708
0
LINE
8
BLACK
6
CONTINUOUS
10
4.2785196850393703
20
-2.9472165354330708
11
4.2785168897637798
21
-2.9472195275590551
0
LINE
8
BLACK
6
CONTINUOUS
10
4.2785168897637798
20
-2.9472195275590551
11
4.2782029133858268
21
-2.9474942519685037
0
LINE
8
BLACK
6
CONTINUOUS
10
4.2782029133858268
20
-2.9474942519685037
11
4.2779281889763778
21
-2.9478082283464566
0
LINE
8
BLACK
6
CONTINUOUS
10
4.2779281889763778
20
-2.9478082283464566
11
4.2779251968503935
21
-2.9478110236220472
0
LINE
8
BLACK
6
CONTINUOUS
10
4.2779251968503935
20
-2.9478110236220472
11
4.277610669291338
21
-2.9480468897637793
0
LINE
8
BLACK
6
CONTINUOUS
10
4.277610669291338
20
-2.9480468897637793
11
4.2772964173228347
21
-2.9483218897637795
0
LINE
8
BLACK
6
CONTINUOUS
10
4.2772964173228347
20
-2.9483218897637795
11
4.2772943700787405
21
-2.9483234645669292
0
LINE
8
BLACK
6
CONTINUOUS
10
4.2772943700787405
20
-2.9483234645669292
11
4.2769400393700785
21
-2.94855968503937
0
LINE
8
BLACK
6
CONTINUOUS
10
4.2769400393700785
20
-2.94855968503937
11
4.2769387007874018
21
-2.9485605118110234
0
LINE
8
BLACK
6
CONTINUOUS
10
4.2769387007874018
20
-2.9485605118110234
11
4.2762300393700787
21
-2.9489542125984252
0
LINE
8
BLACK
6
CONTINUOUS
10
4.2762300393700787
20
-2.9489542125984252
11
4.2762292913385824
21
-2.9489546062992127
0
LINE
8
BLACK
6
CONTINUOUS
10
4.2762292913385824
20
-2.9489546062992127
11
4.2758355905511811
21
-2.9491514566929133
0
LINE
8
BLACK
6
CONTINUOUS
10
4.2758355905511811
20
-2.9491514566929133
11
4.2758347637795273
21
-2.9491518503937009
0
LINE
8
BLACK
6
CONTINUOUS
10
4.2758347637795273
20
-2.9491518503937009
11
4.2754804330708662
21
-2.9493093307086613
0
LINE
8
BLACK
6
CONTINUOUS
10
4.2754804330708662
20
-2.9493093307086613
11
4.2754781102362207
21
-2.9493101968503934
0
LINE
8
BLACK
6
CONTINUOUS
10
4.2754781102362207
20
-2.9493101968503934
11
4.2742970078740159
21
-2.9496645275590549
0
LINE
8
BLACK
6
CONTINUOUS
10
4.2742970078740159
20
-2.9496645275590549
11
4.2742948425196845
21
-2.9496650393700787
0
LINE
8
BLACK
6
CONTINUOUS
10
4.2742948425196845
20
-2.9496650393700787
11
4.273861771653543
21
-2.9497437795275592
0
LINE
8
BLACK
6
CONTINUOUS
10
4.273861771653543
20
-2.9497437795275592
11
4.2738602362204725
21
-2.9497440157480312
0
LINE
8
BLACK
6
CONTINUOUS
10
4.2738602362204725
20
-2.9497440157480312
11
4.2734665354330712
21
-2.9497833858267715
0
LINE
8
BLACK
6
CONTINUOUS
10
4.2734665354330712
20
-2.9497833858267715
11
4.2734663385826774
21
-2.9497833858267715
0
LINE
8
BLACK
6
CONTINUOUS
10
4.2734663385826774
20
-2.9497833858267715
11
4.273033267716535
21
-2.9498227559055117
0
LINE
8
BLACK
6
CONTINUOUS
10
4.273033267716535
20
-2.9498227559055117
11
4.273031496062992
21
-2.9498228346456692
0
LINE
8
BLACK
6
CONTINUOUS
10
4.273031496062992
20
-2.9498228346456692
11
4.2722440944881885
21
-2.9498228346456692
0
LINE
8
BLACK
6
CONTINUOUS
10
4.2722440944881885
20
-2.9498228346456692
11
4.2722423228346456
21
-2.9498227559055117
0
LINE
8
BLACK
6
CONTINUOUS
10
4.2722423228346456
20
-2.9498227559055117
11
4.271809251968504
21
-2.9497833858267715
0
LINE
8
BLACK
6
CONTINUOUS
10
4.271809251968504
20
-2.9497833858267715
11
4.2718090551181103
21
-2.9497833858267715
0
LINE
8
BLACK
6
CONTINUOUS
10
4.2718090551181103
20
-2.9497833858267715
11
4.271415354330709
21
-2.9497440157480312
0
LINE
8
BLACK
6
CONTINUOUS
10
4.271415354330709
20
-2.9497440157480312
11
4.2714138188976376
21
-2.9497437795275592
0
LINE
8
BLACK
6
CONTINUOUS
10
4.2714138188976376
20
-2.9497437795275592
11
4.2709807480314961
21
-2.9496650393700787
0
LINE
8
BLACK
6
CONTINUOUS
10
4.2709807480314961
20
-2.9496650393700787
11
4.2709785826771656
21
-2.9496645275590549
0
LINE
8
BLACK
6
CONTINUOUS
10
4.2709785826771656
20
-2.9496645275590549
11
4.2697974803149608
21
-2.9493101968503934
0
LINE
8
BLACK
6
CONTINUOUS
10
4.2697974803149608
20
-2.9493101968503934
11
4.2697951574803152
21
-2.9493093307086613
0
LINE
8
BLACK
6
CONTINUOUS
10
4.2697951574803152
20
-2.9493093307086613
11
4.2694408267716533
21
-2.9491518503937009
0
LINE
8
BLACK
6
CONTINUOUS
10
4.2694408267716533
20
-2.9491518503937009
11
4.2694400000000003
21
-2.9491514566929133
0
LINE
8
BLACK
6
CONTINUOUS
10
4.2694400000000003
20
-2.9491514566929133
11
4.2690462992125982
21
-2.9489546062992127
0
LINE
8
BLACK
6
CONTINUOUS
10
4.2690462992125982
20
-2.9489546062992127
11
4.2690455511811018
21
-2.9489542125984252
0
LINE
8
BLACK
6
CONTINUOUS
10
4.2690455511811018
20
-2.9489542125984252
11
4.2683368897637797
21
-2.9485605118110234
0
LINE
8
BLACK
6
CONTINUOUS
10
4.2683368897637797
20
-2.9485605118110234
11
4.2683355511811021
21
-2.94855968503937
0
LINE
8
BLACK
6
CONTINUOUS
10
4.2683355511811021
20
-2.94855968503937
11
4.267981220472441
21
-2.9483234645669292
0
LINE
8
BLACK
6
CONTINUOUS
10
4.267981220472441
20
-2.9483234645669292
11
4.2679791732283467
21
-2.9483218897637795
0
LINE
8
BLACK
6
CONTINUOUS
10
4.2679791732283467
20
-2.9483218897637795
11
4.2676649212598425
21
-2.9480468897637793
0
LINE
8
BLACK
6
CONTINUOUS
10
4.2676649212598425
20
-2.9480468897637793
11
4.2673503937007871
21
-2.9478110236220472
0
LINE
8
BLACK
6
CONTINUOUS
10
4.2673503937007871
20
-2.9478110236220472
11
4.2673474015748027
21
-2.9478082283464566
0
LINE
8
BLACK
6
CONTINUOUS
10
4.2673474015748027
20
-2.9478082283464566
11
4.2670726377952759
21
-2.9474942519685037
0
LINE
8
BLACK
6
CONTINUOUS
10
4.2670726377952759
20
-2.9474942519685037
11
4.2667587007874017
21
-2.9472195275590551
0
LINE
8
BLACK
6
CONTINUOUS
10
4.2667587007874017
20
-2.9472195275590551
11
4.2667559055118112
21
-2.9472165354330708
0
LINE
8
BLACK
6
CONTINUOUS
10
4.2667559055118112
20
-2.9472165354330708
11
4.2665199999999999
21
-2.9469020078740158
0
LINE
8
BLACK
6
CONTINUOUS
10
4.2665199999999999
20
-2.9469020078740158
11
4.2662450393700784
21
-2.9465877559055116
0
LINE
8
BLACK
6
CONTINUOUS
10
4.2662450393700784
20
-2.9465877559055116
11
4.2662434645669292
21
-2.9465857086614173
0
LINE
8
BLACK
6
CONTINUOUS
10
4.2662434645669292
20
-2.9465857086614173
11
4.2660072440944878
21
-2.9462313779527558
0
LINE
8
BLACK
6
CONTINUOUS
10
4.2660072440944878
20
-2.9462313779527558
11
4.2660064173228349
21
-2.9462300393700787
0
LINE
8
BLACK
6
CONTINUOUS
10
4.2660064173228349
20
-2.9462300393700787
11
4.2656127165354327
21
-2.945521377952756
0
LINE
8
BLACK
6
CONTINUOUS
10
4.2656127165354327
20
-2.945521377952756
11
4.2656123228346452
21
-2.9455206299212597
0
LINE
8
BLACK
6
CONTINUOUS
10
4.2656123228346452
20
-2.9455206299212597
11
4.265415472440945
21
-2.945126929133858
0
LINE
8
BLACK
6
CONTINUOUS
10
4.265415472440945
20
-2.945126929133858
11
4.2654150787401575
21
-2.9451261023622046
0
LINE
8
BLACK
6
CONTINUOUS
10
4.2654150787401575
20
-2.9451261023622046
11
4.2652575984251966
21
-2.9447717716535431
0
LINE
8
BLACK
6
CONTINUOUS
10
4.2652575984251966
20
-2.9447717716535431
11
4.2652567322834649
21
-2.9447694488188976
0
LINE
8
BLACK
6
CONTINUOUS
10
4.2652567322834649
20
-2.9447694488188976
11
4.2649024015748029
21
-2.9435883464566928
0
LINE
8
BLACK
6
CONTINUOUS
10
4.2649024015748029
20
-2.9435883464566928
11
4.2649018897637792
21
-2.9435861811023623
0
LINE
8
BLACK
6
CONTINUOUS
10
4.2649018897637792
20
-2.9435861811023623
11
4.2648231496062987
21
-2.9431531102362203
0
LINE
8
BLACK
6
CONTINUOUS
10
4.2648231496062987
20
-2.9431531102362203
11
4.2648229133858271
21
-2.9431515748031494
0
LINE
8
BLACK
6
CONTINUOUS
10
4.2648229133858271
20
-2.9431515748031494
11
4.2647835433070869
21
-2.9427578740157481
0
LINE
8
BLACK
6
CONTINUOUS
10
4.2647835433070869
20
-2.9427578740157481
11
4.2647835433070869
21
-2.9427576771653543
0
LINE
8
BLACK
6
CONTINUOUS
10
4.2647835433070869
20
-2.9427576771653543
11
4.2647441732283466
21
-2.9423246062992123
0
LINE
8
BLACK
6
CONTINUOUS
10
4.2647441732283466
20
-2.9423246062992123
11
4.2647440944881891
21
-2.9423228346456693
0
LINE
8
BLACK
6
CONTINUOUS
10
4.2647440944881891
20
-2.9423228346456693
11
4.2647440944881891
21
-2.9415354330708663
0
LINE
8
BLACK
6
CONTINUOUS
10
4.2647440944881891
20
-2.9415354330708663
11
4.2647441732283466
21
-2.9415336614173229
0
LINE
8
BLACK
6
CONTINUOUS
10
4.2647441732283466
20
-2.9415336614173229
11
4.2647835433070869
21
-2.9411005905511809
0
LINE
8
BLACK
6
CONTINUOUS
10
4.2647835433070869
20
-2.9411005905511809
11
4.2647835433070869
21
-2.9411003937007871
0
LINE
8
BLACK
6
CONTINUOUS
10
4.2647835433070869
20
-2.9411003937007871
11
4.2648229133858271
21
-2.9407066929133858
0
LINE
8
BLACK
6
CONTINUOUS
10
4.2648229133858271
20
-2.9407066929133858
11
4.2648231496062987
21
-2.9407051574803149
0
LINE
8
BLACK
6
CONTINUOUS
10
4.2648231496062987
20
-2.9407051574803149
11
4.2649018897637792
21
-2.9402720866141729
0
LINE
8
BLACK
6
CONTINUOUS
10
4.2649018897637792
20
-2.9402720866141729
11
4.2649024015748029
21
-2.9402699212598424
0
LINE
8
BLACK
6
CONTINUOUS
10
4.2649024015748029
20
-2.9402699212598424
11
4.2652567322834649
21
-2.9390888188976376
0
LINE
8
BLACK
6
CONTINUOUS
10
4.2652567322834649
20
-2.9390888188976376
11
4.2652575984251966
21
-2.9390864960629921
0
LINE
8
BLACK
6
CONTINUOUS
10
4.2652575984251966
20
-2.9390864960629921
11
4.2654150787401575
21
-2.9387321653543306
0
LINE
8
BLACK
6
CONTINUOUS
10
4.2654150787401575
20
-2.9387321653543306
11
4.265415472440945
21
-2.9387313385826772
0
LINE
8
BLACK
6
CONTINUOUS
10
4.265415472440945
20
-2.9387313385826772
11
4.2656123228346452
21
-2.9383376377952755
0
LINE
8
BLACK
6
CONTINUOUS
10
4.2656123228346452
20
-2.9383376377952755
11
4.2656127165354327
21
-2.9383368897637796
0
LINE
8
BLACK
6
CONTINUOUS
10
4.2656127165354327
20
-2.9383368897637796
11
4.2660064173228349
21
-2.9376282283464565
0
LINE
8
BLACK
6
CONTINUOUS
10
4.2660064173228349
20
-2.9376282283464565
11
4.2660072440944878
21
-2.9376268897637794
0
LINE
8
BLACK
6
CONTINUOUS
10
4.2660072440944878
20
-2.9376268897637794
11
4.2662434645669292
21
-2.9372725590551179
0
LINE
8
BLACK
6
CONTINUOUS
10
4.2662434645669292
20
-2.9372725590551179
11
4.2662450393700784
21
-2.9372705118110236
0
LINE
8
BLACK
6
CONTINUOUS
10
4.2662450393700784
20
-2.9372705118110236
11
4.2665199999999999
21
-2.9369562598425194
0
LINE
8
BLACK
6
CONTINUOUS
10
4.2665199999999999
20
-2.9369562598425194
11
4.2667559055118112
21
-2.9366417322834644
0
LINE
8
BLACK
6
CONTINUOUS
10
4.2667559055118112
20
-2.9366417322834644
11
4.2667587007874017
21
-2.9366387401574801
0
LINE
8
BLACK
6
CONTINUOUS
10
4.2667587007874017
20
-2.9366387401574801
11
4.2670726377952759
21
-2.9363639763779528
0
LINE
8
BLACK
6
CONTINUOUS
10
4.2670726377952759
20
-2.9363639763779528
11
4.2673474015748027
21
-2.9360500393700786
0
LINE
8
BLACK
6
CONTINUOUS
10
4.2673474015748027
20
-2.9360500393700786
11
4.2673503937007871
21
-2.936047244094488
0
LINE
8
BLACK
6
CONTINUOUS
10
4.2673503937007871
20
-2.936047244094488
11
4.2676649212598425
21
-2.9358113385826772
0
LINE
8
BLACK
6
CONTINUOUS
10
4.2676649212598425
20
-2.9358113385826772
11
4.2679791732283467
21
-2.9355363779527557
0
LINE
8
BLACK
6
CONTINUOUS
10
4.2679791732283467
20
-2.9355363779527557
11
4.267981220472441
21
-2.935534803149606
0
LINE
8
BLACK
6
CONTINUOUS
10
4.267981220472441
20
-2.935534803149606
11
4.2683355511811021
21
-2.9352985826771651
0
LINE
8
BLACK
6
CONTINUOUS
10
4.2683355511811021
20
-2.9352985826771651
11
4.2683368897637797
21
-2.9352977559055118
0
LINE
8
BLACK
6
CONTINUOUS
10
4.2683368897637797
20
-2.9352977559055118
11
4.2690455511811018
21
-2.93490405511811
0
LINE
8
BLACK
6
CONTINUOUS
10
4.2690455511811018
20
-2.93490405511811
11
4.2690462992125982
21
-2.934903661417323
0
LINE
8
BLACK
6
CONTINUOUS
10
4.2690462992125982
20
-2.934903661417323
11
4.2694400000000003
21
-2.9347068110236219
0
LINE
8
BLACK
6
CONTINUOUS
10
4.2694400000000003
20
-2.9347068110236219
11
4.2694408267716533
21
-2.9347064173228348
0
LINE
8
BLACK
6
CONTINUOUS
10
4.2694408267716533
20
-2.9347064173228348
11
4.2697951574803152
21
-2.9345489370078739
0
LINE
8
BLACK
6
CONTINUOUS
10
4.2697951574803152
20
-2.9345489370078739
11
4.2697974803149608
21
-2.9345480708661418
0
LINE
8
BLACK
6
CONTINUOUS
10
4.2697974803149608
20
-2.9345480708661418
11
4.2709785826771656
21
-2.9341937401574802
0
LINE
8
BLACK
6
CONTINUOUS
10
4.2709785826771656
20
-2.9341937401574802
11
4.2709807480314961
21
-2.9341932283464565
0
LINE
8
BLACK
6
CONTINUOUS
10
4.2709807480314961
20
-2.9341932283464565
11
4.2714138188976376
21
-2.9341144881889765
0
LINE
8
BLACK
6
CONTINUOUS
10
4.2714138188976376
20
-2.9341144881889765
11
4.271415354330709
21
-2.934114251968504
0
LINE
8
BLACK
6
CONTINUOUS
10
4.271415354330709
20
-2.934114251968504
11
4.2718090551181103
21
-2.9340748818897637
0
LINE
8
BLACK
6
CONTINUOUS
10
4.2718090551181103
20
-2.9340748818897637
11
4.271809251968504
21
-2.9340748818897637
0
LINE
8
BLACK
6
CONTINUOUS
10
4.271809251968504
20
-2.9340748818897637
11
4.2722423228346456
21
-2.9340355118110235
0
LINE
8
BLACK
6
CONTINUOUS
10
4.2722423228346456
20
-2.9340355118110235
11
4.2722440944881885
21
-2.934035433070866
0
LINE
8
BLACK
6
CONTINUOUS
10
4.2722440944881885
20
-2.934035433070866
11
4.273031496062992
21
-2.934035433070866
0
LINE
8
BLACK
6
CONTINUOUS
10
4.273031496062992
20
-2.934035433070866
11
4.273033267716535
21
-2.9340355118110235
0
LINE
8
BLACK
6
CONTINUOUS
10
4.3084663385826767
20
-2.9340355118110235
11
4.3088994094488191
21
-2.9340748818897637
0
LINE
8
BLACK
6
CONTINUOUS
10
4.3088994094488191
20
-2.9340748818897637
11
4.3088996062992129
21
-2.9340748818897637
0
LINE
8
BLACK
6
CONTINUOUS
10
4.3088996062992129
20
-2.9340748818897637
11
4.3092933070866142
21
-2.934114251968504
0
LINE
8
BLACK
6
CONTINUOUS
10
4.3092933070866142
20
-2.934114251968504
11
4.3092948425196846
21
-2.9341144881889765
0
LINE
8
BLACK
6
CONTINUOUS
10
4.3092948425196846
20
-2.9341144881889765
11
4.3097279133858271
21
-2.9341932283464565
0
LINE
8
BLACK
6
CONTINUOUS
10
4.3097279133858271
20
-2.9341932283464565
11
4.3097300787401576
21
-2.9341937401574802
0
LINE
8
BLACK
6
CONTINUOUS
10
4.3097300787401576
20
-2.9341937401574802
11
4.3109111811023624
21
-2.9345480708661418
0
LINE
8
BLACK
6
CONTINUOUS
10
4.3109111811023624
20
-2.9345480708661418
11
4.3109135039370079
21
-2.9345489370078739
0
LINE
8
BLACK
6
CONTINUOUS
10
4.3109135039370079
20
-2.9345489370078739
11
4.311267834645669
21
-2.9347064173228348
0
LINE
8
BLACK
6
CONTINUOUS
10
4.311267834645669
20
-2.9347064173228348
11
4.3112686614173228
21
-2.9347068110236219
0
LINE
8
BLACK
6
CONTINUOUS
10
4.3112686614173228
20
-2.9347068110236219
11
4.3116623622047241
21
-2.934903661417323
0
LINE
8
BLACK
6
CONTINUOUS
10
4.3116623622047241
20
-2.934903661417323
11
4.3116631102362204
21
-2.93490405511811
0
LINE
8
BLACK
6
CONTINUOUS
10
4.3116631102362204
20
-2.93490405511811
11
4.3123717716535435
21
-2.9352977559055118
0
LINE
8
BLACK
6
CONTINUOUS
10
4.3123717716535435
20
-2.9352977559055118
11
4.3123731102362202
21
-2.9352985826771651
0
LINE
8
BLACK
6
CONTINUOUS
10
4.3123731102362202
20
-2.9352985826771651
11
4.3127274409448821
21
-2.935534803149606
0
LINE
8
BLACK
6
CONTINUOUS
10
4.3127274409448821
20
-2.935534803149606
11
4.3127294881889764
21
-2.9355363779527557
0
LINE
8
BLACK
6
CONTINUOUS
10
4.3127294881889764
20
-2.9355363779527557
11
4.3130437401574806
21
-2.9358113385826772
0
LINE
8
BLACK
6
CONTINUOUS
10
4.3130437401574806
20
-2.9358113385826772
11
4.3133582677165352
21
-2.936047244094488
0
LINE
8
BLACK
6
CONTINUOUS
10
4.3133582677165352
20
-2.936047244094488
11
4.3133612598425195
21
-2.9360500393700786
0
LINE
8
BLACK
6
CONTINUOUS
10
4.3133612598425195
20
-2.9360500393700786
11
4.3136359842519685
21
-2.9363639763779528
0
LINE
8
BLACK
6
CONTINUOUS
10
4.3136359842519685
20
-2.9363639763779528
11
4.3139499606299214
21
-2.9366387401574801
0
LINE
8
BLACK
6
CONTINUOUS
10
4.3139499606299214
20
-2.9366387401574801
11
4.313952755905512
21
-2.9366417322834644
0
LINE
8
BLACK
6
CONTINUOUS
10
4.313952755905512
20
-2.9366417322834644
11
4.3141886220472436
21
-2.9369562598425194
0
LINE
8
BLACK
6
CONTINUOUS
10
4.3141886220472436
20
-2.9369562598425194
11
4.3144636220472439
21
-2.9372705118110236
0
LINE
8
BLACK
6
CONTINUOUS
10
4.3144636220472439
20
-2.9372705118110236
11
4.314465196850394
21
-2.9372725590551179
0
LINE
8
BLACK
6
CONTINUOUS
10
4.314465196850394
20
-2.9372725590551179
11
4.3147014173228344
21
-2.9376268897637794
0
LINE
8
BLACK
6
CONTINUOUS
10
4.3147014173228344
20
-2.9376268897637794
11
4.3147022440944882
21
-2.9376282283464565
0
LINE
8
BLACK
6
CONTINUOUS
10
4.3147022440944882
20
-2.9376282283464565
11
4.3150959448818895
21
-2.9383368897637796
0
LINE
8
BLACK
6
CONTINUOUS
10
4.3150959448818895
20
-2.9383368897637796
11
4.315096338582677
21
-2.9383376377952755
0
LINE
8
BLACK
6
CONTINUOUS
10
4.315096338582677
20
-2.9383376377952755
11
4.3152931889763781
21
-2.9387313385826772
0
LINE
8
BLACK
6
CONTINUOUS
10
4.3152931889763781
20
-2.9387313385826772
11
4.3152935826771657
21
-2.9387321653543306
0
LINE
8
BLACK
6
CONTINUOUS
10
4.3152935826771657
20
-2.9387321653543306
11
4.3154510629921257
21
-2.9390864960629921
0
LINE
8
BLACK
6
CONTINUOUS
10
4.3154510629921257
20
-2.9390864960629921
11
4.3154519291338582
21
-2.9390888188976376
0
LINE
8
BLACK
6
CONTINUOUS
10
4.3154519291338582
20
-2.9390888188976376
11
4.3158062598425193
21
-2.9402699212598424
0
LINE
8
BLACK
6
CONTINUOUS
10
4.3158062598425193
20
-2.9402699212598424
11
4.3158067716535431
21
-2.9402720866141729
0
LINE
8
BLACK
6
CONTINUOUS
10
4.3158067716535431
20
-2.9402720866141729
11
4.3158855118110235
21
-2.9407051574803149
0
LINE
8
BLACK
6
CONTINUOUS
10
4.3158855118110235
20
-2.9407051574803149
11
4.315885748031496
21
-2.9407066929133858
0
LINE
8
BLACK
6
CONTINUOUS
10
4.315885748031496
20
-2.9407066929133858
11
4.3159251181102363
21
-2.9411003937007871
0
LINE
8
BLACK
6
CONTINUOUS
10
4.3159251181102363
20
-2.9411003937007871
11
4.3159251181102363
21
-2.9411005905511809
0
LINE
8
BLACK
6
CONTINUOUS
10
4.3159251181102363
20
-2.9411005905511809
11
4.3159644881889765
21
-2.9415336614173229
0
LINE
8
BLACK
6
CONTINUOUS
10
4.3159644881889765
20
-2.9415336614173229
11
4.315964566929134
21
-2.9415354330708663
0
LINE
8
BLACK
6
CONTINUOUS
10
4.315964566929134
20
-2.9415354330708663
11
4.315964566929134
21
-2.9423228346456693
0
LINE
8
BLACK
6
CONTINUOUS
10
4.315964566929134
20
-2.9423228346456693
11
4.3159644881889765
21
-2.9423246062992123
0
LINE
8
BLACK
6
CONTINUOUS
10
4.3159644881889765
20
-2.9423246062992123
11
4.3159251181102363
21
-2.9427576771653543
0
LINE
8
BLACK
6
CONTINUOUS
10
4.3159251181102363
20
-2.9427576771653543
11
4.3159251181102363
21
-2.9427578740157481
0
LINE
8
BLACK
6
CONTINUOUS
10
4.3159251181102363
20
-2.9427578740157481
11
4.315885748031496
21
-2.9431515748031494
0
LINE
8
BLACK
6
CONTINUOUS
10
4.315885748031496
20
-2.9431515748031494
11
4.3158855118110235
21
-2.9431531102362203
0
LINE
8
BLACK
6
CONTINUOUS
10
4.3158855118110235
20
-2.9431531102362203
11
4.3158067716535431
21
-2.9435861811023623
0
LINE
8
BLACK
6
CONTINUOUS
10
4.3158067716535431
20
-2.9435861811023623
11
4.3158062598425193
21
-2.9435883464566928
0
LINE
8
BLACK
6
CONTINUOUS
10
4.3158062598425193
20
-2.9435883464566928
11
4.3154519291338582
21
-2.9447694488188976
0
LINE
8
BLACK
6
CONTINUOUS
10
4.3154519291338582
20
-2.9447694488188976
11
4.3154510629921257
21
-2.9447717716535431
0
LINE
8
BLACK
6
CONTINUOUS
10
4.3154510629921257
20
-2.9447717716535431
11
4.3152935826771657
21
-2.9451261023622046
0
LINE
8
BLACK
6
CONTINUOUS
10
4.3152935826771657
20
-2.9451261023622046
11
4.3152931889763781
21
-2.945126929133858
0
LINE
8
BLACK
6
CONTINUOUS
10
4.3152931889763781
20
-2.945126929133858
11
4.315096338582677
21
-2.9455206299212597
0
LINE
8
BLACK
6
CONTINUOUS
10
4.315096338582677
20
-2.9455206299212597
11
4.3150959448818895
21
-2.945521377952756
0
LINE
8
BLACK
6
CONTINUOUS
10
4.3150959448818895
20
-2.945521377952756
11
4.3147022440944882
21
-2.9462300393700787
0
LINE
8
BLACK
6
CONTINUOUS
10
4.3147022440944882
20
-2.9462300393700787
11
4.3147014173228344
21
-2.9462313779527558
0
LINE
8
BLACK
6
CONTINUOUS
10
4.3147014173228344
20
-2.9462313779527558
11
4.314465196850394
21
-2.9465857086614173
0
LINE
8
BLACK
6
CONTINUOUS
10
4.314465196850394
20
-2.9465857086614173
11
4.3144636220472439
21
-2.9465877559055116
0
LINE
8
BLACK
6
CONTINUOUS
10
4.3144636220472439
20
-2.9465877559055116
11
4.3141886220472436
21
-2.9469020078740158
0
LINE
8
BLACK
6
CONTINUOUS
10
4.3141886220472436
20
-2.9469020078740158
11
4.313952755905512
21
-2.9472165354330708
0
LINE
8
BLACK
6
CONTINUOUS
10
4.313952755905512
20
-2.9472165354330708
11
4.3139499606299214
21
-2.9472195275590551
0
LINE
8
BLACK
6
CONTINUOUS
10
4.3139499606299214
20
-2.9472195275590551
11
4.3136359842519685
21
-2.9474942519685037
0
LINE
8
BLACK
6
CONTINUOUS
10
4.3136359842519685
20
-2.9474942519685037
11
4.3133612598425195
21
-2.9478082283464566
0
LINE
8
BLACK
6
CONTINUOUS
10
4.3133612598425195
20
-2.9478082283464566
11
4.3133582677165352
21
-2.9478110236220472
0
LINE
8
BLACK
6
CONTINUOUS
10
4.3133582677165352
20
-2.9478110236220472
11
4.3130437401574806
21
-2.9480468897637793
0
LINE
8
BLACK
6
CONTINUOUS
10
4.3130437401574806
20
-2.9480468897637793
11
4.3127294881889764
21
-2.9483218897637795
0
LINE
8
BLACK
6
CONTINUOUS
10
4.3127294881889764
20
-2.9483218897637795
11
4.3127274409448821
21
-2.9483234645669292
0
LINE
8
BLACK
6
CONTINUOUS
10
4.3127274409448821
20
-2.9483234645669292
11
4.3123731102362202
21
-2.94855968503937
0
LINE
8
BLACK
6
CONTINUOUS
10
4.3123731102362202
20
-2.94855968503937
11
4.3123717716535435
21
-2.9485605118110234
0
LINE
8
BLACK
6
CONTINUOUS
10
4.3123717716535435
20
-2.9485605118110234
11
4.3116631102362204
21
-2.9489542125984252
0
LINE
8
BLACK
6
CONTINUOUS
10
4.3116631102362204
20
-2.9489542125984252
11
4.3116623622047241
21
-2.9489546062992127
0
LINE
8
BLACK
6
CONTINUOUS
10
4.3116623622047241
20
-2.9489546062992127
11
4.3112686614173228
21
-2.9491514566929133
0
LINE
8
BLACK
6
CONTINUOUS
10
4.3112686614173228
20
-2.9491514566929133
11
4.311267834645669
21
-2.9491518503937009
0
LINE
8
BLACK
6
CONTINUOUS
10
4.311267834645669
20
-2.9491518503937009
11
4.3109135039370079
21
-2.9493093307086613
0
LINE
8
BLACK
6
CONTINUOUS
10
4.3109135039370079
20
-2.9493093307086613
11
4.3109111811023624
21
-2.9493101968503934
0
LINE
8
BLACK
6
CONTINUOUS
10
4.3109111811023624
20
-2.9493101968503934
11
4.3097300787401576
21
-2.9496645275590549
0
LINE
8
BLACK
6
CONTINUOUS
10
4.3097300787401576
20
-2.9496645275590549
11
4.3097279133858271
21
-2.9496650393700787
0
LINE
8
BLACK
6
CONTINUOUS
10
4.3097279133858271
20
-2.9496650393700787
11
4.3092948425196846
21
-2.9497437795275592
0
LINE
8
BLACK
6
CONTINUOUS
10
4.3092948425196846
20
-2.9497437795275592
11
4.3092933070866142
21
-2.9497440157480312
0
LINE
8
BLACK
6
CONTINUOUS
10
4.3092933070866142
20
-2.9497440157480312
11
4.3088996062992129
21
-2.9497833858267715
0
LINE
8
BLACK
6
CONTINUOUS
10
4.3088996062992129
20
-2.9497833858267715
11
4.3088994094488191
21
-2.9497833858267715
0
LINE
8
BLACK
6
CONTINUOUS
10
4.3088994094488191
20
-2.9497833858267715
11
4.3084663385826767
21
-2.9498227559055117
0
LINE
8
BLACK
6
CONTINUOUS
10
4.3084663385826767
20
-2.9498227559055117
11
4.3084645669291337
21
-2.9498228346456692
0
LINE
8
BLACK
6
CONTINUOUS
10
4.3084645669291337
20
-2.9498228346456692
11
4.3076771653543302
21
-2.9498228346456692
0
LINE
8
BLACK
6
CONTINUOUS
10
4.3076771653543302
20
-2.9498228346456692
11
4.3076753937007872
21
-2.9498227559055117
0
LINE
8
BLACK
6
CONTINUOUS
10
4.3076753937007872
20
-2.9498227559055117
11
4.3072423228346457
21
-2.9497833858267715
0
LINE
8
BLACK
6
CONTINUOUS
10
4.3072423228346457
20
-2.9497833858267715
11
4.3072421259842519
21
-2.9497833858267715
0
LINE
8
BLACK
6
CONTINUOUS
10
4.3072421259842519
20
-2.9497833858267715
11
4.3068484251968506
21
-2.9497440157480312
0
LINE
8
BLACK
6
CONTINUOUS
10
4.3068484251968506
20
-2.9497440157480312
11
4.3068468897637793
21
-2.9497437795275592
0
LINE
8
BLACK
6
CONTINUOUS
10
4.3068468897637793
20
-2.9497437795275592
11
4.3064138188976377
21
-2.9496650393700787
0
LINE
8
BLACK
6
CONTINUOUS
10
4.3064138188976377
20
-2.9496650393700787
11
4.3064116535433072
21
-2.9496645275590549
0
LINE
8
BLACK
6
CONTINUOUS
10
4.3064116535433072
20
-2.9496645275590549
11
4.3052305511811024
21
-2.9493101968503934
0
LINE
8
BLACK
6
CONTINUOUS
10
4.3052305511811024
20
-2.9493101968503934
11
4.3052282283464569
21
-2.9493093307086613
0
LINE
8
BLACK
6
CONTINUOUS
10
4.3052282283464569
20
-2.9493093307086613
11
4.3048738976377949
21
-2.9491518503937009
0
LINE
8
BLACK
6
CONTINUOUS
10
4.3048738976377949
20
-2.9491518503937009
11
4.304873070866142
21
-2.9491514566929133
0
LINE
8
BLACK
6
CONTINUOUS
10
4.304873070866142
20
-2.9491514566929133
11
4.3044793700787398
21
-2.9489546062992127
0
LINE
8
BLACK
6
CONTINUOUS
10
4.3044793700787398
20
-2.9489546062992127
11
4.3044786220472444
21
-2.9489542125984252
0
LINE
8
BLACK
6
CONTINUOUS
10
4.3044786220472444
20
-2.9489542125984252
11
4.3037699606299213
21
-2.9485605118110234
0
LINE
8
BLACK
6
CONTINUOUS
10
4.3037699606299213
20
-2.9485605118110234
11
4.3037686220472438
21
-2.94855968503937
0
LINE
8
BLACK
6
CONTINUOUS
10
4.3037686220472438
20
-2.94855968503937
11
4.3034142913385827
21
-2.9483234645669292
0
LINE
8
BLACK
6
CONTINUOUS
10
4.3034142913385827
20
-2.9483234645669292
11
4.3034122440944884
21
-2.9483218897637795
0
LINE
8
BLACK
6
CONTINUOUS
10
4.3034122440944884
20
-2.9483218897637795
11
4.3030979921259842
21
-2.9480468897637793
0
LINE
8
BLACK
6
CONTINUOUS
10
4.3030979921259842
20
-2.9480468897637793
11
4.3027834645669287
21
-2.9478110236220472
0
LINE
8
BLACK
6
CONTINUOUS
10
4.3027834645669287
20
-2.9478110236220472
11
4.3027804724409444
21
-2.9478082283464566
0
LINE
8
BLACK
6
CONTINUOUS
10
4.3027804724409444
20
-2.9478082283464566
11
4.3025057086614176
21
-2.9474942519685037
0
LINE
8
BLACK
6
CONTINUOUS
10
4.3025057086614176
20
-2.9474942519685037
11
4.3021917716535434
21
-2.9472195275590551
0
LINE
8
BLACK
6
CONTINUOUS
10
4.3021917716535434
20
-2.9472195275590551
11
4.3021889763779528
21
-2.9472165354330708
0
LINE
8
BLACK
6
CONTINUOUS
10
4.3021889763779528
20
-2.9472165354330708
11
4.3019530708661415
21
-2.9469020078740158
0
LINE
8
BLACK
6
CONTINUOUS
10
4.3019530708661415
20
-2.9469020078740158
11
4.30167811023622
21
-2.9465877559055116
0
LINE
8
BLACK
6
CONTINUOUS
10
4.30167811023622
20
-2.9465877559055116
11
4.3016765354330708
21
-2.9465857086614173
0
LINE
8
BLACK
6
CONTINUOUS
10
4.3016765354330708
20
-2.9465857086614173
11
4.3014403149606295
21
-2.9462313779527558
0
LINE
8
BLACK
6
CONTINUOUS
10
4.3014403149606295
20
-2.9462313779527558
11
4.3014394881889766
21
-2.9462300393700787
0
LINE
8
BLACK
6
CONTINUOUS
10
4.3014394881889766
20
-2.9462300393700787
11
4.3010457874015744
21
-2.945521377952756
0
LINE
8
BLACK
6
CONTINUOUS
10
4.3010457874015744
20
-2.945521377952756
11
4.3010453937007869
21
-2.9455206299212597
0
LINE
8
BLACK
6
CONTINUOUS
10
4.3010453937007869
20
-2.9455206299212597
11
4.3008485433070867
21
-2.945126929133858
0
LINE
8
BLACK
6
CONTINUOUS
10
4.3008485433070867
20
-2.945126929133858
11
4.3008481496062991
21
-2.9451261023622046
0
LINE
8
BLACK
6
CONTINUOUS
10
4.3008481496062991
20
-2.9451261023622046
11
4.3006906692913383
21
-2.9447717716535431
0
LINE
8
BLACK
6
CONTINUOUS
10
4.3006906692913383
20
-2.9447717716535431
11
4.3006898031496066
21
-2.9447694488188976
0
LINE
8
BLACK
6
CONTINUOUS
10
4.3006898031496066
20
-2.9447694488188976
11
4.3003354724409446
21
-2.9435883464566928
0
LINE
8
BLACK
6
CONTINUOUS
10
4.3003354724409446
20
-2.9435883464566928
11
4.3003349606299208
21
-2.9435861811023623
0
LINE
8
BLACK
6
CONTINUOUS
10
4.3003349606299208
20
-2.9435861811023623
11
4.3002562204724413
21
-2.9431531102362203
0
LINE
8
BLACK
6
CONTINUOUS
10
4.3002562204724413
20
-2.9431531102362203
11
4.3002559842519688
21
-2.9431515748031494
0
LINE
8
BLACK
6
CONTINUOUS
10
4.3002559842519688
20
-2.9431515748031494
11
4.3002166141732285
21
-2.9427578740157481
0
LINE
8
BLACK
6
CONTINUOUS
10
4.3002166141732285
20
-2.9427578740157481
11
4.3002166141732285
21
-2.9427576771653543
0
LINE
8
BLACK
6
CONTINUOUS
10
4.3002166141732285
20
-2.9427576771653543
11
4.3001772440944883
21
-2.9423246062992123
0
LINE
8
BLACK
6
CONTINUOUS
10
4.3001772440944883
20
-2.9423246062992123
11
4.3001771653543308
21
-2.9423228346456693
0
LINE
8
BLACK
6
CONTINUOUS
10
4.3001771653543308
20
-2.9423228346456693
11
4.3001771653543308
21
-2.9415354330708663
0
LINE
8
BLACK
6
CONTINUOUS
10
4.3001771653543308
20
-2.9415354330708663
11
4.3001772440944883
21
-2.9415336614173229
0
LINE
8
BLACK
6
CONTINUOUS
10
4.3001772440944883
20
-2.9415336614173229
11
4.3002166141732285
21
-2.9411005905511809
0
LINE
8
BLACK
6
CONTINUOUS
10
4.3002166141732285
20
-2.9411005905511809
11
4.3002166141732285
21
-2.9411003937007871
0
LINE
8
BLACK
6
CONTINUOUS
10
4.3002166141732285
20
-2.9411003937007871
11
4.3002559842519688
21
-2.9407066929133858
0
LINE
8
BLACK
6
CONTINUOUS
10
4.3002559842519688
20
-2.9407066929133858
11
4.3002562204724413
21
-2.9407051574803149
0
LINE
8
BLACK
6
CONTINUOUS
10
4.3002562204724413
20
-2.9407051574803149
11
4.3003349606299208
21
-2.9402720866141729
0
LINE
8
BLACK
6
CONTINUOUS
10
4.3003349606299208
20
-2.9402720866141729
11
4.3003354724409446
21
-2.9402699212598424
0
LINE
8
BLACK
6
CONTINUOUS
10
4.3003354724409446
20
-2.9402699212598424
11
4.3006898031496066
21
-2.9390888188976376
0
LINE
8
BLACK
6
CONTINUOUS
10
4.3006898031496066
20
-2.9390888188976376
11
4.3006906692913383
21
-2.9390864960629921
0
LINE
8
BLACK
6
CONTINUOUS
10
4.3006906692913383
20
-2.9390864960629921
11
4.3008481496062991
21
-2.9387321653543306
0
LINE
8
BLACK
6
CONTINUOUS
10
4.3008481496062991
20
-2.9387321653543306
11
4.3008485433070867
21
-2.9387313385826772
0
LINE
8
BLACK
6
CONTINUOUS
10
4.3008485433070867
20
-2.9387313385826772
11
4.3010453937007869
21
-2.9383376377952755
0
LINE
8
BLACK
6
CONTINUOUS
10
4.3010453937007869
20
-2.9383376377952755
11
4.3010457874015744
21
-2.9383368897637796
0
LINE
8
BLACK
6
CONTINUOUS
10
4.3010457874015744
20
-2.9383368897637796
11
4.3014394881889766
21
-2.9376282283464565
0
LINE
8
BLACK
6
CONTINUOUS
10
4.3014394881889766
20
-2.9376282283464565
11
4.3014403149606295
21
-2.9376268897637794
0
LINE
8
BLACK
6
CONTINUOUS
10
4.3014403149606295
20
-2.9376268897637794
11
4.3016765354330708
21
-2.9372725590551179
0
LINE
8
BLACK
6
CONTINUOUS
10
4.3016765354330708
20
-2.9372725590551179
11
4.30167811023622
21
-2.9372705118110236
0
LINE
8
BLACK
6
CONTINUOUS
10
4.30167811023622
20
-2.9372705118110236
11
4.3019530708661415
21
-2.9369562598425194
0
LINE
8
BLACK
6
CONTINUOUS
10
4.3019530708661415
20
-2.9369562598425194
11
4.3021889763779528
21
-2.9366417322834644
0
LINE
8
BLACK
6
CONTINUOUS
10
4.3021889763779528
20
-2.9366417322834644
11
4.3021917716535434
21
-2.9366387401574801
0
LINE
8
BLACK
6
CONTINUOUS
10
4.3021917716535434
20
-2.9366387401574801
11
4.3025057086614176
21
-2.9363639763779528
0
LINE
8
BLACK
6
CONTINUOUS
10
4.3025057086614176
20
-2.9363639763779528
11
4.3027804724409444
21
-2.9360500393700786
0
LINE
8
BLACK
6
CONTINUOUS
10
4.3027804724409444
20
-2.9360500393700786
11
4.3027834645669287
21
-2.936047244094488
0
LINE
8
BLACK
6
CONTINUOUS
10
4.3027834645669287
20
-2.936047244094488
11
4.3030979921259842
21
-2.9358113385826772
0
LINE
8
BLACK
6
CONTINUOUS
10
4.3030979921259842
20
-2.9358113385826772
11
4.3034122440944884
21
-2.9355363779527557
0
LINE
8
BLACK
6
CONTINUOUS
10
4.3034122440944884
20
-2.9355363779527557
11
4.3034142913385827
21
-2.935534803149606
0
LINE
8
BLACK
6
CONTINUOUS
10
4.3034142913385827
20
-2.935534803149606
11
4.3037686220472438
21
-2.9352985826771651
0
LINE
8
BLACK
6
CONTINUOUS
10
4.3037686220472438
20
-2.9352985826771651
11
4.3037699606299213
21
-2.9352977559055118
0
LINE
8
BLACK
6
CONTINUOUS
10
4.3037699606299213
20
-2.9352977559055118
11
4.3044786220472444
21
-2.93490405511811
0
LINE
8
BLACK
6
CONTINUOUS
10
4.3044786220472444
20
-2.93490405511811
11
4.3044793700787398
21
-2.934903661417323
0
LINE
8
BLACK
6
CONTINUOUS
10
4.3044793700787398
20
-2.934903661417323
11
4.304873070866142
21
-2.9347068110236219
0
LINE
8
BLACK
6
CONTINUOUS
10
4.304873070866142
20
-2.9347068110236219
11
4.3048738976377949
21
-2.9347064173228348
0
LINE
8
BLACK
6
CONTINUOUS
10
4.3048738976377949
20
-2.9347064173228348
11
4.3052282283464569
21
-2.9345489370078739
0
LINE
8
BLACK
6
CONTINUOUS
10
4.3052282283464569
20
-2.9345489370078739
11
4.3052305511811024
21
-2.9345480708661418
0
LINE
8
BLACK
6
CONTINUOUS
10
4.3052305511811024
20
-2.9345480708661418
11
4.3064116535433072
21
-2.9341937401574802
0
LINE
8
BLACK
6
CONTINUOUS
10
4.3064116535433072
20
-2.9341937401574802
11
4.3064138188976377
21
-2.9341932283464565
0
LINE
8
BLACK
6
CONTINUOUS
10
4.3064138188976377
20
-2.9341932283464565
11
4.3068468897637793
21
-2.9341144881889765
0
LINE
8
BLACK
6
CONTINUOUS
10
4.3068468897637793
20
-2.9341144881889765
11
4.3068484251968506
21
-2.934114251968504
0
LINE
8
BLACK
6
CONTINUOUS
10
4.3068484251968506
20
-2.934114251968504
11
4.3072421259842519
21
-2.9340748818897637
0
LINE
8
BLACK
6
CONTINUOUS
10
4.3072421259842519
20
-2.9340748818897637
11
4.3072423228346457
21
-2.9340748818897637
0
LINE
8
BLACK
6
CONTINUOUS
10
4.3072423228346457
20
-2.9340748818897637
11
4.3076753937007872
21
-2.9340355118110235
0
LINE
8
BLACK
6
CONTINUOUS
10
4.3076753937007872
20
-2.9340355118110235
11
4.3076771653543302
21
-2.934035433070866
0
LINE
8
BLACK
6
CONTINUOUS
10
4.3076771653543302
20
-2.934035433070866
11
4.3084645669291337
21
-2.934035433070866
0
LINE
8
BLACK
6
CONTINUOUS
10
4.3084645669291337
20
-2.934035433070866
11
4.3084663385826767
21
-2.9340355118110235
0
LINE
8
BLACK
6
CONTINUOUS
10
4.1830132283464563
20
-2.932931653543307
11
4.1830708661417324
21
-2.9330708661417324
0
LINE
8
BLACK
6
CONTINUOUS
10
4.1830708661417324
20
-2.9330708661417324
11
4.1830708661417324
21
-2.9449023228346456
0
LINE
8
BLACK
6
CONTINUOUS
10
4.1830708661417324
20
-2.9449023228346456
11
4.1830132283464563
21
-2.945041535433071
0
LINE
8
BLACK
6
CONTINUOUS
10
4.1830132283464563
20
-2.945041535433071
11
4.1828740157480313
21
-2.9450991732283462
0
LINE
8
BLACK
6
CONTINUOUS
10
4.1828740157480313
20
-2.9450991732283462
11
4.1654070866141728
21
-2.9450991732283462
0
LINE
8
BLACK
6
CONTINUOUS
10
4.1654070866141728
20
-2.9450991732283462
11
4.1652678740157478
21
-2.945041535433071
0
LINE
8
BLACK
6
CONTINUOUS
10
4.1652678740157478
20
-2.945041535433071
11
4.1652102362204726
21
-2.9449023228346456
0
LINE
8
BLACK
6
CONTINUOUS
10
4.1652102362204726
20
-2.9449023228346456
11
4.1652102362204726
21
-2.9330708661417324
0
LINE
8
BLACK
6
CONTINUOUS
10
4.1652102362204726
20
-2.9330708661417324
11
4.1652678740157478
21
-2.932931653543307
0
LINE
8
BLACK
6
CONTINUOUS
10
4.1652678740157478
20
-2.932931653543307
11
4.1654070866141728
21
-2.9328740157480313
0
LINE
8
BLACK
6
CONTINUOUS
10
4.1654070866141728
20
-2.9328740157480313
11
4.1828740157480313
21
-2.9328740157480313
0
LINE
8
BLACK
6
CONTINUOUS
10
4.1828740157480313
20
-2.9328740157480313
11
4.1830132283464563
21
-2.932931653543307
0
LINE
8
BLACK
6
CONTINUOUS
10
4.2332100787401572
20
-2.9211206299212598
11
4.2332677165354333
21
-2.9212598425196852
0
LINE
8
BLACK
6
CONTINUOUS
10
4.2332677165354333
20
-2.9212598425196852
11
4.2332677165354333
21
-2.9330788582677165
0
LINE
8
BLACK
6
CONTINUOUS
10
4.2332677165354333
20
-2.9330788582677165
11
4.2332100787401572
21
-2.9332180708661415
0
LINE
8
BLACK
6
CONTINUOUS
10
4.2332100787401572
20
-2.9332180708661415
11
4.2330708661417322
21
-2.9332757086614172
0
LINE
8
BLACK
6
CONTINUOUS
10
4.2330708661417322
20
-2.9332757086614172
11
4.2156468503937008
21
-2.9332757086614172
0
LINE
8
BLACK
6
CONTINUOUS
10
4.2156468503937008
20
-2.9332757086614172
11
4.2155076377952758
21
-2.9332180708661415
0
LINE
8
BLACK
6
CONTINUOUS
10
4.2155076377952758
20
-2.9332180708661415
11
4.2154499999999997
21
-2.9330788582677165
0
LINE
8
BLACK
6
CONTINUOUS
10
4.2154499999999997
20
-2.9330788582677165
11
4.2154499999999997
21
-2.9212598425196852
0
LINE
8
BLACK
6
CONTINUOUS
10
4.2154499999999997
20
-2.9212598425196852
11
4.2155076377952758
21
-2.9211206299212598
0
LINE
8
BLACK
6
CONTINUOUS
10
4.2155076377952758
20
-2.9211206299212598
11
4.2156468503937008
21
-2.9210629921259841
0
LINE
8
BLACK
6
CONTINUOUS
10
4.2156468503937008
20
-2.9210629921259841
11
4.2330708661417322
21
-2.9210629921259841
0
LINE
8
BLACK
6
CONTINUOUS
10
4.2330708661417322
20
-2.9210629921259841
11
4.2332100787401572
21
-2.9211206299212598
0
LINE
8
BLACK
6
CONTINUOUS
10
4.1495486614173229
20
-2.9211206299212598
11
4.1496062992125982
21
-2.9212598425196852
0
LINE
8
BLACK
6
CONTINUOUS
10
4.1496062992125982
20
-2.9212598425196852
11
4.1496062992125982
21
-2.9330774015748031
0
LINE
8
BLACK
6
CONTINUOUS
10
4.1496062992125982
20
-2.9330774015748031
11
4.1495486614173229
21
-2.9332166141732281
0
LINE
8
BLACK
6
CONTINUOUS
10
4.1495486614173229
20
-2.9332166141732281
11
4.1494094488188979
21
-2.9332742519685038
0
LINE
8
BLACK
6
CONTINUOUS
10
4.1494094488188979
20
-2.9332742519685038
11
4.1319110236220471
21
-2.9332742519685038
0
LINE
8
BLACK
6
CONTINUOUS
10
4.1319110236220471
20
-2.9332742519685038
11
4.1317718110236221
21
-2.9332166141732281
0
LINE
8
BLACK
6
CONTINUOUS
10
4.1317718110236221
20
-2.9332166141732281
11
4.131714173228346
21
-2.9330774015748031
0
LINE
8
BLACK
6
CONTINUOUS
10
4.131714173228346
20
-2.9330774015748031
11
4.131714173228346
21
-2.9212598425196852
0
LINE
8
BLACK
6
CONTINUOUS
10
4.131714173228346
20
-2.9212598425196852
11
4.1317718110236221
21
-2.9211206299212598
0
LINE
8
BLACK
6
CONTINUOUS
10
4.1317718110236221
20
-2.9211206299212598
11
4.1319110236220471
21
-2.9210629921259841
0
LINE
8
BLACK
6
CONTINUOUS
10
4.1319110236220471
20
-2.9210629921259841
11
4.1494094488188979
21
-2.9210629921259841
0
LINE
8
BLACK
6
CONTINUOUS
10
4.1494094488188979
20
-2.9210629921259841
11
4.1495486614173229
21
-2.9211206299212598
0
LINE
8
BLACK
6
CONTINUOUS
10
4.1830132283464563
20
-2.9093096062992125
11
4.1830708661417324
21
-2.9094488188976375
0
LINE
8
BLACK
6
CONTINUOUS
10
4.1830708661417324
20
-2.9094488188976375
11
4.1830708661417324
21
-2.9212540157480316
0
LINE
8
BLACK
6
CONTINUOUS
10
4.1830708661417324
20
-2.9212540157480316
11
4.1830132283464563
21
-2.9213932283464565
0
LINE
8
BLACK
6
CONTINUOUS
10
4.1830132283464563
20
-2.9213932283464565
11
4.1828740157480313
21
-2.9214508661417322
0
LINE
8
BLACK
6
CONTINUOUS
10
4.1828740157480313
20
-2.9214508661417322
11
4.165428346456693
21
-2.9214508661417322
0
LINE
8
BLACK
6
CONTINUOUS
10
4.165428346456693
20
-2.9214508661417322
11
4.165289133858268
21
-2.9213932283464565
0
LINE
8
BLACK
6
CONTINUOUS
10
4.165289133858268
20
-2.9213932283464565
11
4.1652314960629919
21
-2.9212540157480316
0
LINE
8
BLACK
6
CONTINUOUS
10
4.1652314960629919
20
-2.9212540157480316
11
4.1652314960629919
21
-2.9094488188976375
0
LINE
8
BLACK
6
CONTINUOUS
10
4.1652314960629919
20
-2.9094488188976375
11
4.165289133858268
21
-2.9093096062992125
0
LINE
8
BLACK
6
CONTINUOUS
10
4.165289133858268
20
-2.9093096062992125
11
4.165428346456693
21
-2.9092519685039369
0
LINE
8
BLACK
6
CONTINUOUS
10
4.165428346456693
20
-2.9092519685039369
11
4.1828740157480313
21
-2.9092519685039369
0
LINE
8
BLACK
6
CONTINUOUS
10
4.1828740157480313
20
-2.9092519685039369
11
4.1830132283464563
21
-2.9093096062992125
0
LINE
8
BLACK
6
CONTINUOUS
10
4.273033267716535
20
-2.9045079527559055
11
4.2734663385826774
21
-2.9045473228346457
0
LINE
8
BLACK
6
CONTINUOUS
10
4.2734663385826774
20
-2.9045473228346457
11
4.2734665354330712
21
-2.9045473228346457
0
LINE
8
BLACK
6
CONTINUOUS
10
4.2734665354330712
20
-2.9045473228346457
11
4.2738602362204725
21
-2.9045866929133859
0
LINE
8
BLACK
6
CONTINUOUS
10
4.2738602362204725
20
-2.9045866929133859
11
4.273861771653543
21
-2.9045869291338584
0
LINE
8
BLACK
6
CONTINUOUS
10
4.273861771653543
20
-2.9045869291338584
11
4.2742948425196845
21
-2.9046656692913384
0
LINE
8
BLACK
6
CONTINUOUS
10
4.2742948425196845
20
-2.9046656692913384
11
4.2742970078740159
21
-2.9046661811023622
0
LINE
8
BLACK
6
CONTINUOUS
10
4.2742970078740159
20
-2.9046661811023622
11
4.2754781102362207
21
-2.9050205118110237
0
LINE
8
BLACK
6
CONTINUOUS
10
4.2754781102362207
20
-2.9050205118110237
11
4.2754804330708662
21
-2.9050213779527558
0
LINE
8
BLACK
6
CONTINUOUS
10
4.2754804330708662
20
-2.9050213779527558
11
4.2758347637795273
21
-2.9051788582677163
0
LINE
8
BLACK
6
CONTINUOUS
10
4.2758347637795273
20
-2.9051788582677163
11
4.2758355905511811
21
-2.9051792519685038
0
LINE
8
BLACK
6
CONTINUOUS
10
4.2758355905511811
20
-2.9051792519685038
11
4.2762292913385824
21
-2.9053761023622044
0
LINE
8
BLACK
6
CONTINUOUS
10
4.2762292913385824
20
-2.9053761023622044
11
4.2762300393700787
21
-2.905376496062992
0
LINE
8
BLACK
6
CONTINUOUS
10
4.2762300393700787
20
-2.905376496062992
11
4.2769387007874018
21
-2.9057701968503937
0
LINE
8
BLACK
6
CONTINUOUS
10
4.2769387007874018
20
-2.9057701968503937
11
4.2769400393700785
21
-2.9057710236220471
0
LINE
8
BLACK
6
CONTINUOUS
10
4.2769400393700785
20
-2.9057710236220471
11
4.2772943700787405
21
-2.906007244094488
0
LINE
8
BLACK
6
CONTINUOUS
10
4.2772943700787405
20
-2.906007244094488
11
4.2772964173228347
21
-2.9060088188976376
0
LINE
8
BLACK
6
CONTINUOUS
10
4.2772964173228347
20
-2.9060088188976376
11
4.277610669291338
21
-2.9062837795275591
0
LINE
8
BLACK
6
CONTINUOUS
10
4.277610669291338
20
-2.9062837795275591
11
4.2779251968503935
21
-2.90651968503937
0
LINE
8
BLACK
6
CONTINUOUS
10
4.2779251968503935
20
-2.90651968503937
11
4.2779281889763778
21
-2.9065224803149605
0
LINE
8
BLACK
6
CONTINUOUS
10
4.2779281889763778
20
-2.9065224803149605
11
4.2782029133858268
21
-2.9068364173228347
0
LINE
8
BLACK
6
CONTINUOUS
10
4.2782029133858268
20
-2.9068364173228347
11
4.2785168897637798
21
-2.907111181102362
0
LINE
8
BLACK
6
CONTINUOUS
10
4.2785168897637798
20
-2.907111181102362
11
4.2785196850393703
21
-2.9071141732283463
0
LINE
8
BLACK
6
CONTINUOUS
10
4.2785196850393703
20
-2.9071141732283463
11
4.278755551181102
21
-2.9074287007874013
0
LINE
8
BLACK
6
CONTINUOUS
10
4.278755551181102
20
-2.9074287007874013
11
4.2790305511811022
21
-2.9077429527559056
0
LINE
8
BLACK
6
CONTINUOUS
10
4.2790305511811022
20
-2.9077429527559056
11
4.2790321259842523
21
-2.9077449999999998
0
LINE
8
BLACK
6
CONTINUOUS
10
4.2790321259842523
20
-2.9077449999999998
11
4.2792683464566927
21
-2.9080993307086613
0
LINE
8
BLACK
6
CONTINUOUS
10
4.2792683464566927
20
-2.9080993307086613
11
4.2792691732283465
21
-2.9081006692913385
0
LINE
8
BLACK
6
CONTINUOUS
10
4.2792691732283465
20
-2.9081006692913385
11
4.2796628740157479
21
-2.9088093307086615
0
LINE
8
BLACK
6
CONTINUOUS
10
4.2796628740157479
20
-2.9088093307086615
11
4.2796632677165354
21
-2.9088100787401574
0
LINE
8
BLACK
6
CONTINUOUS
10
4.2796632677165354
20
-2.9088100787401574
11
4.2798601181102365
21
-2.9092037795275592
0
LINE
8
BLACK
6
CONTINUOUS
10
4.2798601181102365
20
-2.9092037795275592
11
4.2798605118110231
21
-2.9092046062992125
0
LINE
8
BLACK
6
CONTINUOUS
10
4.2798605118110231
20
-2.9092046062992125
11
4.280017992125984
21
-2.909558937007874
0
LINE
8
BLACK
6
CONTINUOUS
10
4.280017992125984
20
-2.909558937007874
11
4.2800188582677166
21
-2.9095612598425196
0
LINE
8
BLACK
6
CONTINUOUS
10
4.2800188582677166
20
-2.9095612598425196
11
4.2803731889763776
21
-2.9107423622047244
0
LINE
8
BLACK
6
CONTINUOUS
10
4.2803731889763776
20
-2.9107423622047244
11
4.2803737007874014
21
-2.9107445275590549
0
LINE
8
BLACK
6
CONTINUOUS
10
4.2803737007874014
20
-2.9107445275590549
11
4.2804524409448819
21
-2.9111775984251969
0
LINE
8
BLACK
6
CONTINUOUS
10
4.2804524409448819
20
-2.9111775984251969
11
4.2804526771653544
21
-2.9111791338582678
0
LINE
8
BLACK
6
CONTINUOUS
10
4.2804526771653544
20
-2.9111791338582678
11
4.2804920472440946
21
-2.9115728346456691
0
LINE
8
BLACK
6
CONTINUOUS
10
4.2804920472440946
20
-2.9115728346456691
11
4.2804920472440946
21
-2.9115730314960628
0
LINE
8
BLACK
6
CONTINUOUS
10
4.2804920472440946
20
-2.9115730314960628
11
4.2805314173228348
21
-2.9120061023622048
0
LINE
8
BLACK
6
CONTINUOUS
10
4.2805314173228348
20
-2.9120061023622048
11
4.2805314960629923
21
-2.9120078740157478
0
LINE
8
BLACK
6
CONTINUOUS
10
4.2805314960629923
20
-2.9120078740157478
11
4.2805314960629923
21
-2.9127952755905513
0
LINE
8
BLACK
6
CONTINUOUS
10
4.2805314960629923
20
-2.9127952755905513
11
4.2805314173228348
21
-2.9127970472440943
0
LINE
8
BLACK
6
CONTINUOUS
10
4.2805314173228348
20
-2.9127970472440943
11
4.2804920472440946
21
-2.9132301181102362
0
LINE
8
BLACK
6
CONTINUOUS
10
4.2804920472440946
20
-2.9132301181102362
11
4.2804920472440946
21
-2.91323031496063
0
LINE
8
BLACK
6
CONTINUOUS
10
4.2804920472440946
20
-2.91323031496063
11
4.2804526771653544
21
-2.9136240157480313
0
LINE
8
BLACK
6
CONTINUOUS
10
4.2804526771653544
20
-2.9136240157480313
11
4.2804524409448819
21
-2.9136255511811022
0
LINE
8
BLACK
6
CONTINUOUS
10
4.2804524409448819
20
-2.9136255511811022
11
4.2803737007874014
21
-2.9140586220472442
0
LINE
8
BLACK
6
CONTINUOUS
10
4.2803737007874014
20
-2.9140586220472442
11
4.2803731889763776
21
-2.9140607874015747
0
LINE
8
BLACK
6
CONTINUOUS
10
4.2803731889763776
20
-2.9140607874015747
11
4.2800188582677166
21
-2.9152418897637795
0
LINE
8
BLACK
6
CONTINUOUS
10
4.2800188582677166
20
-2.9152418897637795
11
4.280017992125984
21
-2.915244212598425
0
LINE
8
BLACK
6
CONTINUOUS
10
4.280017992125984
20
-2.915244212598425
11
4.2798605118110231
21
-2.9155985433070866
0
LINE
8
BLACK
6
CONTINUOUS
10
4.2798605118110231
20
-2.9155985433070866
11
4.2798601181102365
21
-2.9155993700787399
0
LINE
8
BLACK
6
CONTINUOUS
10
4.2798601181102365
20
-2.9155993700787399
11
4.2796632677165354
21
-2.9159930708661417
0
LINE
8
BLACK
6
CONTINUOUS
10
4.2796632677165354
20
-2.9159930708661417
11
4.2796628740157479
21
-2.9159938188976375
0
LINE
8
BLACK
6
CONTINUOUS
10
4.2796628740157479
20
-2.9159938188976375
11
4.2792691732283465
21
-2.9167024803149606
0
LINE
8
BLACK
6
CONTINUOUS
10
4.2792691732283465
20
-2.9167024803149606
11
4.2792683464566927
21
-2.9167038188976377
0
LINE
8
BLACK
6
CONTINUOUS
10
4.2792683464566927
20
-2.9167038188976377
11
4.2790321259842523
21
-2.9170581496062993
0
LINE
8
BLACK
6
CONTINUOUS
10
4.2790321259842523
20
-2.9170581496062993
11
4.2790305511811022
21
-2.9170601968503935
0
LINE
8
BLACK
6
CONTINUOUS
10
4.2790305511811022
20
-2.9170601968503935
11
4.278755551181102
21
-2.9173744488188977
0
LINE
8
BLACK
6
CONTINUOUS
10
4.278755551181102
20
-2.9173744488188977
11
4.2785196850393703
21
-2.9176889763779528
0
LINE
8
BLACK
6
CONTINUOUS
10
4.2785196850393703
20
-2.9176889763779528
11
4.2785168897637798
21
-2.9176919685039371
0
LINE
8
BLACK
6
CONTINUOUS
10
4.2785168897637798
20
-2.9176919685039371
11
4.2782029133858268
21
-2.9179666929133856
0
LINE
8
BLACK
6
CONTINUOUS
10
4.2782029133858268
20
-2.9179666929133856
11
4.2779281889763778
21
-2.9182806692913386
0
LINE
8
BLACK
6
CONTINUOUS
10
4.2779281889763778
20
-2.9182806692913386
11
4.2779251968503935
21
-2.9182834645669291
0
LINE
8
BLACK
6
CONTINUOUS
10
4.2779251968503935
20
-2.9182834645669291
11
4.277610669291338
21
-2.9185193307086612
0
LINE
8
BLACK
6
CONTINUOUS
10
4.277610669291338
20
-2.9185193307086612
11
4.2772964173228347
21
-2.9187943307086615
0
LINE
8
BLACK
6
CONTINUOUS
10
4.2772964173228347
20
-2.9187943307086615
11
4.2772943700787405
21
-2.9187959055118111
0
LINE
8
BLACK
6
CONTINUOUS
10
4.2772943700787405
20
-2.9187959055118111
11
4.2769400393700785
21
-2.919032125984252
0
LINE
8
BLACK
6
CONTINUOUS
10
4.2769400393700785
20
-2.919032125984252
11
4.2769387007874018
21
-2.9190329527559054
0
LINE
8
BLACK
6
CONTINUOUS
10
4.2769387007874018
20
-2.9190329527559054
11
4.2762300393700787
21
-2.9194266535433071
0
LINE
8
BLACK
6
CONTINUOUS
10
4.2762300393700787
20
-2.9194266535433071
11
4.2762292913385824
21
-2.9194270472440946
0
LINE
8
BLACK
6
CONTINUOUS
10
4.2762292913385824
20
-2.9194270472440946
11
4.2758355905511811
21
-2.9196238976377953
0
LINE
8
BLACK
6
CONTINUOUS
10
4.2758355905511811
20
-2.9196238976377953
11
4.2758347637795273
21
-2.9196242913385828
0
LINE
8
BLACK
6
CONTINUOUS
10
4.2758347637795273
20
-2.9196242913385828
11
4.2754804330708662
21
-2.9197817716535432
0
LINE
8
BLACK
6
CONTINUOUS
10
4.2754804330708662
20
-2.9197817716535432
11
4.2754781102362207
21
-2.9197826377952754
0
LINE
8
BLACK
6
CONTINUOUS
10
4.2754781102362207
20
-2.9197826377952754
11
4.2742970078740159
21
-2.9201369685039369
0
LINE
8
BLACK
6
CONTINUOUS
10
4.2742970078740159
20
-2.9201369685039369
11
4.2742948425196845
21
-2.9201374803149607
0
LINE
8
BLACK
6
CONTINUOUS
10
4.2742948425196845
20
-2.9201374803149607
11
4.273861771653543
21
-2.9202162204724407
0
LINE
8
BLACK
6
CONTINUOUS
10
4.273861771653543
20
-2.9202162204724407
11
4.2738602362204725
21
-2.9202164566929132
0
LINE
8
BLACK
6
CONTINUOUS
10
4.2738602362204725
20
-2.9202164566929132
11
4.2734665354330712
21
-2.9202558267716534
0
LINE
8
BLACK
6
CONTINUOUS
10
4.2734665354330712
20
-2.9202558267716534
11
4.2734663385826774
21
-2.9202558267716534
0
LINE
8
BLACK
6
CONTINUOUS
10
4.2734663385826774
20
-2.9202558267716534
11
4.273033267716535
21
-2.9202951968503936
0
LINE
8
BLACK
6
CONTINUOUS
10
4.273033267716535
20
-2.9202951968503936
11
4.273031496062992
21
-2.9202952755905511
0
LINE
8
BLACK
6
CONTINUOUS
10
4.273031496062992
20
-2.9202952755905511
11
4.2722440944881885
21
-2.9202952755905511
0
LINE
8
BLACK
6
CONTINUOUS
10
4.2722440944881885
20
-2.9202952755905511
11
4.2722423228346456
21
-2.9202951968503936
0
LINE
8
BLACK
6
CONTINUOUS
10
4.2722423228346456
20
-2.9202951968503936
11
4.271809251968504
21
-2.9202558267716534
0
LINE
8
BLACK
6
CONTINUOUS
10
4.271809251968504
20
-2.9202558267716534
11
4.2718090551181103
21
-2.9202558267716534
0
LINE
8
BLACK
6
CONTINUOUS
10
4.2718090551181103
20
-2.9202558267716534
11
4.271415354330709
21
-2.9202164566929132
0
LINE
8
BLACK
6
CONTINUOUS
10
4.271415354330709
20
-2.9202164566929132
11
4.2714138188976376
21
-2.9202162204724407
0
LINE
8
BLACK
6
CONTINUOUS
10
4.2714138188976376
20
-2.9202162204724407
11
4.2709807480314961
21
-2.9201374803149607
0
LINE
8
BLACK
6
CONTINUOUS
10
4.2709807480314961
20
-2.9201374803149607
11
4.2709785826771656
21
-2.9201369685039369
0
LINE
8
BLACK
6
CONTINUOUS
10
4.2709785826771656
20
-2.9201369685039369
11
4.2697974803149608
21
-2.9197826377952754
0
LINE
8
BLACK
6
CONTINUOUS
10
4.2697974803149608
20
-2.9197826377952754
11
4.2697951574803152
21
-2.9197817716535432
0
LINE
8
BLACK
6
CONTINUOUS
10
4.2697951574803152
20
-2.9197817716535432
11
4.2694408267716533
21
-2.9196242913385828
0
LINE
8
BLACK
6
CONTINUOUS
10
4.2694408267716533
20
-2.9196242913385828
11
4.2694400000000003
21
-2.9196238976377953
0
LINE
8
BLACK
6
CONTINUOUS
10
4.2694400000000003
20
-2.9196238976377953
11
4.2690462992125982
21
-2.9194270472440946
0
LINE
8
BLACK
6
CONTINUOUS
10
4.2690462992125982
20
-2.9194270472440946
11
4.2690455511811018
21
-2.9194266535433071
0
LINE
8
BLACK
6
CONTINUOUS
10
4.2690455511811018
20
-2.9194266535433071
11
4.2683368897637797
21
-2.9190329527559054
0
LINE
8
BLACK
6
CONTINUOUS
10
4.2683368897637797
20
-2.9190329527559054
11
4.2683355511811021
21
-2.919032125984252
0
LINE
8
BLACK
6
CONTINUOUS
10
4.2683355511811021
20
-2.919032125984252
11
4.267981220472441
21
-2.9187959055118111
0
LINE
8
BLACK
6
CONTINUOUS
10
4.267981220472441
20
-2.9187959055118111
11
4.2679791732283467
21
-2.9187943307086615
0
LINE
8
BLACK
6
CONTINUOUS
10
4.2679791732283467
20
-2.9187943307086615
11
4.2676649212598425
21
-2.9185193307086612
0
LINE
8
BLACK
6
CONTINUOUS
10
4.2676649212598425
20
-2.9185193307086612
11
4.2673503937007871
21
-2.9182834645669291
0
LINE
8
BLACK
6
CONTINUOUS
10
4.2673503937007871
20
-2.9182834645669291
11
4.2673474015748027
21
-2.9182806692913386
0
LINE
8
BLACK
6
CONTINUOUS
10
4.2673474015748027
20
-2.9182806692913386
11
4.2670726377952759
21
-2.9179666929133856
0
LINE
8
BLACK
6
CONTINUOUS
10
4.2670726377952759
20
-2.9179666929133856
11
4.2667587007874017
21
-2.9176919685039371
0
LINE
8
BLACK
6
CONTINUOUS
10
4.2667587007874017
20
-2.9176919685039371
11
4.2667559055118112
21
-2.9176889763779528
0
LINE
8
BLACK
6
CONTINUOUS
10
4.2667559055118112
20
-2.9176889763779528
11
4.2665199999999999
21
-2.9173744488188977
0
LINE
8
BLACK
6
CONTINUOUS
10
4.2665199999999999
20
-2.9173744488188977
11
4.2662450393700784
21
-2.9170601968503935
0
LINE
8
BLACK
6
CONTINUOUS
10
4.2662450393700784
20
-2.9170601968503935
11
4.2662434645669292
21
-2.9170581496062993
0
LINE
8
BLACK
6
CONTINUOUS
10
4.2662434645669292
20
-2.9170581496062993
11
4.2660072440944878
21
-2.9167038188976377
0
LINE
8
BLACK
6
CONTINUOUS
10
4.2660072440944878
20
-2.9167038188976377
11
4.2660064173228349
21
-2.9167024803149606
0
LINE
8
BLACK
6
CONTINUOUS
10
4.2660064173228349
20
-2.9167024803149606
11
4.2656127165354327
21
-2.9159938188976375
0
LINE
8
BLACK
6
CONTINUOUS
10
4.2656127165354327
20
-2.9159938188976375
11
4.2656123228346452
21
-2.9159930708661417
0
LINE
8
BLACK
6
CONTINUOUS
10
4.2656123228346452
20
-2.9159930708661417
11
4.265415472440945
21
-2.9155993700787399
0
LINE
8
BLACK
6
CONTINUOUS
10
4.265415472440945
20
-2.9155993700787399
11
4.2654150787401575
21
-2.9155985433070866
0
LINE
8
BLACK
6
CONTINUOUS
10
4.2654150787401575
20
-2.9155985433070866
11
4.2652575984251966
21
-2.915244212598425
0
LINE
8
BLACK
6
CONTINUOUS
10
4.2652575984251966
20
-2.915244212598425
11
4.2652567322834649
21
-2.9152418897637795
0
LINE
8
BLACK
6
CONTINUOUS
10
4.2652567322834649
20
-2.9152418897637795
11
4.2649024015748029
21
-2.9140607874015747
0
LINE
8
BLACK
6
CONTINUOUS
10
4.2649024015748029
20
-2.9140607874015747
11
4.2649018897637792
21
-2.9140586220472442
0
LINE
8
BLACK
6
CONTINUOUS
10
4.2649018897637792
20
-2.9140586220472442
11
4.2648231496062987
21
-2.9136255511811022
0
LINE
8
BLACK
6
CONTINUOUS
10
4.2648231496062987
20
-2.9136255511811022
11
4.2648229133858271
21
-2.9136240157480313
0
LINE
8
BLACK
6
CONTINUOUS
10
4.2648229133858271
20
-2.9136240157480313
11
4.2647835433070869
21
-2.91323031496063
0
LINE
8
BLACK
6
CONTINUOUS
10
4.2647835433070869
20
-2.91323031496063
11
4.2647835433070869
21
-2.9132301181102362
0
LINE
8
BLACK
6
CONTINUOUS
10
4.2647835433070869
20
-2.9132301181102362
11
4.2647441732283466
21
-2.9127970472440943
0
LINE
8
BLACK
6
CONTINUOUS
10
4.2647441732283466
20
-2.9127970472440943
11
4.2647440944881891
21
-2.9127952755905513
0
LINE
8
BLACK
6
CONTINUOUS
10
4.2647440944881891
20
-2.9127952755905513
11
4.2647440944881891
21
-2.9120078740157478
0
LINE
8
BLACK
6
CONTINUOUS
10
4.2647440944881891
20
-2.9120078740157478
11
4.2647441732283466
21
-2.9120061023622048
0
LINE
8
BLACK
6
CONTINUOUS
10
4.2647441732283466
20
-2.9120061023622048
11
4.2647835433070869
21
-2.9115730314960628
0
LINE
8
BLACK
6
CONTINUOUS
10
4.2647835433070869
20
-2.9115730314960628
11
4.2647835433070869
21
-2.9115728346456691
0
LINE
8
BLACK
6
CONTINUOUS
10
4.2647835433070869
20
-2.9115728346456691
11
4.2648229133858271
21
-2.9111791338582678
0
LINE
8
BLACK
6
CONTINUOUS
10
4.2648229133858271
20
-2.9111791338582678
11
4.2648231496062987
21
-2.9111775984251969
0
LINE
8
BLACK
6
CONTINUOUS
10
4.2648231496062987
20
-2.9111775984251969
11
4.2649018897637792
21
-2.9107445275590549
0
LINE
8
BLACK
6
CONTINUOUS
10
4.2649018897637792
20
-2.9107445275590549
11
4.2649024015748029
21
-2.9107423622047244
0
LINE
8
BLACK
6
CONTINUOUS
10
4.2649024015748029
20
-2.9107423622047244
11
4.2652567322834649
21
-2.9095612598425196
0
LINE
8
BLACK
6
CONTINUOUS
10
4.2652567322834649
20
-2.9095612598425196
11
4.2652575984251966
21
-2.909558937007874
0
LINE
8
BLACK
6
CONTINUOUS
10
4.2652575984251966
20
-2.909558937007874
11
4.2654150787401575
21
-2.9092046062992125
0
LINE
8
BLACK
6
CONTINUOUS
10
4.2654150787401575
20
-2.9092046062992125
11
4.265415472440945
21
-2.9092037795275592
0
LINE
8
BLACK
6
CONTINUOUS
10
4.265415472440945
20
-2.9092037795275592
11
4.2656123228346452
21
-2.9088100787401574
0
LINE
8
BLACK
6
CONTINUOUS
10
4.2656123228346452
20
-2.9088100787401574
11
4.2656127165354327
21
-2.9088093307086615
0
LINE
8
BLACK
6
CONTINUOUS
10
4.2656127165354327
20
-2.9088093307086615
11
4.2660064173228349
21
-2.9081006692913385
0
LINE
8
BLACK
6
CONTINUOUS
10
4.2660064173228349
20
-2.9081006692913385
11
4.2660072440944878
21
-2.9080993307086613
0
LINE
8
BLACK
6
CONTINUOUS
10
4.2660072440944878
20
-2.9080993307086613
11
4.2662434645669292
21
-2.9077449999999998
0
LINE
8
BLACK
6
CONTINUOUS
10
4.2662434645669292
20
-2.9077449999999998
11
4.2662450393700784
21
-2.9077429527559056
0
LINE
8
BLACK
6
CONTINUOUS
10
4.2662450393700784
20
-2.9077429527559056
11
4.2665199999999999
21
-2.9074287007874013
0
LINE
8
BLACK
6
CONTINUOUS
10
4.2665199999999999
20
-2.9074287007874013
11
4.2667559055118112
21
-2.9071141732283463
0
LINE
8
BLACK
6
CONTINUOUS
10
4.2667559055118112
20
-2.9071141732283463
11
4.2667587007874017
21
-2.907111181102362
0
LINE
8
BLACK
6
CONTINUOUS
10
4.2667587007874017
20
-2.907111181102362
11
4.2670726377952759
21
-2.9068364173228347
0
LINE
8
BLACK
6
CONTINUOUS
10
4.2670726377952759
20
-2.9068364173228347
11
4.2673474015748027
21
-2.9065224803149605
0
LINE
8
BLACK
6
CONTINUOUS
10
4.2673474015748027
20
-2.9065224803149605
11
4.2673503937007871
21
-2.90651968503937
0
LINE
8
BLACK
6
CONTINUOUS
10
4.2673503937007871
20
-2.90651968503937
11
4.2676649212598425
21
-2.9062837795275591
0
LINE
8
BLACK
6
CONTINUOUS
10
4.2676649212598425
20
-2.9062837795275591
11
4.2679791732283467
21
-2.9060088188976376
0
LINE
8
BLACK
6
CONTINUOUS
10
4.2679791732283467
20
-2.9060088188976376
11
4.267981220472441
21
-2.906007244094488
0
LINE
8
BLACK
6
CONTINUOUS
10
4.267981220472441
20
-2.906007244094488
11
4.2683355511811021
21
-2.9057710236220471
0
LINE
8
BLACK
6
CONTINUOUS
10
4.2683355511811021
20
-2.9057710236220471
11
4.2683368897637797
21
-2.9057701968503937
0
LINE
8
BLACK
6
CONTINUOUS
10
4.2683368897637797
20
-2.9057701968503937
11
4.2690455511811018
21
-2.905376496062992
0
LINE
8
BLACK
6
CONTINUOUS
10
4.2690455511811018
20
-2.905376496062992
11
4.2690462992125982
21
-2.9053761023622044
0
LINE
8
BLACK
6
CONTINUOUS
10
4.2690462992125982
20
-2.9053761023622044
11
4.2694400000000003
21
-2.9051792519685038
0
LINE
8
BLACK
6
CONTINUOUS
10
4.2694400000000003
20
-2.9051792519685038
11
4.2694408267716533
21
-2.9051788582677163
0
LINE
8
BLACK
6
CONTINUOUS
10
4.2694408267716533
20
-2.9051788582677163
11
4.2697951574803152
21
-2.9050213779527558
0
LINE
8
BLACK
6
CONTINUOUS
10
4.2697951574803152
20
-2.9050213779527558
11
4.2697974803149608
21
-2.9050205118110237
0
LINE
8
BLACK
6
CONTINUOUS
10
4.2697974803149608
20
-2.9050205118110237
11
4.2709785826771656
21
-2.9046661811023622
0
LINE
8
BLACK
6
CONTINUOUS
10
4.2709785826771656
20
-2.9046661811023622
11
4.2709807480314961
21
-2.9046656692913384
0
LINE
8
BLACK
6
CONTINUOUS
10
4.2709807480314961
20
-2.9046656692913384
11
4.2714138188976376
21
-2.9045869291338584
0
LINE
8
BLACK
6
CONTINUOUS
10
4.2714138188976376
20
-2.9045869291338584
11
4.271415354330709
21
-2.9045866929133859
0
LINE
8
BLACK
6
CONTINUOUS
10
4.271415354330709
20
-2.9045866929133859
11
4.2718090551181103
21
-2.9045473228346457
0
LINE
8
BLACK
6
CONTINUOUS
10
4.2718090551181103
20
-2.9045473228346457
11
4.271809251968504
21
-2.9045473228346457
0
LINE
8
BLACK
6
CONTINUOUS
10
4.271809251968504
20
-2.9045473228346457
11
4.2722423228346456
21
-2.9045079527559055
0
LINE
8
BLACK
6
CONTINUOUS
10
4.2722423228346456
20
-2.9045079527559055
11
4.2722440944881885
21
-2.9045078740157479
0
LINE
8
BLACK
6
CONTINUOUS
10
4.2722440944881885
20
-2.9045078740157479
11
4.273031496062992
21
-2.9045078740157479
0
LINE
8
BLACK
6
CONTINUOUS
10
4.273031496062992
20
-2.9045078740157479
11
4.273033267716535
21
-2.9045079527559055
0
LINE
8
BLACK
6
CONTINUOUS
10
4.3084663385826767
20
-2.9045079527559055
11
4.3088994094488191
21
-2.9045473228346457
0
LINE
8
BLACK
6
CONTINUOUS
10
4.3088994094488191
20
-2.9045473228346457
11
4.3088996062992129
21
-2.9045473228346457
0
LINE
8
BLACK
6
CONTINUOUS
10
4.3088996062992129
20
-2.9045473228346457
11
4.3092933070866142
21
-2.9045866929133859
0
LINE
8
BLACK
6
CONTINUOUS
10
4.3092933070866142
20
-2.9045866929133859
11
4.3092948425196846
21
-2.9045869291338584
0
LINE
8
BLACK
6
CONTINUOUS
10
4.3092948425196846
20
-2.9045869291338584
11
4.3097279133858271
21
-2.9046656692913384
0
LINE
8
BLACK
6
CONTINUOUS
10
4.3097279133858271
20
-2.9046656692913384
11
4.3097300787401576
21
-2.9046661811023622
0
LINE
8
BLACK
6
CONTINUOUS
10
4.3097300787401576
20
-2.9046661811023622
11
4.3109111811023624
21
-2.9050205118110237
0
LINE
8
BLACK
6
CONTINUOUS
10
4.3109111811023624
20
-2.9050205118110237
11
4.3109135039370079
21
-2.9050213779527558
0
LINE
8
BLACK
6
CONTINUOUS
10
4.3109135039370079
20
-2.9050213779527558
11
4.311267834645669
21
-2.9051788582677163
0
LINE
8
BLACK
6
CONTINUOUS
10
4.311267834645669
20
-2.9051788582677163
11
4.3112686614173228
21
-2.9051792519685038
0
LINE
8
BLACK
6
CONTINUOUS
10
4.3112686614173228
20
-2.9051792519685038
11
4.3116623622047241
21
-2.9053761023622044
0
LINE
8
BLACK
6
CONTINUOUS
10
4.3116623622047241
20
-2.9053761023622044
11
4.3116631102362204
21
-2.905376496062992
0
LINE
8
BLACK
6
CONTINUOUS
10
4.3116631102362204
20
-2.905376496062992
11
4.3123717716535435
21
-2.9057701968503937
0
LINE
8
BLACK
6
CONTINUOUS
10
4.3123717716535435
20
-2.9057701968503937
11
4.3123731102362202
21
-2.9057710236220471
0
LINE
8
BLACK
6
CONTINUOUS
10
4.3123731102362202
20
-2.9057710236220471
11
4.3127274409448821
21
-2.906007244094488
0
LINE
8
BLACK
6
CONTINUOUS
10
4.3127274409448821
20
-2.906007244094488
11
4.3127294881889764
21
-2.9060088188976376
0
LINE
8
BLACK
6
CONTINUOUS
10
4.3127294881889764
20
-2.9060088188976376
11
4.3130437401574806
21
-2.9062837795275591
0
LINE
8
BLACK
6
CONTINUOUS
10
4.3130437401574806
20
-2.9062837795275591
11
4.3133582677165352
21
-2.90651968503937
0
LINE
8
BLACK
6
CONTINUOUS
10
4.3133582677165352
20
-2.90651968503937
11
4.3133612598425195
21
-2.9065224803149605
0
LINE
8
BLACK
6
CONTINUOUS
10
4.3133612598425195
20
-2.9065224803149605
11
4.3136359842519685
21
-2.9068364173228347
0
LINE
8
BLACK
6
CONTINUOUS
10
4.3136359842519685
20
-2.9068364173228347
11
4.3139499606299214
21
-2.907111181102362
0
LINE
8
BLACK
6
CONTINUOUS
10
4.3139499606299214
20
-2.907111181102362
11
4.313952755905512
21
-2.9071141732283463
0
LINE
8
BLACK
6
CONTINUOUS
10
4.313952755905512
20
-2.9071141732283463
11
4.3141886220472436
21
-2.9074287007874013
0
LINE
8
BLACK
6
CONTINUOUS
10
4.3141886220472436
20
-2.9074287007874013
11
4.3144636220472439
21
-2.9077429527559056
0
LINE
8
BLACK
6
CONTINUOUS
10
4.3144636220472439
20
-2.9077429527559056
11
4.314465196850394
21
-2.9077449999999998
0
LINE
8
BLACK
6
CONTINUOUS
10
4.314465196850394
20
-2.9077449999999998
11
4.3147014173228344
21
-2.9080993307086613
0
LINE
8
BLACK
6
CONTINUOUS
10
4.3147014173228344
20
-2.9080993307086613
11
4.3147022440944882
21
-2.9081006692913385
0
LINE
8
BLACK
6
CONTINUOUS
10
4.3147022440944882
20
-2.9081006692913385
11
4.3150959448818895
21
-2.9088093307086615
0
LINE
8
BLACK
6
CONTINUOUS
10
4.3150959448818895
20
-2.9088093307086615
11
4.315096338582677
21
-2.9088100787401574
0
LINE
8
BLACK
6
CONTINUOUS
10
4.315096338582677
20
-2.9088100787401574
11
4.3152931889763781
21
-2.9092037795275592
0
LINE
8
BLACK
6
CONTINUOUS
10
4.3152931889763781
20
-2.9092037795275592
11
4.3152935826771657
21
-2.9092046062992125
0
LINE
8
BLACK
6
CONTINUOUS
10
4.3152935826771657
20
-2.9092046062992125
11
4.3154510629921257
21
-2.909558937007874
0
LINE
8
BLACK
6
CONTINUOUS
10
4.3154510629921257
20
-2.909558937007874
11
4.3154519291338582
21
-2.9095612598425196
0
LINE
8
BLACK
6
CONTINUOUS
10
4.3154519291338582
20
-2.9095612598425196
11
4.3158062598425193
21
-2.9107423622047244
0
LINE
8
BLACK
6
CONTINUOUS
10
4.3158062598425193
20
-2.9107423622047244
11
4.3158067716535431
21
-2.9107445275590549
0
LINE
8
BLACK
6
CONTINUOUS
10
4.3158067716535431
20
-2.9107445275590549
11
4.3158855118110235
21
-2.9111775984251969
0
LINE
8
BLACK
6
CONTINUOUS
10
4.3158855118110235
20
-2.9111775984251969
11
4.315885748031496
21
-2.9111791338582678
0
LINE
8
BLACK
6
CONTINUOUS
10
4.315885748031496
20
-2.9111791338582678
11
4.3159251181102363
21
-2.9115728346456691
0
LINE
8
BLACK
6
CONTINUOUS
10
4.3159251181102363
20
-2.9115728346456691
11
4.3159251181102363
21
-2.9115730314960628
0
LINE
8
BLACK
6
CONTINUOUS
10
4.3159251181102363
20
-2.9115730314960628
11
4.3159644881889765
21
-2.9120061023622048
0
LINE
8
BLACK
6
CONTINUOUS
10
4.3159644881889765
20
-2.9120061023622048
11
4.315964566929134
21
-2.9120078740157478
0
LINE
8
BLACK
6
CONTINUOUS
10
4.315964566929134
20
-2.9120078740157478
11
4.315964566929134
21
-2.9127952755905513
0
LINE
8
BLACK
6
CONTINUOUS
10
4.315964566929134
20
-2.9127952755905513
11
4.3159644881889765
21
-2.9127970472440943
0
LINE
8
BLACK
6
CONTINUOUS
10
4.3159644881889765
20
-2.9127970472440943
11
4.3159251181102363
21
-2.9132301181102362
0
LINE
8
BLACK
6
CONTINUOUS
10
4.3159251181102363
20
-2.9132301181102362
11
4.3159251181102363
21
-2.91323031496063
0
LINE
8
BLACK
6
CONTINUOUS
10
4.3159251181102363
20
-2.91323031496063
11
4.315885748031496
21
-2.9136240157480313
0
LINE
8
BLACK
6
CONTINUOUS
10
4.315885748031496
20
-2.9136240157480313
11
4.3158855118110235
21
-2.9136255511811022
0
LINE
8
BLACK
6
CONTINUOUS
10
4.3158855118110235
20
-2.9136255511811022
11
4.3158067716535431
21
-2.9140586220472442
0
LINE
8
BLACK
6
CONTINUOUS
10
4.3158067716535431
20
-2.9140586220472442
11
4.3158062598425193
21
-2.9140607874015747
0
LINE
8
BLACK
6
CONTINUOUS
10
4.3158062598425193
20
-2.9140607874015747
11
4.3154519291338582
21
-2.9152418897637795
0
LINE
8
BLACK
6
CONTINUOUS
10
4.3154519291338582
20
-2.9152418897637795
11
4.3154510629921257
21
-2.915244212598425
0
LINE
8
BLACK
6
CONTINUOUS
10
4.3154510629921257
20
-2.915244212598425
11
4.3152935826771657
21
-2.9155985433070866
0
LINE
8
BLACK
6
CONTINUOUS
10
4.3152935826771657
20
-2.9155985433070866
11
4.3152931889763781
21
-2.9155993700787399
0
LINE
8
BLACK
6
CONTINUOUS
10
4.3152931889763781
20
-2.9155993700787399
11
4.315096338582677
21
-2.9159930708661417
0
LINE
8
BLACK
6
CONTINUOUS
10
4.315096338582677
20
-2.9159930708661417
11
4.3150959448818895
21
-2.9159938188976375
0
LINE
8
BLACK
6
CONTINUOUS
10
4.3150959448818895
20
-2.9159938188976375
11
4.3147022440944882
21
-2.9167024803149606
0
LINE
8
BLACK
6
CONTINUOUS
10
4.3147022440944882
20
-2.9167024803149606
11
4.3147014173228344
21
-2.9167038188976377
0
LINE
8
BLACK
6
CONTINUOUS
10
4.3147014173228344
20
-2.9167038188976377
11
4.314465196850394
21
-2.9170581496062993
0
LINE
8
BLACK
6
CONTINUOUS
10
4.314465196850394
20
-2.9170581496062993
11
4.3144636220472439
21
-2.9170601968503935
0
LINE
8
BLACK
6
CONTINUOUS
10
4.3144636220472439
20
-2.9170601968503935
11
4.3141886220472436
21
-2.9173744488188977
0
LINE
8
BLACK
6
CONTINUOUS
10
4.3141886220472436
20
-2.9173744488188977
11
4.313952755905512
21
-2.9176889763779528
0
LINE
8
BLACK
6
CONTINUOUS
10
4.313952755905512
20
-2.9176889763779528
11
4.3139499606299214
21
-2.9176919685039371
0
LINE
8
BLACK
6
CONTINUOUS
10
4.3139499606299214
20
-2.9176919685039371
11
4.3136359842519685
21
-2.9179666929133856
0
LINE
8
BLACK
6
CONTINUOUS
10
4.3136359842519685
20
-2.9179666929133856
11
4.3133612598425195
21
-2.9182806692913386
0
LINE
8
BLACK
6
CONTINUOUS
10
4.3133612598425195
20
-2.9182806692913386
11
4.3133582677165352
21
-2.9182834645669291
0
LINE
8
BLACK
6
CONTINUOUS
10
4.3133582677165352
20
-2.9182834645669291
11
4.3130437401574806
21
-2.9185193307086612
0
LINE
8
BLACK
6
CONTINUOUS
10
4.3130437401574806
20
-2.9185193307086612
11
4.3127294881889764
21
-2.9187943307086615
0
LINE
8
BLACK
6
CONTINUOUS
10
4.3127294881889764
20
-2.9187943307086615
11
4.3127274409448821
21
-2.9187959055118111
0
LINE
8
BLACK
6
CONTINUOUS
10
4.3127274409448821
20
-2.9187959055118111
11
4.3123731102362202
21
-2.919032125984252
0
LINE
8
BLACK
6
CONTINUOUS
10
4.3123731102362202
20
-2.919032125984252
11
4.3123717716535435
21
-2.9190329527559054
0
LINE
8
BLACK
6
CONTINUOUS
10
4.3123717716535435
20
-2.9190329527559054
11
4.3116631102362204
21
-2.9194266535433071
0
LINE
8
BLACK
6
CONTINUOUS
10
4.3116631102362204
20
-2.9194266535433071
11
4.3116623622047241
21
-2.9194270472440946
0
LINE
8
BLACK
6
CONTINUOUS
10
4.3116623622047241
20
-2.9194270472440946
11
4.3112686614173228
21
-2.9196238976377953
0
LINE
8
BLACK
6
CONTINUOUS
10
4.3112686614173228
20
-2.9196238976377953
11
4.311267834645669
21
-2.9196242913385828
0
LINE
8
BLACK
6
CONTINUOUS
10
4.311267834645669
20
-2.9196242913385828
11
4.3109135039370079
21
-2.9197817716535432
0
LINE
8
BLACK
6
CONTINUOUS
10
4.3109135039370079
20
-2.9197817716535432
11
4.3109111811023624
21
-2.9197826377952754
0
LINE
8
BLACK
6
CONTINUOUS
10
4.3109111811023624
20
-2.9197826377952754
11
4.3097300787401576
21
-2.9201369685039369
0
LINE
8
BLACK
6
CONTINUOUS
10
4.3097300787401576
20
-2.9201369685039369
11
4.3097279133858271
21
-2.9201374803149607
0
LINE
8
BLACK
6
CONTINUOUS
10
4.3097279133858271
20
-2.9201374803149607
11
4.3092948425196846
21
-2.9202162204724407
0
LINE
8
BLACK
6
CONTINUOUS
10
4.3092948425196846
20
-2.9202162204724407
11
4.3092933070866142
21
-2.9202164566929132
0
LINE
8
BLACK
6
CONTINUOUS
10
4.3092933070866142
20
-2.9202164566929132
11
4.3088996062992129
21
-2.9202558267716534
0
LINE
8
BLACK
6
CONTINUOUS
10
4.3088996062992129
20
-2.9202558267716534
11
4.3088994094488191
21
-2.9202558267716534
0
LINE
8
BLACK
6
CONTINUOUS
10
4.3088994094488191
20
-2.9202558267716534
11
4.3084663385826767
21
-2.9202951968503936
0
LINE
8
BLACK
6
CONTINUOUS
10
4.3084663385826767
20
-2.9202951968503936
11
4.3084645669291337
21
-2.9202952755905511
0
LINE
8
BLACK
6
CONTINUOUS
10
4.3084645669291337
20
-2.9202952755905511
11
4.3076771653543302
21
-2.9202952755905511
0
LINE
8
BLACK
6
CONTINUOUS
10
4.3076771653543302
20
-2.9202952755905511
11
4.3076753937007872
21
-2.9202951968503936
0
LINE
8
BLACK
6
CONTINUOUS
10
4.3076753937007872
20
-2.9202951968503936
11
4.3072423228346457
21
-2.9202558267716534
0
LINE
8
BLACK
6
CONTINUOUS
10
4.3072423228346457
20
-2.9202558267716534
11
4.3072421259842519
21
-2.9202558267716534
0
LINE
8
BLACK
6
CONTINUOUS
10
4.3072421259842519
20
-2.9202558267716534
11
4.3068484251968506
21
-2.9202164566929132
0
LINE
8
BLACK
6
CONTINUOUS
10
4.3068484251968506
20
-2.9202164566929132
11
4.3068468897637793
21
-2.9202162204724407
0
LINE
8
BLACK
6
CONTINUOUS
10
4.3068468897637793
20
-2.9202162204724407
11
4.3064138188976377
21
-2.9201374803149607
0
LINE
8
BLACK
6
CONTINUOUS
10
4.3064138188976377
20
-2.9201374803149607
11
4.3064116535433072
21
-2.9201369685039369
0
LINE
8
BLACK
6
CONTINUOUS
10
4.3064116535433072
20
-2.9201369685039369
11
4.3052305511811024
21
-2.9197826377952754
0
LINE
8
BLACK
6
CONTINUOUS
10
4.3052305511811024
20
-2.9197826377952754
11
4.3052282283464569
21
-2.9197817716535432
0
LINE
8
BLACK
6
CONTINUOUS
10
4.3052282283464569
20
-2.9197817716535432
11
4.3048738976377949
21
-2.9196242913385828
0
LINE
8
BLACK
6
CONTINUOUS
10
4.3048738976377949
20
-2.9196242913385828
11
4.304873070866142
21
-2.9196238976377953
0
LINE
8
BLACK
6
CONTINUOUS
10
4.304873070866142
20
-2.9196238976377953
11
4.3044793700787398
21
-2.9194270472440946
0
LINE
8
BLACK
6
CONTINUOUS
10
4.3044793700787398
20
-2.9194270472440946
11
4.3044786220472444
21
-2.9194266535433071
0
LINE
8
BLACK
6
CONTINUOUS
10
4.3044786220472444
20
-2.9194266535433071
11
4.3037699606299213
21
-2.9190329527559054
0
LINE
8
BLACK
6
CONTINUOUS
10
4.3037699606299213
20
-2.9190329527559054
11
4.3037686220472438
21
-2.919032125984252
0
LINE
8
BLACK
6
CONTINUOUS
10
4.3037686220472438
20
-2.919032125984252
11
4.3034142913385827
21
-2.9187959055118111
0
LINE
8
BLACK
6
CONTINUOUS
10
4.3034142913385827
20
-2.9187959055118111
11
4.3034122440944884
21
-2.9187943307086615
0
LINE
8
BLACK
6
CONTINUOUS
10
4.3034122440944884
20
-2.9187943307086615
11
4.3030979921259842
21
-2.9185193307086612
0
LINE
8
BLACK
6
CONTINUOUS
10
4.3030979921259842
20
-2.9185193307086612
11
4.3027834645669287
21
-2.9182834645669291
0
LINE
8
BLACK
6
CONTINUOUS
10
4.3027834645669287
20
-2.9182834645669291
11
4.3027804724409444
21
-2.9182806692913386
0
LINE
8
BLACK
6
CONTINUOUS
10
4.3027804724409444
20
-2.9182806692913386
11
4.3025057086614176
21
-2.9179666929133856
0
LINE
8
BLACK
6
CONTINUOUS
10
4.3025057086614176
20
-2.9179666929133856
11
4.3021917716535434
21
-2.9176919685039371
0
LINE
8
BLACK
6
CONTINUOUS
10
4.3021917716535434
20
-2.9176919685039371
11
4.3021889763779528
21
-2.9176889763779528
0
LINE
8
BLACK
6
CONTINUOUS
10
4.3021889763779528
20
-2.9176889763779528
11
4.3019530708661415
21
-2.9173744488188977
0
LINE
8
BLACK
6
CONTINUOUS
10
4.3019530708661415
20
-2.9173744488188977
11
4.30167811023622
21
-2.9170601968503935
0
LINE
8
BLACK
6
CONTINUOUS
10
4.30167811023622
20
-2.9170601968503935
11
4.3016765354330708
21
-2.9170581496062993
0
LINE
8
BLACK
6
CONTINUOUS
10
4.3016765354330708
20
-2.9170581496062993
11
4.3014403149606295
21
-2.9167038188976377
0
LINE
8
BLACK
6
CONTINUOUS
10
4.3014403149606295
20
-2.9167038188976377
11
4.3014394881889766
21
-2.9167024803149606
0
LINE
8
BLACK
6
CONTINUOUS
10
4.3014394881889766
20
-2.9167024803149606
11
4.3010457874015744
21
-2.9159938188976375
0
LINE
8
BLACK
6
CONTINUOUS
10
4.3010457874015744
20
-2.9159938188976375
11
4.3010453937007869
21
-2.9159930708661417
0
LINE
8
BLACK
6
CONTINUOUS
10
4.3010453937007869
20
-2.9159930708661417
11
4.3008485433070867
21
-2.9155993700787399
0
LINE
8
BLACK
6
CONTINUOUS
10
4.3008485433070867
20
-2.9155993700787399
11
4.3008481496062991
21
-2.9155985433070866
0
LINE
8
BLACK
6
CONTINUOUS
10
4.3008481496062991
20
-2.9155985433070866
11
4.3006906692913383
21
-2.915244212598425
0
LINE
8
BLACK
6
CONTINUOUS
10
4.3006906692913383
20
-2.915244212598425
11
4.3006898031496066
21
-2.9152418897637795
0
LINE
8
BLACK
6
CONTINUOUS
10
4.3006898031496066
20
-2.9152418897637795
11
4.3003354724409446
21
-2.9140607874015747
0
LINE
8
BLACK
6
CONTINUOUS
10
4.3003354724409446
20
-2.9140607874015747
11
4.3003349606299208
21
-2.9140586220472442
0
LINE
8
BLACK
6
CONTINUOUS
10
4.3003349606299208
20
-2.9140586220472442
11
4.3002562204724413
21
-2.9136255511811022
0
LINE
8
BLACK
6
CONTINUOUS
10
4.3002562204724413
20
-2.9136255511811022
11
4.3002559842519688
21
-2.9136240157480313
0
LINE
8
BLACK
6
CONTINUOUS
10
4.3002559842519688
20
-2.9136240157480313
11
4.3002166141732285
21
-2.91323031496063
0
LINE
8
BLACK
6
CONTINUOUS
10
4.3002166141732285
20
-2.91323031496063
11
4.3002166141732285
21
-2.9132301181102362
0
LINE
8
BLACK
6
CONTINUOUS
10
4.3002166141732285
20
-2.9132301181102362
11
4.3001772440944883
21
-2.9127970472440943
0
LINE
8
BLACK
6
CONTINUOUS
10
4.3001772440944883
20
-2.9127970472440943
11
4.3001771653543308
21
-2.9127952755905513
0
LINE
8
BLACK
6
CONTINUOUS
10
4.3001771653543308
20
-2.9127952755905513
11
4.3001771653543308
21
-2.9120078740157478
0
LINE
8
BLACK
6
CONTINUOUS
10
4.3001771653543308
20
-2.9120078740157478
11
4.3001772440944883
21
-2.9120061023622048
0
LINE
8
BLACK
6
CONTINUOUS
10
4.3001772440944883
20
-2.9120061023622048
11
4.3002166141732285
21
-2.9115730314960628
0
LINE
8
BLACK
6
CONTINUOUS
10
4.3002166141732285
20
-2.9115730314960628
11
4.3002166141732285
21
-2.9115728346456691
0
LINE
8
BLACK
6
CONTINUOUS
10
4.3002166141732285
20
-2.9115728346456691
11
4.3002559842519688
21
-2.9111791338582678
0
LINE
8
BLACK
6
CONTINUOUS
10
4.3002559842519688
20
-2.9111791338582678
11
4.3002562204724413
21
-2.9111775984251969
0
LINE
8
BLACK
6
CONTINUOUS
10
4.3002562204724413
20
-2.9111775984251969
11
4.3003349606299208
21
-2.9107445275590549
0
LINE
8
BLACK
6
CONTINUOUS
10
4.3003349606299208
20
-2.9107445275590549
11
4.3003354724409446
21
-2.9107423622047244
0
LINE
8
BLACK
6
CONTINUOUS
10
4.3003354724409446
20
-2.9107423622047244
11
4.3006898031496066
21
-2.9095612598425196
0
LINE
8
BLACK
6
CONTINUOUS
10
4.3006898031496066
20
-2.9095612598425196
11
4.3006906692913383
21
-2.909558937007874
0
LINE
8
BLACK
6
CONTINUOUS
10
4.3006906692913383
20
-2.909558937007874
11
4.3008481496062991
21
-2.9092046062992125
0
LINE
8
BLACK
6
CONTINUOUS
10
4.3008481496062991
20
-2.9092046062992125
11
4.3008485433070867
21
-2.9092037795275592
0
LINE
8
BLACK
6
CONTINUOUS
10
4.3008485433070867
20
-2.9092037795275592
11
4.3010453937007869
21
-2.9088100787401574
0
LINE
8
BLACK
6
CONTINUOUS
10
4.3010453937007869
20
-2.9088100787401574
11
4.3010457874015744
21
-2.9088093307086615
0
LINE
8
BLACK
6
CONTINUOUS
10
4.3010457874015744
20
-2.9088093307086615
11
4.3014394881889766
21
-2.9081006692913385
0
LINE
8
BLACK
6
CONTINUOUS
10
4.3014394881889766
20
-2.9081006692913385
11
4.3014403149606295
21
-2.9080993307086613
0
LINE
8
BLACK
6
CONTINUOUS
10
4.3014403149606295
20
-2.9080993307086613
11
4.3016765354330708
21
-2.9077449999999998
0
LINE
8
BLACK
6
CONTINUOUS
10
4.3016765354330708
20
-2.9077449999999998
11
4.30167811023622
21
-2.9077429527559056
0
LINE
8
BLACK
6
CONTINUOUS
10
4.30167811023622
20
-2.9077429527559056
11
4.3019530708661415
21
-2.9074287007874013
0
LINE
8
BLACK
6
CONTINUOUS
10
4.3019530708661415
20
-2.9074287007874013
11
4.3021889763779528
21
-2.9071141732283463
0
LINE
8
BLACK
6
CONTINUOUS
10
4.3021889763779528
20
-2.9071141732283463
11
4.3021917716535434
21
-2.907111181102362
0
LINE
8
BLACK
6
CONTINUOUS
10
4.3021917716535434
20
-2.907111181102362
11
4.3025057086614176
21
-2.9068364173228347
0
LINE
8
BLACK
6
CONTINUOUS
10
4.3025057086614176
20
-2.9068364173228347
11
4.3027804724409444
21
-2.9065224803149605
0
LINE
8
BLACK
6
CONTINUOUS
10
4.3027804724409444
20
-2.9065224803149605
11
4.3027834645669287
21
-2.90651968503937
0
LINE
8
BLACK
6
CONTINUOUS
10
4.3027834645669287
20
-2.90651968503937
11
4.3030979921259842
21
-2.9062837795275591
0
LINE
8
BLACK
6
CONTINUOUS
10
4.3030979921259842
20
-2.9062837795275591
11
4.3034122440944884
21
-2.9060088188976376
0
LINE
8
BLACK
6
CONTINUOUS
10
4.3034122440944884
20
-2.9060088188976376
11
4.3034142913385827
21
-2.906007244094488
0
LINE
8
BLACK
6
CONTINUOUS
10
4.3034142913385827
20
-2.906007244094488
11
4.3037686220472438
21
-2.9057710236220471
0
LINE
8
BLACK
6
CONTINUOUS
10
4.3037686220472438
20
-2.9057710236220471
11
4.3037699606299213
21
-2.9057701968503937
0
LINE
8
BLACK
6
CONTINUOUS
10
4.3037699606299213
20
-2.9057701968503937
11
4.3044786220472444
21
-2.905376496062992
0
LINE
8
BLACK
6
CONTINUOUS
10
4.3044786220472444
20
-2.905376496062992
11
4.3044793700787398
21
-2.9053761023622044
0
LINE
8
BLACK
6
CONTINUOUS
10
4.3044793700787398
20
-2.9053761023622044
11
4.304873070866142
21
-2.9051792519685038
0
LINE
8
BLACK
6
CONTINUOUS
10
4.304873070866142
20
-2.9051792519685038
11
4.3048738976377949
21
-2.9051788582677163
0
LINE
8
BLACK
6
CONTINUOUS
10
4.3048738976377949
20
-2.9051788582677163
11
4.3052282283464569
21
-2.9050213779527558
0
LINE
8
BLACK
6
CONTINUOUS
10
4.3052282283464569
20
-2.9050213779527558
11
4.3052305511811024
21
-2.9050205118110237
0
LINE
8
BLACK
6
CONTINUOUS
10
4.3052305511811024
20
-2.9050205118110237
11
4.3064116535433072
21
-2.9046661811023622
0
LINE
8
BLACK
6
CONTINUOUS
10
4.3064116535433072
20
-2.9046661811023622
11
4.3064138188976377
21
-2.9046656692913384
0
LINE
8
BLACK
6
CONTINUOUS
10
4.3064138188976377
20
-2.9046656692913384
11
4.3068468897637793
21
-2.9045869291338584
0
LINE
8
BLACK
6
CONTINUOUS
10
4.3068468897637793
20
-2.9045869291338584
11
4.3068484251968506
21
-2.9045866929133859
0
LINE
8
BLACK
6
CONTINUOUS
10
4.3068484251968506
20
-2.9045866929133859
11
4.3072421259842519
21
-2.9045473228346457
0
LINE
8
BLACK
6
CONTINUOUS
10
4.3072421259842519
20
-2.9045473228346457
11
4.3072423228346457
21
-2.9045473228346457
0
LINE
8
BLACK
6
CONTINUOUS
10
4.3072423228346457
20
-2.9045473228346457
11
4.3076753937007872
21
-2.9045079527559055
0
LINE
8
BLACK
6
CONTINUOUS
10
4.3076753937007872
20
-2.9045079527559055
11
4.3076771653543302
21
-2.9045078740157479
0
LINE
8
BLACK
6
CONTINUOUS
10
4.3076771653543302
20
-2.9045078740157479
11
4.3084645669291337
21
-2.9045078740157479
0
LINE
8
BLACK
6
CONTINUOUS
10
4.3084645669291337
20
-2.9045078740157479
11
4.3084663385826767
21
-2.9045079527559055
0
LINE
8
BLACK
6
CONTINUOUS
10
4.1495486614173229
20
-2.8974985826771653
11
4.1496062992125982
21
-2.8976377952755903
0
LINE
8
BLACK
6
CONTINUOUS
10
4.1496062992125982
20
-2.8976377952755903
11
4.1496062992125982
21
-2.9094415354330709
0
LINE
8
BLACK
6
CONTINUOUS
10
4.1496062992125982
20
-2.9094415354330709
11
4.1495486614173229
21
-2.9095807480314959
0
LINE
8
BLACK
6
CONTINUOUS
10
4.1495486614173229
20
-2.9095807480314959
11
4.1494094488188979
21
-2.9096383858267716
0
LINE
8
BLACK
6
CONTINUOUS
10
4.1494094488188979
20
-2.9096383858267716
11
4.1320216535433074
21
-2.9096383858267716
0
LINE
8
BLACK
6
CONTINUOUS
10
4.1320216535433074
20
-2.9096383858267716
11
4.1318824409448816
21
-2.9095807480314959
0
LINE
8
BLACK
6
CONTINUOUS
10
4.1318824409448816
20
-2.9095807480314959
11
4.1318248031496063
21
-2.9094415354330709
0
LINE
8
BLACK
6
CONTINUOUS
10
4.1318248031496063
20
-2.9094415354330709
11
4.1318248031496063
21
-2.8976377952755903
0
LINE
8
BLACK
6
CONTINUOUS
10
4.1318248031496063
20
-2.8976377952755903
11
4.1318824409448816
21
-2.8974985826771653
0
LINE
8
BLACK
6
CONTINUOUS
10
4.1318824409448816
20
-2.8974985826771653
11
4.1320216535433074
21
-2.8974409448818896
0
LINE
8
BLACK
6
CONTINUOUS
10
4.1320216535433074
20
-2.8974409448818896
11
4.1494094488188979
21
-2.8974409448818896
0
LINE
8
BLACK
6
CONTINUOUS
10
4.1494094488188979
20
-2.8974409448818896
11
4.1495486614173229
21
-2.8974985826771653
0
LINE
8
BLACK
6
CONTINUOUS
10
4.2698242519685037
20
-2.8730891338582678
11
4.2698818897637798
21
-2.8732283464566928
0
LINE
8
BLACK
6
CONTINUOUS
10
4.2698818897637798
20
-2.8732283464566928
11
4.2698818897637798
21
-2.8905498425196852
0
LINE
8
BLACK
6
CONTINUOUS
10
4.2698818897637798
20
-2.8905498425196852
11
4.2698242519685037
21
-2.8906890551181101
0
LINE
8
BLACK
6
CONTINUOUS
10
4.2698242519685037
20
-2.8906890551181101
11
4.2696850393700787
21
-2.8907466929133858
0
LINE
8
BLACK
6
CONTINUOUS
10
4.2696850393700787
20
-2.8907466929133858
11
4.2578727952755901
21
-2.8907466929133858
0
LINE
8
BLACK
6
CONTINUOUS
10
4.2578727952755901
20
-2.8907466929133858
11
4.2577335826771652
21
-2.8906890551181101
0
LINE
8
BLACK
6
CONTINUOUS
10
4.2577335826771652
20
-2.8906890551181101
11
4.2576759448818899
21
-2.8905498425196852
0
LINE
8
BLACK
6
CONTINUOUS
10
4.2576759448818899
20
-2.8905498425196852
11
4.2576759448818899
21
-2.8732283464566928
0
LINE
8
BLACK
6
CONTINUOUS
10
4.2576759448818899
20
-2.8732283464566928
11
4.2577335826771652
21
-2.8730891338582678
0
LINE
8
BLACK
6
CONTINUOUS
10
4.2577335826771652
20
-2.8730891338582678
11
4.2578727952755901
21
-2.8730314960629921
0
LINE
8
BLACK
6
CONTINUOUS
10
4.2578727952755901
20
-2.8730314960629921
11
4.2696850393700787
21
-2.8730314960629921
0
LINE
8
BLACK
6
CONTINUOUS
10
4.2696850393700787
20
-2.8730314960629921
11
4.2698242519685037
21
-2.8730891338582678
0
LINE
8
BLACK
6
CONTINUOUS
10
4.1753360629921259
20
-2.8730891338582678
11
4.1753937007874011
21
-2.8732283464566928
0
LINE
8
BLACK
6
CONTINUOUS
10
4.1753937007874011
20
-2.8732283464566928
11
4.1753937007874011
21
-2.8905472440944879
0
LINE
8
BLACK
6
CONTINUOUS
10
4.1753937007874011
20
-2.8905472440944879
11
4.1753360629921259
21
-2.8906864566929134
0
LINE
8
BLACK
6
CONTINUOUS
10
4.1753360629921259
20
-2.8906864566929134
11
4.1751968503937009
21
-2.890744094488189
0
LINE
8
BLACK
6
CONTINUOUS
10
4.1751968503937009
20
-2.890744094488189
11
4.1633720472440947
21
-2.890744094488189
0
LINE
8
BLACK
6
CONTINUOUS
10
4.1633720472440947
20
-2.890744094488189
11
4.1632328346456688
21
-2.8906864566929134
0
LINE
8
BLACK
6
CONTINUOUS
10
4.1632328346456688
20
-2.8906864566929134
11
4.1631751968503936
21
-2.8905472440944879
0
LINE
8
BLACK
6
CONTINUOUS
10
4.1631751968503936
20
-2.8905472440944879
11
4.1631751968503936
21
-2.8732283464566928
0
LINE
8
BLACK
6
CONTINUOUS
10
4.1631751968503936
20
-2.8732283464566928
11
4.1632328346456688
21
-2.8730891338582678
0
LINE
8
BLACK
6
CONTINUOUS
10
4.1632328346456688
20
-2.8730891338582678
11
4.1633720472440947
21
-2.8730314960629921
0
LINE
8
BLACK
6
CONTINUOUS
10
4.1633720472440947
20
-2.8730314960629921
11
4.1751968503937009
21
-2.8730314960629921
0
LINE
8
BLACK
6
CONTINUOUS
10
4.1751968503937009
20
-2.8730314960629921
11
4.1753360629921259
21
-2.8730891338582678
0
LINE
8
BLACK
6
CONTINUOUS
10
4.3170683464566926
20
-2.8730891338582678
11
4.3171259842519687
21
-2.8732283464566928
0
LINE
8
BLACK
6
CONTINUOUS
10
4.3171259842519687
20
-2.8732283464566928
11
4.3171259842519687
21
-2.8905385826771655
0
LINE
8
BLACK
6
CONTINUOUS
10
4.3171259842519687
20
-2.8905385826771655
11
4.3170683464566926
21
-2.8906777952755904
0
LINE
8
BLACK
6
CONTINUOUS
10
4.3170683464566926
20
-2.8906777952755904
11
4.3169291338582676
21
-2.8907354330708661
0
LINE
8
BLACK
6
CONTINUOUS
10
4.3169291338582676
20
-2.8907354330708661
11
4.3051231889763777
21
-2.8907354330708661
0
LINE
8
BLACK
6
CONTINUOUS
10
4.3051231889763777
20
-2.8907354330708661
11
4.3049839763779527
21
-2.8906777952755904
0
LINE
8
BLACK
6
CONTINUOUS
10
4.3049839763779527
20
-2.8906777952755904
11
4.3049263385826775
21
-2.8905385826771655
0
LINE
8
BLACK
6
CONTINUOUS
10
4.3049263385826775
20
-2.8905385826771655
11
4.3049263385826775
21
-2.8732283464566928
0
LINE
8
BLACK
6
CONTINUOUS
10
4.3049263385826775
20
-2.8732283464566928
11
4.3049839763779527
21
-2.8730891338582678
0
LINE
8
BLACK
6
CONTINUOUS
10
4.3049839763779527
20
-2.8730891338582678
11
4.3051231889763777
21
-2.8730314960629921
0
LINE
8
BLACK
6
CONTINUOUS
10
4.3051231889763777
20
-2.8730314960629921
11
4.3169291338582676
21
-2.8730314960629921
0
LINE
8
BLACK
6
CONTINUOUS
10
4.3169291338582676
20
-2.8730314960629921
11
4.3170683464566926
21
-2.8730891338582678
0
LINE
8
BLACK
6
CONTINUOUS
10
4.2934462992125981
20
-2.8730891338582678
11
4.2935039370078742
21
-2.8732283464566928
0
LINE
8
BLACK
6
CONTINUOUS
10
4.2935039370078742
20
-2.8732283464566928
11
4.2935039370078742
21
-2.8905318897637793
0
LINE
8
BLACK
6
CONTINUOUS
10
4.2935039370078742
20
-2.8905318897637793
11
4.2934462992125981
21
-2.8906711023622047
0
LINE
8
BLACK
6
CONTINUOUS
10
4.2934462992125981
20
-2.8906711023622047
11
4.2933070866141732
21
-2.8907287401574804
0
LINE
8
BLACK
6
CONTINUOUS
10
4.2933070866141732
20
-2.8907287401574804
11
4.2814914173228349
21
-2.8907287401574804
0
LINE
8
BLACK
6
CONTINUOUS
10
4.2814914173228349
20
-2.8907287401574804
11
4.281352204724409
21
-2.8906711023622047
0
LINE
8
BLACK
6
CONTINUOUS
10
4.281352204724409
20
-2.8906711023622047
11
4.2812945669291338
21
-2.8905318897637793
0
LINE
8
BLACK
6
CONTINUOUS
10
4.2812945669291338
20
-2.8905318897637793
11
4.2812945669291338
21
-2.8732283464566928
0
LINE
8
BLACK
6
CONTINUOUS
10
4.2812945669291338
20
-2.8732283464566928
11
4.281352204724409
21
-2.8730891338582678
0
LINE
8
BLACK
6
CONTINUOUS
10
4.281352204724409
20
-2.8730891338582678
11
4.2814914173228349
21
-2.8730314960629921
0
LINE
8
BLACK
6
CONTINUOUS
10
4.2814914173228349
20
-2.8730314960629921
11
4.2933070866141732
21
-2.8730314960629921
0
LINE
8
BLACK
6
CONTINUOUS
10
4.2933070866141732
20
-2.8730314960629921
11
4.2934462992125981
21
-2.8730891338582678
0
LINE
8
BLACK
6
CONTINUOUS
10
4.1989581102362203
20
-2.8730891338582678
11
4.1990157480314956
21
-2.8732283464566928
0
LINE
8
BLACK
6
CONTINUOUS
10
4.1990157480314956
20
-2.8732283464566928
11
4.1990157480314956
21
-2.8905164566929131
0
LINE
8
BLACK
6
CONTINUOUS
10
4.1990157480314956
20
-2.8905164566929131
11
4.1989581102362203
21
-2.8906556692913385
0
LINE
8
BLACK
6
CONTINUOUS
10
4.1989581102362203
20
-2.8906556692913385
11
4.1988188976377954
21
-2.8907133070866142
0
LINE
8
BLACK
6
CONTINUOUS
10
4.1988188976377954
20
-2.8907133070866142
11
4.1869098425196851
21
-2.8907133070866142
0
LINE
8
BLACK
6
CONTINUOUS
10
4.1869098425196851
20
-2.8907133070866142
11
4.1867706299212601
21
-2.8906556692913385
0
LINE
8
BLACK
6
CONTINUOUS
10
4.1867706299212601
20
-2.8906556692913385
11
4.186712992125984
21
-2.8905164566929131
0
LINE
8
BLACK
6
CONTINUOUS
10
4.186712992125984
20
-2.8905164566929131
11
4.186712992125984
21
-2.8732283464566928
0
LINE
8
BLACK
6
CONTINUOUS
10
4.186712992125984
20
-2.8732283464566928
11
4.1867706299212601
21
-2.8730891338582678
0
LINE
8
BLACK
6
CONTINUOUS
10
4.1867706299212601
20
-2.8730891338582678
11
4.1869098425196851
21
-2.8730314960629921
0
LINE
8
BLACK
6
CONTINUOUS
10
4.1869098425196851
20
-2.8730314960629921
11
4.1988188976377954
21
-2.8730314960629921
0
LINE
8
BLACK
6
CONTINUOUS
10
4.1988188976377954
20
-2.8730314960629921
11
4.1989581102362203
21
-2.8730891338582678
0
LINE
8
BLACK
6
CONTINUOUS
10
4.2225801574803148
20
-2.8730891338582678
11
4.22263779527559
21
-2.8732283464566928
0
LINE
8
BLACK
6
CONTINUOUS
10
4.22263779527559
20
-2.8732283464566928
11
4.22263779527559
21
-2.8905050393700789
0
LINE
8
BLACK
6
CONTINUOUS
10
4.22263779527559
20
-2.8905050393700789
11
4.2225801574803148
21
-2.8906442519685038
0
LINE
8
BLACK
6
CONTINUOUS
10
4.2225801574803148
20
-2.8906442519685038
11
4.2224409448818898
21
-2.8907018897637795
0
LINE
8
BLACK
6
CONTINUOUS
10
4.2224409448818898
20
-2.8907018897637795
11
4.2105295275590553
21
-2.8907018897637795
0
LINE
8
BLACK
6
CONTINUOUS
10
4.2105295275590553
20
-2.8907018897637795
11
4.2103903149606294
21
-2.8906442519685038
0
LINE
8
BLACK
6
CONTINUOUS
10
4.2103903149606294
20
-2.8906442519685038
11
4.2103326771653542
21
-2.8905050393700789
0
LINE
8
BLACK
6
CONTINUOUS
10
4.2103326771653542
20
-2.8905050393700789
11
4.2103326771653542
21
-2.8732283464566928
0
LINE
8
BLACK
6
CONTINUOUS
10
4.2103326771653542
20
-2.8732283464566928
11
4.2103903149606294
21
-2.8730891338582678
0
LINE
8
BLACK
6
CONTINUOUS
10
4.2103903149606294
20
-2.8730891338582678
11
4.2105295275590553
21
-2.8730314960629921
0
LINE
8
BLACK
6
CONTINUOUS
10
4.2105295275590553
20
-2.8730314960629921
11
4.2224409448818898
21
-2.8730314960629921
0
LINE
8
BLACK
6
CONTINUOUS
10
4.2224409448818898
20
-2.8730314960629921
11
4.2225801574803148
21
-2.8730891338582678
0
LINE
8
BLACK
6
CONTINUOUS
10
4.2462022047244092
20
-2.8730891338582678
11
4.2462598425196854
21
-2.8732283464566928
0
LINE
8
BLACK
6
CONTINUOUS
10
4.2462598425196854
20
-2.8732283464566928
11
4.2462598425196854
21
-2.8904890157480314
0
LINE
8
BLACK
6
CONTINUOUS
10
4.2462598425196854
20
-2.8904890157480314
11
4.2462022047244092
21
-2.8906282283464568
0
LINE
8
BLACK
6
CONTINUOUS
10
4.2462022047244092
20
-2.8906282283464568
11
4.2460629921259843
21
-2.8906858661417321
0
LINE
8
BLACK
6
CONTINUOUS
10
4.2460629921259843
20
-2.8906858661417321
11
4.2341566929133858
21
-2.8906858661417321
0
LINE
8
BLACK
6
CONTINUOUS
10
4.2341566929133858
20
-2.8906858661417321
11
4.2340174803149608
21
-2.8906282283464568
0
LINE
8
BLACK
6
CONTINUOUS
10
4.2340174803149608
20
-2.8906282283464568
11
4.2339598425196847
21
-2.8904890157480314
0
LINE
8
BLACK
6
CONTINUOUS
10
4.2339598425196847
20
-2.8904890157480314
11
4.2339598425196847
21
-2.8732283464566928
0
LINE
8
BLACK
6
CONTINUOUS
10
4.2339598425196847
20
-2.8732283464566928
11
4.2340174803149608
21
-2.8730891338582678
0
LINE
8
BLACK
6
CONTINUOUS
10
4.2340174803149608
20
-2.8730891338582678
11
4.2341566929133858
21
-2.8730314960629921
0
LINE
8
BLACK
6
CONTINUOUS
10
4.2341566929133858
20
-2.8730314960629921
11
4.2460629921259843
21
-2.8730314960629921
0
LINE
8
BLACK
6
CONTINUOUS
10
4.2460629921259843
20
-2.8730314960629921
11
4.2462022047244092
21
-2.8730891338582678
0
LINE
8
BLACK
6
CONTINUOUS
10
4.1495486614173229
20
-2.8709237795275588
11
4.1496062992125982
21
-2.8710629921259843
0
LINE
8
BLACK
6
CONTINUOUS
10
4.1496062992125982
20
-2.8710629921259843
11
4.1496062992125982
21
-2.8828354330708659
0
LINE
8
BLACK
6
CONTINUOUS
10
4.1496062992125982
20
-2.8828354330708659
11
4.1495486614173229
21
-2.8829746456692913
0
LINE
8
BLACK
6
CONTINUOUS
10
4.1495486614173229
20
-2.8829746456692913
11
4.1494094488188979
21
-2.883032283464567
0
LINE
8
BLACK
6
CONTINUOUS
10
4.1494094488188979
20
-2.883032283464567
11
4.1319484251968506
21
-2.883032283464567
0
LINE
8
BLACK
6
CONTINUOUS
10
4.1319484251968506
20
-2.883032283464567
11
4.1318092125984247
21
-2.8829746456692913
0
LINE
8
BLACK
6
CONTINUOUS
10
4.1318092125984247
20
-2.8829746456692913
11
4.1317515748031495
21
-2.8828354330708659
0
LINE
8
BLACK
6
CONTINUOUS
10
4.1317515748031495
20
-2.8828354330708659
11
4.1317515748031495
21
-2.8710629921259843
0
LINE
8
BLACK
6
CONTINUOUS
10
4.1317515748031495
20
-2.8710629921259843
11
4.1318092125984247
21
-2.8709237795275588
0
LINE
8
BLACK
6
CONTINUOUS
10
4.1318092125984247
20
-2.8709237795275588
11
4.1319484251968506
21
-2.8708661417322836
0
LINE
8
BLACK
6
CONTINUOUS
10
4.1319484251968506
20
-2.8708661417322836
11
4.1494094488188979
21
-2.8708661417322836
0
LINE
8
BLACK
6
CONTINUOUS
10
4.1494094488188979
20
-2.8708661417322836
11
4.1495486614173229
21
-2.8709237795275588
0
LINE
8
BLACK
6
CONTINUOUS
10
4.4487612598425192
20
-2.8709237795275588
11
4.4488188976377954
21
-2.8710629921259843
0
LINE
8
BLACK
6
CONTINUOUS
10
4.4488188976377954
20
-2.8710629921259843
11
4.4488188976377954
21
-2.8827964566929132
0
LINE
8
BLACK
6
CONTINUOUS
10
4.4488188976377954
20
-2.8827964566929132
11
4.4487612598425192
21
-2.8829356692913386
0
LINE
8
BLACK
6
CONTINUOUS
10
4.4487612598425192
20
-2.8829356692913386
11
4.4486220472440943
21
-2.8829933070866143
0
LINE
8
BLACK
6
CONTINUOUS
10
4.4486220472440943
20
-2.8829933070866143
11
4.4315456692913386
21
-2.8829933070866143
0
LINE
8
BLACK
6
CONTINUOUS
10
4.4315456692913386
20
-2.8829933070866143
11
4.4314064566929137
21
-2.8829356692913386
0
LINE
8
BLACK
6
CONTINUOUS
10
4.4314064566929137
20
-2.8829356692913386
11
4.4313488188976375
21
-2.8827964566929132
0
LINE
8
BLACK
6
CONTINUOUS
10
4.4313488188976375
20
-2.8827964566929132
11
4.4313488188976375
21
-2.8710629921259843
0
LINE
8
BLACK
6
CONTINUOUS
10
4.4313488188976375
20
-2.8710629921259843
11
4.4314064566929137
21
-2.8709237795275588
0
LINE
8
BLACK
6
CONTINUOUS
10
4.4314064566929137
20
-2.8709237795275588
11
4.4315456692913386
21
-2.8708661417322836
0
LINE
8
BLACK
6
CONTINUOUS
10
4.4315456692913386
20
-2.8708661417322836
11
4.4486220472440943
21
-2.8708661417322836
0
LINE
8
BLACK
6
CONTINUOUS
10
4.4486220472440943
20
-2.8708661417322836
11
4.4487612598425192
21
-2.8709237795275588
  0
ENDSEC
  0
EOF
