%TF.GenerationSoftware,KiCad,Pcbnew,9.0.6-9.0.6~ubuntu22.04.1*%
%TF.CreationDate,2025-11-05T14:39:00-08:00*%
%TF.ProjectId,Board_1_LED,426f6172-645f-4315-9f4c-45442e6b6963,rev?*%
%TF.SameCoordinates,Original*%
%TF.FileFunction,Copper,L1,Top*%
%TF.FilePolarity,Positive*%
%FSLAX46Y46*%
G04 Gerber Fmt 4.6, Leading zero omitted, Abs format (unit mm)*
G04 Created by KiCad (PCBNEW 9.0.6-9.0.6~ubuntu22.04.1) date 2025-11-05 14:39:00*
%MOMM*%
%LPD*%
G01*
G04 APERTURE LIST*
G04 Aperture macros list*
%AMRoundRect*
0 Rectangle with rounded corners*
0 $1 Rounding radius*
0 $2 $3 $4 $5 $6 $7 $8 $9 X,Y pos of 4 corners*
0 Add a 4 corners polygon primitive as box body*
4,1,4,$2,$3,$4,$5,$6,$7,$8,$9,$2,$3,0*
0 Add four circle primitives for the rounded corners*
1,1,$1+$1,$2,$3*
1,1,$1+$1,$4,$5*
1,1,$1+$1,$6,$7*
1,1,$1+$1,$8,$9*
0 Add four rect primitives between the rounded corners*
20,1,$1+$1,$2,$3,$4,$5,0*
20,1,$1+$1,$4,$5,$6,$7,0*
20,1,$1+$1,$6,$7,$8,$9,0*
20,1,$1+$1,$8,$9,$2,$3,0*%
G04 Aperture macros list end*
%TA.AperFunction,SMDPad,CuDef*%
%ADD10R,1.500000X1.500000*%
%TD*%
%TA.AperFunction,SMDPad,CuDef*%
%ADD11RoundRect,0.140000X0.140000X0.170000X-0.140000X0.170000X-0.140000X-0.170000X0.140000X-0.170000X0*%
%TD*%
%TA.AperFunction,SMDPad,CuDef*%
%ADD12RoundRect,0.140000X0.170000X-0.140000X0.170000X0.140000X-0.170000X0.140000X-0.170000X-0.140000X0*%
%TD*%
%TA.AperFunction,SMDPad,CuDef*%
%ADD13R,0.550000X0.300000*%
%TD*%
%TA.AperFunction,SMDPad,CuDef*%
%ADD14R,0.300000X0.550000*%
%TD*%
%TA.AperFunction,SMDPad,CuDef*%
%ADD15C,0.450000*%
%TD*%
%TA.AperFunction,SMDPad,CuDef*%
%ADD16RoundRect,0.050000X-0.195000X-0.075000X0.195000X-0.075000X0.195000X0.075000X-0.195000X0.075000X0*%
%TD*%
%TA.AperFunction,Conductor*%
%ADD17C,0.150000*%
%TD*%
%TA.AperFunction,Conductor*%
%ADD18C,0.250000*%
%TD*%
G04 APERTURE END LIST*
D10*
%TO.P,J6,1,Pin_1*%
%TO.N,Net-(J6-Pin_1)*%
X103438811Y-73488018D03*
%TD*%
%TO.P,J5,1,Pin_1*%
%TO.N,Net-(J5-Pin_1)*%
X108662692Y-77267691D03*
%TD*%
%TO.P,J4,1,Pin_1*%
%TO.N,Net-(J4-Pin_1)*%
X103737425Y-77283605D03*
%TD*%
%TO.P,J3,1,Pin_1*%
%TO.N,Net-(J3-Pin_1)*%
X108591644Y-71473353D03*
%TD*%
%TO.P,J2,1,Pin_1*%
%TO.N,Net-(J2-Pin_1)*%
X106570613Y-71473353D03*
%TD*%
%TO.P,J1,1,Pin_1*%
%TO.N,Net-(J1-Pin_1)*%
X104541626Y-71465396D03*
%TD*%
D11*
%TO.P,C1,1*%
%TO.N,Net-(J5-Pin_1)*%
X107171994Y-77864452D03*
%TO.P,C1,2*%
%TO.N,Net-(J4-Pin_1)*%
X106211994Y-77864452D03*
%TD*%
D12*
%TO.P,C2,1*%
%TO.N,Net-(J5-Pin_1)*%
X105254402Y-77845764D03*
%TO.P,C2,2*%
%TO.N,Net-(J4-Pin_1)*%
X105254402Y-76885764D03*
%TD*%
D11*
%TO.P,C3,1*%
%TO.N,Net-(U1-DEC4)*%
X107187908Y-76893721D03*
%TO.P,C3,2*%
%TO.N,Net-(J4-Pin_1)*%
X106227908Y-76893721D03*
%TD*%
D13*
%TO.P,U1,1,GND*%
%TO.N,Net-(J4-Pin_1)*%
X105175000Y-75625000D03*
D14*
%TO.P,U1,2,P0.06*%
%TO.N,unconnected-(U1-P0.06-Pad2)*%
X105900000Y-75500000D03*
%TO.P,U1,3,P0.05/AIN3*%
%TO.N,unconnected-(U1-P0.05{slash}AIN3-Pad3)*%
X106500000Y-75500000D03*
%TO.P,U1,4,P0.00/XL1*%
%TO.N,unconnected-(U1-P0.00{slash}XL1-Pad4)*%
X107100000Y-75500000D03*
%TO.P,U1,5,P0.01/XL2*%
%TO.N,unconnected-(U1-P0.01{slash}XL2-Pad5)*%
X107700000Y-75500000D03*
%TO.P,U1,6,DCC*%
%TO.N,unconnected-(U1-DCC-Pad6)*%
X108300000Y-75500000D03*
%TO.P,U1,7,DEC4*%
%TO.N,Net-(U1-DEC4)*%
X108900000Y-75500000D03*
%TO.P,U1,8,VCC_NRF*%
%TO.N,Net-(J5-Pin_1)*%
X109500000Y-75500000D03*
D15*
%TO.P,U1,9,P0.03/AIN1*%
%TO.N,unconnected-(U1-P0.03{slash}AIN1-Pad9)*%
X109425000Y-74725000D03*
%TO.P,U1,10,P0.04/AIN2*%
%TO.N,unconnected-(U1-P0.04{slash}AIN2-Pad10)*%
X109425000Y-73975000D03*
D14*
%TO.P,U1,11,OUT_ANT*%
%TO.N,unconnected-(U1-OUT_ANT-Pad11)*%
X109500000Y-73200000D03*
%TO.P,U1,12,OUT_MOD*%
%TO.N,unconnected-(U1-OUT_MOD-Pad12)*%
X108900000Y-73200000D03*
%TO.P,U1,13,GND*%
%TO.N,Net-(J4-Pin_1)*%
X108300000Y-73200000D03*
%TO.P,U1,14,NFC/P0.09*%
%TO.N,unconnected-(U1-NFC{slash}P0.09-Pad14)*%
X107700000Y-73200000D03*
%TO.P,U1,15,NFC/P0.10*%
%TO.N,unconnected-(U1-NFC{slash}P0.10-Pad15)*%
X107100000Y-73200000D03*
%TO.P,U1,16,SWDCLK*%
%TO.N,Net-(J3-Pin_1)*%
X106500000Y-73200000D03*
%TO.P,U1,17,SWDIO*%
%TO.N,Net-(J2-Pin_1)*%
X105900000Y-73200000D03*
D13*
%TO.P,U1,18,GND*%
%TO.N,Net-(J4-Pin_1)*%
X105175000Y-73075000D03*
%TO.P,U1,19,P0.21/RESET*%
%TO.N,Net-(J1-Pin_1)*%
X105175000Y-73750000D03*
%TO.P,U1,20,P0.08*%
%TO.N,Net-(Q1-G)*%
X105175000Y-74350000D03*
%TO.P,U1,21,P0.07*%
%TO.N,unconnected-(U1-P0.07-Pad21)*%
X105175000Y-74950000D03*
%TO.P,U1,22,P0.18/TRACEDATA[0]*%
%TO.N,unconnected-(U1-P0.18{slash}TRACEDATA[0]-Pad22)*%
X106025000Y-74650000D03*
D15*
%TO.P,U1,23,P0.02/AIN0*%
%TO.N,unconnected-(U1-P0.02{slash}AIN0-Pad23)*%
X108525000Y-74725000D03*
%TO.P,U1,24,P0.28/AIN4*%
%TO.N,unconnected-(U1-P0.28{slash}AIN4-Pad24)*%
X108525000Y-73975000D03*
D13*
%TO.P,U1,25,P0.20/TRACECLK*%
%TO.N,unconnected-(U1-P0.20{slash}TRACECLK-Pad25)*%
X106025000Y-74050000D03*
%TO.P,U1,26,GND*%
%TO.N,Net-(J4-Pin_1)*%
X107300000Y-74350000D03*
%TD*%
D16*
%TO.P,Q1,2,D*%
%TO.N,Net-(J4-Pin_1)*%
X103832906Y-75372690D03*
%TO.P,Q1,1,G*%
%TO.N,Net-(Q1-G)*%
X103832906Y-74872690D03*
%TO.P,Q1,3,S*%
%TO.N,Net-(J6-Pin_1)*%
X103832906Y-75872690D03*
%TD*%
D17*
%TO.N,*%
X103657462Y-74496144D02*
X103657462Y-74488432D01*
%TO.N,unconnected-(U1-OUT_ANT-Pad11)*%
X109511837Y-72588236D02*
X109509684Y-72590389D01*
X109671093Y-72588236D02*
X109511837Y-72588236D01*
X109509684Y-72590389D02*
X109500000Y-72600073D01*
X109500000Y-72600073D02*
X109500000Y-73200000D01*
%TO.N,Net-(J5-Pin_1)*%
X109700000Y-76115492D02*
X109500000Y-76115492D01*
D18*
X109500000Y-75500000D02*
X109500000Y-76250000D01*
%TO.N,Net-(J6-Pin_1)*%
X103372690Y-75872690D02*
X103250000Y-75750000D01*
X103250000Y-75750000D02*
X103250000Y-73676829D01*
X103832906Y-75872690D02*
X103372690Y-75872690D01*
X103250000Y-73676829D02*
X103438811Y-73488018D01*
%TO.N,Net-(J4-Pin_1)*%
X103832906Y-75372690D02*
X104260191Y-75372690D01*
X104260191Y-75372690D02*
X104510413Y-75622912D01*
X104539970Y-76165212D02*
X104539970Y-76481060D01*
X104539970Y-76481060D02*
X103737425Y-77283605D01*
X104510413Y-75622912D02*
X104510413Y-76135655D01*
X104510413Y-76135655D02*
X104539970Y-76165212D01*
%TO.N,Net-(J1-Pin_1)*%
X104513811Y-73500000D02*
X104513811Y-71493211D01*
X104513811Y-71493211D02*
X104541626Y-71465396D01*
%TO.N,Net-(J4-Pin_1)*%
X104539970Y-76165212D02*
X105249073Y-76165212D01*
X105249073Y-76165212D02*
X105254402Y-76159883D01*
D17*
%TO.N,Net-(J1-Pin_1)*%
X105015666Y-72585310D02*
X104513811Y-72585310D01*
%TO.N,Net-(J4-Pin_1)*%
X105175000Y-75625000D02*
X105817908Y-74982092D01*
X105817908Y-74982092D02*
X106445238Y-74982092D01*
X107300000Y-74350000D02*
X107077330Y-74350000D01*
X107300000Y-74350000D02*
X107400000Y-74350000D01*
X107400000Y-74350000D02*
X108300000Y-73450000D01*
X108300000Y-73450000D02*
X108300000Y-73200000D01*
X107300000Y-74350000D02*
X106700000Y-73750000D01*
X106700000Y-73750000D02*
X105822716Y-73750000D01*
X105822716Y-73750000D02*
X105175000Y-73102284D01*
X105175000Y-73102284D02*
X105175000Y-73075000D01*
D18*
%TO.N,Net-(U1-DEC4)*%
X108900000Y-75500000D02*
X108900000Y-76042691D01*
X108900000Y-76042691D02*
X108750000Y-76192691D01*
X108750000Y-76192691D02*
X107557309Y-76192691D01*
X107557309Y-76192691D02*
X107187908Y-76562092D01*
X107187908Y-76562092D02*
X107187908Y-76893721D01*
%TO.N,Net-(J5-Pin_1)*%
X109500000Y-76250000D02*
X109500000Y-76430383D01*
X109500000Y-76430383D02*
X108662692Y-77267691D01*
X107171994Y-77864452D02*
X108065931Y-77864452D01*
X108065931Y-77864452D02*
X108662692Y-77267691D01*
X105254402Y-77845764D02*
X105254402Y-78254402D01*
X105254402Y-78254402D02*
X105500000Y-78500000D01*
X107000000Y-78500000D02*
X105500000Y-78500000D01*
X107171994Y-77864452D02*
X107171994Y-78328006D01*
X107171994Y-78328006D02*
X107000000Y-78500000D01*
%TO.N,Net-(J4-Pin_1)*%
X106211994Y-77864452D02*
X106211994Y-76909635D01*
X106211994Y-76909635D02*
X106227908Y-76893721D01*
X106227908Y-76893721D02*
X105262359Y-76893721D01*
X105262359Y-76893721D02*
X105254402Y-76885764D01*
X105254402Y-76885764D02*
X105254402Y-75704402D01*
X105254402Y-75704402D02*
X105175000Y-75625000D01*
%TO.N,Net-(Q1-G)*%
X105175000Y-74350000D02*
X104650000Y-74350000D01*
X104650000Y-74350000D02*
X104127310Y-74872690D01*
X104127310Y-74872690D02*
X103832906Y-74872690D01*
%TO.N,Net-(J1-Pin_1)*%
X105175000Y-73750000D02*
X104763811Y-73750000D01*
X104763811Y-73750000D02*
X104513811Y-73500000D01*
%TO.N,Net-(J2-Pin_1)*%
X105900000Y-73200000D02*
X105900000Y-72600000D01*
X105900000Y-72600000D02*
X106570613Y-71929387D01*
X106570613Y-71929387D02*
X106570613Y-71473353D01*
%TO.N,Net-(J3-Pin_1)*%
X106500000Y-73200000D02*
X106500000Y-72798353D01*
X106500000Y-72798353D02*
X106750000Y-72548353D01*
X107500000Y-72548353D02*
X106750000Y-72548353D01*
X108591644Y-71473353D02*
X108575000Y-71473353D01*
X108575000Y-71473353D02*
X107500000Y-72548353D01*
D17*
%TO.N,Net-(J4-Pin_1)*%
X107077330Y-74350000D02*
X106445238Y-74982092D01*
%TD*%
M02*
