  0
SECTION
  2
HEADER
  9
$ANGBASE
  50
0.0
  9
$ANGDIR
  70
1
  9
$MEASUREMENT
  70
0
  0
ENDSEC
  0
SECTION
  2
TABLES
  0
TABLE
  2
LTYPE
  70
4
  0
LTYPE
  5
40F
  2
CONTINUOUS
  70
0
  3
Solid line
  72
65
  73
0
  40
0.0
  0
LTYPE
  5
410
  2
DASHDOT
 70
0
  3
Dash Dot ____ _ ____ _
 72
65
 73
4
 40
2.0
 49
1.25
 49
-0.25
 49
0.25
 49
-0.25
  0
LTYPE
  5
411
  2
DASHED
 70
0
  3
Dashed __ __ __ __ __
 72
65
 73
2
 40
0.75
 49
0.5
 49
-0.25
  0
LTYPE
  5
43B
  2
DOTTED
 70
0
  3
Dotted .  .  .  .
 72
65
 73
2
 40
0.2
 49
0.0
 49
-0.2
  0
ENDTAB
  0
TABLE
  2
STYLE
  70
4
  0
STYLE
  2
KICAD
  70
0
  40
0
  41
1
  42
1
  50
0
  71
0
  3
isocp.shx
  0
STYLE
  2
KICADB
  70
0
  40
0
  41
1
  42
1
  50
0
  71
0
  3
isocp.shx
  0
STYLE
  2
KICADI
  70
0
  40
0
  41
1
  42
1
  50
15
  71
0
  3
isocp.shx
  0
STYLE
  2
KICADBI
  70
0
  40
0
  41
1
  42
1
  50
15
  71
0
  3
isocp.shx
  0
ENDTAB
  0
TABLE
  2
LAYER
  70
1
  0
LAYER
  2
BLACK
  70
0
  62
7
  6
CONTINUOUS
  0
ENDTAB
  0
ENDSEC
  0
SECTION
  2
ENTITIES
0
LINE
8
BLACK
6
CONTINUOUS
10
4.12504342519685
20
-3.1178533858267716
11
4.1268315748031492
21
-3.1190481889763779
0
LINE
8
BLACK
6
CONTINUOUS
10
4.1268315748031492
20
-3.1190481889763779
11
4.1280263779527555
21
-3.1208363385826772
0
LINE
8
BLACK
6
CONTINUOUS
10
4.1280263779527555
20
-3.1208363385826772
11
4.1284459448818893
21
-3.1229456299212597
0
LINE
8
BLACK
6
CONTINUOUS
10
4.1284459448818893
20
-3.1229456299212597
11
4.1284459448818893
21
-3.1339692519685038
0
LINE
8
BLACK
6
CONTINUOUS
10
4.1284459448818893
20
-3.1339692519685038
11
4.1280263779527555
21
-3.1360785433070864
0
LINE
8
BLACK
6
CONTINUOUS
10
4.1280263779527555
20
-3.1360785433070864
11
4.1268315748031492
21
-3.1378666929133856
0
LINE
8
BLACK
6
CONTINUOUS
10
4.1268315748031492
20
-3.1378666929133856
11
4.12504342519685
21
-3.1390614960629919
0
LINE
8
BLACK
6
CONTINUOUS
10
4.12504342519685
20
-3.1390614960629919
11
4.1229341338582675
21
-3.1394810629921257
0
LINE
8
BLACK
6
CONTINUOUS
10
4.1229341338582675
20
-3.1394810629921257
11
4.1095483070866141
21
-3.1394810629921257
0
LINE
8
BLACK
6
CONTINUOUS
10
4.1095483070866141
20
-3.1394810629921257
11
4.1074390157480316
21
-3.1390614960629919
0
LINE
8
BLACK
6
CONTINUOUS
10
4.1074390157480316
20
-3.1390614960629919
11
4.1056508661417324
21
-3.1378666929133856
0
LINE
8
BLACK
6
CONTINUOUS
10
4.1056508661417324
20
-3.1378666929133856
11
4.1044560629921261
21
-3.1360785433070864
0
LINE
8
BLACK
6
CONTINUOUS
10
4.1044560629921261
20
-3.1360785433070864
11
4.1040364960629923
21
-3.1339692519685038
0
LINE
8
BLACK
6
CONTINUOUS
10
4.1040364960629923
20
-3.1339692519685038
11
4.1040364960629923
21
-3.1229456299212597
0
LINE
8
BLACK
6
CONTINUOUS
10
4.1040364960629923
20
-3.1229456299212597
11
4.1044560629921261
21
-3.1208363385826772
0
LINE
8
BLACK
6
CONTINUOUS
10
4.1044560629921261
20
-3.1208363385826772
11
4.1056508661417324
21
-3.1190481889763779
0
LINE
8
BLACK
6
CONTINUOUS
10
4.1056508661417324
20
-3.1190481889763779
11
4.1074390157480316
21
-3.1178533858267716
0
LINE
8
BLACK
6
CONTINUOUS
10
4.1074390157480316
20
-3.1178533858267716
11
4.1095483070866141
21
-3.1174338188976378
0
LINE
8
BLACK
6
CONTINUOUS
10
4.1095483070866141
20
-3.1174338188976378
11
4.1229341338582675
21
-3.1174338188976378
0
LINE
8
BLACK
6
CONTINUOUS
10
4.1229341338582675
20
-3.1174338188976378
11
4.12504342519685
21
-3.1178533858267716
0
LINE
8
BLACK
6
CONTINUOUS
10
4.1797586220472436
20
-3.0993811811023622
11
4.1826324409448814
21
-3.1013014173228344
0
LINE
8
BLACK
6
CONTINUOUS
10
4.1826324409448814
20
-3.1013014173228344
11
4.1845526771653541
21
-3.1041752362204722
0
LINE
8
BLACK
6
CONTINUOUS
10
4.1845526771653541
20
-3.1041752362204722
11
4.1852269685039367
21
-3.1075651574803147
0
LINE
8
BLACK
6
CONTINUOUS
10
4.1852269685039367
20
-3.1075651574803147
11
4.1852269685039367
21
-3.1252816929133855
0
LINE
8
BLACK
6
CONTINUOUS
10
4.1852269685039367
20
-3.1252816929133855
11
4.1845526771653541
21
-3.1286716141732285
0
LINE
8
BLACK
6
CONTINUOUS
10
4.1845526771653541
20
-3.1286716141732285
11
4.1826324409448814
21
-3.1315454330708659
0
LINE
8
BLACK
6
CONTINUOUS
10
4.1826324409448814
20
-3.1315454330708659
11
4.1797586220472436
21
-3.1334656692913385
0
LINE
8
BLACK
6
CONTINUOUS
10
4.1797586220472436
20
-3.1334656692913385
11
4.1763687007874015
21
-3.1341399606299212
0
LINE
8
BLACK
6
CONTINUOUS
10
4.1763687007874015
20
-3.1341399606299212
11
4.1566836614173228
21
-3.1341399606299212
0
LINE
8
BLACK
6
CONTINUOUS
10
4.1566836614173228
20
-3.1341399606299212
11
4.1532937401574799
21
-3.1334656692913385
0
LINE
8
BLACK
6
CONTINUOUS
10
4.1532937401574799
20
-3.1334656692913385
11
4.150419921259842
21
-3.1315454330708659
0
LINE
8
BLACK
6
CONTINUOUS
10
4.150419921259842
20
-3.1315454330708659
11
4.1484996850393703
21
-3.1286716141732285
0
LINE
8
BLACK
6
CONTINUOUS
10
4.1484996850393703
20
-3.1286716141732285
11
4.1478253937007876
21
-3.1252816929133855
0
LINE
8
BLACK
6
CONTINUOUS
10
4.1478253937007876
20
-3.1252816929133855
11
4.1478253937007876
21
-3.1075651574803147
0
LINE
8
BLACK
6
CONTINUOUS
10
4.1478253937007876
20
-3.1075651574803147
11
4.1484996850393703
21
-3.1041752362204722
0
LINE
8
BLACK
6
CONTINUOUS
10
4.1484996850393703
20
-3.1041752362204722
11
4.150419921259842
21
-3.1013014173228344
0
LINE
8
BLACK
6
CONTINUOUS
10
4.150419921259842
20
-3.1013014173228344
11
4.1532937401574799
21
-3.0993811811023622
0
LINE
8
BLACK
6
CONTINUOUS
10
4.1532937401574799
20
-3.0993811811023622
11
4.1566836614173228
21
-3.0987068897637795
0
LINE
8
BLACK
6
CONTINUOUS
10
4.1566836614173228
20
-3.0987068897637795
11
4.1763687007874015
21
-3.0987068897637795
0
LINE
8
BLACK
6
CONTINUOUS
10
4.1763687007874015
20
-3.0987068897637795
11
4.1797586220472436
21
-3.0993811811023622
0
LINE
8
BLACK
6
CONTINUOUS
10
4.0748031496062991
20
-3.1200787401574801
11
3.9960629921259843
21
-3.1200787401574801
0
LINE
8
BLACK
6
CONTINUOUS
10
3.9960629921259843
20
-3.1200787401574801
11
3.9960629921259843
21
-3.0413385826771653
0
LINE
8
BLACK
6
CONTINUOUS
10
3.9960629921259843
20
-3.0413385826771653
11
4.0748031496062991
21
-3.0413385826771653
0
LINE
8
BLACK
6
CONTINUOUS
10
4.0748031496062991
20
-3.0413385826771653
11
4.0748031496062991
21
-3.1200787401574801
0
LINE
8
BLACK
6
CONTINUOUS
10
4.12504342519685
20
-3.0800581102362203
11
4.1268315748031492
21
-3.0812529133858266
0
LINE
8
BLACK
6
CONTINUOUS
10
4.1268315748031492
20
-3.0812529133858266
11
4.1280263779527555
21
-3.0830410629921259
0
LINE
8
BLACK
6
CONTINUOUS
10
4.1280263779527555
20
-3.0830410629921259
11
4.1284459448818893
21
-3.0851503543307084
0
LINE
8
BLACK
6
CONTINUOUS
10
4.1284459448818893
20
-3.0851503543307084
11
4.1284459448818893
21
-3.0961739763779526
0
LINE
8
BLACK
6
CONTINUOUS
10
4.1284459448818893
20
-3.0961739763779526
11
4.1280263779527555
21
-3.0982832677165355
0
LINE
8
BLACK
6
CONTINUOUS
10
4.1280263779527555
20
-3.0982832677165355
11
4.1268315748031492
21
-3.1000714173228348
0
LINE
8
BLACK
6
CONTINUOUS
10
4.1268315748031492
20
-3.1000714173228348
11
4.12504342519685
21
-3.101266220472441
0
LINE
8
BLACK
6
CONTINUOUS
10
4.12504342519685
20
-3.101266220472441
11
4.1229341338582675
21
-3.1016857874015749
0
LINE
8
BLACK
6
CONTINUOUS
10
4.1229341338582675
20
-3.1016857874015749
11
4.1095483070866141
21
-3.1016857874015749
0
LINE
8
BLACK
6
CONTINUOUS
10
4.1095483070866141
20
-3.1016857874015749
11
4.1074390157480316
21
-3.101266220472441
0
LINE
8
BLACK
6
CONTINUOUS
10
4.1074390157480316
20
-3.101266220472441
11
4.1056508661417324
21
-3.1000714173228348
0
LINE
8
BLACK
6
CONTINUOUS
10
4.1056508661417324
20
-3.1000714173228348
11
4.1044560629921261
21
-3.0982832677165355
0
LINE
8
BLACK
6
CONTINUOUS
10
4.1044560629921261
20
-3.0982832677165355
11
4.1040364960629923
21
-3.0961739763779526
0
LINE
8
BLACK
6
CONTINUOUS
10
4.1040364960629923
20
-3.0961739763779526
11
4.1040364960629923
21
-3.0851503543307084
0
LINE
8
BLACK
6
CONTINUOUS
10
4.1040364960629923
20
-3.0851503543307084
11
4.1044560629921261
21
-3.0830410629921259
0
LINE
8
BLACK
6
CONTINUOUS
10
4.1044560629921261
20
-3.0830410629921259
11
4.1056508661417324
21
-3.0812529133858266
0
LINE
8
BLACK
6
CONTINUOUS
10
4.1056508661417324
20
-3.0812529133858266
11
4.1074390157480316
21
-3.0800581102362203
0
LINE
8
BLACK
6
CONTINUOUS
10
4.1074390157480316
20
-3.0800581102362203
11
4.1095483070866141
21
-3.0796385433070865
0
LINE
8
BLACK
6
CONTINUOUS
10
4.1095483070866141
20
-3.0796385433070865
11
4.1229341338582675
21
-3.0796385433070865
0
LINE
8
BLACK
6
CONTINUOUS
10
4.1229341338582675
20
-3.0796385433070865
11
4.12504342519685
21
-3.0800581102362203
0
LINE
8
BLACK
6
CONTINUOUS
10
4.2995003149606301
20
-3.0990491732283463
11
4.2207601574803153
21
-3.0990491732283463
0
LINE
8
BLACK
6
CONTINUOUS
10
4.2207601574803153
20
-3.0990491732283463
11
4.2207601574803153
21
-3.0203090157480315
0
LINE
8
BLACK
6
CONTINUOUS
10
4.2207601574803153
20
-3.0203090157480315
11
4.2995003149606301
21
-3.0203090157480315
0
LINE
8
BLACK
6
CONTINUOUS
10
4.2995003149606301
20
-3.0203090157480315
11
4.2995003149606301
21
-3.0990491732283463
0
LINE
8
BLACK
6
CONTINUOUS
10
4.1797586220472436
20
-3.0383575590551182
11
4.1826324409448814
21
-3.0402777952755904
0
LINE
8
BLACK
6
CONTINUOUS
10
4.1826324409448814
20
-3.0402777952755904
11
4.1845526771653541
21
-3.0431516141732282
0
LINE
8
BLACK
6
CONTINUOUS
10
4.1845526771653541
20
-3.0431516141732282
11
4.1852269685039367
21
-3.0465415354330707
0
LINE
8
BLACK
6
CONTINUOUS
10
4.1852269685039367
20
-3.0465415354330707
11
4.1852269685039367
21
-3.0642580708661415
0
LINE
8
BLACK
6
CONTINUOUS
10
4.1852269685039367
20
-3.0642580708661415
11
4.1845526771653541
21
-3.067647992125984
0
LINE
8
BLACK
6
CONTINUOUS
10
4.1845526771653541
20
-3.067647992125984
11
4.1826324409448814
21
-3.0705218110236219
0
LINE
8
BLACK
6
CONTINUOUS
10
4.1826324409448814
20
-3.0705218110236219
11
4.1797586220472436
21
-3.0724420472440945
0
LINE
8
BLACK
6
CONTINUOUS
10
4.1797586220472436
20
-3.0724420472440945
11
4.1763687007874015
21
-3.0731163385826772
0
LINE
8
BLACK
6
CONTINUOUS
10
4.1763687007874015
20
-3.0731163385826772
11
4.1566836614173228
21
-3.0731163385826772
0
LINE
8
BLACK
6
CONTINUOUS
10
4.1566836614173228
20
-3.0731163385826772
11
4.1532937401574799
21
-3.0724420472440945
0
LINE
8
BLACK
6
CONTINUOUS
10
4.1532937401574799
20
-3.0724420472440945
11
4.150419921259842
21
-3.0705218110236219
0
LINE
8
BLACK
6
CONTINUOUS
10
4.150419921259842
20
-3.0705218110236219
11
4.1484996850393703
21
-3.067647992125984
0
LINE
8
BLACK
6
CONTINUOUS
10
4.1484996850393703
20
-3.067647992125984
11
4.1478253937007876
21
-3.0642580708661415
0
LINE
8
BLACK
6
CONTINUOUS
10
4.1478253937007876
20
-3.0642580708661415
11
4.1478253937007876
21
-3.0465415354330707
0
LINE
8
BLACK
6
CONTINUOUS
10
4.1478253937007876
20
-3.0465415354330707
11
4.1484996850393703
21
-3.0431516141732282
0
LINE
8
BLACK
6
CONTINUOUS
10
4.1484996850393703
20
-3.0431516141732282
11
4.150419921259842
21
-3.0402777952755904
0
LINE
8
BLACK
6
CONTINUOUS
10
4.150419921259842
20
-3.0402777952755904
11
4.1532937401574799
21
-3.0383575590551182
0
LINE
8
BLACK
6
CONTINUOUS
10
4.1532937401574799
20
-3.0383575590551182
11
4.1566836614173228
21
-3.0376832677165355
0
LINE
8
BLACK
6
CONTINUOUS
10
4.1566836614173228
20
-3.0376832677165355
11
4.1763687007874015
21
-3.0376832677165355
0
LINE
8
BLACK
6
CONTINUOUS
10
4.1763687007874015
20
-3.0376832677165355
11
4.1797586220472436
21
-3.0383575590551182
0
LINE
8
BLACK
6
CONTINUOUS
10
4.1229754330708657
20
-3.0452195669291338
11
4.1247635826771649
21
-3.0464143700787401
0
LINE
8
BLACK
6
CONTINUOUS
10
4.1247635826771649
20
-3.0464143700787401
11
4.1259583858267712
21
-3.0482025196850393
0
LINE
8
BLACK
6
CONTINUOUS
10
4.1259583858267712
20
-3.0482025196850393
11
4.126377952755905
21
-3.0503118110236218
0
LINE
8
BLACK
6
CONTINUOUS
10
4.126377952755905
20
-3.0503118110236218
11
4.126377952755905
21
-3.061335433070866
0
LINE
8
BLACK
6
CONTINUOUS
10
4.126377952755905
20
-3.061335433070866
11
4.1259583858267712
21
-3.0634447244094489
0
LINE
8
BLACK
6
CONTINUOUS
10
4.1259583858267712
20
-3.0634447244094489
11
4.1247635826771649
21
-3.0652328740157482
0
LINE
8
BLACK
6
CONTINUOUS
10
4.1247635826771649
20
-3.0652328740157482
11
4.1229754330708657
21
-3.0664276771653545
0
LINE
8
BLACK
6
CONTINUOUS
10
4.1229754330708657
20
-3.0664276771653545
11
4.1208661417322832
21
-3.0668472440944883
0
LINE
8
BLACK
6
CONTINUOUS
10
4.1208661417322832
20
-3.0668472440944883
11
4.1074803149606298
21
-3.0668472440944883
0
LINE
8
BLACK
6
CONTINUOUS
10
4.1074803149606298
20
-3.0668472440944883
11
4.1053710236220473
21
-3.0664276771653545
0
LINE
8
BLACK
6
CONTINUOUS
10
4.1053710236220473
20
-3.0664276771653545
11
4.1035828740157481
21
-3.0652328740157482
0
LINE
8
BLACK
6
CONTINUOUS
10
4.1035828740157481
20
-3.0652328740157482
11
4.1023880708661418
21
-3.0634447244094489
0
LINE
8
BLACK
6
CONTINUOUS
10
4.1023880708661418
20
-3.0634447244094489
11
4.101968503937008
21
-3.061335433070866
0
LINE
8
BLACK
6
CONTINUOUS
10
4.101968503937008
20
-3.061335433070866
11
4.101968503937008
21
-3.0503118110236218
0
LINE
8
BLACK
6
CONTINUOUS
10
4.101968503937008
20
-3.0503118110236218
11
4.1023880708661418
21
-3.0482025196850393
0
LINE
8
BLACK
6
CONTINUOUS
10
4.1023880708661418
20
-3.0482025196850393
11
4.1035828740157481
21
-3.0464143700787401
0
LINE
8
BLACK
6
CONTINUOUS
10
4.1035828740157481
20
-3.0464143700787401
11
4.1053710236220473
21
-3.0452195669291338
0
LINE
8
BLACK
6
CONTINUOUS
10
4.1053710236220473
20
-3.0452195669291338
11
4.1074803149606298
21
-3.0448
0
LINE
8
BLACK
6
CONTINUOUS
10
4.1074803149606298
20
-3.0448
11
4.1208661417322832
21
-3.0448
0
LINE
8
BLACK
6
CONTINUOUS
10
4.1208661417322832
20
-3.0448
11
4.1229754330708657
21
-3.0452195669291338
0
LINE
8
BLACK
6
CONTINUOUS
10
4.1229754330708657
20
-3.0074242913385825
11
4.1247635826771649
21
-3.0086190944881888
0
LINE
8
BLACK
6
CONTINUOUS
10
4.1247635826771649
20
-3.0086190944881888
11
4.1259583858267712
21
-3.010407244094488
0
LINE
8
BLACK
6
CONTINUOUS
10
4.1259583858267712
20
-3.010407244094488
11
4.126377952755905
21
-3.012516535433071
0
LINE
8
BLACK
6
CONTINUOUS
10
4.126377952755905
20
-3.012516535433071
11
4.126377952755905
21
-3.0235401574803147
0
LINE
8
BLACK
6
CONTINUOUS
10
4.126377952755905
20
-3.0235401574803147
11
4.1259583858267712
21
-3.0256494488188976
0
LINE
8
BLACK
6
CONTINUOUS
10
4.1259583858267712
20
-3.0256494488188976
11
4.1247635826771649
21
-3.0274375984251969
0
LINE
8
BLACK
6
CONTINUOUS
10
4.1247635826771649
20
-3.0274375984251969
11
4.1229754330708657
21
-3.0286324015748032
0
LINE
8
BLACK
6
CONTINUOUS
10
4.1229754330708657
20
-3.0286324015748032
11
4.1208661417322832
21
-3.029051968503937
0
LINE
8
BLACK
6
CONTINUOUS
10
4.1208661417322832
20
-3.029051968503937
11
4.1074803149606298
21
-3.029051968503937
0
LINE
8
BLACK
6
CONTINUOUS
10
4.1074803149606298
20
-3.029051968503937
11
4.1053710236220473
21
-3.0286324015748032
0
LINE
8
BLACK
6
CONTINUOUS
10
4.1053710236220473
20
-3.0286324015748032
11
4.1035828740157481
21
-3.0274375984251969
0
LINE
8
BLACK
6
CONTINUOUS
10
4.1035828740157481
20
-3.0274375984251969
11
4.1023880708661418
21
-3.0256494488188976
0
LINE
8
BLACK
6
CONTINUOUS
10
4.1023880708661418
20
-3.0256494488188976
11
4.101968503937008
21
-3.0235401574803147
0
LINE
8
BLACK
6
CONTINUOUS
10
4.101968503937008
20
-3.0235401574803147
11
4.101968503937008
21
-3.012516535433071
0
LINE
8
BLACK
6
CONTINUOUS
10
4.101968503937008
20
-3.012516535433071
11
4.1023880708661418
21
-3.010407244094488
0
LINE
8
BLACK
6
CONTINUOUS
10
4.1023880708661418
20
-3.010407244094488
11
4.1035828740157481
21
-3.0086190944881888
0
LINE
8
BLACK
6
CONTINUOUS
10
4.1035828740157481
20
-3.0086190944881888
11
4.1053710236220473
21
-3.0074242913385825
0
LINE
8
BLACK
6
CONTINUOUS
10
4.1053710236220473
20
-3.0074242913385825
11
4.1074803149606298
21
-3.0070047244094487
0
LINE
8
BLACK
6
CONTINUOUS
10
4.1074803149606298
20
-3.0070047244094487
11
4.1208661417322832
21
-3.0070047244094487
0
LINE
8
BLACK
6
CONTINUOUS
10
4.1208661417322832
20
-3.0070047244094487
11
4.1229754330708657
21
-3.0074242913385825
0
LINE
8
BLACK
6
CONTINUOUS
10
4.0165097637795277
20
-2.9883749212598425
11
4.0166248031496066
21
-2.9884132677165351
0
LINE
8
BLACK
6
CONTINUOUS
10
4.0166248031496066
20
-2.9884132677165351
11
4.0167003937007877
21
-2.9884132677165351
0
LINE
8
BLACK
6
CONTINUOUS
10
4.0167003937007877
20
-2.9884132677165351
11
4.0167066141732279
21
-2.9884142913385827
0
LINE
8
BLACK
6
CONTINUOUS
10
4.0167066141732279
20
-2.9884142913385827
11
4.0168216535433068
21
-2.9884526377952754
0
LINE
8
BLACK
6
CONTINUOUS
10
4.0168216535433068
20
-2.9884526377952754
11
4.0168972440944879
21
-2.9884526377952754
0
LINE
8
BLACK
6
CONTINUOUS
10
4.0168972440944879
20
-2.9884526377952754
11
4.016903464566929
21
-2.9884536614173229
0
LINE
8
BLACK
6
CONTINUOUS
10
4.016903464566929
20
-2.9884536614173229
11
4.0170215748031497
21
-2.9884930314960627
0
LINE
8
BLACK
6
CONTINUOUS
10
4.0170215748031497
20
-2.9884930314960627
11
4.0170241732283465
21
-2.988494094488189
0
LINE
8
BLACK
6
CONTINUOUS
10
4.0170241732283465
20
-2.988494094488189
11
4.0171017322834643
21
-2.988532874015748
0
LINE
8
BLACK
6
CONTINUOUS
10
4.0171017322834643
20
-2.988532874015748
11
4.0172184251968499
21
-2.9885717716535432
0
LINE
8
BLACK
6
CONTINUOUS
10
4.0172184251968499
20
-2.9885717716535432
11
4.0172261417322837
21
-2.9885764960629921
0
LINE
8
BLACK
6
CONTINUOUS
10
4.0172261417322837
20
-2.9885764960629921
11
4.0173026771653539
21
-2.9886530314960629
0
LINE
8
BLACK
6
CONTINUOUS
10
4.0173026771653539
20
-2.9886530314960629
11
4.0173785039370076
21
-2.9886909448818897
0
LINE
8
BLACK
6
CONTINUOUS
10
4.0173785039370076
20
-2.9886909448818897
11
4.0173836220472436
21
-2.9886946062992124
0
LINE
8
BLACK
6
CONTINUOUS
10
4.0173836220472436
20
-2.9886946062992124
11
4.0174601574803148
21
-2.9887711417322835
0
LINE
8
BLACK
6
CONTINUOUS
10
4.0174601574803148
20
-2.9887711417322835
11
4.0175359842519685
21
-2.9888090551181103
0
LINE
8
BLACK
6
CONTINUOUS
10
4.0175359842519685
20
-2.9888090551181103
11
4.0175411023622045
21
-2.988812716535433
0
LINE
8
BLACK
6
CONTINUOUS
10
4.0175411023622045
20
-2.988812716535433
11
4.0178560629921263
21
-2.9891276771653543
0
LINE
8
BLACK
6
CONTINUOUS
10
4.0178560629921263
20
-2.9891276771653543
11
4.0178597244094485
21
-2.9891327952755904
0
LINE
8
BLACK
6
CONTINUOUS
10
4.0178597244094485
20
-2.9891327952755904
11
4.0178976377952758
21
-2.989208622047244
0
LINE
8
BLACK
6
CONTINUOUS
10
4.0178976377952758
20
-2.989208622047244
11
4.017974173228346
21
-2.9892851574803148
0
LINE
8
BLACK
6
CONTINUOUS
10
4.017974173228346
20
-2.9892851574803148
11
4.0179778346456692
21
-2.9892902755905513
0
LINE
8
BLACK
6
CONTINUOUS
10
4.0179778346456692
20
-2.9892902755905513
11
4.0180157480314964
21
-2.9893661023622045
0
LINE
8
BLACK
6
CONTINUOUS
10
4.0180157480314964
20
-2.9893661023622045
11
4.0180922834645667
21
-2.9894426377952756
0
LINE
8
BLACK
6
CONTINUOUS
10
4.0180922834645667
20
-2.9894426377952756
11
4.0180970078740152
21
-2.9894503543307085
0
LINE
8
BLACK
6
CONTINUOUS
10
4.0180970078740152
20
-2.9894503543307085
11
4.0181359055118113
21
-2.9895670472440945
0
LINE
8
BLACK
6
CONTINUOUS
10
4.0181359055118113
20
-2.9895670472440945
11
4.0181746850393703
21
-2.9896446062992124
0
LINE
8
BLACK
6
CONTINUOUS
10
4.0181746850393703
20
-2.9896446062992124
11
4.0181757480314957
21
-2.9896472047244096
0
LINE
8
BLACK
6
CONTINUOUS
10
4.0181757480314957
20
-2.9896472047244096
11
4.0182151181102359
21
-2.9897653149606298
0
LINE
8
BLACK
6
CONTINUOUS
10
4.0182151181102359
20
-2.9897653149606298
11
4.0182161417322835
21
-2.9897715354330709
0
LINE
8
BLACK
6
CONTINUOUS
10
4.0182161417322835
20
-2.9897715354330709
11
4.0182161417322835
21
-2.9898471259842521
0
LINE
8
BLACK
6
CONTINUOUS
10
4.0182161417322835
20
-2.9898471259842521
11
4.0182544881889761
21
-2.9899621653543305
0
LINE
8
BLACK
6
CONTINUOUS
10
4.0182544881889761
20
-2.9899621653543305
11
4.0182555118110237
21
-2.9899683858267716
0
LINE
8
BLACK
6
CONTINUOUS
10
4.0182555118110237
20
-2.9899683858267716
11
4.0182555118110237
21
-2.9900439763779527
0
LINE
8
BLACK
6
CONTINUOUS
10
4.0182555118110237
20
-2.9900439763779527
11
4.0182938582677163
21
-2.9901590157480316
0
LINE
8
BLACK
6
CONTINUOUS
10
4.0182938582677163
20
-2.9901590157480316
11
4.0182948818897639
21
-2.9901652362204723
0
LINE
8
BLACK
6
CONTINUOUS
10
4.0182948818897639
20
-2.9901652362204723
11
4.0182948818897639
21
-3.0019762598425195
0
LINE
8
BLACK
6
CONTINUOUS
10
4.0182948818897639
20
-3.0019762598425195
11
4.0182938582677163
21
-3.0019824803149606
0
LINE
8
BLACK
6
CONTINUOUS
10
4.0182938582677163
20
-3.0019824803149606
11
4.0182555118110237
21
-3.0020975196850395
0
LINE
8
BLACK
6
CONTINUOUS
10
4.0182555118110237
20
-3.0020975196850395
11
4.0182555118110237
21
-3.0021731102362206
0
LINE
8
BLACK
6
CONTINUOUS
10
4.0182555118110237
20
-3.0021731102362206
11
4.0182544881889761
21
-3.0021793307086613
0
LINE
8
BLACK
6
CONTINUOUS
10
4.0182544881889761
20
-3.0021793307086613
11
4.0182161417322835
21
-3.0022943700787401
0
LINE
8
BLACK
6
CONTINUOUS
10
4.0182161417322835
20
-3.0022943700787401
11
4.0182161417322835
21
-3.0023699606299212
0
LINE
8
BLACK
6
CONTINUOUS
10
4.0182161417322835
20
-3.0023699606299212
11
4.0182151181102359
21
-3.0023761811023619
0
LINE
8
BLACK
6
CONTINUOUS
10
4.0182151181102359
20
-3.0023761811023619
11
4.0181757480314957
21
-3.0024942913385826
0
LINE
8
BLACK
6
CONTINUOUS
10
4.0181757480314957
20
-3.0024942913385826
11
4.0181746850393703
21
-3.0024968897637794
0
LINE
8
BLACK
6
CONTINUOUS
10
4.0181746850393703
20
-3.0024968897637794
11
4.0181359055118113
21
-3.0025744488188977
0
LINE
8
BLACK
6
CONTINUOUS
10
4.0181359055118113
20
-3.0025744488188977
11
4.0180970078740152
21
-3.0026911417322832
0
LINE
8
BLACK
6
CONTINUOUS
10
4.0180970078740152
20
-3.0026911417322832
11
4.0180922834645667
21
-3.0026988582677165
0
LINE
8
BLACK
6
CONTINUOUS
10
4.0180922834645667
20
-3.0026988582677165
11
4.0180157480314964
21
-3.0027753937007873
0
LINE
8
BLACK
6
CONTINUOUS
10
4.0180157480314964
20
-3.0027753937007873
11
4.0179778346456692
21
-3.0028512204724409
0
LINE
8
BLACK
6
CONTINUOUS
10
4.0179778346456692
20
-3.0028512204724409
11
4.017974173228346
21
-3.002856338582677
0
LINE
8
BLACK
6
CONTINUOUS
10
4.017974173228346
20
-3.002856338582677
11
4.0178976377952758
21
-3.0029328740157482
0
LINE
8
BLACK
6
CONTINUOUS
10
4.0178976377952758
20
-3.0029328740157482
11
4.0178597244094485
21
-3.0030087007874013
0
LINE
8
BLACK
6
CONTINUOUS
10
4.0178597244094485
20
-3.0030087007874013
11
4.0178560629921263
21
-3.0030138188976379
0
LINE
8
BLACK
6
CONTINUOUS
10
4.0178560629921263
20
-3.0030138188976379
11
4.0175411023622045
21
-3.0033287795275592
0
LINE
8
BLACK
6
CONTINUOUS
10
4.0175411023622045
20
-3.0033287795275592
11
4.0175359842519685
21
-3.0033324409448818
0
LINE
8
BLACK
6
CONTINUOUS
10
4.0175359842519685
20
-3.0033324409448818
11
4.0174601574803148
21
-3.0033703543307086
0
LINE
8
BLACK
6
CONTINUOUS
10
4.0174601574803148
20
-3.0033703543307086
11
4.0173836220472436
21
-3.0034468897637794
0
LINE
8
BLACK
6
CONTINUOUS
10
4.0173836220472436
20
-3.0034468897637794
11
4.0173785039370076
21
-3.0034505511811025
0
LINE
8
BLACK
6
CONTINUOUS
10
4.0173785039370076
20
-3.0034505511811025
11
4.0173026771653539
21
-3.0034884645669289
0
LINE
8
BLACK
6
CONTINUOUS
10
4.0173026771653539
20
-3.0034884645669289
11
4.0172261417322837
21
-3.003565
0
LINE
8
BLACK
6
CONTINUOUS
10
4.0172261417322837
20
-3.003565
11
4.0172184251968499
21
-3.0035697244094486
0
LINE
8
BLACK
6
CONTINUOUS
10
4.0172184251968499
20
-3.0035697244094486
11
4.0171017322834643
21
-3.0036086220472442
0
LINE
8
BLACK
6
CONTINUOUS
10
4.0171017322834643
20
-3.0036086220472442
11
4.0170241732283465
21
-3.0036474015748031
0
LINE
8
BLACK
6
CONTINUOUS
10
4.0170241732283465
20
-3.0036474015748031
11
4.0170215748031497
21
-3.003648464566929
0
LINE
8
BLACK
6
CONTINUOUS
10
4.0170215748031497
20
-3.003648464566929
11
4.016903464566929
21
-3.0036878346456692
0
LINE
8
BLACK
6
CONTINUOUS
10
4.016903464566929
20
-3.0036878346456692
11
4.0168972440944879
21
-3.0036888582677164
0
LINE
8
BLACK
6
CONTINUOUS
10
4.0168972440944879
20
-3.0036888582677164
11
4.0168216535433068
21
-3.0036888582677164
0
LINE
8
BLACK
6
CONTINUOUS
10
4.0168216535433068
20
-3.0036888582677164
11
4.0167066141732279
21
-3.0037272047244095
0
LINE
8
BLACK
6
CONTINUOUS
10
4.0167066141732279
20
-3.0037272047244095
11
4.0167003937007877
21
-3.0037282283464566
0
LINE
8
BLACK
6
CONTINUOUS
10
4.0167003937007877
20
-3.0037282283464566
11
4.0166248031496066
21
-3.0037282283464566
0
LINE
8
BLACK
6
CONTINUOUS
10
4.0166248031496066
20
-3.0037282283464566
11
4.0165097637795277
21
-3.0037665748031497
0
LINE
8
BLACK
6
CONTINUOUS
10
4.0165097637795277
20
-3.0037665748031497
11
4.0165035433070866
21
-3.0037675984251968
0
LINE
8
BLACK
6
CONTINUOUS
10
4.0165035433070866
20
-3.0037675984251968
11
4.014141338582677
21
-3.0037675984251968
0
LINE
8
BLACK
6
CONTINUOUS
10
4.014141338582677
20
-3.0037675984251968
11
4.0141351181102358
21
-3.0037665748031497
0
LINE
8
BLACK
6
CONTINUOUS
10
4.0141351181102358
20
-3.0037665748031497
11
4.014020078740157
21
-3.0037282283464566
0
LINE
8
BLACK
6
CONTINUOUS
10
4.014020078740157
20
-3.0037282283464566
11
4.0139444881889759
21
-3.0037282283464566
0
LINE
8
BLACK
6
CONTINUOUS
10
4.0139444881889759
20
-3.0037282283464566
11
4.0139382677165356
21
-3.0037272047244095
0
LINE
8
BLACK
6
CONTINUOUS
10
4.0139382677165356
20
-3.0037272047244095
11
4.0138232283464568
21
-3.0036888582677164
0
LINE
8
BLACK
6
CONTINUOUS
10
4.0138232283464568
20
-3.0036888582677164
11
4.0137476377952757
21
-3.0036888582677164
0
LINE
8
BLACK
6
CONTINUOUS
10
4.0137476377952757
20
-3.0036888582677164
11
4.0137414173228345
21
-3.0036878346456692
0
LINE
8
BLACK
6
CONTINUOUS
10
4.0137414173228345
20
-3.0036878346456692
11
4.0136233070866139
21
-3.003648464566929
0
LINE
8
BLACK
6
CONTINUOUS
10
4.0136233070866139
20
-3.003648464566929
11
4.0136207086614171
21
-3.0036474015748031
0
LINE
8
BLACK
6
CONTINUOUS
10
4.0136207086614171
20
-3.0036474015748031
11
4.0135431496062992
21
-3.0036086220472442
0
LINE
8
BLACK
6
CONTINUOUS
10
4.0135431496062992
20
-3.0036086220472442
11
4.0134264566929136
21
-3.0035697244094486
0
LINE
8
BLACK
6
CONTINUOUS
10
4.0134264566929136
20
-3.0035697244094486
11
4.0134187401574799
21
-3.003565
0
LINE
8
BLACK
6
CONTINUOUS
10
4.0134187401574799
20
-3.003565
11
4.0133422047244096
21
-3.0034884645669289
0
LINE
8
BLACK
6
CONTINUOUS
10
4.0133422047244096
20
-3.0034884645669289
11
4.013266377952756
21
-3.0034505511811025
0
LINE
8
BLACK
6
CONTINUOUS
10
4.013266377952756
20
-3.0034505511811025
11
4.0132612598425199
21
-3.0034468897637794
0
LINE
8
BLACK
6
CONTINUOUS
10
4.0132612598425199
20
-3.0034468897637794
11
4.0131847244094487
21
-3.0033703543307086
0
LINE
8
BLACK
6
CONTINUOUS
10
4.0131847244094487
20
-3.0033703543307086
11
4.0131088976377951
21
-3.0033324409448818
0
LINE
8
BLACK
6
CONTINUOUS
10
4.0131088976377951
20
-3.0033324409448818
11
4.013103779527559
21
-3.0033287795275592
0
LINE
8
BLACK
6
CONTINUOUS
10
4.013103779527559
20
-3.0033287795275592
11
4.0127888188976373
21
-3.0030138188976379
0
LINE
8
BLACK
6
CONTINUOUS
10
4.0127888188976373
20
-3.0030138188976379
11
4.0127851574803151
21
-3.0030087007874013
0
LINE
8
BLACK
6
CONTINUOUS
10
4.0127851574803151
20
-3.0030087007874013
11
4.0127472440944878
21
-3.0029328740157482
0
LINE
8
BLACK
6
CONTINUOUS
10
4.0127472440944878
20
-3.0029328740157482
11
4.0126707086614175
21
-3.002856338582677
0
LINE
8
BLACK
6
CONTINUOUS
10
4.0126707086614175
20
-3.002856338582677
11
4.0126670472440944
21
-3.0028512204724409
0
LINE
8
BLACK
6
CONTINUOUS
10
4.0126670472440944
20
-3.0028512204724409
11
4.012629133858268
21
-3.0027753937007873
0
LINE
8
BLACK
6
CONTINUOUS
10
4.012629133858268
20
-3.0027753937007873
11
4.0125525984251968
21
-3.0026988582677165
0
LINE
8
BLACK
6
CONTINUOUS
10
4.0125525984251968
20
-3.0026988582677165
11
4.0125478740157483
21
-3.0026911417322832
0
LINE
8
BLACK
6
CONTINUOUS
10
4.0125478740157483
20
-3.0026911417322832
11
4.0125089763779522
21
-3.0025744488188977
0
LINE
8
BLACK
6
CONTINUOUS
10
4.0125089763779522
20
-3.0025744488188977
11
4.0124701968503933
21
-3.0024968897637794
0
LINE
8
BLACK
6
CONTINUOUS
10
4.0124701968503933
20
-3.0024968897637794
11
4.0124691338582679
21
-3.0024942913385826
0
LINE
8
BLACK
6
CONTINUOUS
10
4.0124691338582679
20
-3.0024942913385826
11
4.0124297637795276
21
-3.0023761811023619
0
LINE
8
BLACK
6
CONTINUOUS
10
4.0124297637795276
20
-3.0023761811023619
11
4.0124287401574801
21
-3.0023699606299212
0
LINE
8
BLACK
6
CONTINUOUS
10
4.0124287401574801
20
-3.0023699606299212
11
4.0124287401574801
21
-3.0022943700787401
0
LINE
8
BLACK
6
CONTINUOUS
10
4.0124287401574801
20
-3.0022943700787401
11
4.0123903937007874
21
-3.0021793307086613
0
LINE
8
BLACK
6
CONTINUOUS
10
4.0123903937007874
20
-3.0021793307086613
11
4.0123893700787399
21
-3.0021731102362206
0
LINE
8
BLACK
6
CONTINUOUS
10
4.0123893700787399
20
-3.0021731102362206
11
4.0123893700787399
21
-3.0020975196850395
0
LINE
8
BLACK
6
CONTINUOUS
10
4.0123893700787399
20
-3.0020975196850395
11
4.0123510236220472
21
-3.0019824803149606
0
LINE
8
BLACK
6
CONTINUOUS
10
4.0123510236220472
20
-3.0019824803149606
11
4.0123499999999996
21
-3.0019762598425195
0
LINE
8
BLACK
6
CONTINUOUS
10
4.0123499999999996
20
-3.0019762598425195
11
4.0123499999999996
21
-2.9901652362204723
0
LINE
8
BLACK
6
CONTINUOUS
10
4.0123499999999996
20
-2.9901652362204723
11
4.0123510236220472
21
-2.9901590157480316
0
LINE
8
BLACK
6
CONTINUOUS
10
4.0123510236220472
20
-2.9901590157480316
11
4.0123893700787399
21
-2.9900439763779527
0
LINE
8
BLACK
6
CONTINUOUS
10
4.0123893700787399
20
-2.9900439763779527
11
4.0123893700787399
21
-2.9899683858267716
0
LINE
8
BLACK
6
CONTINUOUS
10
4.0123893700787399
20
-2.9899683858267716
11
4.0123903937007874
21
-2.9899621653543305
0
LINE
8
BLACK
6
CONTINUOUS
10
4.0123903937007874
20
-2.9899621653543305
11
4.0124287401574801
21
-2.9898471259842521
0
LINE
8
BLACK
6
CONTINUOUS
10
4.0124287401574801
20
-2.9898471259842521
11
4.0124287401574801
21
-2.9897715354330709
0
LINE
8
BLACK
6
CONTINUOUS
10
4.0124287401574801
20
-2.9897715354330709
11
4.0124297637795276
21
-2.9897653149606298
0
LINE
8
BLACK
6
CONTINUOUS
10
4.0124297637795276
20
-2.9897653149606298
11
4.0124691338582679
21
-2.9896472047244096
0
LINE
8
BLACK
6
CONTINUOUS
10
4.0124691338582679
20
-2.9896472047244096
11
4.0124701968503933
21
-2.9896446062992124
0
LINE
8
BLACK
6
CONTINUOUS
10
4.0124701968503933
20
-2.9896446062992124
11
4.0125089763779522
21
-2.9895670472440945
0
LINE
8
BLACK
6
CONTINUOUS
10
4.0125089763779522
20
-2.9895670472440945
11
4.0125478740157483
21
-2.9894503543307085
0
LINE
8
BLACK
6
CONTINUOUS
10
4.0125478740157483
20
-2.9894503543307085
11
4.0125525984251968
21
-2.9894426377952756
0
LINE
8
BLACK
6
CONTINUOUS
10
4.0125525984251968
20
-2.9894426377952756
11
4.012629133858268
21
-2.9893661023622045
0
LINE
8
BLACK
6
CONTINUOUS
10
4.012629133858268
20
-2.9893661023622045
11
4.0126670472440944
21
-2.9892902755905513
0
LINE
8
BLACK
6
CONTINUOUS
10
4.0126670472440944
20
-2.9892902755905513
11
4.0126707086614175
21
-2.9892851574803148
0
LINE
8
BLACK
6
CONTINUOUS
10
4.0126707086614175
20
-2.9892851574803148
11
4.0127472440944878
21
-2.989208622047244
0
LINE
8
BLACK
6
CONTINUOUS
10
4.0127472440944878
20
-2.989208622047244
11
4.0127851574803151
21
-2.9891327952755904
0
LINE
8
BLACK
6
CONTINUOUS
10
4.0127851574803151
20
-2.9891327952755904
11
4.0127888188976373
21
-2.9891276771653543
0
LINE
8
BLACK
6
CONTINUOUS
10
4.0127888188976373
20
-2.9891276771653543
11
4.013103779527559
21
-2.988812716535433
0
LINE
8
BLACK
6
CONTINUOUS
10
4.013103779527559
20
-2.988812716535433
11
4.0131088976377951
21
-2.9888090551181103
0
LINE
8
BLACK
6
CONTINUOUS
10
4.0131088976377951
20
-2.9888090551181103
11
4.0131847244094487
21
-2.9887711417322835
0
LINE
8
BLACK
6
CONTINUOUS
10
4.0131847244094487
20
-2.9887711417322835
11
4.0132612598425199
21
-2.9886946062992124
0
LINE
8
BLACK
6
CONTINUOUS
10
4.0132612598425199
20
-2.9886946062992124
11
4.013266377952756
21
-2.9886909448818897
0
LINE
8
BLACK
6
CONTINUOUS
10
4.013266377952756
20
-2.9886909448818897
11
4.0133422047244096
21
-2.9886530314960629
0
LINE
8
BLACK
6
CONTINUOUS
10
4.0133422047244096
20
-2.9886530314960629
11
4.0134187401574799
21
-2.9885764960629921
0
LINE
8
BLACK
6
CONTINUOUS
10
4.0134187401574799
20
-2.9885764960629921
11
4.0134264566929136
21
-2.9885717716535432
0
LINE
8
BLACK
6
CONTINUOUS
10
4.0134264566929136
20
-2.9885717716535432
11
4.0135431496062992
21
-2.988532874015748
0
LINE
8
BLACK
6
CONTINUOUS
10
4.0135431496062992
20
-2.988532874015748
11
4.0136207086614171
21
-2.988494094488189
0
LINE
8
BLACK
6
CONTINUOUS
10
4.0136207086614171
20
-2.988494094488189
11
4.0136233070866139
21
-2.9884930314960627
0
LINE
8
BLACK
6
CONTINUOUS
10
4.0136233070866139
20
-2.9884930314960627
11
4.0137414173228345
21
-2.9884536614173229
0
LINE
8
BLACK
6
CONTINUOUS
10
4.0137414173228345
20
-2.9884536614173229
11
4.0137476377952757
21
-2.9884526377952754
0
LINE
8
BLACK
6
CONTINUOUS
10
4.0137476377952757
20
-2.9884526377952754
11
4.0138232283464568
21
-2.9884526377952754
0
LINE
8
BLACK
6
CONTINUOUS
10
4.0138232283464568
20
-2.9884526377952754
11
4.0139382677165356
21
-2.9884142913385827
0
LINE
8
BLACK
6
CONTINUOUS
10
4.0139382677165356
20
-2.9884142913385827
11
4.0139444881889759
21
-2.9884132677165351
0
LINE
8
BLACK
6
CONTINUOUS
10
4.0139444881889759
20
-2.9884132677165351
11
4.014020078740157
21
-2.9884132677165351
0
LINE
8
BLACK
6
CONTINUOUS
10
4.014020078740157
20
-2.9884132677165351
11
4.0141351181102358
21
-2.9883749212598425
0
LINE
8
BLACK
6
CONTINUOUS
10
4.0141351181102358
20
-2.9883749212598425
11
4.014141338582677
21
-2.9883738976377954
0
LINE
8
BLACK
6
CONTINUOUS
10
4.014141338582677
20
-2.9883738976377954
11
4.0165035433070866
21
-2.9883738976377954
0
LINE
8
BLACK
6
CONTINUOUS
10
4.0165035433070866
20
-2.9883738976377954
11
4.0165097637795277
21
-2.9883749212598425
0
LINE
8
BLACK
6
CONTINUOUS
10
4.0361948031496064
20
-2.9883749212598425
11
4.0363098425196853
21
-2.9884132677165351
0
LINE
8
BLACK
6
CONTINUOUS
10
4.0363098425196853
20
-2.9884132677165351
11
4.0363854330708664
21
-2.9884132677165351
0
LINE
8
BLACK
6
CONTINUOUS
10
4.0363854330708664
20
-2.9884132677165351
11
4.0363916535433066
21
-2.9884142913385827
0
LINE
8
BLACK
6
CONTINUOUS
10
4.0363916535433066
20
-2.9884142913385827
11
4.0365066929133855
21
-2.9884526377952754
0
LINE
8
BLACK
6
CONTINUOUS
10
4.0365066929133855
20
-2.9884526377952754
11
4.0365822834645666
21
-2.9884526377952754
0
LINE
8
BLACK
6
CONTINUOUS
10
4.0365822834645666
20
-2.9884526377952754
11
4.0365885039370077
21
-2.9884536614173229
0
LINE
8
BLACK
6
CONTINUOUS
10
4.0365885039370077
20
-2.9884536614173229
11
4.0367066141732284
21
-2.9884930314960627
0
LINE
8
BLACK
6
CONTINUOUS
10
4.0367066141732284
20
-2.9884930314960627
11
4.0367092125984252
21
-2.988494094488189
0
LINE
8
BLACK
6
CONTINUOUS
10
4.0367092125984252
20
-2.988494094488189
11
4.036786771653543
21
-2.988532874015748
0
LINE
8
BLACK
6
CONTINUOUS
10
4.036786771653543
20
-2.988532874015748
11
4.0369034645669286
21
-2.9885717716535432
0
LINE
8
BLACK
6
CONTINUOUS
10
4.0369034645669286
20
-2.9885717716535432
11
4.0369111811023624
21
-2.9885764960629921
0
LINE
8
BLACK
6
CONTINUOUS
10
4.0369111811023624
20
-2.9885764960629921
11
4.0369877165354326
21
-2.9886530314960629
0
LINE
8
BLACK
6
CONTINUOUS
10
4.0369877165354326
20
-2.9886530314960629
11
4.0370635433070863
21
-2.9886909448818897
0
LINE
8
BLACK
6
CONTINUOUS
10
4.0370635433070863
20
-2.9886909448818897
11
4.0370686614173223
21
-2.9886946062992124
0
LINE
8
BLACK
6
CONTINUOUS
10
4.0370686614173223
20
-2.9886946062992124
11
4.0371451968503935
21
-2.9887711417322835
0
LINE
8
BLACK
6
CONTINUOUS
10
4.0371451968503935
20
-2.9887711417322835
11
4.0372210236220472
21
-2.9888090551181103
0
LINE
8
BLACK
6
CONTINUOUS
10
4.0372210236220472
20
-2.9888090551181103
11
4.0372261417322832
21
-2.988812716535433
0
LINE
8
BLACK
6
CONTINUOUS
10
4.0372261417322832
20
-2.988812716535433
11
4.037541102362205
21
-2.9891276771653543
0
LINE
8
BLACK
6
CONTINUOUS
10
4.037541102362205
20
-2.9891276771653543
11
4.0375447637795272
21
-2.9891327952755904
0
LINE
8
BLACK
6
CONTINUOUS
10
4.0375447637795272
20
-2.9891327952755904
11
4.0375826771653545
21
-2.989208622047244
0
LINE
8
BLACK
6
CONTINUOUS
10
4.0375826771653545
20
-2.989208622047244
11
4.0376592125984248
21
-2.9892851574803148
0
LINE
8
BLACK
6
CONTINUOUS
10
4.0376592125984248
20
-2.9892851574803148
11
4.0376628740157479
21
-2.9892902755905513
0
LINE
8
BLACK
6
CONTINUOUS
10
4.0376628740157479
20
-2.9892902755905513
11
4.0377007874015751
21
-2.9893661023622045
0
LINE
8
BLACK
6
CONTINUOUS
10
4.0377007874015751
20
-2.9893661023622045
11
4.0377773228346454
21
-2.9894426377952756
0
LINE
8
BLACK
6
CONTINUOUS
10
4.0377773228346454
20
-2.9894426377952756
11
4.037782047244094
21
-2.9894503543307085
0
LINE
8
BLACK
6
CONTINUOUS
10
4.037782047244094
20
-2.9894503543307085
11
4.03782094488189
21
-2.9895670472440945
0
LINE
8
BLACK
6
CONTINUOUS
10
4.03782094488189
20
-2.9895670472440945
11
4.037859724409449
21
-2.9896446062992124
0
LINE
8
BLACK
6
CONTINUOUS
10
4.037859724409449
20
-2.9896446062992124
11
4.0378607874015744
21
-2.9896472047244096
0
LINE
8
BLACK
6
CONTINUOUS
10
4.0378607874015744
20
-2.9896472047244096
11
4.0379001574803146
21
-2.9897653149606298
0
LINE
8
BLACK
6
CONTINUOUS
10
4.0379001574803146
20
-2.9897653149606298
11
4.0379011811023622
21
-2.9897715354330709
0
LINE
8
BLACK
6
CONTINUOUS
10
4.0379011811023622
20
-2.9897715354330709
11
4.0379011811023622
21
-2.9898471259842521
0
LINE
8
BLACK
6
CONTINUOUS
10
4.0379011811023622
20
-2.9898471259842521
11
4.0379395275590548
21
-2.9899621653543305
0
LINE
8
BLACK
6
CONTINUOUS
10
4.0379395275590548
20
-2.9899621653543305
11
4.0379405511811024
21
-2.9899683858267716
0
LINE
8
BLACK
6
CONTINUOUS
10
4.0379405511811024
20
-2.9899683858267716
11
4.0379405511811024
21
-2.9900439763779527
0
LINE
8
BLACK
6
CONTINUOUS
10
4.0379405511811024
20
-2.9900439763779527
11
4.0379788976377951
21
-2.9901590157480316
0
LINE
8
BLACK
6
CONTINUOUS
10
4.0379788976377951
20
-2.9901590157480316
11
4.0379799212598426
21
-2.9901652362204723
0
LINE
8
BLACK
6
CONTINUOUS
10
4.0379799212598426
20
-2.9901652362204723
11
4.0379799212598426
21
-3.0019762598425195
0
LINE
8
BLACK
6
CONTINUOUS
10
4.0379799212598426
20
-3.0019762598425195
11
4.0379788976377951
21
-3.0019824803149606
0
LINE
8
BLACK
6
CONTINUOUS
10
4.0379788976377951
20
-3.0019824803149606
11
4.0379405511811024
21
-3.0020975196850395
0
LINE
8
BLACK
6
CONTINUOUS
10
4.0379405511811024
20
-3.0020975196850395
11
4.0379405511811024
21
-3.0021731102362206
0
LINE
8
BLACK
6
CONTINUOUS
10
4.0379405511811024
20
-3.0021731102362206
11
4.0379395275590548
21
-3.0021793307086613
0
LINE
8
BLACK
6
CONTINUOUS
10
4.0379395275590548
20
-3.0021793307086613
11
4.0379011811023622
21
-3.0022943700787401
0
LINE
8
BLACK
6
CONTINUOUS
10
4.0379011811023622
20
-3.0022943700787401
11
4.0379011811023622
21
-3.0023699606299212
0
LINE
8
BLACK
6
CONTINUOUS
10
4.0379011811023622
20
-3.0023699606299212
11
4.0379001574803146
21
-3.0023761811023619
0
LINE
8
BLACK
6
CONTINUOUS
10
4.0379001574803146
20
-3.0023761811023619
11
4.0378607874015744
21
-3.0024942913385826
0
LINE
8
BLACK
6
CONTINUOUS
10
4.0378607874015744
20
-3.0024942913385826
11
4.037859724409449
21
-3.0024968897637794
0
LINE
8
BLACK
6
CONTINUOUS
10
4.037859724409449
20
-3.0024968897637794
11
4.03782094488189
21
-3.0025744488188977
0
LINE
8
BLACK
6
CONTINUOUS
10
4.03782094488189
20
-3.0025744488188977
11
4.037782047244094
21
-3.0026911417322832
0
LINE
8
BLACK
6
CONTINUOUS
10
4.037782047244094
20
-3.0026911417322832
11
4.0377773228346454
21
-3.0026988582677165
0
LINE
8
BLACK
6
CONTINUOUS
10
4.0377773228346454
20
-3.0026988582677165
11
4.0377007874015751
21
-3.0027753937007873
0
LINE
8
BLACK
6
CONTINUOUS
10
4.0377007874015751
20
-3.0027753937007873
11
4.0376628740157479
21
-3.0028512204724409
0
LINE
8
BLACK
6
CONTINUOUS
10
4.0376628740157479
20
-3.0028512204724409
11
4.0376592125984248
21
-3.002856338582677
0
LINE
8
BLACK
6
CONTINUOUS
10
4.0376592125984248
20
-3.002856338582677
11
4.0375826771653545
21
-3.0029328740157482
0
LINE
8
BLACK
6
CONTINUOUS
10
4.0375826771653545
20
-3.0029328740157482
11
4.0375447637795272
21
-3.0030087007874013
0
LINE
8
BLACK
6
CONTINUOUS
10
4.0375447637795272
20
-3.0030087007874013
11
4.037541102362205
21
-3.0030138188976379
0
LINE
8
BLACK
6
CONTINUOUS
10
4.037541102362205
20
-3.0030138188976379
11
4.0372261417322832
21
-3.0033287795275592
0
LINE
8
BLACK
6
CONTINUOUS
10
4.0372261417322832
20
-3.0033287795275592
11
4.0372210236220472
21
-3.0033324409448818
0
LINE
8
BLACK
6
CONTINUOUS
10
4.0372210236220472
20
-3.0033324409448818
11
4.0371451968503935
21
-3.0033703543307086
0
LINE
8
BLACK
6
CONTINUOUS
10
4.0371451968503935
20
-3.0033703543307086
11
4.0370686614173223
21
-3.0034468897637794
0
LINE
8
BLACK
6
CONTINUOUS
10
4.0370686614173223
20
-3.0034468897637794
11
4.0370635433070863
21
-3.0034505511811025
0
LINE
8
BLACK
6
CONTINUOUS
10
4.0370635433070863
20
-3.0034505511811025
11
4.0369877165354326
21
-3.0034884645669289
0
LINE
8
BLACK
6
CONTINUOUS
10
4.0369877165354326
20
-3.0034884645669289
11
4.0369111811023624
21
-3.003565
0
LINE
8
BLACK
6
CONTINUOUS
10
4.0369111811023624
20
-3.003565
11
4.0369034645669286
21
-3.0035697244094486
0
LINE
8
BLACK
6
CONTINUOUS
10
4.0369034645669286
20
-3.0035697244094486
11
4.036786771653543
21
-3.0036086220472442
0
LINE
8
BLACK
6
CONTINUOUS
10
4.036786771653543
20
-3.0036086220472442
11
4.0367092125984252
21
-3.0036474015748031
0
LINE
8
BLACK
6
CONTINUOUS
10
4.0367092125984252
20
-3.0036474015748031
11
4.0367066141732284
21
-3.003648464566929
0
LINE
8
BLACK
6
CONTINUOUS
10
4.0367066141732284
20
-3.003648464566929
11
4.0365885039370077
21
-3.0036878346456692
0
LINE
8
BLACK
6
CONTINUOUS
10
4.0365885039370077
20
-3.0036878346456692
11
4.0365822834645666
21
-3.0036888582677164
0
LINE
8
BLACK
6
CONTINUOUS
10
4.0365822834645666
20
-3.0036888582677164
11
4.0365066929133855
21
-3.0036888582677164
0
LINE
8
BLACK
6
CONTINUOUS
10
4.0365066929133855
20
-3.0036888582677164
11
4.0363916535433066
21
-3.0037272047244095
0
LINE
8
BLACK
6
CONTINUOUS
10
4.0363916535433066
20
-3.0037272047244095
11
4.0363854330708664
21
-3.0037282283464566
0
LINE
8
BLACK
6
CONTINUOUS
10
4.0363854330708664
20
-3.0037282283464566
11
4.0363098425196853
21
-3.0037282283464566
0
LINE
8
BLACK
6
CONTINUOUS
10
4.0363098425196853
20
-3.0037282283464566
11
4.0361948031496064
21
-3.0037665748031497
0
LINE
8
BLACK
6
CONTINUOUS
10
4.0361948031496064
20
-3.0037665748031497
11
4.0361885826771653
21
-3.0037675984251968
0
LINE
8
BLACK
6
CONTINUOUS
10
4.0361885826771653
20
-3.0037675984251968
11
4.0338263779527557
21
-3.0037675984251968
0
LINE
8
BLACK
6
CONTINUOUS
10
4.0338263779527557
20
-3.0037675984251968
11
4.0338201574803145
21
-3.0037665748031497
0
LINE
8
BLACK
6
CONTINUOUS
10
4.0338201574803145
20
-3.0037665748031497
11
4.0337051181102357
21
-3.0037282283464566
0
LINE
8
BLACK
6
CONTINUOUS
10
4.0337051181102357
20
-3.0037282283464566
11
4.0336295275590555
21
-3.0037282283464566
0
LINE
8
BLACK
6
CONTINUOUS
10
4.0336295275590555
20
-3.0037282283464566
11
4.0336233070866143
21
-3.0037272047244095
0
LINE
8
BLACK
6
CONTINUOUS
10
4.0336233070866143
20
-3.0037272047244095
11
4.0335082677165355
21
-3.0036888582677164
0
LINE
8
BLACK
6
CONTINUOUS
10
4.0335082677165355
20
-3.0036888582677164
11
4.0334326771653544
21
-3.0036888582677164
0
LINE
8
BLACK
6
CONTINUOUS
10
4.0334326771653544
20
-3.0036888582677164
11
4.0334264566929132
21
-3.0036878346456692
0
LINE
8
BLACK
6
CONTINUOUS
10
4.0334264566929132
20
-3.0036878346456692
11
4.0333083464566926
21
-3.003648464566929
0
LINE
8
BLACK
6
CONTINUOUS
10
4.0333083464566926
20
-3.003648464566929
11
4.0333057480314958
21
-3.0036474015748031
0
LINE
8
BLACK
6
CONTINUOUS
10
4.0333057480314958
20
-3.0036474015748031
11
4.0332281889763779
21
-3.0036086220472442
0
LINE
8
BLACK
6
CONTINUOUS
10
4.0332281889763779
20
-3.0036086220472442
11
4.0331114960629924
21
-3.0035697244094486
0
LINE
8
BLACK
6
CONTINUOUS
10
4.0331114960629924
20
-3.0035697244094486
11
4.0331037795275586
21
-3.003565
0
LINE
8
BLACK
6
CONTINUOUS
10
4.0331037795275586
20
-3.003565
11
4.0330272440944883
21
-3.0034884645669289
0
LINE
8
BLACK
6
CONTINUOUS
10
4.0330272440944883
20
-3.0034884645669289
11
4.0329514173228347
21
-3.0034505511811025
0
LINE
8
BLACK
6
CONTINUOUS
10
4.0329514173228347
20
-3.0034505511811025
11
4.0329462992125986
21
-3.0034468897637794
0
LINE
8
BLACK
6
CONTINUOUS
10
4.0329462992125986
20
-3.0034468897637794
11
4.0328697637795274
21
-3.0033703543307086
0
LINE
8
BLACK
6
CONTINUOUS
10
4.0328697637795274
20
-3.0033703543307086
11
4.0327939370078738
21
-3.0033324409448818
0
LINE
8
BLACK
6
CONTINUOUS
10
4.0327939370078738
20
-3.0033324409448818
11
4.0327888188976377
21
-3.0033287795275592
0
LINE
8
BLACK
6
CONTINUOUS
10
4.0327888188976377
20
-3.0033287795275592
11
4.0324738582677169
21
-3.0030138188976379
0
LINE
8
BLACK
6
CONTINUOUS
10
4.0324738582677169
20
-3.0030138188976379
11
4.0324701968503938
21
-3.0030087007874013
0
LINE
8
BLACK
6
CONTINUOUS
10
4.0324701968503938
20
-3.0030087007874013
11
4.0324322834645665
21
-3.0029328740157482
0
LINE
8
BLACK
6
CONTINUOUS
10
4.0324322834645665
20
-3.0029328740157482
11
4.0323557480314962
21
-3.002856338582677
0
LINE
8
BLACK
6
CONTINUOUS
10
4.0323557480314962
20
-3.002856338582677
11
4.0323520866141731
21
-3.0028512204724409
0
LINE
8
BLACK
6
CONTINUOUS
10
4.0323520866141731
20
-3.0028512204724409
11
4.0323141732283467
21
-3.0027753937007873
0
LINE
8
BLACK
6
CONTINUOUS
10
4.0323141732283467
20
-3.0027753937007873
11
4.0322376377952756
21
-3.0026988582677165
0
LINE
8
BLACK
6
CONTINUOUS
10
4.0322376377952756
20
-3.0026988582677165
11
4.032232913385827
21
-3.0026911417322832
0
LINE
8
BLACK
6
CONTINUOUS
10
4.032232913385827
20
-3.0026911417322832
11
4.0321940157480318
21
-3.0025744488188977
0
LINE
8
BLACK
6
CONTINUOUS
10
4.0321940157480318
20
-3.0025744488188977
11
4.032155236220472
21
-3.0024968897637794
0
LINE
8
BLACK
6
CONTINUOUS
10
4.032155236220472
20
-3.0024968897637794
11
4.0321541732283466
21
-3.0024942913385826
0
LINE
8
BLACK
6
CONTINUOUS
10
4.0321541732283466
20
-3.0024942913385826
11
4.0321148031496064
21
-3.0023761811023619
0
LINE
8
BLACK
6
CONTINUOUS
10
4.0321148031496064
20
-3.0023761811023619
11
4.0321137795275588
21
-3.0023699606299212
0
LINE
8
BLACK
6
CONTINUOUS
10
4.0321137795275588
20
-3.0023699606299212
11
4.0321137795275588
21
-3.0022943700787401
0
LINE
8
BLACK
6
CONTINUOUS
10
4.0321137795275588
20
-3.0022943700787401
11
4.0320754330708661
21
-3.0021793307086613
0
LINE
8
BLACK
6
CONTINUOUS
10
4.0320754330708661
20
-3.0021793307086613
11
4.0320744094488186
21
-3.0021731102362206
0
LINE
8
BLACK
6
CONTINUOUS
10
4.0320744094488186
20
-3.0021731102362206
11
4.0320744094488186
21
-3.0020975196850395
0
LINE
8
BLACK
6
CONTINUOUS
10
4.0320744094488186
20
-3.0020975196850395
11
4.0320360629921259
21
-3.0019824803149606
0
LINE
8
BLACK
6
CONTINUOUS
10
4.0320360629921259
20
-3.0019824803149606
11
4.0320350393700783
21
-3.0019762598425195
0
LINE
8
BLACK
6
CONTINUOUS
10
4.0320350393700783
20
-3.0019762598425195
11
4.0320350393700783
21
-2.9901652362204723
0
LINE
8
BLACK
6
CONTINUOUS
10
4.0320350393700783
20
-2.9901652362204723
11
4.0320360629921259
21
-2.9901590157480316
0
LINE
8
BLACK
6
CONTINUOUS
10
4.0320360629921259
20
-2.9901590157480316
11
4.0320744094488186
21
-2.9900439763779527
0
LINE
8
BLACK
6
CONTINUOUS
10
4.0320744094488186
20
-2.9900439763779527
11
4.0320744094488186
21
-2.9899683858267716
0
LINE
8
BLACK
6
CONTINUOUS
10
4.0320744094488186
20
-2.9899683858267716
11
4.0320754330708661
21
-2.9899621653543305
0
LINE
8
BLACK
6
CONTINUOUS
10
4.0320754330708661
20
-2.9899621653543305
11
4.0321137795275588
21
-2.9898471259842521
0
LINE
8
BLACK
6
CONTINUOUS
10
4.0321137795275588
20
-2.9898471259842521
11
4.0321137795275588
21
-2.9897715354330709
0
LINE
8
BLACK
6
CONTINUOUS
10
4.0321137795275588
20
-2.9897715354330709
11
4.0321148031496064
21
-2.9897653149606298
0
LINE
8
BLACK
6
CONTINUOUS
10
4.0321148031496064
20
-2.9897653149606298
11
4.0321541732283466
21
-2.9896472047244096
0
LINE
8
BLACK
6
CONTINUOUS
10
4.0321541732283466
20
-2.9896472047244096
11
4.032155236220472
21
-2.9896446062992124
0
LINE
8
BLACK
6
CONTINUOUS
10
4.032155236220472
20
-2.9896446062992124
11
4.0321940157480318
21
-2.9895670472440945
0
LINE
8
BLACK
6
CONTINUOUS
10
4.0321940157480318
20
-2.9895670472440945
11
4.032232913385827
21
-2.9894503543307085
0
LINE
8
BLACK
6
CONTINUOUS
10
4.032232913385827
20
-2.9894503543307085
11
4.0322376377952756
21
-2.9894426377952756
0
LINE
8
BLACK
6
CONTINUOUS
10
4.0322376377952756
20
-2.9894426377952756
11
4.0323141732283467
21
-2.9893661023622045
0
LINE
8
BLACK
6
CONTINUOUS
10
4.0323141732283467
20
-2.9893661023622045
11
4.0323520866141731
21
-2.9892902755905513
0
LINE
8
BLACK
6
CONTINUOUS
10
4.0323520866141731
20
-2.9892902755905513
11
4.0323557480314962
21
-2.9892851574803148
0
LINE
8
BLACK
6
CONTINUOUS
10
4.0323557480314962
20
-2.9892851574803148
11
4.0324322834645665
21
-2.989208622047244
0
LINE
8
BLACK
6
CONTINUOUS
10
4.0324322834645665
20
-2.989208622047244
11
4.0324701968503938
21
-2.9891327952755904
0
LINE
8
BLACK
6
CONTINUOUS
10
4.0324701968503938
20
-2.9891327952755904
11
4.0324738582677169
21
-2.9891276771653543
0
LINE
8
BLACK
6
CONTINUOUS
10
4.0324738582677169
20
-2.9891276771653543
11
4.0327888188976377
21
-2.988812716535433
0
LINE
8
BLACK
6
CONTINUOUS
10
4.0327888188976377
20
-2.988812716535433
11
4.0327939370078738
21
-2.9888090551181103
0
LINE
8
BLACK
6
CONTINUOUS
10
4.0327939370078738
20
-2.9888090551181103
11
4.0328697637795274
21
-2.9887711417322835
0
LINE
8
BLACK
6
CONTINUOUS
10
4.0328697637795274
20
-2.9887711417322835
11
4.0329462992125986
21
-2.9886946062992124
0
LINE
8
BLACK
6
CONTINUOUS
10
4.0329462992125986
20
-2.9886946062992124
11
4.0329514173228347
21
-2.9886909448818897
0
LINE
8
BLACK
6
CONTINUOUS
10
4.0329514173228347
20
-2.9886909448818897
11
4.0330272440944883
21
-2.9886530314960629
0
LINE
8
BLACK
6
CONTINUOUS
10
4.0330272440944883
20
-2.9886530314960629
11
4.0331037795275586
21
-2.9885764960629921
0
LINE
8
BLACK
6
CONTINUOUS
10
4.0331037795275586
20
-2.9885764960629921
11
4.0331114960629924
21
-2.9885717716535432
0
LINE
8
BLACK
6
CONTINUOUS
10
4.0331114960629924
20
-2.9885717716535432
11
4.0332281889763779
21
-2.988532874015748
0
LINE
8
BLACK
6
CONTINUOUS
10
4.0332281889763779
20
-2.988532874015748
11
4.0333057480314958
21
-2.988494094488189
0
LINE
8
BLACK
6
CONTINUOUS
10
4.0333057480314958
20
-2.988494094488189
11
4.0333083464566926
21
-2.9884930314960627
0
LINE
8
BLACK
6
CONTINUOUS
10
4.0333083464566926
20
-2.9884930314960627
11
4.0334264566929132
21
-2.9884536614173229
0
LINE
8
BLACK
6
CONTINUOUS
10
4.0334264566929132
20
-2.9884536614173229
11
4.0334326771653544
21
-2.9884526377952754
0
LINE
8
BLACK
6
CONTINUOUS
10
4.0334326771653544
20
-2.9884526377952754
11
4.0335082677165355
21
-2.9884526377952754
0
LINE
8
BLACK
6
CONTINUOUS
10
4.0335082677165355
20
-2.9884526377952754
11
4.0336233070866143
21
-2.9884142913385827
0
LINE
8
BLACK
6
CONTINUOUS
10
4.0336233070866143
20
-2.9884142913385827
11
4.0336295275590555
21
-2.9884132677165351
0
LINE
8
BLACK
6
CONTINUOUS
10
4.0336295275590555
20
-2.9884132677165351
11
4.0337051181102357
21
-2.9884132677165351
0
LINE
8
BLACK
6
CONTINUOUS
10
4.0337051181102357
20
-2.9884132677165351
11
4.0338201574803145
21
-2.9883749212598425
0
LINE
8
BLACK
6
CONTINUOUS
10
4.0338201574803145
20
-2.9883749212598425
11
4.0338263779527557
21
-2.9883738976377954
0
LINE
8
BLACK
6
CONTINUOUS
10
4.0338263779527557
20
-2.9883738976377954
11
4.0361885826771653
21
-2.9883738976377954
0
LINE
8
BLACK
6
CONTINUOUS
10
4.0361885826771653
20
-2.9883738976377954
11
4.0361948031496064
21
-2.9883749212598425
0
LINE
8
BLACK
6
CONTINUOUS
10
4.0558798425196851
20
-2.9883749212598425
11
4.055994881889764
21
-2.9884132677165351
0
LINE
8
BLACK
6
CONTINUOUS
10
4.055994881889764
20
-2.9884132677165351
11
4.0560704724409451
21
-2.9884132677165351
0
LINE
8
BLACK
6
CONTINUOUS
10
4.0560704724409451
20
-2.9884132677165351
11
4.0560766929133854
21
-2.9884142913385827
0
LINE
8
BLACK
6
CONTINUOUS
10
4.0560766929133854
20
-2.9884142913385827
11
4.0561917322834642
21
-2.9884526377952754
0
LINE
8
BLACK
6
CONTINUOUS
10
4.0561917322834642
20
-2.9884526377952754
11
4.0562673228346453
21
-2.9884526377952754
0
LINE
8
BLACK
6
CONTINUOUS
10
4.0562673228346453
20
-2.9884526377952754
11
4.0562735433070864
21
-2.9884536614173229
0
LINE
8
BLACK
6
CONTINUOUS
10
4.0562735433070864
20
-2.9884536614173229
11
4.0563916535433071
21
-2.9884930314960627
0
LINE
8
BLACK
6
CONTINUOUS
10
4.0563916535433071
20
-2.9884930314960627
11
4.0563942519685039
21
-2.988494094488189
0
LINE
8
BLACK
6
CONTINUOUS
10
4.0563942519685039
20
-2.988494094488189
11
4.0564718110236218
21
-2.988532874015748
0
LINE
8
BLACK
6
CONTINUOUS
10
4.0564718110236218
20
-2.988532874015748
11
4.0565885039370082
21
-2.9885717716535432
0
LINE
8
BLACK
6
CONTINUOUS
10
4.0565885039370082
20
-2.9885717716535432
11
4.0565962204724411
21
-2.9885764960629921
0
LINE
8
BLACK
6
CONTINUOUS
10
4.0565962204724411
20
-2.9885764960629921
11
4.0566727559055114
21
-2.9886530314960629
0
LINE
8
BLACK
6
CONTINUOUS
10
4.0566727559055114
20
-2.9886530314960629
11
4.056748582677165
21
-2.9886909448818897
0
LINE
8
BLACK
6
CONTINUOUS
10
4.056748582677165
20
-2.9886909448818897
11
4.0567537007874011
21
-2.9886946062992124
0
LINE
8
BLACK
6
CONTINUOUS
10
4.0567537007874011
20
-2.9886946062992124
11
4.0568302362204722
21
-2.9887711417322835
0
LINE
8
BLACK
6
CONTINUOUS
10
4.0568302362204722
20
-2.9887711417322835
11
4.0569060629921259
21
-2.9888090551181103
0
LINE
8
BLACK
6
CONTINUOUS
10
4.0569060629921259
20
-2.9888090551181103
11
4.0569111811023619
21
-2.988812716535433
0
LINE
8
BLACK
6
CONTINUOUS
10
4.0569111811023619
20
-2.988812716535433
11
4.0572261417322837
21
-2.9891276771653543
0
LINE
8
BLACK
6
CONTINUOUS
10
4.0572261417322837
20
-2.9891276771653543
11
4.0572298031496059
21
-2.9891327952755904
0
LINE
8
BLACK
6
CONTINUOUS
10
4.0572298031496059
20
-2.9891327952755904
11
4.0572677165354332
21
-2.989208622047244
0
LINE
8
BLACK
6
CONTINUOUS
10
4.0572677165354332
20
-2.989208622047244
11
4.0573442519685035
21
-2.9892851574803148
0
LINE
8
BLACK
6
CONTINUOUS
10
4.0573442519685035
20
-2.9892851574803148
11
4.0573479133858266
21
-2.9892902755905513
0
LINE
8
BLACK
6
CONTINUOUS
10
4.0573479133858266
20
-2.9892902755905513
11
4.0573858267716538
21
-2.9893661023622045
0
LINE
8
BLACK
6
CONTINUOUS
10
4.0573858267716538
20
-2.9893661023622045
11
4.0574623622047241
21
-2.9894426377952756
0
LINE
8
BLACK
6
CONTINUOUS
10
4.0574623622047241
20
-2.9894426377952756
11
4.0574670866141735
21
-2.9894503543307085
0
LINE
8
BLACK
6
CONTINUOUS
10
4.0574670866141735
20
-2.9894503543307085
11
4.0575059842519687
21
-2.9895670472440945
0
LINE
8
BLACK
6
CONTINUOUS
10
4.0575059842519687
20
-2.9895670472440945
11
4.0575447637795277
21
-2.9896446062992124
0
LINE
8
BLACK
6
CONTINUOUS
10
4.0575447637795277
20
-2.9896446062992124
11
4.0575458267716531
21
-2.9896472047244096
0
LINE
8
BLACK
6
CONTINUOUS
10
4.0575458267716531
20
-2.9896472047244096
11
4.0575851968503933
21
-2.9897653149606298
0
LINE
8
BLACK
6
CONTINUOUS
10
4.0575851968503933
20
-2.9897653149606298
11
4.0575862204724409
21
-2.9897715354330709
0
LINE
8
BLACK
6
CONTINUOUS
10
4.0575862204724409
20
-2.9897715354330709
11
4.0575862204724409
21
-2.9898471259842521
0
LINE
8
BLACK
6
CONTINUOUS
10
4.0575862204724409
20
-2.9898471259842521
11
4.0576245669291335
21
-2.9899621653543305
0
LINE
8
BLACK
6
CONTINUOUS
10
4.0576245669291335
20
-2.9899621653543305
11
4.0576255905511811
21
-2.9899683858267716
0
LINE
8
BLACK
6
CONTINUOUS
10
4.0576255905511811
20
-2.9899683858267716
11
4.0576255905511811
21
-2.9900439763779527
0
LINE
8
BLACK
6
CONTINUOUS
10
4.0576255905511811
20
-2.9900439763779527
11
4.0576639370078738
21
-2.9901590157480316
0
LINE
8
BLACK
6
CONTINUOUS
10
4.0576639370078738
20
-2.9901590157480316
11
4.0576649606299213
21
-2.9901652362204723
0
LINE
8
BLACK
6
CONTINUOUS
10
4.0576649606299213
20
-2.9901652362204723
11
4.0576649606299213
21
-3.0019762598425195
0
LINE
8
BLACK
6
CONTINUOUS
10
4.0576649606299213
20
-3.0019762598425195
11
4.0576639370078738
21
-3.0019824803149606
0
LINE
8
BLACK
6
CONTINUOUS
10
4.0576639370078738
20
-3.0019824803149606
11
4.0576255905511811
21
-3.0020975196850395
0
LINE
8
BLACK
6
CONTINUOUS
10
4.0576255905511811
20
-3.0020975196850395
11
4.0576255905511811
21
-3.0021731102362206
0
LINE
8
BLACK
6
CONTINUOUS
10
4.0576255905511811
20
-3.0021731102362206
11
4.0576245669291335
21
-3.0021793307086613
0
LINE
8
BLACK
6
CONTINUOUS
10
4.0576245669291335
20
-3.0021793307086613
11
4.0575862204724409
21
-3.0022943700787401
0
LINE
8
BLACK
6
CONTINUOUS
10
4.0575862204724409
20
-3.0022943700787401
11
4.0575862204724409
21
-3.0023699606299212
0
LINE
8
BLACK
6
CONTINUOUS
10
4.0575862204724409
20
-3.0023699606299212
11
4.0575851968503933
21
-3.0023761811023619
0
LINE
8
BLACK
6
CONTINUOUS
10
4.0575851968503933
20
-3.0023761811023619
11
4.0575458267716531
21
-3.0024942913385826
0
LINE
8
BLACK
6
CONTINUOUS
10
4.0575458267716531
20
-3.0024942913385826
11
4.0575447637795277
21
-3.0024968897637794
0
LINE
8
BLACK
6
CONTINUOUS
10
4.0575447637795277
20
-3.0024968897637794
11
4.0575059842519687
21
-3.0025744488188977
0
LINE
8
BLACK
6
CONTINUOUS
10
4.0575059842519687
20
-3.0025744488188977
11
4.0574670866141735
21
-3.0026911417322832
0
LINE
8
BLACK
6
CONTINUOUS
10
4.0574670866141735
20
-3.0026911417322832
11
4.0574623622047241
21
-3.0026988582677165
0
LINE
8
BLACK
6
CONTINUOUS
10
4.0574623622047241
20
-3.0026988582677165
11
4.0573858267716538
21
-3.0027753937007873
0
LINE
8
BLACK
6
CONTINUOUS
10
4.0573858267716538
20
-3.0027753937007873
11
4.0573479133858266
21
-3.0028512204724409
0
LINE
8
BLACK
6
CONTINUOUS
10
4.0573479133858266
20
-3.0028512204724409
11
4.0573442519685035
21
-3.002856338582677
0
LINE
8
BLACK
6
CONTINUOUS
10
4.0573442519685035
20
-3.002856338582677
11
4.0572677165354332
21
-3.0029328740157482
0
LINE
8
BLACK
6
CONTINUOUS
10
4.0572677165354332
20
-3.0029328740157482
11
4.0572298031496059
21
-3.0030087007874013
0
LINE
8
BLACK
6
CONTINUOUS
10
4.0572298031496059
20
-3.0030087007874013
11
4.0572261417322837
21
-3.0030138188976379
0
LINE
8
BLACK
6
CONTINUOUS
10
4.0572261417322837
20
-3.0030138188976379
11
4.0569111811023619
21
-3.0033287795275592
0
LINE
8
BLACK
6
CONTINUOUS
10
4.0569111811023619
20
-3.0033287795275592
11
4.0569060629921259
21
-3.0033324409448818
0
LINE
8
BLACK
6
CONTINUOUS
10
4.0569060629921259
20
-3.0033324409448818
11
4.0568302362204722
21
-3.0033703543307086
0
LINE
8
BLACK
6
CONTINUOUS
10
4.0568302362204722
20
-3.0033703543307086
11
4.0567537007874011
21
-3.0034468897637794
0
LINE
8
BLACK
6
CONTINUOUS
10
4.0567537007874011
20
-3.0034468897637794
11
4.056748582677165
21
-3.0034505511811025
0
LINE
8
BLACK
6
CONTINUOUS
10
4.056748582677165
20
-3.0034505511811025
11
4.0566727559055114
21
-3.0034884645669289
0
LINE
8
BLACK
6
CONTINUOUS
10
4.0566727559055114
20
-3.0034884645669289
11
4.0565962204724411
21
-3.003565
0
LINE
8
BLACK
6
CONTINUOUS
10
4.0565962204724411
20
-3.003565
11
4.0565885039370082
21
-3.0035697244094486
0
LINE
8
BLACK
6
CONTINUOUS
10
4.0565885039370082
20
-3.0035697244094486
11
4.0564718110236218
21
-3.0036086220472442
0
LINE
8
BLACK
6
CONTINUOUS
10
4.0564718110236218
20
-3.0036086220472442
11
4.0563942519685039
21
-3.0036474015748031
0
LINE
8
BLACK
6
CONTINUOUS
10
4.0563942519685039
20
-3.0036474015748031
11
4.0563916535433071
21
-3.003648464566929
0
LINE
8
BLACK
6
CONTINUOUS
10
4.0563916535433071
20
-3.003648464566929
11
4.0562735433070864
21
-3.0036878346456692
0
LINE
8
BLACK
6
CONTINUOUS
10
4.0562735433070864
20
-3.0036878346456692
11
4.0562673228346453
21
-3.0036888582677164
0
LINE
8
BLACK
6
CONTINUOUS
10
4.0562673228346453
20
-3.0036888582677164
11
4.0561917322834642
21
-3.0036888582677164
0
LINE
8
BLACK
6
CONTINUOUS
10
4.0561917322834642
20
-3.0036888582677164
11
4.0560766929133854
21
-3.0037272047244095
0
LINE
8
BLACK
6
CONTINUOUS
10
4.0560766929133854
20
-3.0037272047244095
11
4.0560704724409451
21
-3.0037282283464566
0
LINE
8
BLACK
6
CONTINUOUS
10
4.0560704724409451
20
-3.0037282283464566
11
4.055994881889764
21
-3.0037282283464566
0
LINE
8
BLACK
6
CONTINUOUS
10
4.055994881889764
20
-3.0037282283464566
11
4.0558798425196851
21
-3.0037665748031497
0
LINE
8
BLACK
6
CONTINUOUS
10
4.0558798425196851
20
-3.0037665748031497
11
4.055873622047244
21
-3.0037675984251968
0
LINE
8
BLACK
6
CONTINUOUS
10
4.055873622047244
20
-3.0037675984251968
11
4.0535114173228344
21
-3.0037675984251968
0
LINE
8
BLACK
6
CONTINUOUS
10
4.0535114173228344
20
-3.0037675984251968
11
4.0535051968503932
21
-3.0037665748031497
0
LINE
8
BLACK
6
CONTINUOUS
10
4.0535051968503932
20
-3.0037665748031497
11
4.0533901574803153
21
-3.0037282283464566
0
LINE
8
BLACK
6
CONTINUOUS
10
4.0533901574803153
20
-3.0037282283464566
11
4.0533145669291342
21
-3.0037282283464566
0
LINE
8
BLACK
6
CONTINUOUS
10
4.0533145669291342
20
-3.0037282283464566
11
4.053308346456693
21
-3.0037272047244095
0
LINE
8
BLACK
6
CONTINUOUS
10
4.053308346456693
20
-3.0037272047244095
11
4.0531933070866142
21
-3.0036888582677164
0
LINE
8
BLACK
6
CONTINUOUS
10
4.0531933070866142
20
-3.0036888582677164
11
4.0531177165354331
21
-3.0036888582677164
0
LINE
8
BLACK
6
CONTINUOUS
10
4.0531177165354331
20
-3.0036888582677164
11
4.0531114960629919
21
-3.0036878346456692
0
LINE
8
BLACK
6
CONTINUOUS
10
4.0531114960629919
20
-3.0036878346456692
11
4.0529933858267713
21
-3.003648464566929
0
LINE
8
BLACK
6
CONTINUOUS
10
4.0529933858267713
20
-3.003648464566929
11
4.0529907874015745
21
-3.0036474015748031
0
LINE
8
BLACK
6
CONTINUOUS
10
4.0529907874015745
20
-3.0036474015748031
11
4.0529132283464566
21
-3.0036086220472442
0
LINE
8
BLACK
6
CONTINUOUS
10
4.0529132283464566
20
-3.0036086220472442
11
4.0527965354330711
21
-3.0035697244094486
0
LINE
8
BLACK
6
CONTINUOUS
10
4.0527965354330711
20
-3.0035697244094486
11
4.0527888188976373
21
-3.003565
0
LINE
8
BLACK
6
CONTINUOUS
10
4.0527888188976373
20
-3.003565
11
4.052712283464567
21
-3.0034884645669289
0
LINE
8
BLACK
6
CONTINUOUS
10
4.052712283464567
20
-3.0034884645669289
11
4.0526364566929134
21
-3.0034505511811025
0
LINE
8
BLACK
6
CONTINUOUS
10
4.0526364566929134
20
-3.0034505511811025
11
4.0526313385826773
21
-3.0034468897637794
0
LINE
8
BLACK
6
CONTINUOUS
10
4.0526313385826773
20
-3.0034468897637794
11
4.0525548031496061
21
-3.0033703543307086
0
LINE
8
BLACK
6
CONTINUOUS
10
4.0525548031496061
20
-3.0033703543307086
11
4.0524789763779525
21
-3.0033324409448818
0
LINE
8
BLACK
6
CONTINUOUS
10
4.0524789763779525
20
-3.0033324409448818
11
4.0524738582677164
21
-3.0033287795275592
0
LINE
8
BLACK
6
CONTINUOUS
10
4.0524738582677164
20
-3.0033287795275592
11
4.0521588976377956
21
-3.0030138188976379
0
LINE
8
BLACK
6
CONTINUOUS
10
4.0521588976377956
20
-3.0030138188976379
11
4.0521552362204725
21
-3.0030087007874013
0
LINE
8
BLACK
6
CONTINUOUS
10
4.0521552362204725
20
-3.0030087007874013
11
4.0521173228346452
21
-3.0029328740157482
0
LINE
8
BLACK
6
CONTINUOUS
10
4.0521173228346452
20
-3.0029328740157482
11
4.0520407874015749
21
-3.002856338582677
0
LINE
8
BLACK
6
CONTINUOUS
10
4.0520407874015749
20
-3.002856338582677
11
4.0520371259842518
21
-3.0028512204724409
0
LINE
8
BLACK
6
CONTINUOUS
10
4.0520371259842518
20
-3.0028512204724409
11
4.0519992125984254
21
-3.0027753937007873
0
LINE
8
BLACK
6
CONTINUOUS
10
4.0519992125984254
20
-3.0027753937007873
11
4.0519226771653543
21
-3.0026988582677165
0
LINE
8
BLACK
6
CONTINUOUS
10
4.0519226771653543
20
-3.0026988582677165
11
4.0519179527559057
21
-3.0026911417322832
0
LINE
8
BLACK
6
CONTINUOUS
10
4.0519179527559057
20
-3.0026911417322832
11
4.0518790551181105
21
-3.0025744488188977
0
LINE
8
BLACK
6
CONTINUOUS
10
4.0518790551181105
20
-3.0025744488188977
11
4.0518402755905507
21
-3.0024968897637794
0
LINE
8
BLACK
6
CONTINUOUS
10
4.0518402755905507
20
-3.0024968897637794
11
4.0518392125984253
21
-3.0024942913385826
0
LINE
8
BLACK
6
CONTINUOUS
10
4.0518392125984253
20
-3.0024942913385826
11
4.0517998425196851
21
-3.0023761811023619
0
LINE
8
BLACK
6
CONTINUOUS
10
4.0517998425196851
20
-3.0023761811023619
11
4.0517988188976375
21
-3.0023699606299212
0
LINE
8
BLACK
6
CONTINUOUS
10
4.0517988188976375
20
-3.0023699606299212
11
4.0517988188976375
21
-3.0022943700787401
0
LINE
8
BLACK
6
CONTINUOUS
10
4.0517988188976375
20
-3.0022943700787401
11
4.0517604724409448
21
-3.0021793307086613
0
LINE
8
BLACK
6
CONTINUOUS
10
4.0517604724409448
20
-3.0021793307086613
11
4.0517594488188973
21
-3.0021731102362206
0
LINE
8
BLACK
6
CONTINUOUS
10
4.0517594488188973
20
-3.0021731102362206
11
4.0517594488188973
21
-3.0020975196850395
0
LINE
8
BLACK
6
CONTINUOUS
10
4.0517594488188973
20
-3.0020975196850395
11
4.0517211023622046
21
-3.0019824803149606
0
LINE
8
BLACK
6
CONTINUOUS
10
4.0517211023622046
20
-3.0019824803149606
11
4.051720078740157
21
-3.0019762598425195
0
LINE
8
BLACK
6
CONTINUOUS
10
4.051720078740157
20
-3.0019762598425195
11
4.051720078740157
21
-2.9901652362204723
0
LINE
8
BLACK
6
CONTINUOUS
10
4.051720078740157
20
-2.9901652362204723
11
4.0517211023622046
21
-2.9901590157480316
0
LINE
8
BLACK
6
CONTINUOUS
10
4.0517211023622046
20
-2.9901590157480316
11
4.0517594488188973
21
-2.9900439763779527
0
LINE
8
BLACK
6
CONTINUOUS
10
4.0517594488188973
20
-2.9900439763779527
11
4.0517594488188973
21
-2.9899683858267716
0
LINE
8
BLACK
6
CONTINUOUS
10
4.0517594488188973
20
-2.9899683858267716
11
4.0517604724409448
21
-2.9899621653543305
0
LINE
8
BLACK
6
CONTINUOUS
10
4.0517604724409448
20
-2.9899621653543305
11
4.0517988188976375
21
-2.9898471259842521
0
LINE
8
BLACK
6
CONTINUOUS
10
4.0517988188976375
20
-2.9898471259842521
11
4.0517988188976375
21
-2.9897715354330709
0
LINE
8
BLACK
6
CONTINUOUS
10
4.0517988188976375
20
-2.9897715354330709
11
4.0517998425196851
21
-2.9897653149606298
0
LINE
8
BLACK
6
CONTINUOUS
10
4.0517998425196851
20
-2.9897653149606298
11
4.0518392125984253
21
-2.9896472047244096
0
LINE
8
BLACK
6
CONTINUOUS
10
4.0518392125984253
20
-2.9896472047244096
11
4.0518402755905507
21
-2.9896446062992124
0
LINE
8
BLACK
6
CONTINUOUS
10
4.0518402755905507
20
-2.9896446062992124
11
4.0518790551181105
21
-2.9895670472440945
0
LINE
8
BLACK
6
CONTINUOUS
10
4.0518790551181105
20
-2.9895670472440945
11
4.0519179527559057
21
-2.9894503543307085
0
LINE
8
BLACK
6
CONTINUOUS
10
4.0519179527559057
20
-2.9894503543307085
11
4.0519226771653543
21
-2.9894426377952756
0
LINE
8
BLACK
6
CONTINUOUS
10
4.0519226771653543
20
-2.9894426377952756
11
4.0519992125984254
21
-2.9893661023622045
0
LINE
8
BLACK
6
CONTINUOUS
10
4.0519992125984254
20
-2.9893661023622045
11
4.0520371259842518
21
-2.9892902755905513
0
LINE
8
BLACK
6
CONTINUOUS
10
4.0520371259842518
20
-2.9892902755905513
11
4.0520407874015749
21
-2.9892851574803148
0
LINE
8
BLACK
6
CONTINUOUS
10
4.0520407874015749
20
-2.9892851574803148
11
4.0521173228346452
21
-2.989208622047244
0
LINE
8
BLACK
6
CONTINUOUS
10
4.0521173228346452
20
-2.989208622047244
11
4.0521552362204725
21
-2.9891327952755904
0
LINE
8
BLACK
6
CONTINUOUS
10
4.0521552362204725
20
-2.9891327952755904
11
4.0521588976377956
21
-2.9891276771653543
0
LINE
8
BLACK
6
CONTINUOUS
10
4.0521588976377956
20
-2.9891276771653543
11
4.0524738582677164
21
-2.988812716535433
0
LINE
8
BLACK
6
CONTINUOUS
10
4.0524738582677164
20
-2.988812716535433
11
4.0524789763779525
21
-2.9888090551181103
0
LINE
8
BLACK
6
CONTINUOUS
10
4.0524789763779525
20
-2.9888090551181103
11
4.0525548031496061
21
-2.9887711417322835
0
LINE
8
BLACK
6
CONTINUOUS
10
4.0525548031496061
20
-2.9887711417322835
11
4.0526313385826773
21
-2.9886946062992124
0
LINE
8
BLACK
6
CONTINUOUS
10
4.0526313385826773
20
-2.9886946062992124
11
4.0526364566929134
21
-2.9886909448818897
0
LINE
8
BLACK
6
CONTINUOUS
10
4.0526364566929134
20
-2.9886909448818897
11
4.052712283464567
21
-2.9886530314960629
0
LINE
8
BLACK
6
CONTINUOUS
10
4.052712283464567
20
-2.9886530314960629
11
4.0527888188976373
21
-2.9885764960629921
0
LINE
8
BLACK
6
CONTINUOUS
10
4.0527888188976373
20
-2.9885764960629921
11
4.0527965354330711
21
-2.9885717716535432
0
LINE
8
BLACK
6
CONTINUOUS
10
4.0527965354330711
20
-2.9885717716535432
11
4.0529132283464566
21
-2.988532874015748
0
LINE
8
BLACK
6
CONTINUOUS
10
4.0529132283464566
20
-2.988532874015748
11
4.0529907874015745
21
-2.988494094488189
0
LINE
8
BLACK
6
CONTINUOUS
10
4.0529907874015745
20
-2.988494094488189
11
4.0529933858267713
21
-2.9884930314960627
0
LINE
8
BLACK
6
CONTINUOUS
10
4.0529933858267713
20
-2.9884930314960627
11
4.0531114960629919
21
-2.9884536614173229
0
LINE
8
BLACK
6
CONTINUOUS
10
4.0531114960629919
20
-2.9884536614173229
11
4.0531177165354331
21
-2.9884526377952754
0
LINE
8
BLACK
6
CONTINUOUS
10
4.0531177165354331
20
-2.9884526377952754
11
4.0531933070866142
21
-2.9884526377952754
0
LINE
8
BLACK
6
CONTINUOUS
10
4.0531933070866142
20
-2.9884526377952754
11
4.053308346456693
21
-2.9884142913385827
0
LINE
8
BLACK
6
CONTINUOUS
10
4.053308346456693
20
-2.9884142913385827
11
4.0533145669291342
21
-2.9884132677165351
0
LINE
8
BLACK
6
CONTINUOUS
10
4.0533145669291342
20
-2.9884132677165351
11
4.0533901574803153
21
-2.9884132677165351
0
LINE
8
BLACK
6
CONTINUOUS
10
4.0533901574803153
20
-2.9884132677165351
11
4.0535051968503932
21
-2.9883749212598425
0
LINE
8
BLACK
6
CONTINUOUS
10
4.0535051968503932
20
-2.9883749212598425
11
4.0535114173228344
21
-2.9883738976377954
0
LINE
8
BLACK
6
CONTINUOUS
10
4.0535114173228344
20
-2.9883738976377954
11
4.055873622047244
21
-2.9883738976377954
0
LINE
8
BLACK
6
CONTINUOUS
10
4.055873622047244
20
-2.9883738976377954
11
4.0558798425196851
21
-2.9883749212598425
0
LINE
8
BLACK
6
CONTINUOUS
10
4.1531115748031491
20
-2.9677466141732283
11
4.1544143700787401
21
-2.968617125984252
0
LINE
8
BLACK
6
CONTINUOUS
10
4.1544143700787401
20
-2.968617125984252
11
4.1552848818897639
21
-2.9699199212598426
0
LINE
8
BLACK
6
CONTINUOUS
10
4.1552848818897639
20
-2.9699199212598426
11
4.1555905511811027
21
-2.9714566929133857
0
LINE
8
BLACK
6
CONTINUOUS
10
4.1555905511811027
20
-2.9714566929133857
11
4.1555905511811027
21
-2.9832677165354329
0
LINE
8
BLACK
6
CONTINUOUS
10
4.1555905511811027
20
-2.9832677165354329
11
4.1552848818897639
21
-2.9848044881889764
0
LINE
8
BLACK
6
CONTINUOUS
10
4.1552848818897639
20
-2.9848044881889764
11
4.1544143700787401
21
-2.986107283464567
0
LINE
8
BLACK
6
CONTINUOUS
10
4.1544143700787401
20
-2.986107283464567
11
4.1531115748031491
21
-2.9869777952755903
0
LINE
8
BLACK
6
CONTINUOUS
10
4.1531115748031491
20
-2.9869777952755903
11
4.1515748031496065
21
-2.9872834645669291
0
LINE
8
BLACK
6
CONTINUOUS
10
4.1515748031496065
20
-2.9872834645669291
11
4.1299212598425195
21
-2.9872834645669291
0
LINE
8
BLACK
6
CONTINUOUS
10
4.1299212598425195
20
-2.9872834645669291
11
4.128384488188976
21
-2.9869777952755903
0
LINE
8
BLACK
6
CONTINUOUS
10
4.128384488188976
20
-2.9869777952755903
11
4.1270816929133858
21
-2.986107283464567
0
LINE
8
BLACK
6
CONTINUOUS
10
4.1270816929133858
20
-2.986107283464567
11
4.1262111811023621
21
-2.9848044881889764
0
LINE
8
BLACK
6
CONTINUOUS
10
4.1262111811023621
20
-2.9848044881889764
11
4.1259055118110233
21
-2.9832677165354329
0
LINE
8
BLACK
6
CONTINUOUS
10
4.1259055118110233
20
-2.9832677165354329
11
4.1259055118110233
21
-2.9714566929133857
0
LINE
8
BLACK
6
CONTINUOUS
10
4.1259055118110233
20
-2.9714566929133857
11
4.1262111811023621
21
-2.9699199212598426
0
LINE
8
BLACK
6
CONTINUOUS
10
4.1262111811023621
20
-2.9699199212598426
11
4.1270816929133858
21
-2.968617125984252
0
LINE
8
BLACK
6
CONTINUOUS
10
4.1270816929133858
20
-2.968617125984252
11
4.128384488188976
21
-2.9677466141732283
0
LINE
8
BLACK
6
CONTINUOUS
10
4.128384488188976
20
-2.9677466141732283
11
4.1299212598425195
21
-2.9674409448818895
0
LINE
8
BLACK
6
CONTINUOUS
10
4.1299212598425195
20
-2.9674409448818895
11
4.1515748031496065
21
-2.9674409448818895
0
LINE
8
BLACK
6
CONTINUOUS
10
4.1515748031496065
20
-2.9674409448818895
11
4.1531115748031491
21
-2.9677466141732283
0
LINE
8
BLACK
6
CONTINUOUS
10
4.1767336220472444
20
-2.9579040944881889
11
4.1780364173228346
21
-2.9587746062992126
0
LINE
8
BLACK
6
CONTINUOUS
10
4.1780364173228346
20
-2.9587746062992126
11
4.1789069291338583
21
-2.9600774015748033
0
LINE
8
BLACK
6
CONTINUOUS
10
4.1789069291338583
20
-2.9600774015748033
11
4.1792125984251971
21
-2.9616141732283463
0
LINE
8
BLACK
6
CONTINUOUS
10
4.1792125984251971
20
-2.9616141732283463
11
4.1792125984251971
21
-2.9832677165354329
0
LINE
8
BLACK
6
CONTINUOUS
10
4.1792125984251971
20
-2.9832677165354329
11
4.1789069291338583
21
-2.9848044881889764
0
LINE
8
BLACK
6
CONTINUOUS
10
4.1789069291338583
20
-2.9848044881889764
11
4.1780364173228346
21
-2.986107283464567
0
LINE
8
BLACK
6
CONTINUOUS
10
4.1780364173228346
20
-2.986107283464567
11
4.1767336220472444
21
-2.9869777952755903
0
LINE
8
BLACK
6
CONTINUOUS
10
4.1767336220472444
20
-2.9869777952755903
11
4.1751968503937009
21
-2.9872834645669291
0
LINE
8
BLACK
6
CONTINUOUS
10
4.1751968503937009
20
-2.9872834645669291
11
4.1633858267716537
21
-2.9872834645669291
0
LINE
8
BLACK
6
CONTINUOUS
10
4.1633858267716537
20
-2.9872834645669291
11
4.1618490551181102
21
-2.9869777952755903
0
LINE
8
BLACK
6
CONTINUOUS
10
4.1618490551181102
20
-2.9869777952755903
11
4.16054625984252
21
-2.986107283464567
0
LINE
8
BLACK
6
CONTINUOUS
10
4.16054625984252
20
-2.986107283464567
11
4.1596757480314963
21
-2.9848044881889764
0
LINE
8
BLACK
6
CONTINUOUS
10
4.1596757480314963
20
-2.9848044881889764
11
4.1593700787401575
21
-2.9832677165354329
0
LINE
8
BLACK
6
CONTINUOUS
10
4.1593700787401575
20
-2.9832677165354329
11
4.1593700787401575
21
-2.9616141732283463
0
LINE
8
BLACK
6
CONTINUOUS
10
4.1593700787401575
20
-2.9616141732283463
11
4.1596757480314963
21
-2.9600774015748033
0
LINE
8
BLACK
6
CONTINUOUS
10
4.1596757480314963
20
-2.9600774015748033
11
4.16054625984252
21
-2.9587746062992126
0
LINE
8
BLACK
6
CONTINUOUS
10
4.16054625984252
20
-2.9587746062992126
11
4.1618490551181102
21
-2.9579040944881889
0
LINE
8
BLACK
6
CONTINUOUS
10
4.1618490551181102
20
-2.9579040944881889
11
4.1633858267716537
21
-2.9575984251968501
0
LINE
8
BLACK
6
CONTINUOUS
10
4.1633858267716537
20
-2.9575984251968501
11
4.1751968503937009
21
-2.9575984251968501
0
LINE
8
BLACK
6
CONTINUOUS
10
4.1751968503937009
20
-2.9575984251968501
11
4.1767336220472444
21
-2.9579040944881889
0
LINE
8
BLACK
6
CONTINUOUS
10
4.2003556692913389
20
-2.9579040944881889
11
4.201658464566929
21
-2.9587746062992126
0
LINE
8
BLACK
6
CONTINUOUS
10
4.201658464566929
20
-2.9587746062992126
11
4.2025289763779528
21
-2.9600774015748033
0
LINE
8
BLACK
6
CONTINUOUS
10
4.2025289763779528
20
-2.9600774015748033
11
4.2028346456692915
21
-2.9616141732283463
0
LINE
8
BLACK
6
CONTINUOUS
10
4.2028346456692915
20
-2.9616141732283463
11
4.2028346456692915
21
-2.9832677165354329
0
LINE
8
BLACK
6
CONTINUOUS
10
4.2028346456692915
20
-2.9832677165354329
11
4.2025289763779528
21
-2.9848044881889764
0
LINE
8
BLACK
6
CONTINUOUS
10
4.2025289763779528
20
-2.9848044881889764
11
4.201658464566929
21
-2.986107283464567
0
LINE
8
BLACK
6
CONTINUOUS
10
4.201658464566929
20
-2.986107283464567
11
4.2003556692913389
21
-2.9869777952755903
0
LINE
8
BLACK
6
CONTINUOUS
10
4.2003556692913389
20
-2.9869777952755903
11
4.1988188976377954
21
-2.9872834645669291
0
LINE
8
BLACK
6
CONTINUOUS
10
4.1988188976377954
20
-2.9872834645669291
11
4.1870078740157481
21
-2.9872834645669291
0
LINE
8
BLACK
6
CONTINUOUS
10
4.1870078740157481
20
-2.9872834645669291
11
4.1854711023622047
21
-2.9869777952755903
0
LINE
8
BLACK
6
CONTINUOUS
10
4.1854711023622047
20
-2.9869777952755903
11
4.1841683070866145
21
-2.986107283464567
0
LINE
8
BLACK
6
CONTINUOUS
10
4.1841683070866145
20
-2.986107283464567
11
4.1832977952755908
21
-2.9848044881889764
0
LINE
8
BLACK
6
CONTINUOUS
10
4.1832977952755908
20
-2.9848044881889764
11
4.182992125984252
21
-2.9832677165354329
0
LINE
8
BLACK
6
CONTINUOUS
10
4.182992125984252
20
-2.9832677165354329
11
4.182992125984252
21
-2.9616141732283463
0
LINE
8
BLACK
6
CONTINUOUS
10
4.182992125984252
20
-2.9616141732283463
11
4.1832977952755908
21
-2.9600774015748033
0
LINE
8
BLACK
6
CONTINUOUS
10
4.1832977952755908
20
-2.9600774015748033
11
4.1841683070866145
21
-2.9587746062992126
0
LINE
8
BLACK
6
CONTINUOUS
10
4.1841683070866145
20
-2.9587746062992126
11
4.1854711023622047
21
-2.9579040944881889
0
LINE
8
BLACK
6
CONTINUOUS
10
4.1854711023622047
20
-2.9579040944881889
11
4.1870078740157481
21
-2.9575984251968501
0
LINE
8
BLACK
6
CONTINUOUS
10
4.1870078740157481
20
-2.9575984251968501
11
4.1988188976377954
21
-2.9575984251968501
0
LINE
8
BLACK
6
CONTINUOUS
10
4.1988188976377954
20
-2.9575984251968501
11
4.2003556692913389
21
-2.9579040944881889
0
LINE
8
BLACK
6
CONTINUOUS
10
4.2239777165354333
20
-2.9579040944881889
11
4.2252805118110235
21
-2.9587746062992126
0
LINE
8
BLACK
6
CONTINUOUS
10
4.2252805118110235
20
-2.9587746062992126
11
4.2261510236220472
21
-2.9600774015748033
0
LINE
8
BLACK
6
CONTINUOUS
10
4.2261510236220472
20
-2.9600774015748033
11
4.226456692913386
21
-2.9616141732283463
0
LINE
8
BLACK
6
CONTINUOUS
10
4.226456692913386
20
-2.9616141732283463
11
4.226456692913386
21
-2.9832677165354329
0
LINE
8
BLACK
6
CONTINUOUS
10
4.226456692913386
20
-2.9832677165354329
11
4.2261510236220472
21
-2.9848044881889764
0
LINE
8
BLACK
6
CONTINUOUS
10
4.2261510236220472
20
-2.9848044881889764
11
4.2252805118110235
21
-2.986107283464567
0
LINE
8
BLACK
6
CONTINUOUS
10
4.2252805118110235
20
-2.986107283464567
11
4.2239777165354333
21
-2.9869777952755903
0
LINE
8
BLACK
6
CONTINUOUS
10
4.2239777165354333
20
-2.9869777952755903
11
4.2224409448818898
21
-2.9872834645669291
0
LINE
8
BLACK
6
CONTINUOUS
10
4.2224409448818898
20
-2.9872834645669291
11
4.2106299212598426
21
-2.9872834645669291
0
LINE
8
BLACK
6
CONTINUOUS
10
4.2106299212598426
20
-2.9872834645669291
11
4.2090931496062991
21
-2.9869777952755903
0
LINE
8
BLACK
6
CONTINUOUS
10
4.2090931496062991
20
-2.9869777952755903
11
4.2077903543307089
21
-2.986107283464567
0
LINE
8
BLACK
6
CONTINUOUS
10
4.2077903543307089
20
-2.986107283464567
11
4.2069198425196852
21
-2.9848044881889764
0
LINE
8
BLACK
6
CONTINUOUS
10
4.2069198425196852
20
-2.9848044881889764
11
4.2066141732283464
21
-2.9832677165354329
0
LINE
8
BLACK
6
CONTINUOUS
10
4.2066141732283464
20
-2.9832677165354329
11
4.2066141732283464
21
-2.9616141732283463
0
LINE
8
BLACK
6
CONTINUOUS
10
4.2066141732283464
20
-2.9616141732283463
11
4.2069198425196852
21
-2.9600774015748033
0
LINE
8
BLACK
6
CONTINUOUS
10
4.2069198425196852
20
-2.9600774015748033
11
4.2077903543307089
21
-2.9587746062992126
0
LINE
8
BLACK
6
CONTINUOUS
10
4.2077903543307089
20
-2.9587746062992126
11
4.2090931496062991
21
-2.9579040944881889
0
LINE
8
BLACK
6
CONTINUOUS
10
4.2090931496062991
20
-2.9579040944881889
11
4.2106299212598426
21
-2.9575984251968501
0
LINE
8
BLACK
6
CONTINUOUS
10
4.2106299212598426
20
-2.9575984251968501
11
4.2224409448818898
21
-2.9575984251968501
0
LINE
8
BLACK
6
CONTINUOUS
10
4.2224409448818898
20
-2.9575984251968501
11
4.2239777165354333
21
-2.9579040944881889
0
LINE
8
BLACK
6
CONTINUOUS
10
4.2475997637795277
20
-2.9579040944881889
11
4.2489025590551179
21
-2.9587746062992126
0
LINE
8
BLACK
6
CONTINUOUS
10
4.2489025590551179
20
-2.9587746062992126
11
4.2497730708661416
21
-2.9600774015748033
0
LINE
8
BLACK
6
CONTINUOUS
10
4.2497730708661416
20
-2.9600774015748033
11
4.2500787401574804
21
-2.9616141732283463
0
LINE
8
BLACK
6
CONTINUOUS
10
4.2500787401574804
20
-2.9616141732283463
11
4.2500787401574804
21
-2.9832677165354329
0
LINE
8
BLACK
6
CONTINUOUS
10
4.2500787401574804
20
-2.9832677165354329
11
4.2497730708661416
21
-2.9848044881889764
0
LINE
8
BLACK
6
CONTINUOUS
10
4.2497730708661416
20
-2.9848044881889764
11
4.2489025590551179
21
-2.986107283464567
0
LINE
8
BLACK
6
CONTINUOUS
10
4.2489025590551179
20
-2.986107283464567
11
4.2475997637795277
21
-2.9869777952755903
0
LINE
8
BLACK
6
CONTINUOUS
10
4.2475997637795277
20
-2.9869777952755903
11
4.2460629921259843
21
-2.9872834645669291
0
LINE
8
BLACK
6
CONTINUOUS
10
4.2460629921259843
20
-2.9872834645669291
11
4.234251968503937
21
-2.9872834645669291
0
LINE
8
BLACK
6
CONTINUOUS
10
4.234251968503937
20
-2.9872834645669291
11
4.2327151968503935
21
-2.9869777952755903
0
LINE
8
BLACK
6
CONTINUOUS
10
4.2327151968503935
20
-2.9869777952755903
11
4.2314124015748034
21
-2.986107283464567
0
LINE
8
BLACK
6
CONTINUOUS
10
4.2314124015748034
20
-2.986107283464567
11
4.2305418897637797
21
-2.9848044881889764
0
LINE
8
BLACK
6
CONTINUOUS
10
4.2305418897637797
20
-2.9848044881889764
11
4.2302362204724409
21
-2.9832677165354329
0
LINE
8
BLACK
6
CONTINUOUS
10
4.2302362204724409
20
-2.9832677165354329
11
4.2302362204724409
21
-2.9616141732283463
0
LINE
8
BLACK
6
CONTINUOUS
10
4.2302362204724409
20
-2.9616141732283463
11
4.2305418897637797
21
-2.9600774015748033
0
LINE
8
BLACK
6
CONTINUOUS
10
4.2305418897637797
20
-2.9600774015748033
11
4.2314124015748034
21
-2.9587746062992126
0
LINE
8
BLACK
6
CONTINUOUS
10
4.2314124015748034
20
-2.9587746062992126
11
4.2327151968503935
21
-2.9579040944881889
0
LINE
8
BLACK
6
CONTINUOUS
10
4.2327151968503935
20
-2.9579040944881889
11
4.234251968503937
21
-2.9575984251968501
0
LINE
8
BLACK
6
CONTINUOUS
10
4.234251968503937
20
-2.9575984251968501
11
4.2460629921259843
21
-2.9575984251968501
0
LINE
8
BLACK
6
CONTINUOUS
10
4.2460629921259843
20
-2.9575984251968501
11
4.2475997637795277
21
-2.9579040944881889
0
LINE
8
BLACK
6
CONTINUOUS
10
4.2712218110236222
20
-2.9579040944881889
11
4.2725246062992124
21
-2.9587746062992126
0
LINE
8
BLACK
6
CONTINUOUS
10
4.2725246062992124
20
-2.9587746062992126
11
4.2733951181102361
21
-2.9600774015748033
0
LINE
8
BLACK
6
CONTINUOUS
10
4.2733951181102361
20
-2.9600774015748033
11
4.2737007874015749
21
-2.9616141732283463
0
LINE
8
BLACK
6
CONTINUOUS
10
4.2737007874015749
20
-2.9616141732283463
11
4.2737007874015749
21
-2.9832677165354329
0
LINE
8
BLACK
6
CONTINUOUS
10
4.2737007874015749
20
-2.9832677165354329
11
4.2733951181102361
21
-2.9848044881889764
0
LINE
8
BLACK
6
CONTINUOUS
10
4.2733951181102361
20
-2.9848044881889764
11
4.2725246062992124
21
-2.986107283464567
0
LINE
8
BLACK
6
CONTINUOUS
10
4.2725246062992124
20
-2.986107283464567
11
4.2712218110236222
21
-2.9869777952755903
0
LINE
8
BLACK
6
CONTINUOUS
10
4.2712218110236222
20
-2.9869777952755903
11
4.2696850393700787
21
-2.9872834645669291
0
LINE
8
BLACK
6
CONTINUOUS
10
4.2696850393700787
20
-2.9872834645669291
11
4.2578740157480315
21
-2.9872834645669291
0
LINE
8
BLACK
6
CONTINUOUS
10
4.2578740157480315
20
-2.9872834645669291
11
4.256337244094488
21
-2.9869777952755903
0
LINE
8
BLACK
6
CONTINUOUS
10
4.256337244094488
20
-2.9869777952755903
11
4.2550344488188978
21
-2.986107283464567
0
LINE
8
BLACK
6
CONTINUOUS
10
4.2550344488188978
20
-2.986107283464567
11
4.2541639370078741
21
-2.9848044881889764
0
LINE
8
BLACK
6
CONTINUOUS
10
4.2541639370078741
20
-2.9848044881889764
11
4.2538582677165353
21
-2.9832677165354329
0
LINE
8
BLACK
6
CONTINUOUS
10
4.2538582677165353
20
-2.9832677165354329
11
4.2538582677165353
21
-2.9616141732283463
0
LINE
8
BLACK
6
CONTINUOUS
10
4.2538582677165353
20
-2.9616141732283463
11
4.2541639370078741
21
-2.9600774015748033
0
LINE
8
BLACK
6
CONTINUOUS
10
4.2541639370078741
20
-2.9600774015748033
11
4.2550344488188978
21
-2.9587746062992126
0
LINE
8
BLACK
6
CONTINUOUS
10
4.2550344488188978
20
-2.9587746062992126
11
4.256337244094488
21
-2.9579040944881889
0
LINE
8
BLACK
6
CONTINUOUS
10
4.256337244094488
20
-2.9579040944881889
11
4.2578740157480315
21
-2.9575984251968501
0
LINE
8
BLACK
6
CONTINUOUS
10
4.2578740157480315
20
-2.9575984251968501
11
4.2696850393700787
21
-2.9575984251968501
0
LINE
8
BLACK
6
CONTINUOUS
10
4.2696850393700787
20
-2.9575984251968501
11
4.2712218110236222
21
-2.9579040944881889
0
LINE
8
BLACK
6
CONTINUOUS
10
4.2948438582677166
20
-2.9579040944881889
11
4.2961466535433068
21
-2.9587746062992126
0
LINE
8
BLACK
6
CONTINUOUS
10
4.2961466535433068
20
-2.9587746062992126
11
4.2970171653543305
21
-2.9600774015748033
0
LINE
8
BLACK
6
CONTINUOUS
10
4.2970171653543305
20
-2.9600774015748033
11
4.2973228346456693
21
-2.9616141732283463
0
LINE
8
BLACK
6
CONTINUOUS
10
4.2973228346456693
20
-2.9616141732283463
11
4.2973228346456693
21
-2.9832677165354329
0
LINE
8
BLACK
6
CONTINUOUS
10
4.2973228346456693
20
-2.9832677165354329
11
4.2970171653543305
21
-2.9848044881889764
0
LINE
8
BLACK
6
CONTINUOUS
10
4.2970171653543305
20
-2.9848044881889764
11
4.2961466535433068
21
-2.986107283464567
0
LINE
8
BLACK
6
CONTINUOUS
10
4.2961466535433068
20
-2.986107283464567
11
4.2948438582677166
21
-2.9869777952755903
0
LINE
8
BLACK
6
CONTINUOUS
10
4.2948438582677166
20
-2.9869777952755903
11
4.2933070866141732
21
-2.9872834645669291
0
LINE
8
BLACK
6
CONTINUOUS
10
4.2933070866141732
20
-2.9872834645669291
11
4.2814960629921259
21
-2.9872834645669291
0
LINE
8
BLACK
6
CONTINUOUS
10
4.2814960629921259
20
-2.9872834645669291
11
4.2799592913385824
21
-2.9869777952755903
0
LINE
8
BLACK
6
CONTINUOUS
10
4.2799592913385824
20
-2.9869777952755903
11
4.2786564960629923
21
-2.986107283464567
0
LINE
8
BLACK
6
CONTINUOUS
10
4.2786564960629923
20
-2.986107283464567
11
4.2777859842519685
21
-2.9848044881889764
0
LINE
8
BLACK
6
CONTINUOUS
10
4.2777859842519685
20
-2.9848044881889764
11
4.2774803149606297
21
-2.9832677165354329
0
LINE
8
BLACK
6
CONTINUOUS
10
4.2774803149606297
20
-2.9832677165354329
11
4.2774803149606297
21
-2.9616141732283463
0
LINE
8
BLACK
6
CONTINUOUS
10
4.2774803149606297
20
-2.9616141732283463
11
4.2777859842519685
21
-2.9600774015748033
0
LINE
8
BLACK
6
CONTINUOUS
10
4.2777859842519685
20
-2.9600774015748033
11
4.2786564960629923
21
-2.9587746062992126
0
LINE
8
BLACK
6
CONTINUOUS
10
4.2786564960629923
20
-2.9587746062992126
11
4.2799592913385824
21
-2.9579040944881889
0
LINE
8
BLACK
6
CONTINUOUS
10
4.2799592913385824
20
-2.9579040944881889
11
4.2814960629921259
21
-2.9575984251968501
0
LINE
8
BLACK
6
CONTINUOUS
10
4.2814960629921259
20
-2.9575984251968501
11
4.2933070866141732
21
-2.9575984251968501
0
LINE
8
BLACK
6
CONTINUOUS
10
4.2933070866141732
20
-2.9575984251968501
11
4.2948438582677166
21
-2.9579040944881889
0
LINE
8
BLACK
6
CONTINUOUS
10
4.3184659055118111
20
-2.9579040944881889
11
4.3197687007874013
21
-2.9587746062992126
0
LINE
8
BLACK
6
CONTINUOUS
10
4.3197687007874013
20
-2.9587746062992126
11
4.320639212598425
21
-2.9600774015748033
0
LINE
8
BLACK
6
CONTINUOUS
10
4.320639212598425
20
-2.9600774015748033
11
4.3209448818897638
21
-2.9616141732283463
0
LINE
8
BLACK
6
CONTINUOUS
10
4.3209448818897638
20
-2.9616141732283463
11
4.3209448818897638
21
-2.9832677165354329
0
LINE
8
BLACK
6
CONTINUOUS
10
4.3209448818897638
20
-2.9832677165354329
11
4.320639212598425
21
-2.9848044881889764
0
LINE
8
BLACK
6
CONTINUOUS
10
4.320639212598425
20
-2.9848044881889764
11
4.3197687007874013
21
-2.986107283464567
0
LINE
8
BLACK
6
CONTINUOUS
10
4.3197687007874013
20
-2.986107283464567
11
4.3184659055118111
21
-2.9869777952755903
0
LINE
8
BLACK
6
CONTINUOUS
10
4.3184659055118111
20
-2.9869777952755903
11
4.3169291338582676
21
-2.9872834645669291
0
LINE
8
BLACK
6
CONTINUOUS
10
4.3169291338582676
20
-2.9872834645669291
11
4.3051181102362204
21
-2.9872834645669291
0
LINE
8
BLACK
6
CONTINUOUS
10
4.3051181102362204
20
-2.9872834645669291
11
4.3035813385826769
21
-2.9869777952755903
0
LINE
8
BLACK
6
CONTINUOUS
10
4.3035813385826769
20
-2.9869777952755903
11
4.3022785433070867
21
-2.986107283464567
0
LINE
8
BLACK
6
CONTINUOUS
10
4.3022785433070867
20
-2.986107283464567
11
4.301408031496063
21
-2.9848044881889764
0
LINE
8
BLACK
6
CONTINUOUS
10
4.301408031496063
20
-2.9848044881889764
11
4.3011023622047242
21
-2.9832677165354329
0
LINE
8
BLACK
6
CONTINUOUS
10
4.3011023622047242
20
-2.9832677165354329
11
4.3011023622047242
21
-2.9616141732283463
0
LINE
8
BLACK
6
CONTINUOUS
10
4.3011023622047242
20
-2.9616141732283463
11
4.301408031496063
21
-2.9600774015748033
0
LINE
8
BLACK
6
CONTINUOUS
10
4.301408031496063
20
-2.9600774015748033
11
4.3022785433070867
21
-2.9587746062992126
0
LINE
8
BLACK
6
CONTINUOUS
10
4.3022785433070867
20
-2.9587746062992126
11
4.3035813385826769
21
-2.9579040944881889
0
LINE
8
BLACK
6
CONTINUOUS
10
4.3035813385826769
20
-2.9579040944881889
11
4.3051181102362204
21
-2.9575984251968501
0
LINE
8
BLACK
6
CONTINUOUS
10
4.3051181102362204
20
-2.9575984251968501
11
4.3169291338582676
21
-2.9575984251968501
0
LINE
8
BLACK
6
CONTINUOUS
10
4.3169291338582676
20
-2.9575984251968501
11
4.3184659055118111
21
-2.9579040944881889
0
LINE
8
BLACK
6
CONTINUOUS
10
4.1531115748031491
20
-2.9411718110236218
11
4.1544143700787401
21
-2.9420423228346455
0
LINE
8
BLACK
6
CONTINUOUS
10
4.1544143700787401
20
-2.9420423228346455
11
4.1552848818897639
21
-2.9433451181102361
0
LINE
8
BLACK
6
CONTINUOUS
10
4.1552848818897639
20
-2.9433451181102361
11
4.1555905511811027
21
-2.9448818897637796
0
LINE
8
BLACK
6
CONTINUOUS
10
4.1555905511811027
20
-2.9448818897637796
11
4.1555905511811027
21
-2.9566929133858268
0
LINE
8
BLACK
6
CONTINUOUS
10
4.1555905511811027
20
-2.9566929133858268
11
4.1552848818897639
21
-2.9582296850393699
0
LINE
8
BLACK
6
CONTINUOUS
10
4.1552848818897639
20
-2.9582296850393699
11
4.1544143700787401
21
-2.9595324803149605
0
LINE
8
BLACK
6
CONTINUOUS
10
4.1544143700787401
20
-2.9595324803149605
11
4.1531115748031491
21
-2.9604029921259842
0
LINE
8
BLACK
6
CONTINUOUS
10
4.1531115748031491
20
-2.9604029921259842
11
4.1515748031496065
21
-2.9607086614173226
0
LINE
8
BLACK
6
CONTINUOUS
10
4.1515748031496065
20
-2.9607086614173226
11
4.1299212598425195
21
-2.9607086614173226
0
LINE
8
BLACK
6
CONTINUOUS
10
4.1299212598425195
20
-2.9607086614173226
11
4.128384488188976
21
-2.9604029921259842
0
LINE
8
BLACK
6
CONTINUOUS
10
4.128384488188976
20
-2.9604029921259842
11
4.1270816929133858
21
-2.9595324803149605
0
LINE
8
BLACK
6
CONTINUOUS
10
4.1270816929133858
20
-2.9595324803149605
11
4.1262111811023621
21
-2.9582296850393699
0
LINE
8
BLACK
6
CONTINUOUS
10
4.1262111811023621
20
-2.9582296850393699
11
4.1259055118110233
21
-2.9566929133858268
0
LINE
8
BLACK
6
CONTINUOUS
10
4.1259055118110233
20
-2.9566929133858268
11
4.1259055118110233
21
-2.9448818897637796
0
LINE
8
BLACK
6
CONTINUOUS
10
4.1259055118110233
20
-2.9448818897637796
11
4.1262111811023621
21
-2.9433451181102361
0
LINE
8
BLACK
6
CONTINUOUS
10
4.1262111811023621
20
-2.9433451181102361
11
4.1270816929133858
21
-2.9420423228346455
0
LINE
8
BLACK
6
CONTINUOUS
10
4.1270816929133858
20
-2.9420423228346455
11
4.128384488188976
21
-2.9411718110236218
0
LINE
8
BLACK
6
CONTINUOUS
10
4.128384488188976
20
-2.9411718110236218
11
4.1299212598425195
21
-2.9408661417322834
0
LINE
8
BLACK
6
CONTINUOUS
10
4.1299212598425195
20
-2.9408661417322834
11
4.1515748031496065
21
-2.9408661417322834
0
LINE
8
BLACK
6
CONTINUOUS
10
4.1515748031496065
20
-2.9408661417322834
11
4.1531115748031491
21
-2.9411718110236218
0
LINE
8
BLACK
6
CONTINUOUS
10
4.2775644488188975
20
-2.9300350787401572
11
4.280475
21
-2.9317154724409447
0
LINE
8
BLACK
6
CONTINUOUS
10
4.280475
20
-2.9317154724409447
11
4.2828514566929137
21
-2.9340919291338583
0
LINE
8
BLACK
6
CONTINUOUS
10
4.2828514566929137
20
-2.9340919291338583
11
4.2845318503937007
21
-2.9370024803149604
0
LINE
8
BLACK
6
CONTINUOUS
10
4.2845318503937007
20
-2.9370024803149604
11
4.2854016535433068
21
-2.9402487401574802
0
LINE
8
BLACK
6
CONTINUOUS
10
4.2854016535433068
20
-2.9402487401574802
11
4.2854016535433068
21
-2.943609527559055
0
LINE
8
BLACK
6
CONTINUOUS
10
4.2854016535433068
20
-2.943609527559055
11
4.2845318503937007
21
-2.9468557874015748
0
LINE
8
BLACK
6
CONTINUOUS
10
4.2845318503937007
20
-2.9468557874015748
11
4.2828514566929137
21
-2.9497663385826769
0
LINE
8
BLACK
6
CONTINUOUS
10
4.2828514566929137
20
-2.9497663385826769
11
4.280475
21
-2.9521427952755905
0
LINE
8
BLACK
6
CONTINUOUS
10
4.280475
20
-2.9521427952755905
11
4.2775644488188975
21
-2.953823188976378
0
LINE
8
BLACK
6
CONTINUOUS
10
4.2775644488188975
20
-2.953823188976378
11
4.2743181889763777
21
-2.9546929921259841
0
LINE
8
BLACK
6
CONTINUOUS
10
4.2743181889763777
20
-2.9546929921259841
11
4.2709574015748029
21
-2.9546929921259841
0
LINE
8
BLACK
6
CONTINUOUS
10
4.2709574015748029
20
-2.9546929921259841
11
4.2677111417322831
21
-2.953823188976378
0
LINE
8
BLACK
6
CONTINUOUS
10
4.2677111417322831
20
-2.953823188976378
11
4.2648005905511814
21
-2.9521427952755905
0
LINE
8
BLACK
6
CONTINUOUS
10
4.2648005905511814
20
-2.9521427952755905
11
4.2624241338582678
21
-2.9497663385826769
0
LINE
8
BLACK
6
CONTINUOUS
10
4.2624241338582678
20
-2.9497663385826769
11
4.2607437401574799
21
-2.9468557874015748
0
LINE
8
BLACK
6
CONTINUOUS
10
4.2607437401574799
20
-2.9468557874015748
11
4.2598739370078738
21
-2.943609527559055
0
LINE
8
BLACK
6
CONTINUOUS
10
4.2598739370078738
20
-2.943609527559055
11
4.2598739370078738
21
-2.9402487401574802
0
LINE
8
BLACK
6
CONTINUOUS
10
4.2598739370078738
20
-2.9402487401574802
11
4.2607437401574799
21
-2.9370024803149604
0
LINE
8
BLACK
6
CONTINUOUS
10
4.2607437401574799
20
-2.9370024803149604
11
4.2624241338582678
21
-2.9340919291338583
0
LINE
8
BLACK
6
CONTINUOUS
10
4.2624241338582678
20
-2.9340919291338583
11
4.2648005905511814
21
-2.9317154724409447
0
LINE
8
BLACK
6
CONTINUOUS
10
4.2648005905511814
20
-2.9317154724409447
11
4.2677111417322831
21
-2.9300350787401572
0
LINE
8
BLACK
6
CONTINUOUS
10
4.2677111417322831
20
-2.9300350787401572
11
4.2709574015748029
21
-2.9291652755905511
0
LINE
8
BLACK
6
CONTINUOUS
10
4.2709574015748029
20
-2.9291652755905511
11
4.2743181889763777
21
-2.9291652755905511
0
LINE
8
BLACK
6
CONTINUOUS
10
4.2743181889763777
20
-2.9291652755905511
11
4.2775644488188975
21
-2.9300350787401572
0
LINE
8
BLACK
6
CONTINUOUS
10
4.3129975196850392
20
-2.9300350787401572
11
4.3159080708661417
21
-2.9317154724409447
0
LINE
8
BLACK
6
CONTINUOUS
10
4.3159080708661417
20
-2.9317154724409447
11
4.3182845275590553
21
-2.9340919291338583
0
LINE
8
BLACK
6
CONTINUOUS
10
4.3182845275590553
20
-2.9340919291338583
11
4.3199649212598423
21
-2.9370024803149604
0
LINE
8
BLACK
6
CONTINUOUS
10
4.3199649212598423
20
-2.9370024803149604
11
4.3208347244094485
21
-2.9402487401574802
0
LINE
8
BLACK
6
CONTINUOUS
10
4.3208347244094485
20
-2.9402487401574802
11
4.3208347244094485
21
-2.943609527559055
0
LINE
8
BLACK
6
CONTINUOUS
10
4.3208347244094485
20
-2.943609527559055
11
4.3199649212598423
21
-2.9468557874015748
0
LINE
8
BLACK
6
CONTINUOUS
10
4.3199649212598423
20
-2.9468557874015748
11
4.3182845275590553
21
-2.9497663385826769
0
LINE
8
BLACK
6
CONTINUOUS
10
4.3182845275590553
20
-2.9497663385826769
11
4.3159080708661417
21
-2.9521427952755905
0
LINE
8
BLACK
6
CONTINUOUS
10
4.3159080708661417
20
-2.9521427952755905
11
4.3129975196850392
21
-2.953823188976378
0
LINE
8
BLACK
6
CONTINUOUS
10
4.3129975196850392
20
-2.953823188976378
11
4.3097512598425194
21
-2.9546929921259841
0
LINE
8
BLACK
6
CONTINUOUS
10
4.3097512598425194
20
-2.9546929921259841
11
4.3063904724409445
21
-2.9546929921259841
0
LINE
8
BLACK
6
CONTINUOUS
10
4.3063904724409445
20
-2.9546929921259841
11
4.3031442125984247
21
-2.953823188976378
0
LINE
8
BLACK
6
CONTINUOUS
10
4.3031442125984247
20
-2.953823188976378
11
4.3002336614173231
21
-2.9521427952755905
0
LINE
8
BLACK
6
CONTINUOUS
10
4.3002336614173231
20
-2.9521427952755905
11
4.2978572047244095
21
-2.9497663385826769
0
LINE
8
BLACK
6
CONTINUOUS
10
4.2978572047244095
20
-2.9497663385826769
11
4.2961768110236216
21
-2.9468557874015748
0
LINE
8
BLACK
6
CONTINUOUS
10
4.2961768110236216
20
-2.9468557874015748
11
4.2953070078740154
21
-2.943609527559055
0
LINE
8
BLACK
6
CONTINUOUS
10
4.2953070078740154
20
-2.943609527559055
11
4.2953070078740154
21
-2.9402487401574802
0
LINE
8
BLACK
6
CONTINUOUS
10
4.2953070078740154
20
-2.9402487401574802
11
4.2961768110236216
21
-2.9370024803149604
0
LINE
8
BLACK
6
CONTINUOUS
10
4.2961768110236216
20
-2.9370024803149604
11
4.2978572047244095
21
-2.9340919291338583
0
LINE
8
BLACK
6
CONTINUOUS
10
4.2978572047244095
20
-2.9340919291338583
11
4.3002336614173231
21
-2.9317154724409447
0
LINE
8
BLACK
6
CONTINUOUS
10
4.3002336614173231
20
-2.9317154724409447
11
4.3031442125984247
21
-2.9300350787401572
0
LINE
8
BLACK
6
CONTINUOUS
10
4.3031442125984247
20
-2.9300350787401572
11
4.3063904724409445
21
-2.9291652755905511
0
LINE
8
BLACK
6
CONTINUOUS
10
4.3063904724409445
20
-2.9291652755905511
11
4.3097512598425194
21
-2.9291652755905511
0
LINE
8
BLACK
6
CONTINUOUS
10
4.3097512598425194
20
-2.9291652755905511
11
4.3129975196850392
21
-2.9300350787401572
0
LINE
8
BLACK
6
CONTINUOUS
10
4.0712839370078742
20
-2.9503432283464566
11
3.9925437795275589
21
-2.9503432283464566
0
LINE
8
BLACK
6
CONTINUOUS
10
3.9925437795275589
20
-2.9503432283464566
11
3.9925437795275589
21
-2.8716030708661417
0
LINE
8
BLACK
6
CONTINUOUS
10
3.9925437795275589
20
-2.8716030708661417
11
4.0712839370078742
21
-2.8716030708661417
0
LINE
8
BLACK
6
CONTINUOUS
10
4.0712839370078742
20
-2.8716030708661417
11
4.0712839370078742
21
-2.9503432283464566
0
LINE
8
BLACK
6
CONTINUOUS
10
4.1865761417322833
20
-2.9293607874015746
11
4.1878789370078735
21
-2.9302312992125983
0
LINE
8
BLACK
6
CONTINUOUS
10
4.1878789370078735
20
-2.9302312992125983
11
4.1887494488188972
21
-2.9315340944881889
0
LINE
8
BLACK
6
CONTINUOUS
10
4.1887494488188972
20
-2.9315340944881889
11
4.189055118110236
21
-2.9330708661417324
0
LINE
8
BLACK
6
CONTINUOUS
10
4.189055118110236
20
-2.9330708661417324
11
4.189055118110236
21
-2.9448818897637796
0
LINE
8
BLACK
6
CONTINUOUS
10
4.189055118110236
20
-2.9448818897637796
11
4.1887494488188972
21
-2.9464186614173227
0
LINE
8
BLACK
6
CONTINUOUS
10
4.1887494488188972
20
-2.9464186614173227
11
4.1878789370078735
21
-2.9477214566929133
0
LINE
8
BLACK
6
CONTINUOUS
10
4.1878789370078735
20
-2.9477214566929133
11
4.1865761417322833
21
-2.948591968503937
0
LINE
8
BLACK
6
CONTINUOUS
10
4.1865761417322833
20
-2.948591968503937
11
4.1850393700787398
21
-2.9488976377952754
0
LINE
8
BLACK
6
CONTINUOUS
10
4.1850393700787398
20
-2.9488976377952754
11
4.1633858267716537
21
-2.9488976377952754
0
LINE
8
BLACK
6
CONTINUOUS
10
4.1633858267716537
20
-2.9488976377952754
11
4.1618490551181102
21
-2.948591968503937
0
LINE
8
BLACK
6
CONTINUOUS
10
4.1618490551181102
20
-2.948591968503937
11
4.16054625984252
21
-2.9477214566929133
0
LINE
8
BLACK
6
CONTINUOUS
10
4.16054625984252
20
-2.9477214566929133
11
4.1596757480314963
21
-2.9464186614173227
0
LINE
8
BLACK
6
CONTINUOUS
10
4.1596757480314963
20
-2.9464186614173227
11
4.1593700787401575
21
-2.9448818897637796
0
LINE
8
BLACK
6
CONTINUOUS
10
4.1593700787401575
20
-2.9448818897637796
11
4.1593700787401575
21
-2.9330708661417324
0
LINE
8
BLACK
6
CONTINUOUS
10
4.1593700787401575
20
-2.9330708661417324
11
4.1596757480314963
21
-2.9315340944881889
0
LINE
8
BLACK
6
CONTINUOUS
10
4.1596757480314963
20
-2.9315340944881889
11
4.16054625984252
21
-2.9302312992125983
0
LINE
8
BLACK
6
CONTINUOUS
10
4.16054625984252
20
-2.9302312992125983
11
4.1618490551181102
21
-2.9293607874015746
0
LINE
8
BLACK
6
CONTINUOUS
10
4.1618490551181102
20
-2.9293607874015746
11
4.1633858267716537
21
-2.9290551181102362
0
LINE
8
BLACK
6
CONTINUOUS
10
4.1633858267716537
20
-2.9290551181102362
11
4.1850393700787398
21
-2.9290551181102362
0
LINE
8
BLACK
6
CONTINUOUS
10
4.1850393700787398
20
-2.9290551181102362
11
4.1865761417322833
21
-2.9293607874015746
0
LINE
8
BLACK
6
CONTINUOUS
10
4.1531115748031491
20
-2.9175497637795273
11
4.1544143700787401
21
-2.9184202755905511
0
LINE
8
BLACK
6
CONTINUOUS
10
4.1544143700787401
20
-2.9184202755905511
11
4.1552848818897639
21
-2.9197230708661417
0
LINE
8
BLACK
6
CONTINUOUS
10
4.1552848818897639
20
-2.9197230708661417
11
4.1555905511811027
21
-2.9212598425196852
0
LINE
8
BLACK
6
CONTINUOUS
10
4.1555905511811027
20
-2.9212598425196852
11
4.1555905511811027
21
-2.9330708661417324
0
LINE
8
BLACK
6
CONTINUOUS
10
4.1555905511811027
20
-2.9330708661417324
11
4.1552848818897639
21
-2.9346076377952754
0
LINE
8
BLACK
6
CONTINUOUS
10
4.1552848818897639
20
-2.9346076377952754
11
4.1544143700787401
21
-2.9359104330708661
0
LINE
8
BLACK
6
CONTINUOUS
10
4.1544143700787401
20
-2.9359104330708661
11
4.1531115748031491
21
-2.9367809448818898
0
LINE
8
BLACK
6
CONTINUOUS
10
4.1531115748031491
20
-2.9367809448818898
11
4.1515748031496065
21
-2.9370866141732281
0
LINE
8
BLACK
6
CONTINUOUS
10
4.1515748031496065
20
-2.9370866141732281
11
4.1299212598425195
21
-2.9370866141732281
0
LINE
8
BLACK
6
CONTINUOUS
10
4.1299212598425195
20
-2.9370866141732281
11
4.128384488188976
21
-2.9367809448818898
0
LINE
8
BLACK
6
CONTINUOUS
10
4.128384488188976
20
-2.9367809448818898
11
4.1270816929133858
21
-2.9359104330708661
0
LINE
8
BLACK
6
CONTINUOUS
10
4.1270816929133858
20
-2.9359104330708661
11
4.1262111811023621
21
-2.9346076377952754
0
LINE
8
BLACK
6
CONTINUOUS
10
4.1262111811023621
20
-2.9346076377952754
11
4.1259055118110233
21
-2.9330708661417324
0
LINE
8
BLACK
6
CONTINUOUS
10
4.1259055118110233
20
-2.9330708661417324
11
4.1259055118110233
21
-2.9212598425196852
0
LINE
8
BLACK
6
CONTINUOUS
10
4.1259055118110233
20
-2.9212598425196852
11
4.1262111811023621
21
-2.9197230708661417
0
LINE
8
BLACK
6
CONTINUOUS
10
4.1262111811023621
20
-2.9197230708661417
11
4.1270816929133858
21
-2.9184202755905511
0
LINE
8
BLACK
6
CONTINUOUS
10
4.1270816929133858
20
-2.9184202755905511
11
4.128384488188976
21
-2.9175497637795273
0
LINE
8
BLACK
6
CONTINUOUS
10
4.128384488188976
20
-2.9175497637795273
11
4.1299212598425195
21
-2.917244094488189
0
LINE
8
BLACK
6
CONTINUOUS
10
4.1299212598425195
20
-2.917244094488189
11
4.1515748031496065
21
-2.917244094488189
0
LINE
8
BLACK
6
CONTINUOUS
10
4.1515748031496065
20
-2.917244094488189
11
4.1531115748031491
21
-2.9175497637795273
0
LINE
8
BLACK
6
CONTINUOUS
10
4.2367729921259842
20
-2.9175497637795273
11
4.2380757874015744
21
-2.9184202755905511
0
LINE
8
BLACK
6
CONTINUOUS
10
4.2380757874015744
20
-2.9184202755905511
11
4.2389462992125981
21
-2.9197230708661417
0
LINE
8
BLACK
6
CONTINUOUS
10
4.2389462992125981
20
-2.9197230708661417
11
4.2392519685039369
21
-2.9212598425196852
0
LINE
8
BLACK
6
CONTINUOUS
10
4.2392519685039369
20
-2.9212598425196852
11
4.2392519685039369
21
-2.9330708661417324
0
LINE
8
BLACK
6
CONTINUOUS
10
4.2392519685039369
20
-2.9330708661417324
11
4.2389462992125981
21
-2.9346076377952754
0
LINE
8
BLACK
6
CONTINUOUS
10
4.2389462992125981
20
-2.9346076377952754
11
4.2380757874015744
21
-2.9359104330708661
0
LINE
8
BLACK
6
CONTINUOUS
10
4.2380757874015744
20
-2.9359104330708661
11
4.2367729921259842
21
-2.9367809448818898
0
LINE
8
BLACK
6
CONTINUOUS
10
4.2367729921259842
20
-2.9367809448818898
11
4.2352362204724407
21
-2.9370866141732281
0
LINE
8
BLACK
6
CONTINUOUS
10
4.2352362204724407
20
-2.9370866141732281
11
4.2135826771653546
21
-2.9370866141732281
0
LINE
8
BLACK
6
CONTINUOUS
10
4.2135826771653546
20
-2.9370866141732281
11
4.2120459055118111
21
-2.9367809448818898
0
LINE
8
BLACK
6
CONTINUOUS
10
4.2120459055118111
20
-2.9367809448818898
11
4.2107431102362201
21
-2.9359104330708661
0
LINE
8
BLACK
6
CONTINUOUS
10
4.2107431102362201
20
-2.9359104330708661
11
4.2098725984251963
21
-2.9346076377952754
0
LINE
8
BLACK
6
CONTINUOUS
10
4.2098725984251963
20
-2.9346076377952754
11
4.2095669291338584
21
-2.9330708661417324
0
LINE
8
BLACK
6
CONTINUOUS
10
4.2095669291338584
20
-2.9330708661417324
11
4.2095669291338584
21
-2.9212598425196852
0
LINE
8
BLACK
6
CONTINUOUS
10
4.2095669291338584
20
-2.9212598425196852
11
4.2098725984251963
21
-2.9197230708661417
0
LINE
8
BLACK
6
CONTINUOUS
10
4.2098725984251963
20
-2.9197230708661417
11
4.2107431102362201
21
-2.9184202755905511
0
LINE
8
BLACK
6
CONTINUOUS
10
4.2107431102362201
20
-2.9184202755905511
11
4.2120459055118111
21
-2.9175497637795273
0
LINE
8
BLACK
6
CONTINUOUS
10
4.2120459055118111
20
-2.9175497637795273
11
4.2135826771653546
21
-2.917244094488189
0
LINE
8
BLACK
6
CONTINUOUS
10
4.2135826771653546
20
-2.917244094488189
11
4.2352362204724407
21
-2.917244094488189
0
LINE
8
BLACK
6
CONTINUOUS
10
4.2352362204724407
20
-2.917244094488189
11
4.2367729921259842
21
-2.9175497637795273
0
LINE
8
BLACK
6
CONTINUOUS
10
4.1865761417322833
20
-2.9057387401574801
11
4.1878789370078735
21
-2.9066092519685038
0
LINE
8
BLACK
6
CONTINUOUS
10
4.1878789370078735
20
-2.9066092519685038
11
4.1887494488188972
21
-2.9079120472440945
0
LINE
8
BLACK
6
CONTINUOUS
10
4.1887494488188972
20
-2.9079120472440945
11
4.189055118110236
21
-2.9094488188976375
0
LINE
8
BLACK
6
CONTINUOUS
10
4.189055118110236
20
-2.9094488188976375
11
4.189055118110236
21
-2.9212598425196852
0
LINE
8
BLACK
6
CONTINUOUS
10
4.189055118110236
20
-2.9212598425196852
11
4.1887494488188972
21
-2.9227966141732282
0
LINE
8
BLACK
6
CONTINUOUS
10
4.1887494488188972
20
-2.9227966141732282
11
4.1878789370078735
21
-2.9240994094488189
0
LINE
8
BLACK
6
CONTINUOUS
10
4.1878789370078735
20
-2.9240994094488189
11
4.1865761417322833
21
-2.9249699212598426
0
LINE
8
BLACK
6
CONTINUOUS
10
4.1865761417322833
20
-2.9249699212598426
11
4.1850393700787398
21
-2.9252755905511809
0
LINE
8
BLACK
6
CONTINUOUS
10
4.1850393700787398
20
-2.9252755905511809
11
4.1633858267716537
21
-2.9252755905511809
0
LINE
8
BLACK
6
CONTINUOUS
10
4.1633858267716537
20
-2.9252755905511809
11
4.1618490551181102
21
-2.9249699212598426
0
LINE
8
BLACK
6
CONTINUOUS
10
4.1618490551181102
20
-2.9249699212598426
11
4.16054625984252
21
-2.9240994094488189
0
LINE
8
BLACK
6
CONTINUOUS
10
4.16054625984252
20
-2.9240994094488189
11
4.1596757480314963
21
-2.9227966141732282
0
LINE
8
BLACK
6
CONTINUOUS
10
4.1596757480314963
20
-2.9227966141732282
11
4.1593700787401575
21
-2.9212598425196852
0
LINE
8
BLACK
6
CONTINUOUS
10
4.1593700787401575
20
-2.9212598425196852
11
4.1593700787401575
21
-2.9094488188976375
0
LINE
8
BLACK
6
CONTINUOUS
10
4.1593700787401575
20
-2.9094488188976375
11
4.1596757480314963
21
-2.9079120472440945
0
LINE
8
BLACK
6
CONTINUOUS
10
4.1596757480314963
20
-2.9079120472440945
11
4.16054625984252
21
-2.9066092519685038
0
LINE
8
BLACK
6
CONTINUOUS
10
4.16054625984252
20
-2.9066092519685038
11
4.1618490551181102
21
-2.9057387401574801
0
LINE
8
BLACK
6
CONTINUOUS
10
4.1618490551181102
20
-2.9057387401574801
11
4.1633858267716537
21
-2.9054330708661418
0
LINE
8
BLACK
6
CONTINUOUS
10
4.1633858267716537
20
-2.9054330708661418
11
4.1850393700787398
21
-2.9054330708661418
0
LINE
8
BLACK
6
CONTINUOUS
10
4.1850393700787398
20
-2.9054330708661418
11
4.1865761417322833
21
-2.9057387401574801
0
LINE
8
BLACK
6
CONTINUOUS
10
4.2775644488188975
20
-2.9005075196850392
11
4.280475
21
-2.9021879133858266
0
LINE
8
BLACK
6
CONTINUOUS
10
4.280475
20
-2.9021879133858266
11
4.2828514566929137
21
-2.9045643700787402
0
LINE
8
BLACK
6
CONTINUOUS
10
4.2828514566929137
20
-2.9045643700787402
11
4.2845318503937007
21
-2.9074749212598423
0
LINE
8
BLACK
6
CONTINUOUS
10
4.2845318503937007
20
-2.9074749212598423
11
4.2854016535433068
21
-2.9107211811023621
0
LINE
8
BLACK
6
CONTINUOUS
10
4.2854016535433068
20
-2.9107211811023621
11
4.2854016535433068
21
-2.914081968503937
0
LINE
8
BLACK
6
CONTINUOUS
10
4.2854016535433068
20
-2.914081968503937
11
4.2845318503937007
21
-2.9173282283464568
0
LINE
8
BLACK
6
CONTINUOUS
10
4.2845318503937007
20
-2.9173282283464568
11
4.2828514566929137
21
-2.9202387795275588
0
LINE
8
BLACK
6
CONTINUOUS
10
4.2828514566929137
20
-2.9202387795275588
11
4.280475
21
-2.9226152362204725
0
LINE
8
BLACK
6
CONTINUOUS
10
4.280475
20
-2.9226152362204725
11
4.2775644488188975
21
-2.9242956299212599
0
LINE
8
BLACK
6
CONTINUOUS
10
4.2775644488188975
20
-2.9242956299212599
11
4.2743181889763777
21
-2.9251654330708661
0
LINE
8
BLACK
6
CONTINUOUS
10
4.2743181889763777
20
-2.9251654330708661
11
4.2709574015748029
21
-2.9251654330708661
0
LINE
8
BLACK
6
CONTINUOUS
10
4.2709574015748029
20
-2.9251654330708661
11
4.2677111417322831
21
-2.9242956299212599
0
LINE
8
BLACK
6
CONTINUOUS
10
4.2677111417322831
20
-2.9242956299212599
11
4.2648005905511814
21
-2.9226152362204725
0
LINE
8
BLACK
6
CONTINUOUS
10
4.2648005905511814
20
-2.9226152362204725
11
4.2624241338582678
21
-2.9202387795275588
0
LINE
8
BLACK
6
CONTINUOUS
10
4.2624241338582678
20
-2.9202387795275588
11
4.2607437401574799
21
-2.9173282283464568
0
LINE
8
BLACK
6
CONTINUOUS
10
4.2607437401574799
20
-2.9173282283464568
11
4.2598739370078738
21
-2.914081968503937
0
LINE
8
BLACK
6
CONTINUOUS
10
4.2598739370078738
20
-2.914081968503937
11
4.2598739370078738
21
-2.9107211811023621
0
LINE
8
BLACK
6
CONTINUOUS
10
4.2598739370078738
20
-2.9107211811023621
11
4.2607437401574799
21
-2.9074749212598423
0
LINE
8
BLACK
6
CONTINUOUS
10
4.2607437401574799
20
-2.9074749212598423
11
4.2624241338582678
21
-2.9045643700787402
0
LINE
8
BLACK
6
CONTINUOUS
10
4.2624241338582678
20
-2.9045643700787402
11
4.2648005905511814
21
-2.9021879133858266
0
LINE
8
BLACK
6
CONTINUOUS
10
4.2648005905511814
20
-2.9021879133858266
11
4.2677111417322831
21
-2.9005075196850392
0
LINE
8
BLACK
6
CONTINUOUS
10
4.2677111417322831
20
-2.9005075196850392
11
4.2709574015748029
21
-2.899637716535433
0
LINE
8
BLACK
6
CONTINUOUS
10
4.2709574015748029
20
-2.899637716535433
11
4.2743181889763777
21
-2.899637716535433
0
LINE
8
BLACK
6
CONTINUOUS
10
4.2743181889763777
20
-2.899637716535433
11
4.2775644488188975
21
-2.9005075196850392
0
LINE
8
BLACK
6
CONTINUOUS
10
4.3129975196850392
20
-2.9005075196850392
11
4.3159080708661417
21
-2.9021879133858266
0
LINE
8
BLACK
6
CONTINUOUS
10
4.3159080708661417
20
-2.9021879133858266
11
4.3182845275590553
21
-2.9045643700787402
0
LINE
8
BLACK
6
CONTINUOUS
10
4.3182845275590553
20
-2.9045643700787402
11
4.3199649212598423
21
-2.9074749212598423
0
LINE
8
BLACK
6
CONTINUOUS
10
4.3199649212598423
20
-2.9074749212598423
11
4.3208347244094485
21
-2.9107211811023621
0
LINE
8
BLACK
6
CONTINUOUS
10
4.3208347244094485
20
-2.9107211811023621
11
4.3208347244094485
21
-2.914081968503937
0
LINE
8
BLACK
6
CONTINUOUS
10
4.3208347244094485
20
-2.914081968503937
11
4.3199649212598423
21
-2.9173282283464568
0
LINE
8
BLACK
6
CONTINUOUS
10
4.3199649212598423
20
-2.9173282283464568
11
4.3182845275590553
21
-2.9202387795275588
0
LINE
8
BLACK
6
CONTINUOUS
10
4.3182845275590553
20
-2.9202387795275588
11
4.3159080708661417
21
-2.9226152362204725
0
LINE
8
BLACK
6
CONTINUOUS
10
4.3159080708661417
20
-2.9226152362204725
11
4.3129975196850392
21
-2.9242956299212599
0
LINE
8
BLACK
6
CONTINUOUS
10
4.3129975196850392
20
-2.9242956299212599
11
4.3097512598425194
21
-2.9251654330708661
0
LINE
8
BLACK
6
CONTINUOUS
10
4.3097512598425194
20
-2.9251654330708661
11
4.3063904724409445
21
-2.9251654330708661
0
LINE
8
BLACK
6
CONTINUOUS
10
4.3063904724409445
20
-2.9251654330708661
11
4.3031442125984247
21
-2.9242956299212599
0
LINE
8
BLACK
6
CONTINUOUS
10
4.3031442125984247
20
-2.9242956299212599
11
4.3002336614173231
21
-2.9226152362204725
0
LINE
8
BLACK
6
CONTINUOUS
10
4.3002336614173231
20
-2.9226152362204725
11
4.2978572047244095
21
-2.9202387795275588
0
LINE
8
BLACK
6
CONTINUOUS
10
4.2978572047244095
20
-2.9202387795275588
11
4.2961768110236216
21
-2.9173282283464568
0
LINE
8
BLACK
6
CONTINUOUS
10
4.2961768110236216
20
-2.9173282283464568
11
4.2953070078740154
21
-2.914081968503937
0
LINE
8
BLACK
6
CONTINUOUS
10
4.2953070078740154
20
-2.914081968503937
11
4.2953070078740154
21
-2.9107211811023621
0
LINE
8
BLACK
6
CONTINUOUS
10
4.2953070078740154
20
-2.9107211811023621
11
4.2961768110236216
21
-2.9074749212598423
0
LINE
8
BLACK
6
CONTINUOUS
10
4.2961768110236216
20
-2.9074749212598423
11
4.2978572047244095
21
-2.9045643700787402
0
LINE
8
BLACK
6
CONTINUOUS
10
4.2978572047244095
20
-2.9045643700787402
11
4.3002336614173231
21
-2.9021879133858266
0
LINE
8
BLACK
6
CONTINUOUS
10
4.3002336614173231
20
-2.9021879133858266
11
4.3031442125984247
21
-2.9005075196850392
0
LINE
8
BLACK
6
CONTINUOUS
10
4.3031442125984247
20
-2.9005075196850392
11
4.3063904724409445
21
-2.899637716535433
0
LINE
8
BLACK
6
CONTINUOUS
10
4.3063904724409445
20
-2.899637716535433
11
4.3097512598425194
21
-2.899637716535433
0
LINE
8
BLACK
6
CONTINUOUS
10
4.3097512598425194
20
-2.899637716535433
11
4.3129975196850392
21
-2.9005075196850392
0
LINE
8
BLACK
6
CONTINUOUS
10
4.1531115748031491
20
-2.8939277165354329
11
4.1544143700787401
21
-2.8947982283464566
0
LINE
8
BLACK
6
CONTINUOUS
10
4.1544143700787401
20
-2.8947982283464566
11
4.1552848818897639
21
-2.8961010236220472
0
LINE
8
BLACK
6
CONTINUOUS
10
4.1552848818897639
20
-2.8961010236220472
11
4.1555905511811027
21
-2.8976377952755903
0
LINE
8
BLACK
6
CONTINUOUS
10
4.1555905511811027
20
-2.8976377952755903
11
4.1555905511811027
21
-2.9094488188976375
0
LINE
8
BLACK
6
CONTINUOUS
10
4.1555905511811027
20
-2.9094488188976375
11
4.1552848818897639
21
-2.910985590551181
0
LINE
8
BLACK
6
CONTINUOUS
10
4.1552848818897639
20
-2.910985590551181
11
4.1544143700787401
21
-2.9122883858267716
0
LINE
8
BLACK
6
CONTINUOUS
10
4.1544143700787401
20
-2.9122883858267716
11
4.1531115748031491
21
-2.9131588976377953
0
LINE
8
BLACK
6
CONTINUOUS
10
4.1531115748031491
20
-2.9131588976377953
11
4.1515748031496065
21
-2.9134645669291337
0
LINE
8
BLACK
6
CONTINUOUS
10
4.1515748031496065
20
-2.9134645669291337
11
4.1299212598425195
21
-2.9134645669291337
0
LINE
8
BLACK
6
CONTINUOUS
10
4.1299212598425195
20
-2.9134645669291337
11
4.128384488188976
21
-2.9131588976377953
0
LINE
8
BLACK
6
CONTINUOUS
10
4.128384488188976
20
-2.9131588976377953
11
4.1270816929133858
21
-2.9122883858267716
0
LINE
8
BLACK
6
CONTINUOUS
10
4.1270816929133858
20
-2.9122883858267716
11
4.1262111811023621
21
-2.910985590551181
0
LINE
8
BLACK
6
CONTINUOUS
10
4.1262111811023621
20
-2.910985590551181
11
4.1259055118110233
21
-2.9094488188976375
0
LINE
8
BLACK
6
CONTINUOUS
10
4.1259055118110233
20
-2.9094488188976375
11
4.1259055118110233
21
-2.8976377952755903
0
LINE
8
BLACK
6
CONTINUOUS
10
4.1259055118110233
20
-2.8976377952755903
11
4.1262111811023621
21
-2.8961010236220472
0
LINE
8
BLACK
6
CONTINUOUS
10
4.1262111811023621
20
-2.8961010236220472
11
4.1270816929133858
21
-2.8947982283464566
0
LINE
8
BLACK
6
CONTINUOUS
10
4.1270816929133858
20
-2.8947982283464566
11
4.128384488188976
21
-2.8939277165354329
0
LINE
8
BLACK
6
CONTINUOUS
10
4.128384488188976
20
-2.8939277165354329
11
4.1299212598425195
21
-2.8936220472440946
0
LINE
8
BLACK
6
CONTINUOUS
10
4.1299212598425195
20
-2.8936220472440946
11
4.1515748031496065
21
-2.8936220472440946
0
LINE
8
BLACK
6
CONTINUOUS
10
4.1515748031496065
20
-2.8936220472440946
11
4.1531115748031491
21
-2.8939277165354329
0
LINE
8
BLACK
6
CONTINUOUS
10
4.1767336220472444
20
-2.8673529133858269
11
4.1780364173228346
21
-2.8682234251968501
0
LINE
8
BLACK
6
CONTINUOUS
10
4.1780364173228346
20
-2.8682234251968501
11
4.1789069291338583
21
-2.8695262204724408
0
LINE
8
BLACK
6
CONTINUOUS
10
4.1789069291338583
20
-2.8695262204724408
11
4.1792125984251971
21
-2.8710629921259843
0
LINE
8
BLACK
6
CONTINUOUS
10
4.1792125984251971
20
-2.8710629921259843
11
4.1792125984251971
21
-2.8927165354330708
0
LINE
8
BLACK
6
CONTINUOUS
10
4.1792125984251971
20
-2.8927165354330708
11
4.1789069291338583
21
-2.8942533070866143
0
LINE
8
BLACK
6
CONTINUOUS
10
4.1789069291338583
20
-2.8942533070866143
11
4.1780364173228346
21
-2.8955561023622045
0
LINE
8
BLACK
6
CONTINUOUS
10
4.1780364173228346
20
-2.8955561023622045
11
4.1767336220472444
21
-2.8964266141732282
0
LINE
8
BLACK
6
CONTINUOUS
10
4.1767336220472444
20
-2.8964266141732282
11
4.1751968503937009
21
-2.896732283464567
0
LINE
8
BLACK
6
CONTINUOUS
10
4.1751968503937009
20
-2.896732283464567
11
4.1633858267716537
21
-2.896732283464567
0
LINE
8
BLACK
6
CONTINUOUS
10
4.1633858267716537
20
-2.896732283464567
11
4.1618490551181102
21
-2.8964266141732282
0
LINE
8
BLACK
6
CONTINUOUS
10
4.1618490551181102
20
-2.8964266141732282
11
4.16054625984252
21
-2.8955561023622045
0
LINE
8
BLACK
6
CONTINUOUS
10
4.16054625984252
20
-2.8955561023622045
11
4.1596757480314963
21
-2.8942533070866143
0
LINE
8
BLACK
6
CONTINUOUS
10
4.1596757480314963
20
-2.8942533070866143
11
4.1593700787401575
21
-2.8927165354330708
0
LINE
8
BLACK
6
CONTINUOUS
10
4.1593700787401575
20
-2.8927165354330708
11
4.1593700787401575
21
-2.8710629921259843
0
LINE
8
BLACK
6
CONTINUOUS
10
4.1593700787401575
20
-2.8710629921259843
11
4.1596757480314963
21
-2.8695262204724408
0
LINE
8
BLACK
6
CONTINUOUS
10
4.1596757480314963
20
-2.8695262204724408
11
4.16054625984252
21
-2.8682234251968501
0
LINE
8
BLACK
6
CONTINUOUS
10
4.16054625984252
20
-2.8682234251968501
11
4.1618490551181102
21
-2.8673529133858269
0
LINE
8
BLACK
6
CONTINUOUS
10
4.1618490551181102
20
-2.8673529133858269
11
4.1633858267716537
21
-2.8670472440944881
0
LINE
8
BLACK
6
CONTINUOUS
10
4.1633858267716537
20
-2.8670472440944881
11
4.1751968503937009
21
-2.8670472440944881
0
LINE
8
BLACK
6
CONTINUOUS
10
4.1751968503937009
20
-2.8670472440944881
11
4.1767336220472444
21
-2.8673529133858269
0
LINE
8
BLACK
6
CONTINUOUS
10
4.2003556692913389
20
-2.8673529133858269
11
4.201658464566929
21
-2.8682234251968501
0
LINE
8
BLACK
6
CONTINUOUS
10
4.201658464566929
20
-2.8682234251968501
11
4.2025289763779528
21
-2.8695262204724408
0
LINE
8
BLACK
6
CONTINUOUS
10
4.2025289763779528
20
-2.8695262204724408
11
4.2028346456692915
21
-2.8710629921259843
0
LINE
8
BLACK
6
CONTINUOUS
10
4.2028346456692915
20
-2.8710629921259843
11
4.2028346456692915
21
-2.8927165354330708
0
LINE
8
BLACK
6
CONTINUOUS
10
4.2028346456692915
20
-2.8927165354330708
11
4.2025289763779528
21
-2.8942533070866143
0
LINE
8
BLACK
6
CONTINUOUS
10
4.2025289763779528
20
-2.8942533070866143
11
4.201658464566929
21
-2.8955561023622045
0
LINE
8
BLACK
6
CONTINUOUS
10
4.201658464566929
20
-2.8955561023622045
11
4.2003556692913389
21
-2.8964266141732282
0
LINE
8
BLACK
6
CONTINUOUS
10
4.2003556692913389
20
-2.8964266141732282
11
4.1988188976377954
21
-2.896732283464567
0
LINE
8
BLACK
6
CONTINUOUS
10
4.1988188976377954
20
-2.896732283464567
11
4.1870078740157481
21
-2.896732283464567
0
LINE
8
BLACK
6
CONTINUOUS
10
4.1870078740157481
20
-2.896732283464567
11
4.1854711023622047
21
-2.8964266141732282
0
LINE
8
BLACK
6
CONTINUOUS
10
4.1854711023622047
20
-2.8964266141732282
11
4.1841683070866145
21
-2.8955561023622045
0
LINE
8
BLACK
6
CONTINUOUS
10
4.1841683070866145
20
-2.8955561023622045
11
4.1832977952755908
21
-2.8942533070866143
0
LINE
8
BLACK
6
CONTINUOUS
10
4.1832977952755908
20
-2.8942533070866143
11
4.182992125984252
21
-2.8927165354330708
0
LINE
8
BLACK
6
CONTINUOUS
10
4.182992125984252
20
-2.8927165354330708
11
4.182992125984252
21
-2.8710629921259843
0
LINE
8
BLACK
6
CONTINUOUS
10
4.182992125984252
20
-2.8710629921259843
11
4.1832977952755908
21
-2.8695262204724408
0
LINE
8
BLACK
6
CONTINUOUS
10
4.1832977952755908
20
-2.8695262204724408
11
4.1841683070866145
21
-2.8682234251968501
0
LINE
8
BLACK
6
CONTINUOUS
10
4.1841683070866145
20
-2.8682234251968501
11
4.1854711023622047
21
-2.8673529133858269
0
LINE
8
BLACK
6
CONTINUOUS
10
4.1854711023622047
20
-2.8673529133858269
11
4.1870078740157481
21
-2.8670472440944881
0
LINE
8
BLACK
6
CONTINUOUS
10
4.1870078740157481
20
-2.8670472440944881
11
4.1988188976377954
21
-2.8670472440944881
0
LINE
8
BLACK
6
CONTINUOUS
10
4.1988188976377954
20
-2.8670472440944881
11
4.2003556692913389
21
-2.8673529133858269
0
LINE
8
BLACK
6
CONTINUOUS
10
4.2239777165354333
20
-2.8673529133858269
11
4.2252805118110235
21
-2.8682234251968501
0
LINE
8
BLACK
6
CONTINUOUS
10
4.2252805118110235
20
-2.8682234251968501
11
4.2261510236220472
21
-2.8695262204724408
0
LINE
8
BLACK
6
CONTINUOUS
10
4.2261510236220472
20
-2.8695262204724408
11
4.226456692913386
21
-2.8710629921259843
0
LINE
8
BLACK
6
CONTINUOUS
10
4.226456692913386
20
-2.8710629921259843
11
4.226456692913386
21
-2.8927165354330708
0
LINE
8
BLACK
6
CONTINUOUS
10
4.226456692913386
20
-2.8927165354330708
11
4.2261510236220472
21
-2.8942533070866143
0
LINE
8
BLACK
6
CONTINUOUS
10
4.2261510236220472
20
-2.8942533070866143
11
4.2252805118110235
21
-2.8955561023622045
0
LINE
8
BLACK
6
CONTINUOUS
10
4.2252805118110235
20
-2.8955561023622045
11
4.2239777165354333
21
-2.8964266141732282
0
LINE
8
BLACK
6
CONTINUOUS
10
4.2239777165354333
20
-2.8964266141732282
11
4.2224409448818898
21
-2.896732283464567
0
LINE
8
BLACK
6
CONTINUOUS
10
4.2224409448818898
20
-2.896732283464567
11
4.2106299212598426
21
-2.896732283464567
0
LINE
8
BLACK
6
CONTINUOUS
10
4.2106299212598426
20
-2.896732283464567
11
4.2090931496062991
21
-2.8964266141732282
0
LINE
8
BLACK
6
CONTINUOUS
10
4.2090931496062991
20
-2.8964266141732282
11
4.2077903543307089
21
-2.8955561023622045
0
LINE
8
BLACK
6
CONTINUOUS
10
4.2077903543307089
20
-2.8955561023622045
11
4.2069198425196852
21
-2.8942533070866143
0
LINE
8
BLACK
6
CONTINUOUS
10
4.2069198425196852
20
-2.8942533070866143
11
4.2066141732283464
21
-2.8927165354330708
0
LINE
8
BLACK
6
CONTINUOUS
10
4.2066141732283464
20
-2.8927165354330708
11
4.2066141732283464
21
-2.8710629921259843
0
LINE
8
BLACK
6
CONTINUOUS
10
4.2066141732283464
20
-2.8710629921259843
11
4.2069198425196852
21
-2.8695262204724408
0
LINE
8
BLACK
6
CONTINUOUS
10
4.2069198425196852
20
-2.8695262204724408
11
4.2077903543307089
21
-2.8682234251968501
0
LINE
8
BLACK
6
CONTINUOUS
10
4.2077903543307089
20
-2.8682234251968501
11
4.2090931496062991
21
-2.8673529133858269
0
LINE
8
BLACK
6
CONTINUOUS
10
4.2090931496062991
20
-2.8673529133858269
11
4.2106299212598426
21
-2.8670472440944881
0
LINE
8
BLACK
6
CONTINUOUS
10
4.2106299212598426
20
-2.8670472440944881
11
4.2224409448818898
21
-2.8670472440944881
0
LINE
8
BLACK
6
CONTINUOUS
10
4.2224409448818898
20
-2.8670472440944881
11
4.2239777165354333
21
-2.8673529133858269
0
LINE
8
BLACK
6
CONTINUOUS
10
4.2475997637795277
20
-2.8673529133858269
11
4.2489025590551179
21
-2.8682234251968501
0
LINE
8
BLACK
6
CONTINUOUS
10
4.2489025590551179
20
-2.8682234251968501
11
4.2497730708661416
21
-2.8695262204724408
0
LINE
8
BLACK
6
CONTINUOUS
10
4.2497730708661416
20
-2.8695262204724408
11
4.2500787401574804
21
-2.8710629921259843
0
LINE
8
BLACK
6
CONTINUOUS
10
4.2500787401574804
20
-2.8710629921259843
11
4.2500787401574804
21
-2.8927165354330708
0
LINE
8
BLACK
6
CONTINUOUS
10
4.2500787401574804
20
-2.8927165354330708
11
4.2497730708661416
21
-2.8942533070866143
0
LINE
8
BLACK
6
CONTINUOUS
10
4.2497730708661416
20
-2.8942533070866143
11
4.2489025590551179
21
-2.8955561023622045
0
LINE
8
BLACK
6
CONTINUOUS
10
4.2489025590551179
20
-2.8955561023622045
11
4.2475997637795277
21
-2.8964266141732282
0
LINE
8
BLACK
6
CONTINUOUS
10
4.2475997637795277
20
-2.8964266141732282
11
4.2460629921259843
21
-2.896732283464567
0
LINE
8
BLACK
6
CONTINUOUS
10
4.2460629921259843
20
-2.896732283464567
11
4.234251968503937
21
-2.896732283464567
0
LINE
8
BLACK
6
CONTINUOUS
10
4.234251968503937
20
-2.896732283464567
11
4.2327151968503935
21
-2.8964266141732282
0
LINE
8
BLACK
6
CONTINUOUS
10
4.2327151968503935
20
-2.8964266141732282
11
4.2314124015748034
21
-2.8955561023622045
0
LINE
8
BLACK
6
CONTINUOUS
10
4.2314124015748034
20
-2.8955561023622045
11
4.2305418897637797
21
-2.8942533070866143
0
LINE
8
BLACK
6
CONTINUOUS
10
4.2305418897637797
20
-2.8942533070866143
11
4.2302362204724409
21
-2.8927165354330708
0
LINE
8
BLACK
6
CONTINUOUS
10
4.2302362204724409
20
-2.8927165354330708
11
4.2302362204724409
21
-2.8710629921259843
0
LINE
8
BLACK
6
CONTINUOUS
10
4.2302362204724409
20
-2.8710629921259843
11
4.2305418897637797
21
-2.8695262204724408
0
LINE
8
BLACK
6
CONTINUOUS
10
4.2305418897637797
20
-2.8695262204724408
11
4.2314124015748034
21
-2.8682234251968501
0
LINE
8
BLACK
6
CONTINUOUS
10
4.2314124015748034
20
-2.8682234251968501
11
4.2327151968503935
21
-2.8673529133858269
0
LINE
8
BLACK
6
CONTINUOUS
10
4.2327151968503935
20
-2.8673529133858269
11
4.234251968503937
21
-2.8670472440944881
0
LINE
8
BLACK
6
CONTINUOUS
10
4.234251968503937
20
-2.8670472440944881
11
4.2460629921259843
21
-2.8670472440944881
0
LINE
8
BLACK
6
CONTINUOUS
10
4.2460629921259843
20
-2.8670472440944881
11
4.2475997637795277
21
-2.8673529133858269
0
LINE
8
BLACK
6
CONTINUOUS
10
4.2712218110236222
20
-2.8673529133858269
11
4.2725246062992124
21
-2.8682234251968501
0
LINE
8
BLACK
6
CONTINUOUS
10
4.2725246062992124
20
-2.8682234251968501
11
4.2733951181102361
21
-2.8695262204724408
0
LINE
8
BLACK
6
CONTINUOUS
10
4.2733951181102361
20
-2.8695262204724408
11
4.2737007874015749
21
-2.8710629921259843
0
LINE
8
BLACK
6
CONTINUOUS
10
4.2737007874015749
20
-2.8710629921259843
11
4.2737007874015749
21
-2.8927165354330708
0
LINE
8
BLACK
6
CONTINUOUS
10
4.2737007874015749
20
-2.8927165354330708
11
4.2733951181102361
21
-2.8942533070866143
0
LINE
8
BLACK
6
CONTINUOUS
10
4.2733951181102361
20
-2.8942533070866143
11
4.2725246062992124
21
-2.8955561023622045
0
LINE
8
BLACK
6
CONTINUOUS
10
4.2725246062992124
20
-2.8955561023622045
11
4.2712218110236222
21
-2.8964266141732282
0
LINE
8
BLACK
6
CONTINUOUS
10
4.2712218110236222
20
-2.8964266141732282
11
4.2696850393700787
21
-2.896732283464567
0
LINE
8
BLACK
6
CONTINUOUS
10
4.2696850393700787
20
-2.896732283464567
11
4.2578740157480315
21
-2.896732283464567
0
LINE
8
BLACK
6
CONTINUOUS
10
4.2578740157480315
20
-2.896732283464567
11
4.256337244094488
21
-2.8964266141732282
0
LINE
8
BLACK
6
CONTINUOUS
10
4.256337244094488
20
-2.8964266141732282
11
4.2550344488188978
21
-2.8955561023622045
0
LINE
8
BLACK
6
CONTINUOUS
10
4.2550344488188978
20
-2.8955561023622045
11
4.2541639370078741
21
-2.8942533070866143
0
LINE
8
BLACK
6
CONTINUOUS
10
4.2541639370078741
20
-2.8942533070866143
11
4.2538582677165353
21
-2.8927165354330708
0
LINE
8
BLACK
6
CONTINUOUS
10
4.2538582677165353
20
-2.8927165354330708
11
4.2538582677165353
21
-2.8710629921259843
0
LINE
8
BLACK
6
CONTINUOUS
10
4.2538582677165353
20
-2.8710629921259843
11
4.2541639370078741
21
-2.8695262204724408
0
LINE
8
BLACK
6
CONTINUOUS
10
4.2541639370078741
20
-2.8695262204724408
11
4.2550344488188978
21
-2.8682234251968501
0
LINE
8
BLACK
6
CONTINUOUS
10
4.2550344488188978
20
-2.8682234251968501
11
4.256337244094488
21
-2.8673529133858269
0
LINE
8
BLACK
6
CONTINUOUS
10
4.256337244094488
20
-2.8673529133858269
11
4.2578740157480315
21
-2.8670472440944881
0
LINE
8
BLACK
6
CONTINUOUS
10
4.2578740157480315
20
-2.8670472440944881
11
4.2696850393700787
21
-2.8670472440944881
0
LINE
8
BLACK
6
CONTINUOUS
10
4.2696850393700787
20
-2.8670472440944881
11
4.2712218110236222
21
-2.8673529133858269
0
LINE
8
BLACK
6
CONTINUOUS
10
4.2948438582677166
20
-2.8673529133858269
11
4.2961466535433068
21
-2.8682234251968501
0
LINE
8
BLACK
6
CONTINUOUS
10
4.2961466535433068
20
-2.8682234251968501
11
4.2970171653543305
21
-2.8695262204724408
0
LINE
8
BLACK
6
CONTINUOUS
10
4.2970171653543305
20
-2.8695262204724408
11
4.2973228346456693
21
-2.8710629921259843
0
LINE
8
BLACK
6
CONTINUOUS
10
4.2973228346456693
20
-2.8710629921259843
11
4.2973228346456693
21
-2.8927165354330708
0
LINE
8
BLACK
6
CONTINUOUS
10
4.2973228346456693
20
-2.8927165354330708
11
4.2970171653543305
21
-2.8942533070866143
0
LINE
8
BLACK
6
CONTINUOUS
10
4.2970171653543305
20
-2.8942533070866143
11
4.2961466535433068
21
-2.8955561023622045
0
LINE
8
BLACK
6
CONTINUOUS
10
4.2961466535433068
20
-2.8955561023622045
11
4.2948438582677166
21
-2.8964266141732282
0
LINE
8
BLACK
6
CONTINUOUS
10
4.2948438582677166
20
-2.8964266141732282
11
4.2933070866141732
21
-2.896732283464567
0
LINE
8
BLACK
6
CONTINUOUS
10
4.2933070866141732
20
-2.896732283464567
11
4.2814960629921259
21
-2.896732283464567
0
LINE
8
BLACK
6
CONTINUOUS
10
4.2814960629921259
20
-2.896732283464567
11
4.2799592913385824
21
-2.8964266141732282
0
LINE
8
BLACK
6
CONTINUOUS
10
4.2799592913385824
20
-2.8964266141732282
11
4.2786564960629923
21
-2.8955561023622045
0
LINE
8
BLACK
6
CONTINUOUS
10
4.2786564960629923
20
-2.8955561023622045
11
4.2777859842519685
21
-2.8942533070866143
0
LINE
8
BLACK
6
CONTINUOUS
10
4.2777859842519685
20
-2.8942533070866143
11
4.2774803149606297
21
-2.8927165354330708
0
LINE
8
BLACK
6
CONTINUOUS
10
4.2774803149606297
20
-2.8927165354330708
11
4.2774803149606297
21
-2.8710629921259843
0
LINE
8
BLACK
6
CONTINUOUS
10
4.2774803149606297
20
-2.8710629921259843
11
4.2777859842519685
21
-2.8695262204724408
0
LINE
8
BLACK
6
CONTINUOUS
10
4.2777859842519685
20
-2.8695262204724408
11
4.2786564960629923
21
-2.8682234251968501
0
LINE
8
BLACK
6
CONTINUOUS
10
4.2786564960629923
20
-2.8682234251968501
11
4.2799592913385824
21
-2.8673529133858269
0
LINE
8
BLACK
6
CONTINUOUS
10
4.2799592913385824
20
-2.8673529133858269
11
4.2814960629921259
21
-2.8670472440944881
0
LINE
8
BLACK
6
CONTINUOUS
10
4.2814960629921259
20
-2.8670472440944881
11
4.2933070866141732
21
-2.8670472440944881
0
LINE
8
BLACK
6
CONTINUOUS
10
4.2933070866141732
20
-2.8670472440944881
11
4.2948438582677166
21
-2.8673529133858269
0
LINE
8
BLACK
6
CONTINUOUS
10
4.3184659055118111
20
-2.8673529133858269
11
4.3197687007874013
21
-2.8682234251968501
0
LINE
8
BLACK
6
CONTINUOUS
10
4.3197687007874013
20
-2.8682234251968501
11
4.320639212598425
21
-2.8695262204724408
0
LINE
8
BLACK
6
CONTINUOUS
10
4.320639212598425
20
-2.8695262204724408
11
4.3209448818897638
21
-2.8710629921259843
0
LINE
8
BLACK
6
CONTINUOUS
10
4.3209448818897638
20
-2.8710629921259843
11
4.3209448818897638
21
-2.8927165354330708
0
LINE
8
BLACK
6
CONTINUOUS
10
4.3209448818897638
20
-2.8927165354330708
11
4.320639212598425
21
-2.8942533070866143
0
LINE
8
BLACK
6
CONTINUOUS
10
4.320639212598425
20
-2.8942533070866143
11
4.3197687007874013
21
-2.8955561023622045
0
LINE
8
BLACK
6
CONTINUOUS
10
4.3197687007874013
20
-2.8955561023622045
11
4.3184659055118111
21
-2.8964266141732282
0
LINE
8
BLACK
6
CONTINUOUS
10
4.3184659055118111
20
-2.8964266141732282
11
4.3169291338582676
21
-2.896732283464567
0
LINE
8
BLACK
6
CONTINUOUS
10
4.3169291338582676
20
-2.896732283464567
11
4.3051181102362204
21
-2.896732283464567
0
LINE
8
BLACK
6
CONTINUOUS
10
4.3051181102362204
20
-2.896732283464567
11
4.3035813385826769
21
-2.8964266141732282
0
LINE
8
BLACK
6
CONTINUOUS
10
4.3035813385826769
20
-2.8964266141732282
11
4.3022785433070867
21
-2.8955561023622045
0
LINE
8
BLACK
6
CONTINUOUS
10
4.3022785433070867
20
-2.8955561023622045
11
4.301408031496063
21
-2.8942533070866143
0
LINE
8
BLACK
6
CONTINUOUS
10
4.301408031496063
20
-2.8942533070866143
11
4.3011023622047242
21
-2.8927165354330708
0
LINE
8
BLACK
6
CONTINUOUS
10
4.3011023622047242
20
-2.8927165354330708
11
4.3011023622047242
21
-2.8710629921259843
0
LINE
8
BLACK
6
CONTINUOUS
10
4.3011023622047242
20
-2.8710629921259843
11
4.301408031496063
21
-2.8695262204724408
0
LINE
8
BLACK
6
CONTINUOUS
10
4.301408031496063
20
-2.8695262204724408
11
4.3022785433070867
21
-2.8682234251968501
0
LINE
8
BLACK
6
CONTINUOUS
10
4.3022785433070867
20
-2.8682234251968501
11
4.3035813385826769
21
-2.8673529133858269
0
LINE
8
BLACK
6
CONTINUOUS
10
4.3035813385826769
20
-2.8673529133858269
11
4.3051181102362204
21
-2.8670472440944881
0
LINE
8
BLACK
6
CONTINUOUS
10
4.3051181102362204
20
-2.8670472440944881
11
4.3169291338582676
21
-2.8670472440944881
0
LINE
8
BLACK
6
CONTINUOUS
10
4.3169291338582676
20
-2.8670472440944881
11
4.3184659055118111
21
-2.8673529133858269
0
LINE
8
BLACK
6
CONTINUOUS
10
4.1531115748031491
20
-2.8673529133858269
11
4.1544143700787401
21
-2.8682234251968501
0
LINE
8
BLACK
6
CONTINUOUS
10
4.1544143700787401
20
-2.8682234251968501
11
4.1552848818897639
21
-2.8695262204724408
0
LINE
8
BLACK
6
CONTINUOUS
10
4.1552848818897639
20
-2.8695262204724408
11
4.1555905511811027
21
-2.8710629921259843
0
LINE
8
BLACK
6
CONTINUOUS
10
4.1555905511811027
20
-2.8710629921259843
11
4.1555905511811027
21
-2.8828740157480315
0
LINE
8
BLACK
6
CONTINUOUS
10
4.1555905511811027
20
-2.8828740157480315
11
4.1552848818897639
21
-2.8844107874015745
0
LINE
8
BLACK
6
CONTINUOUS
10
4.1552848818897639
20
-2.8844107874015745
11
4.1544143700787401
21
-2.8857135826771652
0
LINE
8
BLACK
6
CONTINUOUS
10
4.1544143700787401
20
-2.8857135826771652
11
4.1531115748031491
21
-2.8865840944881889
0
LINE
8
BLACK
6
CONTINUOUS
10
4.1531115748031491
20
-2.8865840944881889
11
4.1515748031496065
21
-2.8868897637795277
0
LINE
8
BLACK
6
CONTINUOUS
10
4.1515748031496065
20
-2.8868897637795277
11
4.1299212598425195
21
-2.8868897637795277
0
LINE
8
BLACK
6
CONTINUOUS
10
4.1299212598425195
20
-2.8868897637795277
11
4.128384488188976
21
-2.8865840944881889
0
LINE
8
BLACK
6
CONTINUOUS
10
4.128384488188976
20
-2.8865840944881889
11
4.1270816929133858
21
-2.8857135826771652
0
LINE
8
BLACK
6
CONTINUOUS
10
4.1270816929133858
20
-2.8857135826771652
11
4.1262111811023621
21
-2.8844107874015745
0
LINE
8
BLACK
6
CONTINUOUS
10
4.1262111811023621
20
-2.8844107874015745
11
4.1259055118110233
21
-2.8828740157480315
0
LINE
8
BLACK
6
CONTINUOUS
10
4.1259055118110233
20
-2.8828740157480315
11
4.1259055118110233
21
-2.8710629921259843
0
LINE
8
BLACK
6
CONTINUOUS
10
4.1259055118110233
20
-2.8710629921259843
11
4.1262111811023621
21
-2.8695262204724408
0
LINE
8
BLACK
6
CONTINUOUS
10
4.1262111811023621
20
-2.8695262204724408
11
4.1270816929133858
21
-2.8682234251968501
0
LINE
8
BLACK
6
CONTINUOUS
10
4.1270816929133858
20
-2.8682234251968501
11
4.128384488188976
21
-2.8673529133858269
0
LINE
8
BLACK
6
CONTINUOUS
10
4.128384488188976
20
-2.8673529133858269
11
4.1299212598425195
21
-2.8670472440944881
0
LINE
8
BLACK
6
CONTINUOUS
10
4.1299212598425195
20
-2.8670472440944881
11
4.1515748031496065
21
-2.8670472440944881
0
LINE
8
BLACK
6
CONTINUOUS
10
4.1515748031496065
20
-2.8670472440944881
11
4.1531115748031491
21
-2.8673529133858269
0
LINE
8
BLACK
6
CONTINUOUS
10
4.0708541338582673
20
-2.8321520472440946
11
3.9921139763779525
21
-2.8321520472440946
0
LINE
8
BLACK
6
CONTINUOUS
10
3.9921139763779525
20
-2.8321520472440946
11
3.9921139763779525
21
-2.7534118897637794
0
LINE
8
BLACK
6
CONTINUOUS
10
3.9921139763779525
20
-2.7534118897637794
11
4.0708541338582673
21
-2.7534118897637794
0
LINE
8
BLACK
6
CONTINUOUS
10
4.0708541338582673
20
-2.7534118897637794
11
4.0708541338582673
21
-2.8321520472440946
0
LINE
8
BLACK
6
CONTINUOUS
10
4.1903346456692914
20
-2.8321520472440946
11
4.1115944881889765
21
-2.8321520472440946
0
LINE
8
BLACK
6
CONTINUOUS
10
4.1115944881889765
20
-2.8321520472440946
11
4.1115944881889765
21
-2.7534118897637794
0
LINE
8
BLACK
6
CONTINUOUS
10
4.1115944881889765
20
-2.7534118897637794
11
4.1903346456692914
21
-2.7534118897637794
0
LINE
8
BLACK
6
CONTINUOUS
10
4.1903346456692914
20
-2.7534118897637794
11
4.1903346456692914
21
-2.8321520472440946
0
LINE
8
BLACK
6
CONTINUOUS
10
4.3080960236220474
20
-2.8321520472440946
11
4.2293558661417325
21
-2.8321520472440946
0
LINE
8
BLACK
6
CONTINUOUS
10
4.2293558661417325
20
-2.8321520472440946
11
4.2293558661417325
21
-2.7534118897637794
0
LINE
8
BLACK
6
CONTINUOUS
10
4.2293558661417325
20
-2.7534118897637794
11
4.3080960236220474
21
-2.7534118897637794
0
LINE
8
BLACK
6
CONTINUOUS
10
4.3080960236220474
20
-2.7534118897637794
11
4.3080960236220474
21
-2.8321520472440946
  0
ENDSEC
  0
EOF
