  0
SECTION
  2
HEADER
  9
$ANGBASE
  50
0.0
  9
$ANGDIR
  70
1
  9
$MEASUREMENT
  70
1
  0
ENDSEC
  0
SECTION
  2
TABLES
  0
TABLE
  2
LTYPE
  70
4
  0
LTYPE
  5
40F
  2
CONTINUOUS
  70
0
  3
Solid line
  72
65
  73
0
  40
0.0
  0
LTYPE
  5
410
  2
DASHDOT
 70
0
  3
Dash Dot ____ _ ____ _
 72
65
 73
4
 40
2.0
 49
1.25
 49
-0.25
 49
0.25
 49
-0.25
  0
LTYPE
  5
411
  2
DASHED
 70
0
  3
Dashed __ __ __ __ __
 72
65
 73
2
 40
0.75
 49
0.5
 49
-0.25
  0
LTYPE
  5
43B
  2
DOTTED
 70
0
  3
Dotted .  .  .  .
 72
65
 73
2
 40
0.2
 49
0.0
 49
-0.2
  0
ENDTAB
  0
TABLE
  2
STYLE
  70
4
  0
STYLE
  2
KICAD
  70
0
  40
0
  41
1
  42
1
  50
0
  71
0
  3
isocp.shx
  0
STYLE
  2
KICADB
  70
0
  40
0
  41
1
  42
1
  50
0
  71
0
  3
isocp.shx
  0
STYLE
  2
KICADI
  70
0
  40
0
  41
1
  42
1
  50
15
  71
0
  3
isocp.shx
  0
STYLE
  2
KICADBI
  70
0
  40
0
  41
1
  42
1
  50
15
  71
0
  3
isocp.shx
  0
ENDTAB
  0
TABLE
  2
LAYER
  70
1
  0
LAYER
  2
BLACK
  70
0
  62
7
  6
CONTINUOUS
  0
ENDTAB
  0
ENDSEC
  0
SECTION
  2
ENTITIES
0
LINE
8
BLACK
6
CONTINUOUS
10
109.2595669999999899
20
-69.476902999999993
11
109.2676779999999894
21
-69.4823219999999964
0
LINE
8
BLACK
6
CONTINUOUS
10
109.2676779999999894
20
-69.4823219999999964
11
110.2676779999999894
21
-70.4823229999999938
0
LINE
8
BLACK
6
CONTINUOUS
10
110.2676779999999894
20
-70.4823229999999938
11
110.2730969999999928
21
-70.4904329999999959
0
LINE
8
BLACK
6
CONTINUOUS
10
110.2730969999999928
20
-70.4904329999999959
11
110.2749999999999915
21
-70.5
0
LINE
8
BLACK
6
CONTINUOUS
10
110.2749999999999915
20
-70.5
11
110.2749999999999915
21
-78.
0
LINE
8
BLACK
6
CONTINUOUS
10
110.2749999999999915
20
-78.
11
110.2730969999999928
21
-78.0095669999999899
0
LINE
8
BLACK
6
CONTINUOUS
10
110.2730969999999928
20
-78.0095669999999899
11
110.2676779999999894
21
-78.0176779999999894
0
LINE
8
BLACK
6
CONTINUOUS
10
110.2676779999999894
20
-78.0176779999999894
11
108.2676779999999894
21
-80.0176779999999894
0
LINE
8
BLACK
6
CONTINUOUS
10
108.2676779999999894
20
-80.0176779999999894
11
108.2595669999999899
21
-80.0230969999999928
0
LINE
8
BLACK
6
CONTINUOUS
10
108.2595669999999899
20
-80.0230969999999928
11
108.25
21
-80.0249999999999915
0
LINE
8
BLACK
6
CONTINUOUS
10
108.25
20
-80.0249999999999915
11
102.
21
-80.0249999999999915
0
LINE
8
BLACK
6
CONTINUOUS
10
102.
20
-80.0249999999999915
11
101.9904329999999959
21
-80.0230969999999928
0
LINE
8
BLACK
6
CONTINUOUS
10
101.9904329999999959
20
-80.0230969999999928
11
101.9823229999999938
21
-80.0176779999999894
0
LINE
8
BLACK
6
CONTINUOUS
10
101.9823229999999938
20
-80.0176779999999894
11
100.9823219999999964
21
-79.0176779999999894
0
LINE
8
BLACK
6
CONTINUOUS
10
100.9823219999999964
20
-79.0176779999999894
11
100.976902999999993
21
-79.0095669999999899
0
LINE
8
BLACK
6
CONTINUOUS
10
100.976902999999993
20
-79.0095669999999899
11
100.9749999999999943
21
-79.
0
LINE
8
BLACK
6
CONTINUOUS
10
100.9749999999999943
20
-79.
11
100.9749999999999943
21
-70.
0
LINE
8
BLACK
6
CONTINUOUS
10
100.9749999999999943
20
-70.
11
100.976902999999993
21
-69.9904329999999959
0
LINE
8
BLACK
6
CONTINUOUS
10
100.976902999999993
20
-69.9904329999999959
11
100.9823219999999964
21
-69.9823219999999964
0
LINE
8
BLACK
6
CONTINUOUS
10
100.9823219999999964
20
-69.9823219999999964
11
101.4823219999999964
21
-69.4823219999999964
0
LINE
8
BLACK
6
CONTINUOUS
10
101.4823219999999964
20
-69.4823219999999964
11
101.4904329999999959
21
-69.476902999999993
0
LINE
8
BLACK
6
CONTINUOUS
10
101.4904329999999959
20
-69.476902999999993
11
101.5
21
-69.4749999999999943
0
LINE
8
BLACK
6
CONTINUOUS
10
101.5
20
-69.4749999999999943
11
109.25
21
-69.4749999999999943
0
LINE
8
BLACK
6
CONTINUOUS
10
109.25
20
-69.4749999999999943
11
109.2595669999999899
21
-69.476902999999993
0
LINE
8
BLACK
6
CONTINUOUS
10
101.5103560000000016
20
-69.5249999999999915
11
101.0249999999999915
21
-70.0103560000000016
0
LINE
8
BLACK
6
CONTINUOUS
10
101.0249999999999915
20
-70.0103560000000016
11
101.0249999999999915
21
-78.9896439999999984
0
LINE
8
BLACK
6
CONTINUOUS
10
101.0249999999999915
20
-78.9896439999999984
11
102.0103549999999899
21
-79.9749999999999943
0
LINE
8
BLACK
6
CONTINUOUS
10
102.0103549999999899
20
-79.9749999999999943
11
108.2396439999999984
21
-79.9749999999999943
0
LINE
8
BLACK
6
CONTINUOUS
10
108.2396439999999984
20
-79.9749999999999943
11
110.2249999999999943
21
-77.9896439999999984
0
LINE
8
BLACK
6
CONTINUOUS
10
110.2249999999999943
20
-77.9896439999999984
11
110.2249999999999943
21
-70.5103549999999899
0
LINE
8
BLACK
6
CONTINUOUS
10
110.2249999999999943
20
-70.5103549999999899
11
109.2396439999999984
21
-69.5249999999999915
0
LINE
8
BLACK
6
CONTINUOUS
10
109.2396439999999984
20
-69.5249999999999915
11
101.5103560000000016
21
-69.5249999999999915
  0
ENDSEC
  0
EOF
