  0
SECTION
  2
HEADER
  9
$ANGBASE
  50
0.0
  9
$ANGDIR
  70
1
  9
$MEASUREMENT
  70
1
  0
ENDSEC
  0
SECTION
  2
TABLES
  0
TABLE
  2
LTYPE
  70
4
  0
LTYPE
  5
40F
  2
CONTINUOUS
  70
0
  3
Solid line
  72
65
  73
0
  40
0.0
  0
LTYPE
  5
410
  2
DASHDOT
 70
0
  3
Dash Dot ____ _ ____ _
 72
65
 73
4
 40
2.0
 49
1.25
 49
-0.25
 49
0.25
 49
-0.25
  0
LTYPE
  5
411
  2
DASHED
 70
0
  3
Dashed __ __ __ __ __
 72
65
 73
2
 40
0.75
 49
0.5
 49
-0.25
  0
LTYPE
  5
43B
  2
DOTTED
 70
0
  3
Dotted .  .  .  .
 72
65
 73
2
 40
0.2
 49
0.0
 49
-0.2
  0
ENDTAB
  0
TABLE
  2
STYLE
  70
4
  0
STYLE
  2
KICAD
  70
0
  40
0
  41
1
  42
1
  50
0
  71
0
  3
isocp.shx
  0
STYLE
  2
KICADB
  70
0
  40
0
  41
1
  42
1
  50
0
  71
0
  3
isocp.shx
  0
STYLE
  2
KICADI
  70
0
  40
0
  41
1
  42
1
  50
15
  71
0
  3
isocp.shx
  0
STYLE
  2
KICADBI
  70
0
  40
0
  41
1
  42
1
  50
15
  71
0
  3
isocp.shx
  0
ENDTAB
  0
TABLE
  2
LAYER
  70
1
  0
LAYER
  2
BLACK
  70
0
  62
7
  6
CONTINUOUS
  0
ENDTAB
  0
ENDSEC
  0
SECTION
  2
ENTITIES
0
LINE
8
BLACK
6
CONTINUOUS
10
109.6499999999999915
20
-75.7749999999999915
11
109.625
21
-75.7749999999999915
0
LINE
8
BLACK
6
CONTINUOUS
10
109.625
20
-75.7749999999999915
11
109.625
21
-76.125
0
LINE
8
BLACK
6
CONTINUOUS
10
109.625
20
-76.125
11
110.
21
-76.125
0
LINE
8
BLACK
6
CONTINUOUS
10
110.
20
-76.125
11
110.0243859999999927
21
-76.1274020000000036
0
LINE
8
BLACK
6
CONTINUOUS
10
110.0243859999999927
20
-76.1274020000000036
11
110.0694459999999992
21
-76.1460659999999905
0
LINE
8
BLACK
6
CONTINUOUS
10
110.0694459999999992
20
-76.1460659999999905
11
110.1039339999999953
21
-76.1805540000000008
0
LINE
8
BLACK
6
CONTINUOUS
10
110.1039339999999953
20
-76.1805540000000008
11
110.1225979999999964
21
-76.2256139999999931
0
LINE
8
BLACK
6
CONTINUOUS
10
110.1225979999999964
20
-76.2256139999999931
11
110.1225979999999964
21
-76.2743859999999927
0
LINE
8
BLACK
6
CONTINUOUS
10
110.1225979999999964
20
-76.2743859999999927
11
110.1039339999999953
21
-76.3194459999999992
0
LINE
8
BLACK
6
CONTINUOUS
10
110.1039339999999953
20
-76.3194459999999992
11
110.0694459999999992
21
-76.3539339999999953
0
LINE
8
BLACK
6
CONTINUOUS
10
110.0694459999999992
20
-76.3539339999999953
11
110.0243859999999927
21
-76.3725979999999964
0
LINE
8
BLACK
6
CONTINUOUS
10
110.0243859999999927
20
-76.3725979999999964
11
110.
21
-76.375
0
LINE
8
BLACK
6
CONTINUOUS
10
110.
20
-76.375
11
109.625
21
-76.375
0
LINE
8
BLACK
6
CONTINUOUS
10
109.625
20
-76.375
11
109.625
21
-76.5
0
LINE
8
BLACK
6
CONTINUOUS
10
109.625
20
-76.5
11
109.6225979999999964
21
-76.5243859999999927
0
LINE
8
BLACK
6
CONTINUOUS
10
109.6225979999999964
20
-76.5243859999999927
11
109.6039339999999953
21
-76.5694459999999992
0
LINE
8
BLACK
6
CONTINUOUS
10
109.6039339999999953
20
-76.5694459999999992
11
109.6039279999999962
21
-76.5694510000000008
0
LINE
8
BLACK
6
CONTINUOUS
10
109.6039279999999962
20
-76.5694510000000008
11
109.5883879999999948
21
-76.5883879999999948
0
LINE
8
BLACK
6
CONTINUOUS
10
109.5883879999999948
20
-76.5883879999999948
11
109.2073079999999976
21
-76.969467999999992
0
LINE
8
BLACK
6
CONTINUOUS
10
109.2073079999999976
20
-76.969467999999992
11
109.2073079999999976
21
-78.7158489999999915
0
LINE
8
BLACK
6
CONTINUOUS
10
109.2073079999999976
20
-78.7158489999999915
11
107.3840840000000014
21
-78.7158489999999915
0
LINE
8
BLACK
6
CONTINUOUS
10
107.3840840000000014
20
-78.7158489999999915
11
106.8543899999999951
21
-79.2455429999999978
0
LINE
8
BLACK
6
CONTINUOUS
10
106.8543899999999951
20
-79.2455429999999978
11
106.8354530000000011
21
-79.2610829999999993
0
LINE
8
BLACK
6
CONTINUOUS
10
106.8354530000000011
20
-79.2610829999999993
11
106.8354479999999995
21
-79.2610889999999984
0
LINE
8
BLACK
6
CONTINUOUS
10
106.8354479999999995
20
-79.2610889999999984
11
106.8035859999999957
21
-79.2742859999999894
0
LINE
8
BLACK
6
CONTINUOUS
10
106.8035859999999957
20
-79.2742859999999894
11
106.7903889999999905
21
-79.2797529999999995
0
LINE
8
BLACK
6
CONTINUOUS
10
106.7903889999999905
20
-79.2797529999999995
11
106.790387999999993
21
-79.2797529999999995
0
LINE
8
BLACK
6
CONTINUOUS
10
106.790387999999993
20
-79.2797529999999995
11
106.7660020000000003
21
-79.282155000000003
0
LINE
8
BLACK
6
CONTINUOUS
10
106.7660020000000003
20
-79.282155000000003
11
106.3047649999999891
21
-79.282155000000003
0
LINE
8
BLACK
6
CONTINUOUS
10
106.3047649999999891
20
-79.282155000000003
11
106.3047649999999891
21
-79.3821549999999974
0
LINE
8
BLACK
6
CONTINUOUS
10
106.3047649999999891
20
-79.3821549999999974
11
106.2876380000000012
21
-79.4682590000000033
0
LINE
8
BLACK
6
CONTINUOUS
10
106.2876380000000012
20
-79.4682590000000033
11
106.2388639999999924
21
-79.541253999999995
0
LINE
8
BLACK
6
CONTINUOUS
10
106.2388639999999924
20
-79.541253999999995
11
106.1658690000000007
21
-79.5900279999999896
0
LINE
8
BLACK
6
CONTINUOUS
10
106.1658690000000007
20
-79.5900279999999896
11
106.0797649999999948
21
-79.6071549999999917
0
LINE
8
BLACK
6
CONTINUOUS
10
106.0797649999999948
20
-79.6071549999999917
11
105.5797649999999948
21
-79.6071549999999917
0
LINE
8
BLACK
6
CONTINUOUS
10
105.5797649999999948
20
-79.6071549999999917
11
105.4936609999999888
21
-79.5900279999999896
0
LINE
8
BLACK
6
CONTINUOUS
10
105.4936609999999888
20
-79.5900279999999896
11
105.4903549999999939
21
-79.5878189999999961
0
LINE
8
BLACK
6
CONTINUOUS
10
105.4903549999999939
20
-79.5878189999999961
11
104.862527
21
-79.5878189999999961
0
LINE
8
BLACK
6
CONTINUOUS
10
104.862527
20
-79.5878189999999961
11
104.862527
21
-79.6028189999999967
0
LINE
8
BLACK
6
CONTINUOUS
10
104.862527
20
-79.6028189999999967
11
104.851869999999991
21
-79.6563950000000034
0
LINE
8
BLACK
6
CONTINUOUS
10
104.851869999999991
20
-79.6563950000000034
11
104.8215220000000016
21
-79.7018139999999988
0
LINE
8
BLACK
6
CONTINUOUS
10
104.8215220000000016
20
-79.7018139999999988
11
104.776102999999992
21
-79.7321620000000024
0
LINE
8
BLACK
6
CONTINUOUS
10
104.776102999999992
20
-79.7321620000000024
11
104.7225269999999995
21
-79.7428189999999972
0
LINE
8
BLACK
6
CONTINUOUS
10
104.7225269999999995
20
-79.7428189999999972
11
104.3825269999999961
21
-79.7428189999999972
0
LINE
8
BLACK
6
CONTINUOUS
10
104.3825269999999961
20
-79.7428189999999972
11
104.3289509999999893
21
-79.7321620000000024
0
LINE
8
BLACK
6
CONTINUOUS
10
104.3289509999999893
20
-79.7321620000000024
11
104.2835319999999939
21
-79.7018139999999988
0
LINE
8
BLACK
6
CONTINUOUS
10
104.2835319999999939
20
-79.7018139999999988
11
104.2531839999999903
21
-79.6563950000000034
0
LINE
8
BLACK
6
CONTINUOUS
10
104.2531839999999903
20
-79.6563950000000034
11
104.2425269999999955
21
-79.6028189999999967
0
LINE
8
BLACK
6
CONTINUOUS
10
104.2425269999999955
20
-79.6028189999999967
11
104.2425269999999955
21
-79.3228189999999955
0
LINE
8
BLACK
6
CONTINUOUS
10
104.2425269999999955
20
-79.3228189999999955
11
104.2531839999999903
21
-79.269243000000003
0
LINE
8
BLACK
6
CONTINUOUS
10
104.2531839999999903
20
-79.269243000000003
11
104.2835319999999939
21
-79.2238239999999934
0
LINE
8
BLACK
6
CONTINUOUS
10
104.2835319999999939
20
-79.2238239999999934
11
104.3289509999999893
21
-79.1934759999999898
0
LINE
8
BLACK
6
CONTINUOUS
10
104.3289509999999893
20
-79.1934759999999898
11
104.3825269999999961
21
-79.182818999999995
0
LINE
8
BLACK
6
CONTINUOUS
10
104.3825269999999961
20
-79.182818999999995
11
104.7225269999999995
21
-79.182818999999995
0
LINE
8
BLACK
6
CONTINUOUS
10
104.7225269999999995
20
-79.182818999999995
11
104.776102999999992
21
-79.1934759999999898
0
LINE
8
BLACK
6
CONTINUOUS
10
104.776102999999992
20
-79.1934759999999898
11
104.8215220000000016
21
-79.2238239999999934
0
LINE
8
BLACK
6
CONTINUOUS
10
104.8215220000000016
20
-79.2238239999999934
11
104.851869999999991
21
-79.269243000000003
0
LINE
8
BLACK
6
CONTINUOUS
10
104.851869999999991
20
-79.269243000000003
11
104.862527
21
-79.3228189999999955
0
LINE
8
BLACK
6
CONTINUOUS
10
104.862527
20
-79.3228189999999955
11
104.862527
21
-79.3378189999999961
0
LINE
8
BLACK
6
CONTINUOUS
10
104.862527
20
-79.3378189999999961
11
105.3547650000000004
21
-79.3378189999999961
0
LINE
8
BLACK
6
CONTINUOUS
10
105.3547650000000004
20
-79.3378189999999961
11
105.3547650000000004
21
-78.9321549999999945
0
LINE
8
BLACK
6
CONTINUOUS
10
105.3547650000000004
20
-78.9321549999999945
11
105.3718919999999883
21
-78.8460510000000028
0
LINE
8
BLACK
6
CONTINUOUS
10
105.3718919999999883
20
-78.8460510000000028
11
105.4206659999999971
21
-78.7730559999999969
0
LINE
8
BLACK
6
CONTINUOUS
10
105.4206659999999971
20
-78.7730559999999969
11
105.4936609999999888
21
-78.7242820000000023
0
LINE
8
BLACK
6
CONTINUOUS
10
105.4936609999999888
20
-78.7242820000000023
11
105.5797649999999948
21
-78.7071550000000002
0
LINE
8
BLACK
6
CONTINUOUS
10
105.5797649999999948
20
-78.7071550000000002
11
106.0797649999999948
21
-78.7071550000000002
0
LINE
8
BLACK
6
CONTINUOUS
10
106.0797649999999948
20
-78.7071550000000002
11
106.1658690000000007
21
-78.7242820000000023
0
LINE
8
BLACK
6
CONTINUOUS
10
106.1658690000000007
20
-78.7242820000000023
11
106.2388639999999924
21
-78.7730559999999969
0
LINE
8
BLACK
6
CONTINUOUS
10
106.2388639999999924
20
-78.7730559999999969
11
106.2876380000000012
21
-78.8460510000000028
0
LINE
8
BLACK
6
CONTINUOUS
10
106.2876380000000012
20
-78.8460510000000028
11
106.3047649999999891
21
-78.9321549999999945
0
LINE
8
BLACK
6
CONTINUOUS
10
106.3047649999999891
20
-78.9321549999999945
11
106.3047649999999891
21
-79.032155000000003
0
LINE
8
BLACK
6
CONTINUOUS
10
106.3047649999999891
20
-79.032155000000003
11
106.7142259999999965
21
-79.032155000000003
0
LINE
8
BLACK
6
CONTINUOUS
10
106.7142259999999965
20
-79.032155000000003
11
107.2073079999999976
21
-78.5390719999999902
0
LINE
8
BLACK
6
CONTINUOUS
10
107.2073079999999976
20
-78.5390719999999902
11
107.2073079999999976
21
-76.7158489999999915
0
LINE
8
BLACK
6
CONTINUOUS
10
107.2073079999999976
20
-76.7158489999999915
11
109.1073749999999905
21
-76.7158489999999915
0
LINE
8
BLACK
6
CONTINUOUS
10
109.1073749999999905
20
-76.7158489999999915
11
109.375
21
-76.4482239999999962
0
LINE
8
BLACK
6
CONTINUOUS
10
109.375
20
-76.4482239999999962
11
109.375
21
-76.25
0
LINE
8
BLACK
6
CONTINUOUS
10
109.375
20
-76.25
11
109.375
21
-75.7749999999999915
0
LINE
8
BLACK
6
CONTINUOUS
10
109.375
20
-75.7749999999999915
11
109.3499999999999943
21
-75.7749999999999915
0
LINE
8
BLACK
6
CONTINUOUS
10
109.3499999999999943
20
-75.7749999999999915
11
109.3499999999999943
21
-75.2249999999999943
0
LINE
8
BLACK
6
CONTINUOUS
10
109.3499999999999943
20
-75.2249999999999943
11
109.6499999999999915
21
-75.2249999999999943
0
LINE
8
BLACK
6
CONTINUOUS
10
109.6499999999999915
20
-75.2249999999999943
11
109.6499999999999915
21
-75.7749999999999915
0
LINE
8
BLACK
6
CONTINUOUS
10
105.4499999999999886
20
-73.2249999999999943
11
105.3985369999999904
21
-73.2249999999999943
0
LINE
8
BLACK
6
CONTINUOUS
10
105.3985369999999904
20
-73.2249999999999943
11
105.7763729999999924
21
-73.6028369999999938
0
LINE
8
BLACK
6
CONTINUOUS
10
105.7763729999999924
20
-73.6028369999999938
11
106.652836999999991
21
-73.6028369999999938
0
LINE
8
BLACK
6
CONTINUOUS
10
106.652836999999991
20
-73.6028369999999938
11
106.6723459999999903
21
-73.6047579999999897
0
LINE
8
BLACK
6
CONTINUOUS
10
106.6723459999999903
20
-73.6047579999999897
11
106.7083939999999984
21
-73.6196899999999914
0
LINE
8
BLACK
6
CONTINUOUS
10
106.7083939999999984
20
-73.6196899999999914
11
106.7235479999999939
21
-73.6321259999999995
0
LINE
8
BLACK
6
CONTINUOUS
10
106.7235479999999939
20
-73.6321259999999995
11
107.2914209999999997
21
-74.2000000000000028
0
LINE
8
BLACK
6
CONTINUOUS
10
107.2914209999999997
20
-74.2000000000000028
11
107.4917359999999888
21
-74.2000000000000028
0
LINE
8
BLACK
6
CONTINUOUS
10
107.4917359999999888
20
-74.2000000000000028
11
108.1999999999999886
21
-73.4917360000000031
0
LINE
8
BLACK
6
CONTINUOUS
10
108.1999999999999886
20
-73.4917360000000031
11
108.1999999999999886
21
-73.4749999999999943
0
LINE
8
BLACK
6
CONTINUOUS
10
108.1999999999999886
20
-73.4749999999999943
11
108.1499999999999915
21
-73.4749999999999943
0
LINE
8
BLACK
6
CONTINUOUS
10
108.1499999999999915
20
-73.4749999999999943
11
108.1499999999999915
21
-72.9249999999999972
0
LINE
8
BLACK
6
CONTINUOUS
10
108.1499999999999915
20
-72.9249999999999972
11
108.4499999999999886
21
-72.9249999999999972
0
LINE
8
BLACK
6
CONTINUOUS
10
108.4499999999999886
20
-72.9249999999999972
11
108.4499999999999886
21
-73.4749999999999943
0
LINE
8
BLACK
6
CONTINUOUS
10
108.4499999999999886
20
-73.4749999999999943
11
108.3999999999999915
21
-73.4749999999999943
0
LINE
8
BLACK
6
CONTINUOUS
10
108.3999999999999915
20
-73.4749999999999943
11
108.3999999999999915
21
-73.5331580000000002
0
LINE
8
BLACK
6
CONTINUOUS
10
108.3999999999999915
20
-73.5331580000000002
11
108.3980789999999956
21
-73.5526669999999996
0
LINE
8
BLACK
6
CONTINUOUS
10
108.3980789999999956
20
-73.5526669999999996
11
108.3831469999999939
21
-73.5887149999999934
0
LINE
8
BLACK
6
CONTINUOUS
10
108.3831469999999939
20
-73.5887149999999934
11
108.370711
21
-73.6038690000000031
0
LINE
8
BLACK
6
CONTINUOUS
10
108.370711
20
-73.6038690000000031
11
107.5749999999999886
21
-74.3995800000000003
0
LINE
8
BLACK
6
CONTINUOUS
10
107.5749999999999886
20
-74.3995800000000003
11
107.5749999999999886
21
-74.5
0
LINE
8
BLACK
6
CONTINUOUS
10
107.5749999999999886
20
-74.5
11
107.1414219999999915
21
-74.5
0
LINE
8
BLACK
6
CONTINUOUS
10
107.1414219999999915
20
-74.5
11
106.5707109999999886
21
-75.0707110000000029
0
LINE
8
BLACK
6
CONTINUOUS
10
106.5707109999999886
20
-75.0707110000000029
11
106.5555569999999932
21
-75.0831469999999968
0
LINE
8
BLACK
6
CONTINUOUS
10
106.5555569999999932
20
-75.0831469999999968
11
106.5195089999999993
21
-75.0980789999999985
0
LINE
8
BLACK
6
CONTINUOUS
10
106.5195089999999993
20
-75.0980789999999985
11
106.5
21
-75.0999999999999943
0
LINE
8
BLACK
6
CONTINUOUS
10
106.5
20
-75.0999999999999943
11
105.8058769999999953
21
-75.0999999999999943
0
LINE
8
BLACK
6
CONTINUOUS
10
105.8058769999999953
20
-75.0999999999999943
11
105.4308779999999928
21
-75.4749999999999943
0
LINE
8
BLACK
6
CONTINUOUS
10
105.4308779999999928
20
-75.4749999999999943
11
105.4499999999999886
21
-75.4749999999999943
0
LINE
8
BLACK
6
CONTINUOUS
10
105.4499999999999886
20
-75.4749999999999943
11
105.4499999999999886
21
-75.7749999999999915
0
LINE
8
BLACK
6
CONTINUOUS
10
105.4499999999999886
20
-75.7749999999999915
11
104.8999999999999915
21
-75.7749999999999915
0
LINE
8
BLACK
6
CONTINUOUS
10
104.8999999999999915
20
-75.7749999999999915
11
104.4371319999999912
21
-75.7749999999999915
0
LINE
8
BLACK
6
CONTINUOUS
10
104.4371319999999912
20
-75.7749999999999915
11
103.8999999999999915
21
-76.3121319999999912
0
LINE
8
BLACK
6
CONTINUOUS
10
103.8999999999999915
20
-76.3121319999999912
11
103.8999999999999915
21
-77.
0
LINE
8
BLACK
6
CONTINUOUS
10
103.8999999999999915
20
-77.
11
103.8971179999999919
21
-77.0292630000000003
0
LINE
8
BLACK
6
CONTINUOUS
10
103.8971179999999919
20
-77.0292630000000003
11
103.8747209999999939
21
-77.0833349999999911
0
LINE
8
BLACK
6
CONTINUOUS
10
103.8747209999999939
20
-77.0833349999999911
11
103.8560659999999984
21
-77.1060659999999984
0
LINE
8
BLACK
6
CONTINUOUS
10
103.8560659999999984
20
-77.1060659999999984
11
103.5
21
-77.4621319999999969
0
LINE
8
BLACK
6
CONTINUOUS
10
103.5
20
-77.4621319999999969
11
103.5
21
-77.4679199999999923
0
LINE
8
BLACK
6
CONTINUOUS
10
103.5
20
-77.4679199999999923
11
104.1919889999999924
21
-77.4679199999999923
0
LINE
8
BLACK
6
CONTINUOUS
10
104.1919889999999924
20
-77.4679199999999923
11
104.2006569999999925
21
-77.4243439999999907
0
LINE
8
BLACK
6
CONTINUOUS
10
104.2006569999999925
20
-77.4243439999999907
11
104.2310049999999961
21
-77.3789249999999953
0
LINE
8
BLACK
6
CONTINUOUS
10
104.2310049999999961
20
-77.3789249999999953
11
104.2764239999999916
21
-77.3485769999999917
0
LINE
8
BLACK
6
CONTINUOUS
10
104.2764239999999916
20
-77.3485769999999917
11
104.3299999999999983
21
-77.3379199999999969
0
LINE
8
BLACK
6
CONTINUOUS
10
104.3299999999999983
20
-77.3379199999999969
11
104.6700000000000017
21
-77.3379199999999969
0
LINE
8
BLACK
6
CONTINUOUS
10
104.6700000000000017
20
-77.3379199999999969
11
104.7235759999999942
21
-77.3485769999999917
0
LINE
8
BLACK
6
CONTINUOUS
10
104.7235759999999942
20
-77.3485769999999917
11
104.7689949999999897
21
-77.3789249999999953
0
LINE
8
BLACK
6
CONTINUOUS
10
104.7689949999999897
20
-77.3789249999999953
11
104.7993429999999933
21
-77.4243439999999907
0
LINE
8
BLACK
6
CONTINUOUS
10
104.7993429999999933
20
-77.4243439999999907
11
104.8100000000000023
21
-77.4779199999999975
0
LINE
8
BLACK
6
CONTINUOUS
10
104.8100000000000023
20
-77.4779199999999975
11
104.8100000000000023
21
-77.7579199999999986
0
LINE
8
BLACK
6
CONTINUOUS
10
104.8100000000000023
20
-77.7579199999999986
11
104.7993429999999933
21
-77.8114959999999911
0
LINE
8
BLACK
6
CONTINUOUS
10
104.7993429999999933
20
-77.8114959999999911
11
104.7689949999999897
21
-77.8569150000000008
0
LINE
8
BLACK
6
CONTINUOUS
10
104.7689949999999897
20
-77.8569150000000008
11
104.7235759999999942
21
-77.8872629999999901
0
LINE
8
BLACK
6
CONTINUOUS
10
104.7235759999999942
20
-77.8872629999999901
11
104.6700000000000017
21
-77.8979199999999992
0
LINE
8
BLACK
6
CONTINUOUS
10
104.6700000000000017
20
-77.8979199999999992
11
104.3299999999999983
21
-77.8979199999999992
0
LINE
8
BLACK
6
CONTINUOUS
10
104.3299999999999983
20
-77.8979199999999992
11
104.2764239999999916
21
-77.8872629999999901
0
LINE
8
BLACK
6
CONTINUOUS
10
104.2764239999999916
20
-77.8872629999999901
11
104.2310049999999961
21
-77.8569150000000008
0
LINE
8
BLACK
6
CONTINUOUS
10
104.2310049999999961
20
-77.8569150000000008
11
104.2006569999999925
21
-77.8114959999999911
0
LINE
8
BLACK
6
CONTINUOUS
10
104.2006569999999925
20
-77.8114959999999911
11
104.1919889999999924
21
-77.7679199999999895
0
LINE
8
BLACK
6
CONTINUOUS
10
104.1919889999999924
20
-77.7679199999999895
11
103.5
21
-77.7679199999999895
0
LINE
8
BLACK
6
CONTINUOUS
10
103.5
20
-77.7679199999999895
11
103.5
21
-78.3528189999999967
0
LINE
8
BLACK
6
CONTINUOUS
10
103.5
20
-78.3528189999999967
11
104.2445159999999902
21
-78.3528189999999967
0
LINE
8
BLACK
6
CONTINUOUS
10
104.2445159999999902
20
-78.3528189999999967
11
104.2531839999999903
21
-78.309242999999995
0
LINE
8
BLACK
6
CONTINUOUS
10
104.2531839999999903
20
-78.309242999999995
11
104.2835319999999939
21
-78.2638239999999996
0
LINE
8
BLACK
6
CONTINUOUS
10
104.2835319999999939
20
-78.2638239999999996
11
104.3289509999999893
21
-78.233475999999996
0
LINE
8
BLACK
6
CONTINUOUS
10
104.3289509999999893
20
-78.233475999999996
11
104.3825269999999961
21
-78.2228190000000012
0
LINE
8
BLACK
6
CONTINUOUS
10
104.3825269999999961
20
-78.2228190000000012
11
104.7225269999999995
21
-78.2228190000000012
0
LINE
8
BLACK
6
CONTINUOUS
10
104.7225269999999995
20
-78.2228190000000012
11
104.776102999999992
21
-78.233475999999996
0
LINE
8
BLACK
6
CONTINUOUS
10
104.776102999999992
20
-78.233475999999996
11
104.8215220000000016
21
-78.2638239999999996
0
LINE
8
BLACK
6
CONTINUOUS
10
104.8215220000000016
20
-78.2638239999999996
11
104.851869999999991
21
-78.309242999999995
0
LINE
8
BLACK
6
CONTINUOUS
10
104.851869999999991
20
-78.309242999999995
11
104.8605379999999911
21
-78.3528189999999967
0
LINE
8
BLACK
6
CONTINUOUS
10
104.8605379999999911
20
-78.3528189999999967
11
104.8719689999999929
21
-78.3528189999999967
0
LINE
8
BLACK
6
CONTINUOUS
10
104.8719689999999929
20
-78.3528189999999967
11
105.3610469999999992
21
-77.8637399999999928
0
LINE
8
BLACK
6
CONTINUOUS
10
105.3610469999999992
20
-77.8637399999999928
11
105.3547650000000004
21
-77.8321550000000002
0
LINE
8
BLACK
6
CONTINUOUS
10
105.3547650000000004
20
-77.8321550000000002
11
105.3547650000000004
21
-77.3821549999999974
0
LINE
8
BLACK
6
CONTINUOUS
10
105.3547650000000004
20
-77.3821549999999974
11
105.3718919999999883
21
-77.2960509999999914
0
LINE
8
BLACK
6
CONTINUOUS
10
105.3718919999999883
20
-77.2960509999999914
11
105.4206659999999971
21
-77.2230559999999997
0
LINE
8
BLACK
6
CONTINUOUS
10
105.4206659999999971
20
-77.2230559999999997
11
105.4936609999999888
21
-77.1742819999999909
0
LINE
8
BLACK
6
CONTINUOUS
10
105.4936609999999888
20
-77.1742819999999909
11
105.5797649999999948
21
-77.157155000000003
0
LINE
8
BLACK
6
CONTINUOUS
10
105.5797649999999948
20
-77.157155000000003
11
106.0797649999999948
21
-77.157155000000003
0
LINE
8
BLACK
6
CONTINUOUS
10
106.0797649999999948
20
-77.157155000000003
11
106.1658690000000007
21
-77.1742819999999909
0
LINE
8
BLACK
6
CONTINUOUS
10
106.1658690000000007
20
-77.1742819999999909
11
106.2388639999999924
21
-77.2230559999999997
0
LINE
8
BLACK
6
CONTINUOUS
10
106.2388639999999924
20
-77.2230559999999997
11
106.2876380000000012
21
-77.2960509999999914
0
LINE
8
BLACK
6
CONTINUOUS
10
106.2876380000000012
20
-77.2960509999999914
11
106.3047649999999891
21
-77.3821549999999974
0
LINE
8
BLACK
6
CONTINUOUS
10
106.3047649999999891
20
-77.3821549999999974
11
106.3047649999999891
21
-77.8321550000000002
0
LINE
8
BLACK
6
CONTINUOUS
10
106.3047649999999891
20
-77.8321550000000002
11
106.2876380000000012
21
-77.9182589999999919
0
LINE
8
BLACK
6
CONTINUOUS
10
106.2876380000000012
20
-77.9182589999999919
11
106.2388639999999924
21
-77.9912539999999979
0
LINE
8
BLACK
6
CONTINUOUS
10
106.2388639999999924
20
-77.9912539999999979
11
106.1658690000000007
21
-78.0400279999999924
0
LINE
8
BLACK
6
CONTINUOUS
10
106.1658690000000007
20
-78.0400279999999924
11
106.0797649999999948
21
-78.0571549999999945
0
LINE
8
BLACK
6
CONTINUOUS
10
106.0797649999999948
20
-78.0571549999999945
11
105.5918969999999888
21
-78.0571549999999945
0
LINE
8
BLACK
6
CONTINUOUS
10
105.5918969999999888
20
-78.0571549999999945
11
105.0401669999999967
21
-78.6088850000000008
0
LINE
8
BLACK
6
CONTINUOUS
10
105.0401669999999967
20
-78.6088850000000008
11
105.0174359999999893
21
-78.6275399999999962
0
LINE
8
BLACK
6
CONTINUOUS
10
105.0174359999999893
20
-78.6275399999999962
11
104.985761999999994
21
-78.6406589999999994
0
LINE
8
BLACK
6
CONTINUOUS
10
104.985761999999994
20
-78.6406589999999994
11
104.963364999999996
21
-78.6499369999999942
0
LINE
8
BLACK
6
CONTINUOUS
10
104.963364999999996
20
-78.6499369999999942
11
104.9341009999999983
21
-78.6528189999999938
0
LINE
8
BLACK
6
CONTINUOUS
10
104.9341009999999983
20
-78.6528189999999938
11
104.8605379999999911
21
-78.6528189999999938
0
LINE
8
BLACK
6
CONTINUOUS
10
104.8605379999999911
20
-78.6528189999999938
11
104.851869999999991
21
-78.6963949999999954
0
LINE
8
BLACK
6
CONTINUOUS
10
104.851869999999991
20
-78.6963949999999954
11
104.8215220000000016
21
-78.7418139999999909
0
LINE
8
BLACK
6
CONTINUOUS
10
104.8215220000000016
20
-78.7418139999999909
11
104.776102999999992
21
-78.7721619999999945
0
LINE
8
BLACK
6
CONTINUOUS
10
104.776102999999992
20
-78.7721619999999945
11
104.7225269999999995
21
-78.7828190000000035
0
LINE
8
BLACK
6
CONTINUOUS
10
104.7225269999999995
20
-78.7828190000000035
11
104.3825269999999961
21
-78.7828190000000035
0
LINE
8
BLACK
6
CONTINUOUS
10
104.3825269999999961
20
-78.7828190000000035
11
104.3289509999999893
21
-78.7721619999999945
0
LINE
8
BLACK
6
CONTINUOUS
10
104.3289509999999893
20
-78.7721619999999945
11
104.2835319999999939
21
-78.7418139999999909
0
LINE
8
BLACK
6
CONTINUOUS
10
104.2835319999999939
20
-78.7418139999999909
11
104.2531839999999903
21
-78.6963949999999954
0
LINE
8
BLACK
6
CONTINUOUS
10
104.2531839999999903
20
-78.6963949999999954
11
104.2445159999999902
21
-78.6528189999999938
0
LINE
8
BLACK
6
CONTINUOUS
10
104.2445159999999902
20
-78.6528189999999938
11
103.5
21
-78.6528189999999938
0
LINE
8
BLACK
6
CONTINUOUS
10
103.5
20
-78.6528189999999938
11
103.5
21
-79.25
0
LINE
8
BLACK
6
CONTINUOUS
10
103.5
20
-79.25
11
101.5
21
-79.25
0
LINE
8
BLACK
6
CONTINUOUS
10
101.5
20
-79.25
11
101.5
21
-77.25
0
LINE
8
BLACK
6
CONTINUOUS
10
101.5
20
-77.25
11
102.3641899999999936
21
-77.25
0
LINE
8
BLACK
6
CONTINUOUS
10
102.3641899999999936
20
-77.25
11
102.3641899999999936
21
-76.1001969999999943
0
LINE
8
BLACK
6
CONTINUOUS
10
102.3641899999999936
20
-76.1001969999999943
11
102.3641899999999936
21
-75.9051970000000011
0
LINE
8
BLACK
6
CONTINUOUS
10
102.3641899999999936
20
-75.9051970000000011
11
102.3679959999999909
21
-75.8860629999999929
0
LINE
8
BLACK
6
CONTINUOUS
10
102.3679959999999909
20
-75.8860629999999929
11
102.3788349999999951
21
-75.8698419999999913
0
LINE
8
BLACK
6
CONTINUOUS
10
102.3788349999999951
20
-75.8698419999999913
11
102.3950559999999967
21
-75.8590030000000013
0
LINE
8
BLACK
6
CONTINUOUS
10
102.3950559999999967
20
-75.8590030000000013
11
102.4141899999999907
21
-75.8551969999999898
0
LINE
8
BLACK
6
CONTINUOUS
10
102.4141899999999907
20
-75.8551969999999898
11
102.5641899999999964
21
-75.8551969999999898
0
LINE
8
BLACK
6
CONTINUOUS
10
102.5641899999999964
20
-75.8551969999999898
11
102.5833239999999904
21
-75.8590030000000013
0
LINE
8
BLACK
6
CONTINUOUS
10
102.5833239999999904
20
-75.8590030000000013
11
102.599544999999992
21
-75.8698419999999913
0
LINE
8
BLACK
6
CONTINUOUS
10
102.599544999999992
20
-75.8698419999999913
11
102.6103839999999963
21
-75.8860629999999929
0
LINE
8
BLACK
6
CONTINUOUS
10
102.6103839999999963
20
-75.8860629999999929
11
102.6141899999999936
21
-75.9051970000000011
0
LINE
8
BLACK
6
CONTINUOUS
10
102.6141899999999936
20
-75.9051970000000011
11
102.6141899999999936
21
-76.1001969999999943
0
LINE
8
BLACK
6
CONTINUOUS
10
102.6141899999999936
20
-76.1001969999999943
11
102.6141899999999936
21
-77.25
0
LINE
8
BLACK
6
CONTINUOUS
10
102.6141899999999936
20
-77.25
11
103.2878679999999889
21
-77.25
0
LINE
8
BLACK
6
CONTINUOUS
10
103.2878679999999889
20
-77.25
11
103.5999999999999943
21
-76.9378679999999946
0
LINE
8
BLACK
6
CONTINUOUS
10
103.5999999999999943
20
-76.9378679999999946
11
103.5999999999999943
21
-76.25
0
LINE
8
BLACK
6
CONTINUOUS
10
103.5999999999999943
20
-76.25
11
103.6028819999999939
21
-76.2207360000000023
0
LINE
8
BLACK
6
CONTINUOUS
10
103.6028819999999939
20
-76.2207360000000023
11
103.6121859999999941
21
-76.1982759999999928
0
LINE
8
BLACK
6
CONTINUOUS
10
103.6121859999999941
20
-76.1982759999999928
11
103.6252789999999919
21
-76.1666649999999947
0
LINE
8
BLACK
6
CONTINUOUS
10
103.6252789999999919
20
-76.1666649999999947
11
103.6439340000000016
21
-76.1439340000000016
0
LINE
8
BLACK
6
CONTINUOUS
10
103.6439340000000016
20
-76.1439340000000016
11
104.2689340000000016
21
-75.5189340000000016
0
LINE
8
BLACK
6
CONTINUOUS
10
104.2689340000000016
20
-75.5189340000000016
11
104.2916639999999973
21
-75.5002789999999919
0
LINE
8
BLACK
6
CONTINUOUS
10
104.2916639999999973
20
-75.5002789999999919
11
104.3140609999999953
21
-75.4910019999999946
0
LINE
8
BLACK
6
CONTINUOUS
10
104.3140609999999953
20
-75.4910019999999946
11
104.3457360000000023
21
-75.4778819999999939
0
LINE
8
BLACK
6
CONTINUOUS
10
104.3457360000000023
20
-75.4778819999999939
11
104.375
21
-75.4749999999999943
0
LINE
8
BLACK
6
CONTINUOUS
10
104.375
20
-75.4749999999999943
11
105.1480339999999956
21
-75.4749999999999943
0
LINE
8
BLACK
6
CONTINUOUS
10
105.1480339999999956
20
-75.4749999999999943
11
105.6937459999999902
21
-74.9292889999999971
0
LINE
8
BLACK
6
CONTINUOUS
10
105.6937459999999902
20
-74.9292889999999971
11
105.7088989999999882
21
-74.9168519999999916
0
LINE
8
BLACK
6
CONTINUOUS
10
105.7088989999999882
20
-74.9168519999999916
11
105.7449469999999963
21
-74.9019210000000015
0
LINE
8
BLACK
6
CONTINUOUS
10
105.7449469999999963
20
-74.9019210000000015
11
105.7644559999999956
21
-74.8999999999999915
0
LINE
8
BLACK
6
CONTINUOUS
10
105.7644559999999956
20
-74.8999999999999915
11
106.4585779999999886
21
-74.8999999999999915
0
LINE
8
BLACK
6
CONTINUOUS
10
106.4585779999999886
20
-74.8999999999999915
11
107.0249999999999915
21
-74.3335780000000028
0
LINE
8
BLACK
6
CONTINUOUS
10
107.0249999999999915
20
-74.3335780000000028
11
107.0249999999999915
21
-74.2164209999999969
0
LINE
8
BLACK
6
CONTINUOUS
10
107.0249999999999915
20
-74.2164209999999969
11
106.6114149999999938
21
-73.8028369999999967
0
LINE
8
BLACK
6
CONTINUOUS
10
106.6114149999999938
20
-73.8028369999999967
11
105.7349519999999927
21
-73.8028369999999967
0
LINE
8
BLACK
6
CONTINUOUS
10
105.7349519999999927
20
-73.8028369999999967
11
105.7154429999999934
21
-73.8009160000000008
0
LINE
8
BLACK
6
CONTINUOUS
10
105.7154429999999934
20
-73.8009160000000008
11
105.6793949999999995
21
-73.7859839999999991
0
LINE
8
BLACK
6
CONTINUOUS
10
105.6793949999999995
20
-73.7859839999999991
11
105.6642420000000016
21
-73.773547999999991
0
LINE
8
BLACK
6
CONTINUOUS
10
105.6642420000000016
20
-73.773547999999991
11
105.1156929999999932
21
-73.2249999999999943
0
LINE
8
BLACK
6
CONTINUOUS
10
105.1156929999999932
20
-73.2249999999999943
11
104.8999999999999915
21
-73.2249999999999943
0
LINE
8
BLACK
6
CONTINUOUS
10
104.8999999999999915
20
-73.2249999999999943
11
104.8999999999999915
21
-72.9249999999999972
0
LINE
8
BLACK
6
CONTINUOUS
10
104.8999999999999915
20
-72.9249999999999972
11
105.4499999999999886
21
-72.9249999999999972
0
LINE
8
BLACK
6
CONTINUOUS
10
105.4499999999999886
20
-72.9249999999999972
11
105.4499999999999886
21
-73.2249999999999943
0
LINE
8
BLACK
6
CONTINUOUS
10
109.0499999999999972
20
-75.7749999999999915
11
109.0249999999999915
21
-75.7749999999999915
0
LINE
8
BLACK
6
CONTINUOUS
10
109.0249999999999915
20
-75.7749999999999915
11
109.0249999999999915
21
-75.8499999999999943
0
LINE
8
BLACK
6
CONTINUOUS
10
109.0249999999999915
20
-75.8499999999999943
11
109.0225980000000021
21
-75.8743860000000012
0
LINE
8
BLACK
6
CONTINUOUS
10
109.0225980000000021
20
-75.8743860000000012
11
109.0225980000000021
21
-75.8743869999999987
0
LINE
8
BLACK
6
CONTINUOUS
10
109.0225980000000021
20
-75.8743869999999987
11
109.0148659999999978
21
-75.8930509999999998
0
LINE
8
BLACK
6
CONTINUOUS
10
109.0148659999999978
20
-75.8930509999999998
11
109.003934000000001
21
-75.9194459999999935
0
LINE
8
BLACK
6
CONTINUOUS
10
109.003934000000001
20
-75.9194459999999935
11
109.0039329999999893
21
-75.919446999999991
0
LINE
8
BLACK
6
CONTINUOUS
10
109.0039329999999893
20
-75.919446999999991
11
108.9883880000000005
21
-75.9383890000000008
0
LINE
8
BLACK
6
CONTINUOUS
10
108.9883880000000005
20
-75.9383890000000008
11
108.5883879999999948
21
-76.3383879999999948
0
LINE
8
BLACK
6
CONTINUOUS
10
108.5883879999999948
20
-76.3383879999999948
11
108.5694510000000008
21
-76.3539279999999962
0
LINE
8
BLACK
6
CONTINUOUS
10
108.5694510000000008
20
-76.3539279999999962
11
108.5694459999999992
21
-76.3539339999999953
0
LINE
8
BLACK
6
CONTINUOUS
10
108.5694459999999992
20
-76.3539339999999953
11
108.5375839999999954
21
-76.3671310000000005
0
LINE
8
BLACK
6
CONTINUOUS
10
108.5375839999999954
20
-76.3671310000000005
11
108.5243869999999902
21
-76.3725979999999964
0
LINE
8
BLACK
6
CONTINUOUS
10
108.5243869999999902
20
-76.3725979999999964
11
108.5243859999999927
21
-76.3725979999999964
0
LINE
8
BLACK
6
CONTINUOUS
10
108.5243859999999927
20
-76.3725979999999964
11
108.5
21
-76.375
0
LINE
8
BLACK
6
CONTINUOUS
10
108.5
20
-76.375
11
107.0517759999999896
21
-76.375
0
LINE
8
BLACK
6
CONTINUOUS
10
107.0517759999999896
20
-76.375
11
106.6804679999999905
21
-76.7463079999999991
0
LINE
8
BLACK
6
CONTINUOUS
10
106.6804679999999905
20
-76.7463079999999991
11
106.6615309999999965
21
-76.7618480000000005
0
LINE
8
BLACK
6
CONTINUOUS
10
106.6615309999999965
20
-76.7618480000000005
11
106.661525999999995
21
-76.7618539999999996
0
LINE
8
BLACK
6
CONTINUOUS
10
106.661525999999995
20
-76.7618539999999996
11
106.6296639999999911
21
-76.7750509999999906
0
LINE
8
BLACK
6
CONTINUOUS
10
106.6296639999999911
20
-76.7750509999999906
11
106.6164670000000001
21
-76.7805180000000007
0
LINE
8
BLACK
6
CONTINUOUS
10
106.6164670000000001
20
-76.7805180000000007
11
106.6164659999999884
21
-76.7805180000000007
0
LINE
8
BLACK
6
CONTINUOUS
10
106.6164659999999884
20
-76.7805180000000007
11
106.5920799999999957
21
-76.7829199999999901
0
LINE
8
BLACK
6
CONTINUOUS
10
106.5920799999999957
20
-76.7829199999999901
11
104.8100000000000023
21
-76.7829199999999901
0
LINE
8
BLACK
6
CONTINUOUS
10
104.8100000000000023
20
-76.7829199999999901
11
104.8100000000000023
21
-76.7979199999999906
0
LINE
8
BLACK
6
CONTINUOUS
10
104.8100000000000023
20
-76.7979199999999906
11
104.7993429999999933
21
-76.8514959999999974
0
LINE
8
BLACK
6
CONTINUOUS
10
104.7993429999999933
20
-76.8514959999999974
11
104.7689949999999897
21
-76.8969149999999928
0
LINE
8
BLACK
6
CONTINUOUS
10
104.7689949999999897
20
-76.8969149999999928
11
104.7235759999999942
21
-76.9272629999999964
0
LINE
8
BLACK
6
CONTINUOUS
10
104.7235759999999942
20
-76.9272629999999964
11
104.6700000000000017
21
-76.9379199999999912
0
LINE
8
BLACK
6
CONTINUOUS
10
104.6700000000000017
20
-76.9379199999999912
11
104.3299999999999983
21
-76.9379199999999912
0
LINE
8
BLACK
6
CONTINUOUS
10
104.3299999999999983
20
-76.9379199999999912
11
104.2764239999999916
21
-76.9272629999999964
0
LINE
8
BLACK
6
CONTINUOUS
10
104.2764239999999916
20
-76.9272629999999964
11
104.2310049999999961
21
-76.8969149999999928
0
LINE
8
BLACK
6
CONTINUOUS
10
104.2310049999999961
20
-76.8969149999999928
11
104.2006569999999925
21
-76.8514959999999974
0
LINE
8
BLACK
6
CONTINUOUS
10
104.2006569999999925
20
-76.8514959999999974
11
104.1899999999999977
21
-76.7979199999999906
0
LINE
8
BLACK
6
CONTINUOUS
10
104.1899999999999977
20
-76.7979199999999906
11
104.1899999999999977
21
-76.5179199999999895
0
LINE
8
BLACK
6
CONTINUOUS
10
104.1899999999999977
20
-76.5179199999999895
11
104.2006569999999925
21
-76.464343999999997
0
LINE
8
BLACK
6
CONTINUOUS
10
104.2006569999999925
20
-76.464343999999997
11
104.2310049999999961
21
-76.4189250000000015
0
LINE
8
BLACK
6
CONTINUOUS
10
104.2310049999999961
20
-76.4189250000000015
11
104.2764239999999916
21
-76.388576999999998
0
LINE
8
BLACK
6
CONTINUOUS
10
104.2764239999999916
20
-76.388576999999998
11
104.3299999999999983
21
-76.3779200000000031
0
LINE
8
BLACK
6
CONTINUOUS
10
104.3299999999999983
20
-76.3779200000000031
11
104.6700000000000017
21
-76.3779200000000031
0
LINE
8
BLACK
6
CONTINUOUS
10
104.6700000000000017
20
-76.3779200000000031
11
104.7235759999999942
21
-76.388576999999998
0
LINE
8
BLACK
6
CONTINUOUS
10
104.7235759999999942
20
-76.388576999999998
11
104.7689949999999897
21
-76.4189250000000015
0
LINE
8
BLACK
6
CONTINUOUS
10
104.7689949999999897
20
-76.4189250000000015
11
104.7993429999999933
21
-76.464343999999997
0
LINE
8
BLACK
6
CONTINUOUS
10
104.7993429999999933
20
-76.464343999999997
11
104.8100000000000023
21
-76.5179199999999895
0
LINE
8
BLACK
6
CONTINUOUS
10
104.8100000000000023
20
-76.5179199999999895
11
104.8100000000000023
21
-76.5329199999999901
0
LINE
8
BLACK
6
CONTINUOUS
10
104.8100000000000023
20
-76.5329199999999901
11
106.5403039999999919
21
-76.5329199999999901
0
LINE
8
BLACK
6
CONTINUOUS
10
106.5403039999999919
20
-76.5329199999999901
11
106.911611999999991
21
-76.161611999999991
0
LINE
8
BLACK
6
CONTINUOUS
10
106.911611999999991
20
-76.161611999999991
11
106.9305480000000017
21
-76.1460709999999921
0
LINE
8
BLACK
6
CONTINUOUS
10
106.9305480000000017
20
-76.1460709999999921
11
106.9305540000000008
21
-76.1460659999999905
0
LINE
8
BLACK
6
CONTINUOUS
10
106.9305540000000008
20
-76.1460659999999905
11
106.9624149999999929
21
-76.132868000000002
0
LINE
8
BLACK
6
CONTINUOUS
10
106.9624149999999929
20
-76.132868000000002
11
106.9756129999999956
21
-76.1274020000000036
0
LINE
8
BLACK
6
CONTINUOUS
10
106.9756129999999956
20
-76.1274020000000036
11
106.9756139999999931
21
-76.1274020000000036
0
LINE
8
BLACK
6
CONTINUOUS
10
106.9756139999999931
20
-76.1274020000000036
11
107.
21
-76.125
0
LINE
8
BLACK
6
CONTINUOUS
10
107.
20
-76.125
11
108.4482239999999962
21
-76.125
0
LINE
8
BLACK
6
CONTINUOUS
10
108.4482239999999962
20
-76.125
11
108.7749999999999915
21
-75.798222999999993
0
LINE
8
BLACK
6
CONTINUOUS
10
108.7749999999999915
20
-75.798222999999993
11
108.7749999999999915
21
-75.7749999999999915
0
LINE
8
BLACK
6
CONTINUOUS
10
108.7749999999999915
20
-75.7749999999999915
11
108.75
21
-75.7749999999999915
0
LINE
8
BLACK
6
CONTINUOUS
10
108.75
20
-75.7749999999999915
11
108.75
21
-75.2249999999999943
0
LINE
8
BLACK
6
CONTINUOUS
10
108.75
20
-75.2249999999999943
11
109.0499999999999972
21
-75.2249999999999943
0
LINE
8
BLACK
6
CONTINUOUS
10
109.0499999999999972
20
-75.2249999999999943
11
109.0499999999999972
21
-75.7749999999999915
0
LINE
8
BLACK
6
CONTINUOUS
10
103.4106120000000004
20
-74.9387179999999944
11
102.1141899999999936
21
-74.9387179999999944
0
LINE
8
BLACK
6
CONTINUOUS
10
102.1141899999999936
20
-74.9387179999999944
11
102.1141899999999936
21
-75.9051970000000011
0
LINE
8
BLACK
6
CONTINUOUS
10
102.1141899999999936
20
-75.9051970000000011
11
102.1141899999999936
21
-76.2951970000000017
0
LINE
8
BLACK
6
CONTINUOUS
10
102.1141899999999936
20
-76.2951970000000017
11
102.1103839999999963
21
-76.3143309999999957
0
LINE
8
BLACK
6
CONTINUOUS
10
102.1103839999999963
20
-76.3143309999999957
11
102.099544999999992
21
-76.3305519999999973
0
LINE
8
BLACK
6
CONTINUOUS
10
102.099544999999992
20
-76.3305519999999973
11
102.0833239999999904
21
-76.3413910000000016
0
LINE
8
BLACK
6
CONTINUOUS
10
102.0833239999999904
20
-76.3413910000000016
11
102.0641899999999964
21
-76.3451969999999989
0
LINE
8
BLACK
6
CONTINUOUS
10
102.0641899999999964
20
-76.3451969999999989
11
101.9141899999999907
21
-76.3451969999999989
0
LINE
8
BLACK
6
CONTINUOUS
10
101.9141899999999907
20
-76.3451969999999989
11
101.8950559999999967
21
-76.3413910000000016
0
LINE
8
BLACK
6
CONTINUOUS
10
101.8950559999999967
20
-76.3413910000000016
11
101.8788349999999951
21
-76.3305519999999973
0
LINE
8
BLACK
6
CONTINUOUS
10
101.8788349999999951
20
-76.3305519999999973
11
101.8679959999999909
21
-76.3143309999999957
0
LINE
8
BLACK
6
CONTINUOUS
10
101.8679959999999909
20
-76.3143309999999957
11
101.8641899999999936
21
-76.2951970000000017
0
LINE
8
BLACK
6
CONTINUOUS
10
101.8641899999999936
20
-76.2951970000000017
11
101.8641899999999936
21
-75.9051970000000011
0
LINE
8
BLACK
6
CONTINUOUS
10
101.8641899999999936
20
-75.9051970000000011
11
101.8641899999999936
21
-74.9387179999999944
0
LINE
8
BLACK
6
CONTINUOUS
10
101.8641899999999936
20
-74.9387179999999944
11
101.4106120000000004
21
-74.9387179999999944
0
LINE
8
BLACK
6
CONTINUOUS
10
101.4106120000000004
20
-74.9387179999999944
11
101.4106120000000004
21
-72.9387179999999944
0
LINE
8
BLACK
6
CONTINUOUS
10
101.4106120000000004
20
-72.9387179999999944
11
103.4106120000000004
21
-72.9387179999999944
0
LINE
8
BLACK
6
CONTINUOUS
10
103.4106120000000004
20
-72.9387179999999944
11
103.4106120000000004
21
-74.9387179999999944
0
LINE
8
BLACK
6
CONTINUOUS
10
105.4499999999999886
20
-74.5
11
104.8999999999999915
21
-74.5
0
LINE
8
BLACK
6
CONTINUOUS
10
104.8999999999999915
20
-74.5
11
104.8999999999999915
21
-74.4500000000000028
0
LINE
8
BLACK
6
CONTINUOUS
10
104.8999999999999915
20
-74.4500000000000028
11
104.7808079999999933
21
-74.4500000000000028
0
LINE
8
BLACK
6
CONTINUOUS
10
104.7808079999999933
20
-74.4500000000000028
11
103.1141899999999936
21
-76.1166180000000026
0
LINE
8
BLACK
6
CONTINUOUS
10
103.1141899999999936
20
-76.1166180000000026
11
103.1141899999999936
21
-76.2951970000000017
0
LINE
8
BLACK
6
CONTINUOUS
10
103.1141899999999936
20
-76.2951970000000017
11
103.1103839999999963
21
-76.3143309999999957
0
LINE
8
BLACK
6
CONTINUOUS
10
103.1103839999999963
20
-76.3143309999999957
11
103.099544999999992
21
-76.3305519999999973
0
LINE
8
BLACK
6
CONTINUOUS
10
103.099544999999992
20
-76.3305519999999973
11
103.0833239999999904
21
-76.3413910000000016
0
LINE
8
BLACK
6
CONTINUOUS
10
103.0833239999999904
20
-76.3413910000000016
11
103.0641899999999964
21
-76.3451969999999989
0
LINE
8
BLACK
6
CONTINUOUS
10
103.0641899999999964
20
-76.3451969999999989
11
102.9141899999999907
21
-76.3451969999999989
0
LINE
8
BLACK
6
CONTINUOUS
10
102.9141899999999907
20
-76.3451969999999989
11
102.8950559999999967
21
-76.3413910000000016
0
LINE
8
BLACK
6
CONTINUOUS
10
102.8950559999999967
20
-76.3413910000000016
11
102.8788349999999951
21
-76.3305519999999973
0
LINE
8
BLACK
6
CONTINUOUS
10
102.8788349999999951
20
-76.3305519999999973
11
102.8679959999999909
21
-76.3143309999999957
0
LINE
8
BLACK
6
CONTINUOUS
10
102.8679959999999909
20
-76.3143309999999957
11
102.8641899999999936
21
-76.2951970000000017
0
LINE
8
BLACK
6
CONTINUOUS
10
102.8641899999999936
20
-76.2951970000000017
11
102.8641899999999936
21
-75.9051970000000011
0
LINE
8
BLACK
6
CONTINUOUS
10
102.8641899999999936
20
-75.9051970000000011
11
102.8679959999999909
21
-75.8860629999999929
0
LINE
8
BLACK
6
CONTINUOUS
10
102.8679959999999909
20
-75.8860629999999929
11
102.8788349999999951
21
-75.8698419999999913
0
LINE
8
BLACK
6
CONTINUOUS
10
102.8788349999999951
20
-75.8698419999999913
11
102.8950559999999967
21
-75.8590030000000013
0
LINE
8
BLACK
6
CONTINUOUS
10
102.8950559999999967
20
-75.8590030000000013
11
102.9141899999999907
21
-75.8551969999999898
0
LINE
8
BLACK
6
CONTINUOUS
10
102.9141899999999907
20
-75.8551969999999898
11
103.0641899999999964
21
-75.8551969999999898
0
LINE
8
BLACK
6
CONTINUOUS
10
103.0641899999999964
20
-75.8551969999999898
11
103.0833239999999904
21
-75.8590030000000013
0
LINE
8
BLACK
6
CONTINUOUS
10
103.0833239999999904
20
-75.8590030000000013
11
103.086703
21
-75.8612609999999989
0
LINE
8
BLACK
6
CONTINUOUS
10
103.086703
20
-75.8612609999999989
11
104.6686759999999907
21
-74.2792900000000031
0
LINE
8
BLACK
6
CONTINUOUS
10
104.6686759999999907
20
-74.2792900000000031
11
104.6838289999999887
21
-74.2668529999999976
0
LINE
8
BLACK
6
CONTINUOUS
10
104.6838289999999887
20
-74.2668529999999976
11
104.6943869999999919
21
-74.262478999999999
0
LINE
8
BLACK
6
CONTINUOUS
10
104.6943869999999919
20
-74.262478999999999
11
104.7198779999999942
21
-74.2519209999999958
0
LINE
8
BLACK
6
CONTINUOUS
10
104.7198779999999942
20
-74.2519209999999958
11
104.7393869999999936
21
-74.25
0
LINE
8
BLACK
6
CONTINUOUS
10
104.7393869999999936
20
-74.25
11
104.8999999999999915
21
-74.25
0
LINE
8
BLACK
6
CONTINUOUS
10
104.8999999999999915
20
-74.25
11
104.8999999999999915
21
-74.2000000000000028
0
LINE
8
BLACK
6
CONTINUOUS
10
104.8999999999999915
20
-74.2000000000000028
11
105.4499999999999886
21
-74.2000000000000028
0
LINE
8
BLACK
6
CONTINUOUS
10
105.4499999999999886
20
-74.2000000000000028
11
105.4499999999999886
21
-74.5
0
LINE
8
BLACK
6
CONTINUOUS
10
106.0499999999999972
20
-75.7749999999999915
11
105.75
21
-75.7749999999999915
0
LINE
8
BLACK
6
CONTINUOUS
10
105.75
20
-75.7749999999999915
11
105.75
21
-75.2249999999999943
0
LINE
8
BLACK
6
CONTINUOUS
10
105.75
20
-75.2249999999999943
11
106.0499999999999972
21
-75.2249999999999943
0
LINE
8
BLACK
6
CONTINUOUS
10
106.0499999999999972
20
-75.2249999999999943
11
106.0499999999999972
21
-75.7749999999999915
0
LINE
8
BLACK
6
CONTINUOUS
10
106.6499999999999915
20
-75.7749999999999915
11
106.3499999999999943
21
-75.7749999999999915
0
LINE
8
BLACK
6
CONTINUOUS
10
106.3499999999999943
20
-75.7749999999999915
11
106.3499999999999943
21
-75.2249999999999943
0
LINE
8
BLACK
6
CONTINUOUS
10
106.3499999999999943
20
-75.2249999999999943
11
106.6499999999999915
21
-75.2249999999999943
0
LINE
8
BLACK
6
CONTINUOUS
10
106.6499999999999915
20
-75.2249999999999943
11
106.6499999999999915
21
-75.7749999999999915
0
LINE
8
BLACK
6
CONTINUOUS
10
107.25
20
-75.7749999999999915
11
106.9499999999999886
21
-75.7749999999999915
0
LINE
8
BLACK
6
CONTINUOUS
10
106.9499999999999886
20
-75.7749999999999915
11
106.9499999999999886
21
-75.2249999999999943
0
LINE
8
BLACK
6
CONTINUOUS
10
106.9499999999999886
20
-75.2249999999999943
11
107.25
21
-75.2249999999999943
0
LINE
8
BLACK
6
CONTINUOUS
10
107.25
20
-75.2249999999999943
11
107.25
21
-75.7749999999999915
0
LINE
8
BLACK
6
CONTINUOUS
10
107.8499999999999943
20
-75.7749999999999915
11
107.5499999999999972
21
-75.7749999999999915
0
LINE
8
BLACK
6
CONTINUOUS
10
107.5499999999999972
20
-75.7749999999999915
11
107.5499999999999972
21
-75.2249999999999943
0
LINE
8
BLACK
6
CONTINUOUS
10
107.5499999999999972
20
-75.2249999999999943
11
107.8499999999999943
21
-75.2249999999999943
0
LINE
8
BLACK
6
CONTINUOUS
10
107.8499999999999943
20
-75.2249999999999943
11
107.8499999999999943
21
-75.7749999999999915
0
LINE
8
BLACK
6
CONTINUOUS
10
108.4499999999999886
20
-75.7749999999999915
11
108.1499999999999915
21
-75.7749999999999915
0
LINE
8
BLACK
6
CONTINUOUS
10
108.1499999999999915
20
-75.7749999999999915
11
108.1499999999999915
21
-75.2249999999999943
0
LINE
8
BLACK
6
CONTINUOUS
10
108.1499999999999915
20
-75.2249999999999943
11
108.4499999999999886
21
-75.2249999999999943
0
LINE
8
BLACK
6
CONTINUOUS
10
108.4499999999999886
20
-75.2249999999999943
11
108.4499999999999886
21
-75.7749999999999915
0
LINE
8
BLACK
6
CONTINUOUS
10
103.0557419999999951
20
-75.3380219999999952
11
103.0963899999999995
21
-75.3786699999999996
0
LINE
8
BLACK
6
CONTINUOUS
10
103.0963899999999995
20
-75.3786699999999996
11
103.1183889999999934
21
-75.4317800000000034
0
LINE
8
BLACK
6
CONTINUOUS
10
103.1183889999999934
20
-75.4317800000000034
11
103.1183889999999934
21
-75.4892660000000006
0
LINE
8
BLACK
6
CONTINUOUS
10
103.1183889999999934
20
-75.4892660000000006
11
103.0963899999999995
21
-75.5423759999999902
0
LINE
8
BLACK
6
CONTINUOUS
10
103.0963899999999995
20
-75.5423759999999902
11
103.0557419999999951
21
-75.5830239999999947
0
LINE
8
BLACK
6
CONTINUOUS
10
103.0557419999999951
20
-75.5830239999999947
11
103.0026319999999913
21
-75.6050230000000028
0
LINE
8
BLACK
6
CONTINUOUS
10
103.0026319999999913
20
-75.6050230000000028
11
102.945145999999994
21
-75.6050230000000028
0
LINE
8
BLACK
6
CONTINUOUS
10
102.945145999999994
20
-75.6050230000000028
11
102.8920359999999903
21
-75.5830239999999947
0
LINE
8
BLACK
6
CONTINUOUS
10
102.8920359999999903
20
-75.5830239999999947
11
102.851388
21
-75.5423759999999902
0
LINE
8
BLACK
6
CONTINUOUS
10
102.851388
20
-75.5423759999999902
11
102.8293889999999919
21
-75.4892660000000006
0
LINE
8
BLACK
6
CONTINUOUS
10
102.8293889999999919
20
-75.4892660000000006
11
102.8293889999999919
21
-75.4317800000000034
0
LINE
8
BLACK
6
CONTINUOUS
10
102.8293889999999919
20
-75.4317800000000034
11
102.851388
21
-75.3786699999999996
0
LINE
8
BLACK
6
CONTINUOUS
10
102.851388
20
-75.3786699999999996
11
102.8920359999999903
21
-75.3380219999999952
0
LINE
8
BLACK
6
CONTINUOUS
10
102.8920359999999903
20
-75.3380219999999952
11
102.945145999999994
21
-75.3160230000000013
0
LINE
8
BLACK
6
CONTINUOUS
10
102.945145999999994
20
-75.3160230000000013
11
103.0026319999999913
21
-75.3160230000000013
0
LINE
8
BLACK
6
CONTINUOUS
10
103.0026319999999913
20
-75.3160230000000013
11
103.0557419999999951
21
-75.3380219999999952
0
LINE
8
BLACK
6
CONTINUOUS
10
105.4499999999999886
20
-75.0999999999999943
11
104.8999999999999915
21
-75.0999999999999943
0
LINE
8
BLACK
6
CONTINUOUS
10
104.8999999999999915
20
-75.0999999999999943
11
104.8999999999999915
21
-74.7999999999999972
0
LINE
8
BLACK
6
CONTINUOUS
10
104.8999999999999915
20
-74.7999999999999972
11
105.4499999999999886
21
-74.7999999999999972
0
LINE
8
BLACK
6
CONTINUOUS
10
105.4499999999999886
20
-74.7999999999999972
11
105.4499999999999886
21
-75.0999999999999943
0
LINE
8
BLACK
6
CONTINUOUS
10
108.6500029999999981
20
-74.5379190000000023
11
108.7120809999999977
21
-74.5999970000000019
0
LINE
8
BLACK
6
CONTINUOUS
10
108.7120809999999977
20
-74.5999970000000019
11
108.7456770000000006
21
-74.6811050000000023
0
LINE
8
BLACK
6
CONTINUOUS
10
108.7456770000000006
20
-74.6811050000000023
11
108.7456770000000006
21
-74.7688950000000006
0
LINE
8
BLACK
6
CONTINUOUS
10
108.7456770000000006
20
-74.7688950000000006
11
108.7120809999999977
21
-74.850003000000001
0
LINE
8
BLACK
6
CONTINUOUS
10
108.7120809999999977
20
-74.850003000000001
11
108.6500029999999981
21
-74.9120810000000006
0
LINE
8
BLACK
6
CONTINUOUS
10
108.6500029999999981
20
-74.9120810000000006
11
108.5688949999999977
21
-74.9456770000000034
0
LINE
8
BLACK
6
CONTINUOUS
10
108.5688949999999977
20
-74.9456770000000034
11
108.4811049999999994
21
-74.9456770000000034
0
LINE
8
BLACK
6
CONTINUOUS
10
108.4811049999999994
20
-74.9456770000000034
11
108.399996999999999
21
-74.9120810000000006
0
LINE
8
BLACK
6
CONTINUOUS
10
108.399996999999999
20
-74.9120810000000006
11
108.3379189999999994
21
-74.850003000000001
0
LINE
8
BLACK
6
CONTINUOUS
10
108.3379189999999994
20
-74.850003000000001
11
108.3043229999999966
21
-74.7688950000000006
0
LINE
8
BLACK
6
CONTINUOUS
10
108.3043229999999966
20
-74.7688950000000006
11
108.3043229999999966
21
-74.6811050000000023
0
LINE
8
BLACK
6
CONTINUOUS
10
108.3043229999999966
20
-74.6811050000000023
11
108.3379189999999994
21
-74.5999970000000019
0
LINE
8
BLACK
6
CONTINUOUS
10
108.3379189999999994
20
-74.5999970000000019
11
108.399996999999999
21
-74.5379190000000023
0
LINE
8
BLACK
6
CONTINUOUS
10
108.399996999999999
20
-74.5379190000000023
11
108.4811049999999994
21
-74.5043229999999994
0
LINE
8
BLACK
6
CONTINUOUS
10
108.4811049999999994
20
-74.5043229999999994
11
108.5688949999999977
21
-74.5043229999999994
0
LINE
8
BLACK
6
CONTINUOUS
10
108.5688949999999977
20
-74.5043229999999994
11
108.6500029999999981
21
-74.5379190000000023
0
LINE
8
BLACK
6
CONTINUOUS
10
109.5500029999999896
20
-74.5379190000000023
11
109.6120809999999892
21
-74.5999970000000019
0
LINE
8
BLACK
6
CONTINUOUS
10
109.6120809999999892
20
-74.5999970000000019
11
109.6456769999999921
21
-74.6811050000000023
0
LINE
8
BLACK
6
CONTINUOUS
10
109.6456769999999921
20
-74.6811050000000023
11
109.6456769999999921
21
-74.7688950000000006
0
LINE
8
BLACK
6
CONTINUOUS
10
109.6456769999999921
20
-74.7688950000000006
11
109.6120809999999892
21
-74.850003000000001
0
LINE
8
BLACK
6
CONTINUOUS
10
109.6120809999999892
20
-74.850003000000001
11
109.5500029999999896
21
-74.9120810000000006
0
LINE
8
BLACK
6
CONTINUOUS
10
109.5500029999999896
20
-74.9120810000000006
11
109.4688949999999892
21
-74.9456770000000034
0
LINE
8
BLACK
6
CONTINUOUS
10
109.4688949999999892
20
-74.9456770000000034
11
109.3811049999999909
21
-74.9456770000000034
0
LINE
8
BLACK
6
CONTINUOUS
10
109.3811049999999909
20
-74.9456770000000034
11
109.2999969999999905
21
-74.9120810000000006
0
LINE
8
BLACK
6
CONTINUOUS
10
109.2999969999999905
20
-74.9120810000000006
11
109.2379189999999909
21
-74.850003000000001
0
LINE
8
BLACK
6
CONTINUOUS
10
109.2379189999999909
20
-74.850003000000001
11
109.204322999999988
21
-74.7688950000000006
0
LINE
8
BLACK
6
CONTINUOUS
10
109.204322999999988
20
-74.7688950000000006
11
109.204322999999988
21
-74.6811050000000023
0
LINE
8
BLACK
6
CONTINUOUS
10
109.204322999999988
20
-74.6811050000000023
11
109.2379189999999909
21
-74.5999970000000019
0
LINE
8
BLACK
6
CONTINUOUS
10
109.2379189999999909
20
-74.5999970000000019
11
109.2999969999999905
21
-74.5379190000000023
0
LINE
8
BLACK
6
CONTINUOUS
10
109.2999969999999905
20
-74.5379190000000023
11
109.3811049999999909
21
-74.5043229999999994
0
LINE
8
BLACK
6
CONTINUOUS
10
109.3811049999999909
20
-74.5043229999999994
11
109.4688949999999892
21
-74.5043229999999994
0
LINE
8
BLACK
6
CONTINUOUS
10
109.4688949999999892
20
-74.5043229999999994
11
109.5500029999999896
21
-74.5379190000000023
0
LINE
8
BLACK
6
CONTINUOUS
10
106.2999999999999972
20
-74.7999999999999972
11
105.75
21
-74.7999999999999972
0
LINE
8
BLACK
6
CONTINUOUS
10
105.75
20
-74.7999999999999972
11
105.75
21
-74.5
0
LINE
8
BLACK
6
CONTINUOUS
10
105.75
20
-74.5
11
106.2999999999999972
21
-74.5
0
LINE
8
BLACK
6
CONTINUOUS
10
106.2999999999999972
20
-74.5
11
106.2999999999999972
21
-74.7999999999999972
0
LINE
8
BLACK
6
CONTINUOUS
10
106.2999999999999972
20
-74.2000000000000028
11
105.75
21
-74.2000000000000028
0
LINE
8
BLACK
6
CONTINUOUS
10
105.75
20
-74.2000000000000028
11
105.75
21
-73.8999999999999915
0
LINE
8
BLACK
6
CONTINUOUS
10
105.75
20
-73.8999999999999915
11
106.2999999999999972
21
-73.8999999999999915
0
LINE
8
BLACK
6
CONTINUOUS
10
106.2999999999999972
20
-73.8999999999999915
11
106.2999999999999972
21
-74.2000000000000028
0
LINE
8
BLACK
6
CONTINUOUS
10
108.6500029999999981
20
-73.7879190000000023
11
108.7120809999999977
21
-73.8499970000000019
0
LINE
8
BLACK
6
CONTINUOUS
10
108.7120809999999977
20
-73.8499970000000019
11
108.7456770000000006
21
-73.9311050000000023
0
LINE
8
BLACK
6
CONTINUOUS
10
108.7456770000000006
20
-73.9311050000000023
11
108.7456770000000006
21
-74.0188950000000006
0
LINE
8
BLACK
6
CONTINUOUS
10
108.7456770000000006
20
-74.0188950000000006
11
108.7120809999999977
21
-74.100003000000001
0
LINE
8
BLACK
6
CONTINUOUS
10
108.7120809999999977
20
-74.100003000000001
11
108.6500029999999981
21
-74.1620810000000006
0
LINE
8
BLACK
6
CONTINUOUS
10
108.6500029999999981
20
-74.1620810000000006
11
108.5688949999999977
21
-74.1956770000000034
0
LINE
8
BLACK
6
CONTINUOUS
10
108.5688949999999977
20
-74.1956770000000034
11
108.4811049999999994
21
-74.1956770000000034
0
LINE
8
BLACK
6
CONTINUOUS
10
108.4811049999999994
20
-74.1956770000000034
11
108.399996999999999
21
-74.1620810000000006
0
LINE
8
BLACK
6
CONTINUOUS
10
108.399996999999999
20
-74.1620810000000006
11
108.3379189999999994
21
-74.100003000000001
0
LINE
8
BLACK
6
CONTINUOUS
10
108.3379189999999994
20
-74.100003000000001
11
108.3043229999999966
21
-74.0188950000000006
0
LINE
8
BLACK
6
CONTINUOUS
10
108.3043229999999966
20
-74.0188950000000006
11
108.3043229999999966
21
-73.9311050000000023
0
LINE
8
BLACK
6
CONTINUOUS
10
108.3043229999999966
20
-73.9311050000000023
11
108.3379189999999994
21
-73.8499970000000019
0
LINE
8
BLACK
6
CONTINUOUS
10
108.3379189999999994
20
-73.8499970000000019
11
108.399996999999999
21
-73.7879190000000023
0
LINE
8
BLACK
6
CONTINUOUS
10
108.399996999999999
20
-73.7879190000000023
11
108.4811049999999994
21
-73.7543229999999994
0
LINE
8
BLACK
6
CONTINUOUS
10
108.4811049999999994
20
-73.7543229999999994
11
108.5688949999999977
21
-73.7543229999999994
0
LINE
8
BLACK
6
CONTINUOUS
10
108.5688949999999977
20
-73.7543229999999994
11
108.6500029999999981
21
-73.7879190000000023
0
LINE
8
BLACK
6
CONTINUOUS
10
109.5500029999999896
20
-73.7879190000000023
11
109.6120809999999892
21
-73.8499970000000019
0
LINE
8
BLACK
6
CONTINUOUS
10
109.6120809999999892
20
-73.8499970000000019
11
109.6456769999999921
21
-73.9311050000000023
0
LINE
8
BLACK
6
CONTINUOUS
10
109.6456769999999921
20
-73.9311050000000023
11
109.6456769999999921
21
-74.0188950000000006
0
LINE
8
BLACK
6
CONTINUOUS
10
109.6456769999999921
20
-74.0188950000000006
11
109.6120809999999892
21
-74.100003000000001
0
LINE
8
BLACK
6
CONTINUOUS
10
109.6120809999999892
20
-74.100003000000001
11
109.5500029999999896
21
-74.1620810000000006
0
LINE
8
BLACK
6
CONTINUOUS
10
109.5500029999999896
20
-74.1620810000000006
11
109.4688949999999892
21
-74.1956770000000034
0
LINE
8
BLACK
6
CONTINUOUS
10
109.4688949999999892
20
-74.1956770000000034
11
109.3811049999999909
21
-74.1956770000000034
0
LINE
8
BLACK
6
CONTINUOUS
10
109.3811049999999909
20
-74.1956770000000034
11
109.2999969999999905
21
-74.1620810000000006
0
LINE
8
BLACK
6
CONTINUOUS
10
109.2999969999999905
20
-74.1620810000000006
11
109.2379189999999909
21
-74.100003000000001
0
LINE
8
BLACK
6
CONTINUOUS
10
109.2379189999999909
20
-74.100003000000001
11
109.204322999999988
21
-74.0188950000000006
0
LINE
8
BLACK
6
CONTINUOUS
10
109.204322999999988
20
-74.0188950000000006
11
109.204322999999988
21
-73.9311050000000023
0
LINE
8
BLACK
6
CONTINUOUS
10
109.204322999999988
20
-73.9311050000000023
11
109.2379189999999909
21
-73.8499970000000019
0
LINE
8
BLACK
6
CONTINUOUS
10
109.2379189999999909
20
-73.8499970000000019
11
109.2999969999999905
21
-73.7879190000000023
0
LINE
8
BLACK
6
CONTINUOUS
10
109.2999969999999905
20
-73.7879190000000023
11
109.3811049999999909
21
-73.7543229999999994
0
LINE
8
BLACK
6
CONTINUOUS
10
109.3811049999999909
20
-73.7543229999999994
11
109.4688949999999892
21
-73.7543229999999994
0
LINE
8
BLACK
6
CONTINUOUS
10
109.4688949999999892
20
-73.7543229999999994
11
109.5500029999999896
21
-73.7879190000000023
0
LINE
8
BLACK
6
CONTINUOUS
10
103.3996949999999941
20
-71.9366619999999983
11
103.1510839999999973
21
-71.9366619999999983
0
LINE
8
BLACK
6
CONTINUOUS
10
103.1510839999999973
20
-71.9366619999999983
11
104.1721749999999957
21
-72.9577539999999942
0
LINE
8
BLACK
6
CONTINUOUS
10
104.1721749999999957
20
-72.9577539999999942
11
104.1721749999999957
21
-72.3362359999999995
0
LINE
8
BLACK
6
CONTINUOUS
10
104.1721749999999957
20
-72.3362359999999995
11
104.1745769999999993
21
-72.3118499999999926
0
LINE
8
BLACK
6
CONTINUOUS
10
104.1745769999999993
20
-72.3118499999999926
11
104.1932410000000004
21
-72.2667900000000003
0
LINE
8
BLACK
6
CONTINUOUS
10
104.1932410000000004
20
-72.2667900000000003
11
104.2277289999999965
21
-72.23230199999999
0
LINE
8
BLACK
6
CONTINUOUS
10
104.2277289999999965
20
-72.23230199999999
11
104.2727889999999888
21
-72.2136380000000031
0
LINE
8
BLACK
6
CONTINUOUS
10
104.2727889999999888
20
-72.2136380000000031
11
104.2971749999999957
21
-72.2112359999999995
0
LINE
8
BLACK
6
CONTINUOUS
10
104.2971749999999957
20
-72.2112359999999995
11
104.6766959999999926
21
-72.2112359999999995
0
LINE
8
BLACK
6
CONTINUOUS
10
104.6766959999999926
20
-72.2112359999999995
11
104.7010819999999995
21
-72.2136380000000031
0
LINE
8
BLACK
6
CONTINUOUS
10
104.7010819999999995
20
-72.2136380000000031
11
104.7461419999999919
21
-72.23230199999999
0
LINE
8
BLACK
6
CONTINUOUS
10
104.7461419999999919
20
-72.23230199999999
11
104.7806300000000022
21
-72.2667900000000003
0
LINE
8
BLACK
6
CONTINUOUS
10
104.7806300000000022
20
-72.2667900000000003
11
104.7992939999999891
21
-72.3118499999999926
0
LINE
8
BLACK
6
CONTINUOUS
10
104.7992939999999891
20
-72.3118499999999926
11
104.7992939999999891
21
-72.3606219999999922
0
LINE
8
BLACK
6
CONTINUOUS
10
104.7992939999999891
20
-72.3606219999999922
11
104.7806300000000022
21
-72.4056819999999988
0
LINE
8
BLACK
6
CONTINUOUS
10
104.7806300000000022
20
-72.4056819999999988
11
104.7461419999999919
21
-72.4401699999999948
0
LINE
8
BLACK
6
CONTINUOUS
10
104.7461419999999919
20
-72.4401699999999948
11
104.7010819999999995
21
-72.458833999999996
0
LINE
8
BLACK
6
CONTINUOUS
10
104.7010819999999995
20
-72.458833999999996
11
104.6766959999999926
21
-72.4612359999999995
0
LINE
8
BLACK
6
CONTINUOUS
10
104.6766959999999926
20
-72.4612359999999995
11
104.4221749999999957
21
-72.4612359999999995
0
LINE
8
BLACK
6
CONTINUOUS
10
104.4221749999999957
20
-72.4612359999999995
11
104.4221749999999957
21
-73.1723989999999986
0
LINE
8
BLACK
6
CONTINUOUS
10
104.4221749999999957
20
-73.1723989999999986
11
104.4398959999999903
21
-73.1901199999999932
0
LINE
8
BLACK
6
CONTINUOUS
10
104.4398959999999903
20
-73.1901199999999932
11
104.4554409999999933
21
-73.209062000000003
0
LINE
8
BLACK
6
CONTINUOUS
10
104.4554409999999933
20
-73.209062000000003
11
104.4741059999999919
21
-73.2541219999999953
0
LINE
8
BLACK
6
CONTINUOUS
10
104.4741059999999919
20
-73.2541219999999953
11
104.4741059999999919
21
-73.2596839999999929
0
LINE
8
BLACK
6
CONTINUOUS
10
104.4741059999999919
20
-73.2596839999999929
11
104.8644219999999905
21
-73.6499999999999915
0
LINE
8
BLACK
6
CONTINUOUS
10
104.8644219999999905
20
-73.6499999999999915
11
104.8999999999999915
21
-73.6499999999999915
0
LINE
8
BLACK
6
CONTINUOUS
10
104.8999999999999915
20
-73.6499999999999915
11
104.8999999999999915
21
-73.5999999999999943
0
LINE
8
BLACK
6
CONTINUOUS
10
104.8999999999999915
20
-73.5999999999999943
11
105.4499999999999886
21
-73.5999999999999943
0
LINE
8
BLACK
6
CONTINUOUS
10
105.4499999999999886
20
-73.5999999999999943
11
105.4499999999999886
21
-73.8999999999999915
0
LINE
8
BLACK
6
CONTINUOUS
10
105.4499999999999886
20
-73.8999999999999915
11
104.8999999999999915
21
-73.8999999999999915
0
LINE
8
BLACK
6
CONTINUOUS
10
104.8999999999999915
20
-73.8999999999999915
11
104.8999999999999915
21
-73.8499999999999943
0
LINE
8
BLACK
6
CONTINUOUS
10
104.8999999999999915
20
-73.8499999999999943
11
104.8229999999999933
21
-73.8499999999999943
0
LINE
8
BLACK
6
CONTINUOUS
10
104.8229999999999933
20
-73.8499999999999943
11
104.803490999999994
21
-73.8480789999999985
0
LINE
8
BLACK
6
CONTINUOUS
10
104.803490999999994
20
-73.8480789999999985
11
104.7674430000000001
21
-73.8331479999999942
0
LINE
8
BLACK
6
CONTINUOUS
10
104.7674430000000001
20
-73.8331479999999942
11
104.7522900000000021
21
-73.8207110000000029
0
LINE
8
BLACK
6
CONTINUOUS
10
104.7522900000000021
20
-73.8207110000000029
11
104.3326840000000004
21
-73.4011069999999961
0
LINE
8
BLACK
6
CONTINUOUS
10
104.3326840000000004
20
-73.4011069999999961
11
104.3271209999999911
21
-73.4011069999999961
0
LINE
8
BLACK
6
CONTINUOUS
10
104.3271209999999911
20
-73.4011069999999961
11
104.2820609999999988
21
-73.3824419999999975
0
LINE
8
BLACK
6
CONTINUOUS
10
104.2820609999999988
20
-73.3824419999999975
11
104.263118999999989
21
-73.3668969999999945
0
LINE
8
BLACK
6
CONTINUOUS
10
104.263118999999989
20
-73.3668969999999945
11
104.2087870000000009
21
-73.3125639999999947
0
LINE
8
BLACK
6
CONTINUOUS
10
104.2087870000000009
20
-73.3125639999999947
11
104.193246000000002
21
-73.2936270000000007
0
LINE
8
BLACK
6
CONTINUOUS
10
104.193246000000002
20
-73.2936270000000007
11
104.1932410000000004
21
-73.2936219999999992
0
LINE
8
BLACK
6
CONTINUOUS
10
104.1932410000000004
20
-73.2936219999999992
11
104.1745769999999993
21
-73.2485619999999926
0
LINE
8
BLACK
6
CONTINUOUS
10
104.1745769999999993
20
-73.2485619999999926
11
104.1739689999999996
21
-73.2423909999999978
0
LINE
8
BLACK
6
CONTINUOUS
10
104.1739689999999996
20
-73.2423909999999978
11
102.9292889999999971
21
-71.9977109999999954
0
LINE
8
BLACK
6
CONTINUOUS
10
102.9292889999999971
20
-71.9977109999999954
11
102.916852999999989
21
-71.9825569999999999
0
LINE
8
BLACK
6
CONTINUOUS
10
102.916852999999989
20
-71.9825569999999999
11
102.9019210000000015
21
-71.9465089999999918
0
LINE
8
BLACK
6
CONTINUOUS
10
102.9019210000000015
20
-71.9465089999999918
11
102.9009509999999921
21
-71.9366619999999983
0
LINE
8
BLACK
6
CONTINUOUS
10
102.9009509999999921
20
-71.9366619999999983
11
101.3996949999999941
21
-71.9366619999999983
0
LINE
8
BLACK
6
CONTINUOUS
10
101.3996949999999941
20
-71.9366619999999983
11
101.3996949999999941
21
-69.9366619999999983
0
LINE
8
BLACK
6
CONTINUOUS
10
101.3996949999999941
20
-69.9366619999999983
11
103.3996949999999941
21
-69.9366619999999983
0
LINE
8
BLACK
6
CONTINUOUS
10
103.3996949999999941
20
-69.9366619999999983
11
103.3996949999999941
21
-71.9366619999999983
0
LINE
8
BLACK
6
CONTINUOUS
10
106.4344999999999999
20
-71.9366619999999983
11
106.
21
-71.9366619999999983
0
LINE
8
BLACK
6
CONTINUOUS
10
106.
20
-71.9366619999999983
11
106.
21
-72.9249999999999972
0
LINE
8
BLACK
6
CONTINUOUS
10
106.
20
-72.9249999999999972
11
106.0499999999999972
21
-72.9249999999999972
0
LINE
8
BLACK
6
CONTINUOUS
10
106.0499999999999972
20
-72.9249999999999972
11
106.0499999999999972
21
-73.4749999999999943
0
LINE
8
BLACK
6
CONTINUOUS
10
106.0499999999999972
20
-73.4749999999999943
11
105.75
21
-73.4749999999999943
0
LINE
8
BLACK
6
CONTINUOUS
10
105.75
20
-73.4749999999999943
11
105.75
21
-72.9249999999999972
0
LINE
8
BLACK
6
CONTINUOUS
10
105.75
20
-72.9249999999999972
11
105.7999999999999972
21
-72.9249999999999972
0
LINE
8
BLACK
6
CONTINUOUS
10
105.7999999999999972
20
-72.9249999999999972
11
105.7999999999999972
21
-71.9366619999999983
0
LINE
8
BLACK
6
CONTINUOUS
10
105.7999999999999972
20
-71.9366619999999983
11
104.4344999999999999
21
-71.9366619999999983
0
LINE
8
BLACK
6
CONTINUOUS
10
104.4344999999999999
20
-71.9366619999999983
11
104.4344999999999999
21
-69.9366619999999983
0
LINE
8
BLACK
6
CONTINUOUS
10
104.4344999999999999
20
-69.9366619999999983
11
106.4344999999999999
21
-69.9366619999999983
0
LINE
8
BLACK
6
CONTINUOUS
10
106.4344999999999999
20
-69.9366619999999983
11
106.4344999999999999
21
-71.9366619999999983
0
LINE
8
BLACK
6
CONTINUOUS
10
109.4256389999999897
20
-71.9366619999999983
11
107.5670609999999954
21
-71.9366619999999983
0
LINE
8
BLACK
6
CONTINUOUS
10
107.5670609999999954
20
-71.9366619999999983
11
106.5999999999999943
21
-72.9037229999999994
0
LINE
8
BLACK
6
CONTINUOUS
10
106.5999999999999943
20
-72.9037229999999994
11
106.5999999999999943
21
-72.9249999999999972
0
LINE
8
BLACK
6
CONTINUOUS
10
106.5999999999999943
20
-72.9249999999999972
11
106.6499999999999915
21
-72.9249999999999972
0
LINE
8
BLACK
6
CONTINUOUS
10
106.6499999999999915
20
-72.9249999999999972
11
106.6499999999999915
21
-73.4749999999999943
0
LINE
8
BLACK
6
CONTINUOUS
10
106.6499999999999915
20
-73.4749999999999943
11
106.3499999999999943
21
-73.4749999999999943
0
LINE
8
BLACK
6
CONTINUOUS
10
106.3499999999999943
20
-73.4749999999999943
11
106.3499999999999943
21
-72.9249999999999972
0
LINE
8
BLACK
6
CONTINUOUS
10
106.3499999999999943
20
-72.9249999999999972
11
106.3999999999999915
21
-72.9249999999999972
0
LINE
8
BLACK
6
CONTINUOUS
10
106.3999999999999915
20
-72.9249999999999972
11
106.3999999999999915
21
-72.8623010000000022
0
LINE
8
BLACK
6
CONTINUOUS
10
106.3999999999999915
20
-72.8623010000000022
11
106.4019210000000015
21
-72.8427920000000029
0
LINE
8
BLACK
6
CONTINUOUS
10
106.4019210000000015
20
-72.8427920000000029
11
106.416852999999989
21
-72.8067439999999948
0
LINE
8
BLACK
6
CONTINUOUS
10
106.416852999999989
20
-72.8067439999999948
11
106.4292889999999971
21
-72.7915899999999993
0
LINE
8
BLACK
6
CONTINUOUS
10
106.4292889999999971
20
-72.7915899999999993
11
107.4256389999999897
21
-71.7952399999999926
0
LINE
8
BLACK
6
CONTINUOUS
10
107.4256389999999897
20
-71.7952399999999926
11
107.4256389999999897
21
-69.9366619999999983
0
LINE
8
BLACK
6
CONTINUOUS
10
107.4256389999999897
20
-69.9366619999999983
11
109.4256389999999897
21
-69.9366619999999983
0
LINE
8
BLACK
6
CONTINUOUS
10
109.4256389999999897
20
-69.9366619999999983
11
109.4256389999999897
21
-71.9366619999999983
0
LINE
8
BLACK
6
CONTINUOUS
10
107.25
20
-73.4749999999999943
11
106.9499999999999886
21
-73.4749999999999943
0
LINE
8
BLACK
6
CONTINUOUS
10
106.9499999999999886
20
-73.4749999999999943
11
106.9499999999999886
21
-72.9249999999999972
0
LINE
8
BLACK
6
CONTINUOUS
10
106.9499999999999886
20
-72.9249999999999972
11
107.25
21
-72.9249999999999972
0
LINE
8
BLACK
6
CONTINUOUS
10
107.25
20
-72.9249999999999972
11
107.25
21
-73.4749999999999943
0
LINE
8
BLACK
6
CONTINUOUS
10
107.8499999999999943
20
-73.4749999999999943
11
107.5499999999999972
21
-73.4749999999999943
0
LINE
8
BLACK
6
CONTINUOUS
10
107.5499999999999972
20
-73.4749999999999943
11
107.5499999999999972
21
-72.9249999999999972
0
LINE
8
BLACK
6
CONTINUOUS
10
107.5499999999999972
20
-72.9249999999999972
11
107.8499999999999943
21
-72.9249999999999972
0
LINE
8
BLACK
6
CONTINUOUS
10
107.8499999999999943
20
-72.9249999999999972
11
107.8499999999999943
21
-73.4749999999999943
0
LINE
8
BLACK
6
CONTINUOUS
10
110.0736299999999943
20
-72.3490999999999929
11
110.1186900000000009
21
-72.367763999999994
0
LINE
8
BLACK
6
CONTINUOUS
10
110.1186900000000009
20
-72.367763999999994
11
110.1531779999999969
21
-72.4022519999999901
0
LINE
8
BLACK
6
CONTINUOUS
10
110.1531779999999969
20
-72.4022519999999901
11
110.1718419999999981
21
-72.4473119999999966
0
LINE
8
BLACK
6
CONTINUOUS
10
110.1718419999999981
20
-72.4473119999999966
11
110.1718419999999981
21
-72.4960839999999962
0
LINE
8
BLACK
6
CONTINUOUS
10
110.1718419999999981
20
-72.4960839999999962
11
110.1531779999999969
21
-72.5411440000000027
0
LINE
8
BLACK
6
CONTINUOUS
10
110.1531779999999969
20
-72.5411440000000027
11
110.1186900000000009
21
-72.5756319999999988
0
LINE
8
BLACK
6
CONTINUOUS
10
110.1186900000000009
20
-72.5756319999999988
11
110.0736299999999943
21
-72.5942959999999999
0
LINE
8
BLACK
6
CONTINUOUS
10
110.0736299999999943
20
-72.5942959999999999
11
110.0492440000000016
21
-72.5966980000000035
0
LINE
8
BLACK
6
CONTINUOUS
10
110.0492440000000016
20
-72.5966980000000035
11
109.6210409999999911
21
-72.5966980000000035
0
LINE
8
BLACK
6
CONTINUOUS
10
109.6210409999999911
20
-72.5966980000000035
11
109.6225979999999964
21
-72.6004569999999916
0
LINE
8
BLACK
6
CONTINUOUS
10
109.6225979999999964
20
-72.6004569999999916
11
109.625
21
-72.6248429999999985
0
LINE
8
BLACK
6
CONTINUOUS
10
109.625
20
-72.6248429999999985
11
109.625
21
-72.9249999999999972
0
LINE
8
BLACK
6
CONTINUOUS
10
109.625
20
-72.9249999999999972
11
109.6499999999999915
21
-72.9249999999999972
0
LINE
8
BLACK
6
CONTINUOUS
10
109.6499999999999915
20
-72.9249999999999972
11
109.6499999999999915
21
-73.4749999999999943
0
LINE
8
BLACK
6
CONTINUOUS
10
109.6499999999999915
20
-73.4749999999999943
11
109.3499999999999943
21
-73.4749999999999943
0
LINE
8
BLACK
6
CONTINUOUS
10
109.3499999999999943
20
-73.4749999999999943
11
109.3499999999999943
21
-72.9249999999999972
0
LINE
8
BLACK
6
CONTINUOUS
10
109.3499999999999943
20
-72.9249999999999972
11
109.375
21
-72.9249999999999972
0
LINE
8
BLACK
6
CONTINUOUS
10
109.375
20
-72.9249999999999972
11
109.375
21
-72.6766190000000023
0
LINE
8
BLACK
6
CONTINUOUS
10
109.375
20
-72.6766190000000023
11
109.3233809999999977
21
-72.625
0
LINE
8
BLACK
6
CONTINUOUS
10
109.3233809999999977
20
-72.625
11
109.0517770000000013
21
-72.625
0
LINE
8
BLACK
6
CONTINUOUS
10
109.0517770000000013
20
-72.625
11
109.0249999999999915
21
-72.6517759999999981
0
LINE
8
BLACK
6
CONTINUOUS
10
109.0249999999999915
20
-72.6517759999999981
11
109.0249999999999915
21
-72.9249999999999972
0
LINE
8
BLACK
6
CONTINUOUS
10
109.0249999999999915
20
-72.9249999999999972
11
109.0499999999999972
21
-72.9249999999999972
0
LINE
8
BLACK
6
CONTINUOUS
10
109.0499999999999972
20
-72.9249999999999972
11
109.0499999999999972
21
-73.4749999999999943
0
LINE
8
BLACK
6
CONTINUOUS
10
109.0499999999999972
20
-73.4749999999999943
11
108.75
21
-73.4749999999999943
0
LINE
8
BLACK
6
CONTINUOUS
10
108.75
20
-73.4749999999999943
11
108.75
21
-72.9249999999999972
0
LINE
8
BLACK
6
CONTINUOUS
10
108.75
20
-72.9249999999999972
11
108.7749999999999915
21
-72.9249999999999972
0
LINE
8
BLACK
6
CONTINUOUS
10
108.7749999999999915
20
-72.9249999999999972
11
108.7749999999999915
21
-72.5999999999999943
0
LINE
8
BLACK
6
CONTINUOUS
10
108.7749999999999915
20
-72.5999999999999943
11
108.777401999999995
21
-72.5756140000000016
0
LINE
8
BLACK
6
CONTINUOUS
10
108.777401999999995
20
-72.5756140000000016
11
108.7795279999999991
21
-72.5704819999999984
0
LINE
8
BLACK
6
CONTINUOUS
10
108.7795279999999991
20
-72.5704819999999984
11
108.7916799999999995
21
-72.5411440000000027
0
LINE
8
BLACK
6
CONTINUOUS
10
108.7916799999999995
20
-72.5411440000000027
11
108.7960659999999962
21
-72.5305539999999951
0
LINE
8
BLACK
6
CONTINUOUS
10
108.7960659999999962
20
-72.5305539999999951
11
108.7960709999999978
21
-72.530547999999996
0
LINE
8
BLACK
6
CONTINUOUS
10
108.7960709999999978
20
-72.530547999999996
11
108.8116119999999967
21
-72.5116119999999995
0
LINE
8
BLACK
6
CONTINUOUS
10
108.8116119999999967
20
-72.5116119999999995
11
108.9116109999999935
21
-72.411611999999991
0
LINE
8
BLACK
6
CONTINUOUS
10
108.9116109999999935
20
-72.411611999999991
11
108.9305529999999891
21
-72.3960670000000022
0
LINE
8
BLACK
6
CONTINUOUS
10
108.9305529999999891
20
-72.3960670000000022
11
108.9305540000000008
21
-72.3960659999999905
0
LINE
8
BLACK
6
CONTINUOUS
10
108.9305540000000008
20
-72.3960659999999905
11
108.9613499999999959
21
-72.3833099999999945
0
LINE
8
BLACK
6
CONTINUOUS
10
108.9613499999999959
20
-72.3833099999999945
11
108.9756129999999956
21
-72.3774020000000036
0
LINE
8
BLACK
6
CONTINUOUS
10
108.9756129999999956
20
-72.3774020000000036
11
108.9756139999999931
21
-72.3774020000000036
0
LINE
8
BLACK
6
CONTINUOUS
10
108.9756139999999931
20
-72.3774020000000036
11
109.
21
-72.375
0
LINE
8
BLACK
6
CONTINUOUS
10
109.
20
-72.375
11
109.3251969999999886
21
-72.375
0
LINE
8
BLACK
6
CONTINUOUS
10
109.3251969999999886
20
-72.375
11
109.3340069999999997
21
-72.3677689999999956
0
LINE
8
BLACK
6
CONTINUOUS
10
109.3340069999999997
20
-72.3677689999999956
11
109.3340129999999988
21
-72.367763999999994
0
LINE
8
BLACK
6
CONTINUOUS
10
109.3340129999999988
20
-72.367763999999994
11
109.3658739999999909
21
-72.3545659999999913
0
LINE
8
BLACK
6
CONTINUOUS
10
109.3658739999999909
20
-72.3545659999999913
11
109.3790719999999936
21
-72.3490999999999929
0
LINE
8
BLACK
6
CONTINUOUS
10
109.3790719999999936
20
-72.3490999999999929
11
109.3790729999999911
21
-72.3490999999999929
0
LINE
8
BLACK
6
CONTINUOUS
10
109.3790729999999911
20
-72.3490999999999929
11
109.403458999999998
21
-72.3466980000000035
0
LINE
8
BLACK
6
CONTINUOUS
10
109.403458999999998
20
-72.3466980000000035
11
110.0492440000000016
21
-72.3466980000000035
0
LINE
8
BLACK
6
CONTINUOUS
10
110.0492440000000016
20
-72.3466980000000035
11
110.0736299999999943
21
-72.3490999999999929
  0
ENDSEC
  0
EOF
